G04 EAGLE Gerber RS-274X export*
G75*
%MOMM*%
%FSLAX34Y34*%
%LPD*%
%INTop Copper*%
%IPPOS*%
%AMOC8*
5,1,8,0,0,1.08239X$1,22.5*%
G01*
%ADD10R,0.800000X1.200000*%
%ADD11C,1.879600*%
%ADD12R,1.200000X1.200000*%
%ADD13P,1.525737X8X202.500000*%
%ADD14R,1.200000X0.800000*%
%ADD15R,0.700000X1.500000*%
%ADD16R,1.000000X0.600000*%
%ADD17R,1.000000X0.800000*%
%ADD18R,1.600000X0.350000*%
%ADD19R,1.300000X1.300000*%
%ADD20R,2.000000X1.401600*%
%ADD21C,0.304800*%
%ADD22C,1.016000*%
%ADD23C,0.406400*%

G36*
X505962Y2544D02*
X505962Y2544D01*
X505988Y2542D01*
X506135Y2564D01*
X506282Y2581D01*
X506307Y2589D01*
X506333Y2593D01*
X506471Y2648D01*
X506610Y2698D01*
X506632Y2712D01*
X506657Y2722D01*
X506778Y2807D01*
X506903Y2887D01*
X506921Y2906D01*
X506943Y2921D01*
X507042Y3031D01*
X507145Y3138D01*
X507159Y3160D01*
X507176Y3180D01*
X507248Y3310D01*
X507324Y3437D01*
X507332Y3462D01*
X507345Y3485D01*
X507385Y3628D01*
X507430Y3769D01*
X507432Y3795D01*
X507440Y3820D01*
X507459Y4064D01*
X507459Y168317D01*
X507445Y168442D01*
X507438Y168568D01*
X507425Y168615D01*
X507419Y168663D01*
X507377Y168782D01*
X507342Y168903D01*
X507318Y168945D01*
X507302Y168991D01*
X507233Y169097D01*
X507172Y169207D01*
X507132Y169254D01*
X507113Y169284D01*
X507078Y169317D01*
X507013Y169394D01*
X459394Y217013D01*
X459295Y217092D01*
X459201Y217176D01*
X459159Y217200D01*
X459121Y217230D01*
X459007Y217284D01*
X458896Y217345D01*
X458849Y217358D01*
X458806Y217379D01*
X458682Y217405D01*
X458560Y217440D01*
X458500Y217445D01*
X458465Y217452D01*
X458417Y217451D01*
X458317Y217459D01*
X438593Y217459D01*
X438493Y217448D01*
X438393Y217446D01*
X438321Y217428D01*
X438247Y217419D01*
X438152Y217386D01*
X438055Y217361D01*
X437989Y217327D01*
X437919Y217302D01*
X437834Y217247D01*
X437745Y217201D01*
X437688Y217153D01*
X437626Y217113D01*
X437556Y217041D01*
X437479Y216976D01*
X437435Y216916D01*
X437384Y216862D01*
X437332Y216776D01*
X437272Y216695D01*
X437243Y216627D01*
X437205Y216563D01*
X437174Y216467D01*
X437134Y216375D01*
X437121Y216302D01*
X437099Y216231D01*
X437090Y216131D01*
X437073Y216032D01*
X437077Y215958D01*
X437071Y215884D01*
X437085Y215784D01*
X437091Y215684D01*
X437111Y215613D01*
X437122Y215539D01*
X437159Y215446D01*
X437187Y215349D01*
X437224Y215284D01*
X437251Y215215D01*
X437308Y215133D01*
X437357Y215045D01*
X437422Y214969D01*
X437450Y214929D01*
X437476Y214905D01*
X437516Y214859D01*
X438533Y213842D01*
X438533Y206158D01*
X437342Y204967D01*
X425658Y204967D01*
X424467Y206158D01*
X424467Y213842D01*
X425484Y214859D01*
X425547Y214938D01*
X425616Y215010D01*
X425655Y215074D01*
X425701Y215132D01*
X425744Y215223D01*
X425795Y215309D01*
X425818Y215380D01*
X425850Y215447D01*
X425871Y215545D01*
X425901Y215641D01*
X425907Y215715D01*
X425923Y215788D01*
X425921Y215888D01*
X425929Y215988D01*
X425918Y216062D01*
X425917Y216136D01*
X425893Y216233D01*
X425878Y216333D01*
X425850Y216402D01*
X425832Y216474D01*
X425786Y216563D01*
X425749Y216657D01*
X425707Y216718D01*
X425673Y216784D01*
X425607Y216860D01*
X425550Y216943D01*
X425495Y216993D01*
X425447Y217049D01*
X425366Y217109D01*
X425291Y217176D01*
X425226Y217212D01*
X425166Y217257D01*
X425074Y217296D01*
X424986Y217345D01*
X424915Y217365D01*
X424846Y217395D01*
X424748Y217412D01*
X424651Y217440D01*
X424551Y217448D01*
X424503Y217456D01*
X424468Y217454D01*
X424407Y217459D01*
X365593Y217459D01*
X365493Y217448D01*
X365393Y217446D01*
X365321Y217428D01*
X365247Y217419D01*
X365152Y217386D01*
X365055Y217361D01*
X364989Y217327D01*
X364919Y217302D01*
X364834Y217247D01*
X364745Y217201D01*
X364688Y217153D01*
X364626Y217113D01*
X364556Y217041D01*
X364479Y216976D01*
X364435Y216916D01*
X364384Y216862D01*
X364332Y216776D01*
X364272Y216695D01*
X364243Y216627D01*
X364205Y216563D01*
X364174Y216467D01*
X364134Y216375D01*
X364121Y216302D01*
X364099Y216231D01*
X364090Y216131D01*
X364073Y216032D01*
X364077Y215958D01*
X364071Y215884D01*
X364085Y215784D01*
X364091Y215684D01*
X364111Y215613D01*
X364122Y215539D01*
X364159Y215446D01*
X364187Y215349D01*
X364224Y215284D01*
X364251Y215215D01*
X364308Y215133D01*
X364357Y215045D01*
X364422Y214969D01*
X364450Y214929D01*
X364476Y214905D01*
X364516Y214859D01*
X365533Y213842D01*
X365533Y206158D01*
X364342Y204967D01*
X352658Y204967D01*
X351467Y206158D01*
X351467Y213842D01*
X352484Y214859D01*
X352547Y214938D01*
X352616Y215010D01*
X352655Y215074D01*
X352701Y215132D01*
X352744Y215223D01*
X352795Y215309D01*
X352818Y215380D01*
X352850Y215447D01*
X352871Y215545D01*
X352901Y215641D01*
X352907Y215715D01*
X352923Y215788D01*
X352921Y215888D01*
X352929Y215988D01*
X352918Y216062D01*
X352917Y216136D01*
X352893Y216233D01*
X352878Y216333D01*
X352850Y216402D01*
X352832Y216474D01*
X352786Y216563D01*
X352749Y216657D01*
X352707Y216718D01*
X352673Y216784D01*
X352607Y216860D01*
X352550Y216943D01*
X352495Y216993D01*
X352447Y217049D01*
X352366Y217109D01*
X352291Y217176D01*
X352226Y217212D01*
X352166Y217257D01*
X352074Y217296D01*
X351986Y217345D01*
X351915Y217365D01*
X351846Y217395D01*
X351748Y217412D01*
X351651Y217440D01*
X351551Y217448D01*
X351503Y217456D01*
X351468Y217454D01*
X351407Y217459D01*
X298593Y217459D01*
X298493Y217448D01*
X298393Y217446D01*
X298321Y217428D01*
X298247Y217419D01*
X298152Y217386D01*
X298055Y217361D01*
X297989Y217327D01*
X297919Y217302D01*
X297834Y217247D01*
X297745Y217201D01*
X297688Y217153D01*
X297626Y217113D01*
X297556Y217041D01*
X297479Y216976D01*
X297435Y216916D01*
X297384Y216862D01*
X297332Y216776D01*
X297272Y216695D01*
X297243Y216627D01*
X297205Y216563D01*
X297174Y216467D01*
X297134Y216375D01*
X297121Y216302D01*
X297099Y216231D01*
X297090Y216131D01*
X297073Y216032D01*
X297077Y215958D01*
X297071Y215884D01*
X297085Y215784D01*
X297091Y215684D01*
X297111Y215613D01*
X297122Y215539D01*
X297159Y215446D01*
X297187Y215349D01*
X297224Y215284D01*
X297251Y215215D01*
X297308Y215133D01*
X297357Y215045D01*
X297422Y214969D01*
X297450Y214929D01*
X297476Y214905D01*
X297516Y214859D01*
X298533Y213842D01*
X298533Y206158D01*
X297342Y204967D01*
X285658Y204967D01*
X284467Y206158D01*
X284467Y213842D01*
X285484Y214859D01*
X285547Y214938D01*
X285616Y215010D01*
X285655Y215074D01*
X285701Y215132D01*
X285744Y215223D01*
X285795Y215309D01*
X285818Y215380D01*
X285850Y215447D01*
X285871Y215545D01*
X285901Y215641D01*
X285907Y215715D01*
X285923Y215788D01*
X285921Y215888D01*
X285929Y215988D01*
X285918Y216062D01*
X285917Y216136D01*
X285893Y216233D01*
X285878Y216333D01*
X285850Y216402D01*
X285832Y216474D01*
X285786Y216563D01*
X285749Y216657D01*
X285707Y216718D01*
X285673Y216784D01*
X285607Y216860D01*
X285550Y216943D01*
X285495Y216993D01*
X285447Y217049D01*
X285366Y217109D01*
X285291Y217176D01*
X285226Y217212D01*
X285166Y217257D01*
X285074Y217296D01*
X284986Y217345D01*
X284915Y217365D01*
X284846Y217395D01*
X284748Y217412D01*
X284651Y217440D01*
X284551Y217448D01*
X284503Y217456D01*
X284468Y217454D01*
X284407Y217459D01*
X225593Y217459D01*
X225493Y217448D01*
X225393Y217446D01*
X225321Y217428D01*
X225247Y217419D01*
X225152Y217386D01*
X225055Y217361D01*
X224989Y217327D01*
X224919Y217302D01*
X224834Y217247D01*
X224745Y217201D01*
X224688Y217153D01*
X224626Y217113D01*
X224556Y217041D01*
X224479Y216976D01*
X224435Y216916D01*
X224384Y216862D01*
X224332Y216776D01*
X224272Y216695D01*
X224243Y216627D01*
X224205Y216563D01*
X224174Y216467D01*
X224134Y216375D01*
X224121Y216302D01*
X224099Y216231D01*
X224090Y216131D01*
X224073Y216032D01*
X224077Y215958D01*
X224071Y215884D01*
X224085Y215784D01*
X224091Y215684D01*
X224111Y215613D01*
X224122Y215539D01*
X224159Y215446D01*
X224187Y215349D01*
X224224Y215284D01*
X224251Y215215D01*
X224308Y215133D01*
X224357Y215045D01*
X224422Y214969D01*
X224450Y214929D01*
X224476Y214905D01*
X224516Y214859D01*
X225533Y213842D01*
X225533Y206158D01*
X224342Y204967D01*
X212658Y204967D01*
X211467Y206158D01*
X211467Y213842D01*
X212484Y214859D01*
X212547Y214938D01*
X212616Y215010D01*
X212655Y215074D01*
X212701Y215132D01*
X212744Y215223D01*
X212795Y215309D01*
X212818Y215380D01*
X212850Y215447D01*
X212871Y215545D01*
X212901Y215641D01*
X212907Y215715D01*
X212923Y215788D01*
X212921Y215888D01*
X212929Y215988D01*
X212918Y216062D01*
X212917Y216136D01*
X212893Y216233D01*
X212878Y216333D01*
X212850Y216402D01*
X212832Y216474D01*
X212786Y216563D01*
X212749Y216657D01*
X212707Y216718D01*
X212673Y216784D01*
X212607Y216860D01*
X212550Y216943D01*
X212495Y216993D01*
X212447Y217049D01*
X212366Y217109D01*
X212291Y217176D01*
X212226Y217212D01*
X212166Y217257D01*
X212074Y217296D01*
X211986Y217345D01*
X211915Y217365D01*
X211846Y217395D01*
X211748Y217412D01*
X211651Y217440D01*
X211551Y217448D01*
X211503Y217456D01*
X211468Y217454D01*
X211407Y217459D01*
X158593Y217459D01*
X158493Y217448D01*
X158393Y217446D01*
X158321Y217428D01*
X158247Y217419D01*
X158152Y217386D01*
X158055Y217361D01*
X157989Y217327D01*
X157919Y217302D01*
X157834Y217247D01*
X157745Y217201D01*
X157688Y217153D01*
X157626Y217113D01*
X157556Y217041D01*
X157479Y216976D01*
X157435Y216916D01*
X157384Y216862D01*
X157332Y216776D01*
X157272Y216695D01*
X157243Y216627D01*
X157205Y216563D01*
X157174Y216467D01*
X157134Y216375D01*
X157121Y216302D01*
X157099Y216231D01*
X157090Y216131D01*
X157073Y216032D01*
X157077Y215958D01*
X157071Y215884D01*
X157085Y215784D01*
X157091Y215684D01*
X157111Y215613D01*
X157122Y215539D01*
X157159Y215446D01*
X157187Y215349D01*
X157224Y215284D01*
X157251Y215215D01*
X157308Y215133D01*
X157357Y215045D01*
X157422Y214969D01*
X157450Y214929D01*
X157476Y214905D01*
X157516Y214859D01*
X158533Y213842D01*
X158533Y206158D01*
X157342Y204967D01*
X145658Y204967D01*
X144467Y206158D01*
X144467Y213842D01*
X145484Y214859D01*
X145547Y214938D01*
X145616Y215010D01*
X145655Y215074D01*
X145701Y215132D01*
X145744Y215223D01*
X145795Y215309D01*
X145818Y215380D01*
X145850Y215447D01*
X145871Y215545D01*
X145901Y215641D01*
X145907Y215715D01*
X145923Y215788D01*
X145921Y215888D01*
X145929Y215988D01*
X145918Y216062D01*
X145917Y216136D01*
X145893Y216233D01*
X145878Y216333D01*
X145850Y216402D01*
X145832Y216474D01*
X145786Y216563D01*
X145749Y216657D01*
X145707Y216718D01*
X145673Y216784D01*
X145607Y216860D01*
X145550Y216943D01*
X145495Y216993D01*
X145447Y217049D01*
X145366Y217109D01*
X145291Y217176D01*
X145226Y217212D01*
X145166Y217257D01*
X145074Y217296D01*
X144986Y217345D01*
X144915Y217365D01*
X144846Y217395D01*
X144748Y217412D01*
X144651Y217440D01*
X144551Y217448D01*
X144503Y217456D01*
X144468Y217454D01*
X144407Y217459D01*
X85593Y217459D01*
X85493Y217448D01*
X85393Y217446D01*
X85321Y217428D01*
X85247Y217419D01*
X85152Y217386D01*
X85055Y217361D01*
X84989Y217327D01*
X84919Y217302D01*
X84834Y217247D01*
X84745Y217201D01*
X84688Y217153D01*
X84626Y217113D01*
X84556Y217041D01*
X84479Y216976D01*
X84435Y216916D01*
X84384Y216862D01*
X84332Y216776D01*
X84272Y216695D01*
X84243Y216627D01*
X84205Y216563D01*
X84174Y216467D01*
X84134Y216375D01*
X84121Y216302D01*
X84099Y216231D01*
X84090Y216131D01*
X84073Y216032D01*
X84077Y215958D01*
X84071Y215884D01*
X84085Y215784D01*
X84091Y215684D01*
X84111Y215613D01*
X84122Y215539D01*
X84159Y215446D01*
X84187Y215349D01*
X84224Y215284D01*
X84251Y215215D01*
X84308Y215133D01*
X84357Y215045D01*
X84422Y214969D01*
X84450Y214929D01*
X84476Y214905D01*
X84516Y214859D01*
X85533Y213842D01*
X85533Y206158D01*
X84342Y204967D01*
X72658Y204967D01*
X71467Y206158D01*
X71467Y213842D01*
X72484Y214859D01*
X72547Y214938D01*
X72616Y215010D01*
X72655Y215074D01*
X72701Y215132D01*
X72744Y215223D01*
X72795Y215309D01*
X72818Y215380D01*
X72850Y215447D01*
X72871Y215545D01*
X72901Y215641D01*
X72907Y215715D01*
X72923Y215788D01*
X72921Y215888D01*
X72929Y215988D01*
X72918Y216062D01*
X72917Y216136D01*
X72893Y216233D01*
X72878Y216333D01*
X72850Y216402D01*
X72832Y216474D01*
X72786Y216563D01*
X72749Y216657D01*
X72707Y216718D01*
X72673Y216784D01*
X72607Y216860D01*
X72550Y216943D01*
X72495Y216993D01*
X72447Y217049D01*
X72366Y217109D01*
X72291Y217176D01*
X72226Y217212D01*
X72166Y217257D01*
X72074Y217296D01*
X71986Y217345D01*
X71915Y217365D01*
X71846Y217395D01*
X71748Y217412D01*
X71651Y217440D01*
X71551Y217448D01*
X71503Y217456D01*
X71468Y217454D01*
X71407Y217459D01*
X51683Y217459D01*
X51558Y217445D01*
X51432Y217438D01*
X51385Y217425D01*
X51337Y217419D01*
X51218Y217377D01*
X51097Y217342D01*
X51055Y217318D01*
X51009Y217302D01*
X50903Y217233D01*
X50793Y217172D01*
X50746Y217132D01*
X50716Y217113D01*
X50683Y217078D01*
X50606Y217013D01*
X2987Y169394D01*
X2908Y169295D01*
X2824Y169201D01*
X2800Y169159D01*
X2770Y169121D01*
X2716Y169007D01*
X2655Y168896D01*
X2642Y168849D01*
X2621Y168806D01*
X2595Y168682D01*
X2560Y168560D01*
X2555Y168500D01*
X2548Y168465D01*
X2549Y168417D01*
X2541Y168317D01*
X2541Y4064D01*
X2544Y4038D01*
X2542Y4012D01*
X2564Y3865D01*
X2581Y3718D01*
X2589Y3693D01*
X2593Y3667D01*
X2648Y3529D01*
X2698Y3390D01*
X2712Y3368D01*
X2722Y3343D01*
X2807Y3222D01*
X2887Y3097D01*
X2906Y3079D01*
X2921Y3057D01*
X3031Y2958D01*
X3138Y2855D01*
X3160Y2841D01*
X3180Y2824D01*
X3310Y2752D01*
X3437Y2676D01*
X3462Y2668D01*
X3485Y2655D01*
X3628Y2615D01*
X3769Y2570D01*
X3795Y2568D01*
X3820Y2560D01*
X4064Y2541D01*
X505936Y2541D01*
X505962Y2544D01*
G37*
%LPC*%
G36*
X303804Y8355D02*
X303804Y8355D01*
X302017Y8936D01*
X300343Y9789D01*
X298822Y10894D01*
X297494Y12222D01*
X296389Y13743D01*
X295536Y15417D01*
X295114Y16715D01*
X295048Y16859D01*
X294984Y17007D01*
X294975Y17019D01*
X294969Y17032D01*
X294872Y17158D01*
X294776Y17287D01*
X294765Y17296D01*
X294756Y17308D01*
X294632Y17409D01*
X294510Y17512D01*
X294497Y17518D01*
X294486Y17528D01*
X294341Y17598D01*
X294200Y17671D01*
X294186Y17674D01*
X294173Y17681D01*
X294016Y17716D01*
X293862Y17755D01*
X293847Y17755D01*
X293833Y17758D01*
X293673Y17757D01*
X293513Y17760D01*
X293499Y17757D01*
X293485Y17757D01*
X293329Y17720D01*
X293173Y17685D01*
X293160Y17679D01*
X293145Y17676D01*
X293001Y17604D01*
X292858Y17536D01*
X292847Y17527D01*
X292834Y17520D01*
X292710Y17417D01*
X292586Y17318D01*
X292577Y17307D01*
X292565Y17298D01*
X292469Y17171D01*
X292370Y17045D01*
X292362Y17029D01*
X292355Y17020D01*
X292339Y16985D01*
X292258Y16827D01*
X290890Y13525D01*
X287675Y10310D01*
X283474Y8569D01*
X278926Y8569D01*
X274725Y10310D01*
X271510Y13525D01*
X269907Y17393D01*
X269859Y17481D01*
X269818Y17573D01*
X269774Y17633D01*
X269738Y17698D01*
X269671Y17772D01*
X269611Y17853D01*
X269554Y17901D01*
X269504Y17956D01*
X269421Y18013D01*
X269345Y18078D01*
X269278Y18112D01*
X269217Y18154D01*
X269124Y18191D01*
X269034Y18237D01*
X268962Y18255D01*
X268893Y18282D01*
X268794Y18296D01*
X268696Y18321D01*
X268622Y18322D01*
X268548Y18333D01*
X268448Y18324D01*
X268348Y18326D01*
X268275Y18310D01*
X268201Y18304D01*
X268105Y18273D01*
X268007Y18251D01*
X267940Y18220D01*
X267869Y18197D01*
X267783Y18145D01*
X267692Y18102D01*
X267634Y18055D01*
X267571Y18017D01*
X267499Y17947D01*
X267420Y17884D01*
X267374Y17826D01*
X267321Y17774D01*
X267266Y17690D01*
X267204Y17611D01*
X267158Y17521D01*
X267132Y17481D01*
X267120Y17447D01*
X267093Y17393D01*
X265490Y13525D01*
X262275Y10310D01*
X258074Y8569D01*
X253526Y8569D01*
X249325Y10310D01*
X246110Y13525D01*
X244507Y17393D01*
X244459Y17481D01*
X244418Y17573D01*
X244374Y17633D01*
X244338Y17698D01*
X244271Y17772D01*
X244211Y17853D01*
X244154Y17901D01*
X244104Y17956D01*
X244021Y18013D01*
X243945Y18078D01*
X243878Y18112D01*
X243817Y18154D01*
X243724Y18191D01*
X243634Y18237D01*
X243562Y18255D01*
X243493Y18282D01*
X243394Y18296D01*
X243296Y18321D01*
X243222Y18322D01*
X243148Y18333D01*
X243048Y18324D01*
X242948Y18326D01*
X242875Y18310D01*
X242801Y18304D01*
X242705Y18273D01*
X242607Y18251D01*
X242540Y18220D01*
X242469Y18197D01*
X242383Y18145D01*
X242292Y18102D01*
X242234Y18055D01*
X242171Y18017D01*
X242099Y17947D01*
X242020Y17884D01*
X241974Y17826D01*
X241921Y17774D01*
X241866Y17690D01*
X241804Y17611D01*
X241758Y17521D01*
X241732Y17481D01*
X241720Y17447D01*
X241693Y17393D01*
X240090Y13525D01*
X236875Y10310D01*
X232674Y8569D01*
X228126Y8569D01*
X223925Y10310D01*
X220710Y13525D01*
X219107Y17393D01*
X219059Y17481D01*
X219018Y17573D01*
X218974Y17633D01*
X218938Y17698D01*
X218871Y17772D01*
X218811Y17853D01*
X218754Y17901D01*
X218704Y17956D01*
X218621Y18013D01*
X218545Y18078D01*
X218478Y18112D01*
X218417Y18154D01*
X218324Y18191D01*
X218234Y18237D01*
X218162Y18255D01*
X218093Y18282D01*
X217994Y18296D01*
X217896Y18321D01*
X217822Y18322D01*
X217748Y18333D01*
X217648Y18324D01*
X217548Y18326D01*
X217475Y18310D01*
X217401Y18304D01*
X217305Y18273D01*
X217207Y18251D01*
X217140Y18220D01*
X217069Y18197D01*
X216983Y18145D01*
X216892Y18102D01*
X216834Y18055D01*
X216771Y18017D01*
X216699Y17947D01*
X216620Y17884D01*
X216574Y17826D01*
X216521Y17774D01*
X216466Y17690D01*
X216404Y17611D01*
X216358Y17521D01*
X216332Y17481D01*
X216320Y17447D01*
X216293Y17393D01*
X214690Y13525D01*
X211475Y10310D01*
X207274Y8569D01*
X202726Y8569D01*
X198525Y10310D01*
X195310Y13525D01*
X193569Y17726D01*
X193569Y22274D01*
X195310Y26475D01*
X198525Y29690D01*
X199995Y30299D01*
X200062Y30337D01*
X200133Y30365D01*
X200214Y30421D01*
X200300Y30469D01*
X200356Y30520D01*
X200419Y30564D01*
X200485Y30637D01*
X200558Y30703D01*
X200601Y30766D01*
X200652Y30822D01*
X200700Y30909D01*
X200756Y30990D01*
X200784Y31061D01*
X200821Y31127D01*
X200848Y31222D01*
X200884Y31314D01*
X200895Y31389D01*
X200916Y31463D01*
X200928Y31612D01*
X200935Y31659D01*
X200933Y31678D01*
X200935Y31707D01*
X200935Y39412D01*
X200932Y39438D01*
X200934Y39464D01*
X200912Y39611D01*
X200895Y39758D01*
X200887Y39783D01*
X200883Y39809D01*
X200828Y39947D01*
X200778Y40086D01*
X200764Y40108D01*
X200754Y40133D01*
X200669Y40254D01*
X200589Y40379D01*
X200570Y40397D01*
X200555Y40419D01*
X200445Y40518D01*
X200338Y40621D01*
X200316Y40635D01*
X200296Y40652D01*
X200166Y40724D01*
X200039Y40800D01*
X200014Y40808D01*
X199991Y40821D01*
X199848Y40861D01*
X199707Y40906D01*
X199681Y40908D01*
X199656Y40916D01*
X199412Y40935D01*
X58316Y40935D01*
X32730Y66521D01*
X32631Y66600D01*
X32538Y66684D01*
X32495Y66708D01*
X32457Y66738D01*
X32343Y66792D01*
X32233Y66853D01*
X32186Y66866D01*
X32142Y66887D01*
X32019Y66913D01*
X31897Y66948D01*
X31836Y66953D01*
X31802Y66960D01*
X31754Y66959D01*
X31653Y66967D01*
X31158Y66967D01*
X29967Y68158D01*
X29967Y81842D01*
X31189Y83064D01*
X31266Y83073D01*
X31291Y83081D01*
X31317Y83085D01*
X31455Y83140D01*
X31594Y83190D01*
X31616Y83204D01*
X31641Y83214D01*
X31762Y83299D01*
X31887Y83379D01*
X31905Y83398D01*
X31927Y83413D01*
X32026Y83523D01*
X32129Y83630D01*
X32143Y83652D01*
X32160Y83672D01*
X32232Y83802D01*
X32308Y83929D01*
X32316Y83954D01*
X32329Y83977D01*
X32369Y84120D01*
X32414Y84261D01*
X32416Y84287D01*
X32424Y84312D01*
X32443Y84556D01*
X32443Y94996D01*
X32429Y95121D01*
X32422Y95248D01*
X32409Y95294D01*
X32403Y95342D01*
X32361Y95461D01*
X32326Y95582D01*
X32302Y95625D01*
X32286Y95670D01*
X32217Y95776D01*
X32156Y95887D01*
X32116Y95933D01*
X32097Y95963D01*
X32062Y95997D01*
X31997Y96073D01*
X23549Y104521D01*
X23450Y104600D01*
X23356Y104684D01*
X23314Y104708D01*
X23276Y104738D01*
X23162Y104792D01*
X23051Y104853D01*
X23004Y104866D01*
X22961Y104887D01*
X22837Y104913D01*
X22716Y104948D01*
X22655Y104953D01*
X22620Y104960D01*
X22572Y104959D01*
X22472Y104967D01*
X12258Y104967D01*
X11067Y106158D01*
X11067Y120842D01*
X12258Y122033D01*
X26942Y122033D01*
X28133Y120842D01*
X28133Y110628D01*
X28147Y110503D01*
X28154Y110376D01*
X28167Y110330D01*
X28173Y110282D01*
X28215Y110163D01*
X28250Y110042D01*
X28274Y109999D01*
X28290Y109954D01*
X28359Y109848D01*
X28420Y109737D01*
X28460Y109691D01*
X28479Y109661D01*
X28514Y109628D01*
X28579Y109551D01*
X39557Y98573D01*
X39557Y84556D01*
X39560Y84530D01*
X39558Y84504D01*
X39580Y84357D01*
X39597Y84210D01*
X39605Y84185D01*
X39609Y84159D01*
X39664Y84021D01*
X39714Y83882D01*
X39728Y83860D01*
X39738Y83835D01*
X39823Y83714D01*
X39903Y83589D01*
X39922Y83571D01*
X39937Y83549D01*
X40047Y83450D01*
X40154Y83347D01*
X40176Y83333D01*
X40196Y83316D01*
X40326Y83244D01*
X40453Y83168D01*
X40478Y83160D01*
X40501Y83147D01*
X40644Y83107D01*
X40785Y83062D01*
X40811Y83060D01*
X40817Y83058D01*
X42033Y81842D01*
X42033Y69347D01*
X42047Y69221D01*
X42054Y69095D01*
X42067Y69048D01*
X42073Y69000D01*
X42115Y68881D01*
X42150Y68760D01*
X42174Y68718D01*
X42190Y68672D01*
X42259Y68566D01*
X42320Y68456D01*
X42360Y68410D01*
X42379Y68380D01*
X42414Y68346D01*
X42479Y68270D01*
X61238Y49511D01*
X61337Y49432D01*
X61430Y49348D01*
X61473Y49324D01*
X61511Y49294D01*
X61625Y49240D01*
X61735Y49179D01*
X61782Y49166D01*
X61826Y49145D01*
X61949Y49119D01*
X62071Y49084D01*
X62132Y49079D01*
X62166Y49072D01*
X62214Y49073D01*
X62315Y49065D01*
X154920Y49065D01*
X154946Y49068D01*
X154972Y49066D01*
X155119Y49088D01*
X155266Y49105D01*
X155291Y49113D01*
X155317Y49117D01*
X155455Y49172D01*
X155594Y49222D01*
X155616Y49236D01*
X155641Y49246D01*
X155762Y49331D01*
X155887Y49411D01*
X155905Y49430D01*
X155927Y49445D01*
X156026Y49555D01*
X156129Y49662D01*
X156143Y49684D01*
X156160Y49704D01*
X156232Y49834D01*
X156308Y49961D01*
X156316Y49986D01*
X156329Y50009D01*
X156369Y50152D01*
X156414Y50293D01*
X156416Y50319D01*
X156424Y50344D01*
X156443Y50588D01*
X156443Y67896D01*
X156429Y68021D01*
X156422Y68148D01*
X156409Y68194D01*
X156403Y68242D01*
X156361Y68361D01*
X156326Y68482D01*
X156302Y68525D01*
X156286Y68570D01*
X156217Y68676D01*
X156156Y68787D01*
X156116Y68833D01*
X156097Y68863D01*
X156062Y68896D01*
X155997Y68973D01*
X144373Y80597D01*
X144274Y80676D01*
X144180Y80760D01*
X144138Y80784D01*
X144100Y80814D01*
X143986Y80868D01*
X143875Y80929D01*
X143828Y80942D01*
X143785Y80963D01*
X143661Y80989D01*
X143540Y81024D01*
X143479Y81029D01*
X143444Y81036D01*
X143396Y81035D01*
X143296Y81043D01*
X137616Y81043D01*
X137491Y81029D01*
X137365Y81022D01*
X137318Y81009D01*
X137270Y81003D01*
X137151Y80961D01*
X137030Y80926D01*
X136988Y80902D01*
X136942Y80886D01*
X136836Y80817D01*
X136725Y80756D01*
X136679Y80716D01*
X136649Y80697D01*
X136616Y80662D01*
X136539Y80597D01*
X131575Y75633D01*
X131513Y75555D01*
X131443Y75482D01*
X131405Y75418D01*
X131359Y75360D01*
X131316Y75269D01*
X131264Y75183D01*
X131241Y75112D01*
X131210Y75045D01*
X131188Y74947D01*
X131158Y74851D01*
X131152Y74777D01*
X131136Y74704D01*
X131138Y74604D01*
X131130Y74504D01*
X131141Y74430D01*
X131142Y74356D01*
X131167Y74259D01*
X131182Y74159D01*
X131209Y74090D01*
X131227Y74018D01*
X131273Y73928D01*
X131310Y73835D01*
X131353Y73774D01*
X131387Y73708D01*
X131452Y73631D01*
X131509Y73549D01*
X131564Y73499D01*
X131613Y73443D01*
X131693Y73383D01*
X131768Y73316D01*
X131833Y73280D01*
X131893Y73235D01*
X131985Y73196D01*
X132073Y73147D01*
X132145Y73127D01*
X132213Y73097D01*
X132291Y73083D01*
X133533Y71842D01*
X133533Y70080D01*
X133536Y70054D01*
X133534Y70028D01*
X133556Y69881D01*
X133573Y69734D01*
X133581Y69709D01*
X133585Y69683D01*
X133640Y69545D01*
X133690Y69406D01*
X133704Y69384D01*
X133714Y69359D01*
X133799Y69238D01*
X133879Y69113D01*
X133898Y69095D01*
X133913Y69073D01*
X134023Y68974D01*
X134130Y68871D01*
X134152Y68857D01*
X134172Y68840D01*
X134302Y68768D01*
X134429Y68692D01*
X134454Y68684D01*
X134477Y68671D01*
X134620Y68631D01*
X134761Y68586D01*
X134787Y68584D01*
X134812Y68576D01*
X135056Y68557D01*
X137867Y68557D01*
X137992Y68571D01*
X138119Y68578D01*
X138165Y68591D01*
X138213Y68597D01*
X138332Y68639D01*
X138454Y68674D01*
X138496Y68698D01*
X138541Y68714D01*
X138647Y68783D01*
X138758Y68844D01*
X138804Y68884D01*
X138834Y68903D01*
X138868Y68938D01*
X138944Y69003D01*
X140971Y71030D01*
X143585Y72113D01*
X146415Y72113D01*
X149029Y71030D01*
X151030Y69029D01*
X152113Y66415D01*
X152113Y63585D01*
X151030Y60971D01*
X149029Y58970D01*
X146415Y57887D01*
X143585Y57887D01*
X140971Y58970D01*
X138944Y60997D01*
X138845Y61076D01*
X138751Y61160D01*
X138709Y61184D01*
X138671Y61214D01*
X138557Y61268D01*
X138446Y61329D01*
X138400Y61342D01*
X138356Y61363D01*
X138232Y61389D01*
X138111Y61424D01*
X138050Y61429D01*
X138015Y61436D01*
X137967Y61435D01*
X137867Y61443D01*
X135056Y61443D01*
X135030Y61440D01*
X135004Y61442D01*
X134857Y61420D01*
X134710Y61403D01*
X134685Y61395D01*
X134659Y61391D01*
X134521Y61336D01*
X134382Y61286D01*
X134360Y61272D01*
X134335Y61262D01*
X134214Y61177D01*
X134089Y61097D01*
X134071Y61078D01*
X134049Y61063D01*
X133950Y60953D01*
X133847Y60846D01*
X133833Y60824D01*
X133816Y60804D01*
X133744Y60674D01*
X133668Y60547D01*
X133660Y60522D01*
X133647Y60499D01*
X133607Y60356D01*
X133562Y60215D01*
X133560Y60189D01*
X133552Y60164D01*
X133533Y59920D01*
X133533Y58158D01*
X132342Y56967D01*
X118658Y56967D01*
X117467Y58158D01*
X117467Y69260D01*
X117456Y69360D01*
X117454Y69460D01*
X117436Y69532D01*
X117427Y69606D01*
X117394Y69701D01*
X117369Y69798D01*
X117335Y69864D01*
X117310Y69934D01*
X117255Y70019D01*
X117209Y70108D01*
X117161Y70164D01*
X117121Y70227D01*
X117049Y70297D01*
X116984Y70373D01*
X116924Y70417D01*
X116870Y70469D01*
X116784Y70521D01*
X116703Y70580D01*
X116635Y70610D01*
X116571Y70648D01*
X116475Y70679D01*
X116383Y70718D01*
X116310Y70732D01*
X116239Y70754D01*
X116139Y70762D01*
X116040Y70780D01*
X115966Y70776D01*
X115892Y70782D01*
X115792Y70767D01*
X115692Y70762D01*
X115621Y70742D01*
X115547Y70731D01*
X115454Y70693D01*
X115357Y70666D01*
X115292Y70629D01*
X115223Y70602D01*
X115141Y70545D01*
X115053Y70495D01*
X114977Y70430D01*
X114937Y70403D01*
X114913Y70376D01*
X114867Y70337D01*
X112979Y68449D01*
X112900Y68350D01*
X112816Y68256D01*
X112792Y68214D01*
X112762Y68176D01*
X112708Y68062D01*
X112647Y67951D01*
X112634Y67904D01*
X112613Y67861D01*
X112587Y67737D01*
X112552Y67616D01*
X112547Y67555D01*
X112540Y67520D01*
X112541Y67472D01*
X112533Y67372D01*
X112533Y58158D01*
X111342Y56967D01*
X97658Y56967D01*
X96467Y58158D01*
X96467Y59920D01*
X96464Y59946D01*
X96466Y59972D01*
X96444Y60119D01*
X96427Y60266D01*
X96419Y60291D01*
X96415Y60317D01*
X96360Y60455D01*
X96310Y60594D01*
X96296Y60616D01*
X96286Y60641D01*
X96201Y60762D01*
X96121Y60887D01*
X96102Y60905D01*
X96087Y60927D01*
X95977Y61026D01*
X95870Y61129D01*
X95848Y61143D01*
X95828Y61160D01*
X95698Y61232D01*
X95571Y61308D01*
X95546Y61316D01*
X95523Y61329D01*
X95380Y61369D01*
X95239Y61414D01*
X95213Y61416D01*
X95188Y61424D01*
X94944Y61443D01*
X62527Y61443D01*
X57449Y66521D01*
X57350Y66600D01*
X57256Y66684D01*
X57214Y66708D01*
X57176Y66738D01*
X57062Y66792D01*
X56951Y66853D01*
X56904Y66866D01*
X56861Y66887D01*
X56737Y66913D01*
X56616Y66948D01*
X56555Y66953D01*
X56520Y66960D01*
X56472Y66959D01*
X56372Y66967D01*
X49158Y66967D01*
X47967Y68158D01*
X47967Y81842D01*
X49158Y83033D01*
X58842Y83033D01*
X60033Y81842D01*
X60033Y74628D01*
X60047Y74503D01*
X60054Y74376D01*
X60067Y74330D01*
X60073Y74282D01*
X60115Y74163D01*
X60150Y74042D01*
X60174Y73999D01*
X60190Y73954D01*
X60259Y73848D01*
X60320Y73737D01*
X60360Y73691D01*
X60379Y73661D01*
X60414Y73628D01*
X60479Y73551D01*
X65027Y69003D01*
X65126Y68924D01*
X65220Y68840D01*
X65262Y68816D01*
X65300Y68786D01*
X65414Y68732D01*
X65525Y68671D01*
X65572Y68658D01*
X65615Y68637D01*
X65739Y68611D01*
X65860Y68576D01*
X65921Y68571D01*
X65956Y68564D01*
X66004Y68565D01*
X66104Y68557D01*
X94944Y68557D01*
X94970Y68560D01*
X94996Y68558D01*
X95143Y68580D01*
X95290Y68597D01*
X95315Y68605D01*
X95341Y68609D01*
X95479Y68664D01*
X95618Y68714D01*
X95640Y68728D01*
X95665Y68738D01*
X95786Y68823D01*
X95911Y68903D01*
X95929Y68922D01*
X95951Y68937D01*
X96050Y69047D01*
X96153Y69154D01*
X96167Y69176D01*
X96184Y69196D01*
X96256Y69326D01*
X96332Y69453D01*
X96340Y69478D01*
X96353Y69501D01*
X96393Y69644D01*
X96438Y69785D01*
X96440Y69811D01*
X96448Y69836D01*
X96467Y70080D01*
X96467Y71842D01*
X97700Y73075D01*
X97788Y73106D01*
X97886Y73131D01*
X97952Y73165D01*
X98022Y73190D01*
X98106Y73245D01*
X98196Y73291D01*
X98252Y73339D01*
X98315Y73379D01*
X98385Y73451D01*
X98461Y73516D01*
X98505Y73576D01*
X98557Y73630D01*
X98609Y73716D01*
X98668Y73797D01*
X98698Y73865D01*
X98736Y73929D01*
X98767Y74025D01*
X98806Y74117D01*
X98819Y74190D01*
X98842Y74261D01*
X98850Y74361D01*
X98868Y74460D01*
X98864Y74534D01*
X98870Y74608D01*
X98855Y74708D01*
X98850Y74808D01*
X98829Y74879D01*
X98818Y74953D01*
X98781Y75046D01*
X98754Y75143D01*
X98717Y75208D01*
X98690Y75277D01*
X98632Y75359D01*
X98583Y75447D01*
X98518Y75523D01*
X98491Y75563D01*
X98464Y75587D01*
X98425Y75633D01*
X93061Y80997D01*
X92962Y81076D01*
X92868Y81160D01*
X92826Y81184D01*
X92788Y81214D01*
X92674Y81268D01*
X92563Y81329D01*
X92516Y81342D01*
X92473Y81363D01*
X92349Y81389D01*
X92227Y81424D01*
X92167Y81429D01*
X92132Y81436D01*
X92084Y81435D01*
X91984Y81443D01*
X73527Y81443D01*
X56443Y98527D01*
X56443Y136473D01*
X88497Y168527D01*
X88576Y168626D01*
X88660Y168720D01*
X88684Y168762D01*
X88714Y168800D01*
X88768Y168914D01*
X88829Y169025D01*
X88842Y169072D01*
X88863Y169115D01*
X88889Y169239D01*
X88924Y169360D01*
X88929Y169421D01*
X88936Y169456D01*
X88935Y169504D01*
X88943Y169604D01*
X88943Y171551D01*
X88929Y171677D01*
X88922Y171803D01*
X88909Y171849D01*
X88903Y171897D01*
X88861Y172016D01*
X88826Y172138D01*
X88802Y172180D01*
X88786Y172225D01*
X88717Y172332D01*
X88656Y172442D01*
X88616Y172488D01*
X88597Y172518D01*
X88562Y172552D01*
X88497Y172628D01*
X86967Y174158D01*
X86967Y181915D01*
X86956Y182015D01*
X86954Y182115D01*
X86936Y182187D01*
X86927Y182261D01*
X86894Y182356D01*
X86869Y182453D01*
X86835Y182519D01*
X86810Y182589D01*
X86755Y182674D01*
X86709Y182763D01*
X86661Y182820D01*
X86621Y182882D01*
X86549Y182952D01*
X86484Y183029D01*
X86424Y183073D01*
X86370Y183124D01*
X86284Y183176D01*
X86203Y183236D01*
X86135Y183265D01*
X86071Y183303D01*
X85976Y183334D01*
X85883Y183374D01*
X85810Y183387D01*
X85739Y183409D01*
X85639Y183418D01*
X85540Y183435D01*
X85466Y183431D01*
X85392Y183437D01*
X85293Y183423D01*
X85192Y183417D01*
X85121Y183397D01*
X85047Y183386D01*
X84954Y183349D01*
X84857Y183321D01*
X84792Y183285D01*
X84723Y183257D01*
X84641Y183200D01*
X84553Y183151D01*
X84477Y183086D01*
X84437Y183058D01*
X84413Y183032D01*
X84367Y182992D01*
X84342Y182967D01*
X72658Y182967D01*
X71467Y184158D01*
X71467Y193842D01*
X72658Y195033D01*
X84342Y195033D01*
X85533Y193842D01*
X85533Y193085D01*
X85544Y192985D01*
X85546Y192885D01*
X85564Y192813D01*
X85573Y192739D01*
X85606Y192644D01*
X85631Y192547D01*
X85665Y192481D01*
X85690Y192411D01*
X85745Y192326D01*
X85791Y192237D01*
X85839Y192180D01*
X85879Y192118D01*
X85951Y192048D01*
X86016Y191971D01*
X86076Y191927D01*
X86130Y191876D01*
X86216Y191824D01*
X86297Y191764D01*
X86365Y191735D01*
X86429Y191697D01*
X86524Y191666D01*
X86617Y191626D01*
X86690Y191613D01*
X86761Y191591D01*
X86861Y191582D01*
X86960Y191565D01*
X87034Y191569D01*
X87108Y191563D01*
X87207Y191577D01*
X87308Y191583D01*
X87379Y191603D01*
X87453Y191614D01*
X87546Y191651D01*
X87643Y191679D01*
X87708Y191715D01*
X87777Y191743D01*
X87859Y191800D01*
X87947Y191849D01*
X88023Y191914D01*
X88063Y191942D01*
X88087Y191968D01*
X88133Y192008D01*
X88158Y192033D01*
X94333Y192033D01*
X94432Y192044D01*
X94533Y192046D01*
X94605Y192064D01*
X94679Y192073D01*
X94773Y192106D01*
X94871Y192131D01*
X94937Y192165D01*
X95007Y192190D01*
X95091Y192245D01*
X95181Y192291D01*
X95237Y192339D01*
X95300Y192379D01*
X95370Y192451D01*
X95446Y192516D01*
X95490Y192576D01*
X95542Y192630D01*
X95594Y192716D01*
X95653Y192797D01*
X95683Y192865D01*
X95721Y192929D01*
X95752Y193025D01*
X95791Y193117D01*
X95804Y193190D01*
X95827Y193261D01*
X95835Y193361D01*
X95853Y193460D01*
X95849Y193534D01*
X95855Y193608D01*
X95840Y193708D01*
X95835Y193808D01*
X95814Y193879D01*
X95803Y193953D01*
X95766Y194046D01*
X95738Y194143D01*
X95702Y194208D01*
X95675Y194277D01*
X95617Y194359D01*
X95568Y194447D01*
X95503Y194523D01*
X95476Y194563D01*
X95449Y194587D01*
X95410Y194633D01*
X94031Y196012D01*
X92959Y198600D01*
X92959Y201400D01*
X94031Y203988D01*
X96012Y205969D01*
X98600Y207041D01*
X101400Y207041D01*
X103988Y205969D01*
X105969Y203988D01*
X107041Y201400D01*
X107041Y198600D01*
X105969Y196012D01*
X104590Y194633D01*
X104528Y194554D01*
X104458Y194482D01*
X104420Y194418D01*
X104374Y194360D01*
X104331Y194269D01*
X104279Y194183D01*
X104256Y194112D01*
X104225Y194045D01*
X104204Y193947D01*
X104173Y193851D01*
X104167Y193777D01*
X104151Y193704D01*
X104153Y193604D01*
X104145Y193504D01*
X104156Y193430D01*
X104157Y193356D01*
X104182Y193259D01*
X104197Y193159D01*
X104224Y193090D01*
X104242Y193018D01*
X104288Y192929D01*
X104325Y192835D01*
X104368Y192774D01*
X104402Y192708D01*
X104467Y192632D01*
X104524Y192549D01*
X104579Y192499D01*
X104628Y192443D01*
X104709Y192383D01*
X104783Y192316D01*
X104848Y192280D01*
X104908Y192235D01*
X105000Y192196D01*
X105088Y192147D01*
X105160Y192127D01*
X105228Y192097D01*
X105327Y192080D01*
X105423Y192052D01*
X105523Y192044D01*
X105571Y192036D01*
X105607Y192038D01*
X105667Y192033D01*
X111842Y192033D01*
X113033Y190842D01*
X113033Y174158D01*
X111503Y172628D01*
X111424Y172529D01*
X111340Y172435D01*
X111316Y172393D01*
X111286Y172355D01*
X111232Y172241D01*
X111171Y172130D01*
X111158Y172084D01*
X111137Y172040D01*
X111111Y171917D01*
X111076Y171795D01*
X111071Y171734D01*
X111064Y171699D01*
X111065Y171651D01*
X111057Y171551D01*
X111057Y164604D01*
X111071Y164479D01*
X111078Y164352D01*
X111091Y164306D01*
X111097Y164258D01*
X111139Y164139D01*
X111174Y164018D01*
X111198Y163975D01*
X111214Y163930D01*
X111283Y163824D01*
X111344Y163713D01*
X111384Y163667D01*
X111403Y163637D01*
X111438Y163604D01*
X111503Y163527D01*
X118557Y156473D01*
X118557Y142776D01*
X118568Y142676D01*
X118570Y142576D01*
X118588Y142504D01*
X118597Y142430D01*
X118630Y142336D01*
X118655Y142238D01*
X118689Y142172D01*
X118714Y142102D01*
X118769Y142018D01*
X118815Y141928D01*
X118863Y141872D01*
X118903Y141809D01*
X118975Y141739D01*
X119040Y141663D01*
X119100Y141619D01*
X119154Y141567D01*
X119240Y141515D01*
X119321Y141456D01*
X119389Y141426D01*
X119453Y141388D01*
X119549Y141357D01*
X119641Y141318D01*
X119714Y141305D01*
X119785Y141282D01*
X119885Y141274D01*
X119984Y141256D01*
X120058Y141260D01*
X120132Y141254D01*
X120232Y141269D01*
X120332Y141274D01*
X120403Y141295D01*
X120477Y141306D01*
X120570Y141343D01*
X120667Y141370D01*
X120732Y141407D01*
X120801Y141434D01*
X120883Y141492D01*
X120971Y141541D01*
X121047Y141606D01*
X121087Y141633D01*
X121111Y141660D01*
X121157Y141699D01*
X123939Y144481D01*
X131461Y144481D01*
X136781Y139161D01*
X136781Y131639D01*
X131461Y126319D01*
X124556Y126319D01*
X124530Y126316D01*
X124504Y126318D01*
X124357Y126296D01*
X124210Y126279D01*
X124185Y126271D01*
X124159Y126267D01*
X124021Y126212D01*
X123882Y126162D01*
X123860Y126148D01*
X123835Y126138D01*
X123714Y126053D01*
X123589Y125973D01*
X123571Y125954D01*
X123549Y125939D01*
X123450Y125829D01*
X123347Y125722D01*
X123333Y125700D01*
X123316Y125680D01*
X123244Y125550D01*
X123168Y125423D01*
X123160Y125398D01*
X123147Y125375D01*
X123107Y125232D01*
X123062Y125091D01*
X123060Y125065D01*
X123052Y125040D01*
X123033Y124796D01*
X123033Y116740D01*
X123044Y116640D01*
X123046Y116540D01*
X123064Y116468D01*
X123073Y116394D01*
X123106Y116299D01*
X123131Y116202D01*
X123165Y116136D01*
X123190Y116066D01*
X123245Y115981D01*
X123291Y115892D01*
X123339Y115835D01*
X123379Y115773D01*
X123451Y115703D01*
X123516Y115627D01*
X123576Y115583D01*
X123630Y115531D01*
X123716Y115479D01*
X123797Y115420D01*
X123865Y115390D01*
X123929Y115352D01*
X124025Y115321D01*
X124117Y115282D01*
X124190Y115268D01*
X124261Y115246D01*
X124361Y115238D01*
X124460Y115220D01*
X124534Y115224D01*
X124608Y115218D01*
X124708Y115233D01*
X124808Y115238D01*
X124879Y115258D01*
X124953Y115269D01*
X125046Y115307D01*
X125143Y115334D01*
X125208Y115371D01*
X125277Y115398D01*
X125359Y115455D01*
X125447Y115505D01*
X125523Y115570D01*
X125563Y115597D01*
X125587Y115624D01*
X125633Y115663D01*
X153527Y143557D01*
X168444Y143557D01*
X168470Y143560D01*
X168496Y143558D01*
X168643Y143580D01*
X168790Y143597D01*
X168815Y143605D01*
X168841Y143609D01*
X168979Y143664D01*
X169118Y143714D01*
X169140Y143728D01*
X169165Y143738D01*
X169286Y143823D01*
X169411Y143903D01*
X169429Y143922D01*
X169451Y143937D01*
X169550Y144047D01*
X169653Y144154D01*
X169667Y144176D01*
X169684Y144196D01*
X169756Y144326D01*
X169832Y144453D01*
X169840Y144478D01*
X169853Y144501D01*
X169893Y144644D01*
X169938Y144785D01*
X169940Y144811D01*
X169948Y144836D01*
X169967Y145080D01*
X169967Y146842D01*
X171158Y148033D01*
X180842Y148033D01*
X182033Y146842D01*
X182033Y133158D01*
X180842Y131967D01*
X171158Y131967D01*
X169713Y133412D01*
X169635Y133475D01*
X169562Y133544D01*
X169498Y133583D01*
X169440Y133629D01*
X169349Y133672D01*
X169263Y133723D01*
X169192Y133746D01*
X169125Y133778D01*
X169027Y133799D01*
X168931Y133829D01*
X168857Y133835D01*
X168784Y133851D01*
X168684Y133849D01*
X168584Y133857D01*
X168510Y133846D01*
X168436Y133845D01*
X168339Y133821D01*
X168239Y133806D01*
X168170Y133778D01*
X168098Y133760D01*
X168009Y133714D01*
X167915Y133677D01*
X167854Y133635D01*
X167788Y133601D01*
X167712Y133535D01*
X167629Y133478D01*
X167579Y133423D01*
X167523Y133375D01*
X167463Y133294D01*
X167396Y133219D01*
X167360Y133154D01*
X167315Y133094D01*
X167276Y133002D01*
X167227Y132914D01*
X167207Y132843D01*
X167177Y132774D01*
X167160Y132676D01*
X167132Y132579D01*
X167124Y132479D01*
X167116Y132431D01*
X167118Y132396D01*
X167113Y132335D01*
X167113Y129949D01*
X165949Y127139D01*
X165907Y126994D01*
X165862Y126851D01*
X165860Y126827D01*
X165853Y126804D01*
X165846Y126653D01*
X165834Y126504D01*
X165837Y126480D01*
X165836Y126456D01*
X165863Y126308D01*
X165885Y126159D01*
X165894Y126137D01*
X165899Y126113D01*
X165958Y125975D01*
X166014Y125835D01*
X166028Y125815D01*
X166037Y125793D01*
X166127Y125672D01*
X166213Y125549D01*
X166231Y125533D01*
X166245Y125513D01*
X166360Y125416D01*
X166472Y125316D01*
X166493Y125304D01*
X166511Y125288D01*
X166645Y125220D01*
X166667Y125208D01*
X168033Y123842D01*
X168033Y114158D01*
X166842Y112967D01*
X153158Y112967D01*
X151967Y114158D01*
X151967Y123842D01*
X153314Y125188D01*
X153318Y125190D01*
X153445Y125272D01*
X153573Y125349D01*
X153591Y125366D01*
X153611Y125379D01*
X153716Y125488D01*
X153823Y125592D01*
X153836Y125612D01*
X153853Y125630D01*
X153931Y125759D01*
X154012Y125885D01*
X154020Y125908D01*
X154032Y125929D01*
X154078Y126072D01*
X154128Y126214D01*
X154131Y126238D01*
X154138Y126261D01*
X154150Y126410D01*
X154167Y126560D01*
X154164Y126584D01*
X154166Y126608D01*
X154144Y126757D01*
X154126Y126906D01*
X154118Y126934D01*
X154115Y126953D01*
X154097Y126997D01*
X154051Y127139D01*
X152908Y129899D01*
X152835Y130031D01*
X152766Y130164D01*
X152750Y130183D01*
X152739Y130204D01*
X152638Y130315D01*
X152540Y130430D01*
X152521Y130444D01*
X152504Y130462D01*
X152381Y130548D01*
X152260Y130637D01*
X152238Y130647D01*
X152218Y130660D01*
X152078Y130716D01*
X151940Y130775D01*
X151916Y130779D01*
X151894Y130788D01*
X151745Y130810D01*
X151597Y130837D01*
X151573Y130835D01*
X151549Y130839D01*
X151399Y130826D01*
X151249Y130819D01*
X151226Y130812D01*
X151201Y130810D01*
X151058Y130764D01*
X150914Y130722D01*
X150893Y130710D01*
X150870Y130703D01*
X150741Y130625D01*
X150610Y130552D01*
X150587Y130533D01*
X150571Y130523D01*
X150537Y130491D01*
X150424Y130394D01*
X125529Y105499D01*
X124556Y105499D01*
X124530Y105496D01*
X124504Y105498D01*
X124357Y105476D01*
X124210Y105459D01*
X124185Y105451D01*
X124159Y105447D01*
X124021Y105392D01*
X123882Y105342D01*
X123860Y105328D01*
X123835Y105318D01*
X123714Y105233D01*
X123589Y105153D01*
X123571Y105134D01*
X123549Y105119D01*
X123450Y105009D01*
X123347Y104902D01*
X123333Y104880D01*
X123316Y104860D01*
X123244Y104730D01*
X123168Y104603D01*
X123160Y104578D01*
X123147Y104555D01*
X123107Y104412D01*
X123062Y104271D01*
X123060Y104245D01*
X123052Y104220D01*
X123033Y103976D01*
X123033Y95204D01*
X123036Y95178D01*
X123034Y95152D01*
X123056Y95005D01*
X123073Y94858D01*
X123081Y94833D01*
X123085Y94807D01*
X123140Y94669D01*
X123190Y94530D01*
X123204Y94508D01*
X123214Y94483D01*
X123299Y94362D01*
X123379Y94237D01*
X123398Y94219D01*
X123413Y94197D01*
X123523Y94098D01*
X123630Y93995D01*
X123652Y93981D01*
X123672Y93964D01*
X123802Y93892D01*
X123929Y93816D01*
X123954Y93808D01*
X123977Y93795D01*
X124120Y93755D01*
X124261Y93710D01*
X124287Y93708D01*
X124312Y93700D01*
X124556Y93681D01*
X131120Y93681D01*
X131245Y93695D01*
X131372Y93702D01*
X131418Y93715D01*
X131466Y93721D01*
X131585Y93763D01*
X131706Y93798D01*
X131749Y93822D01*
X131794Y93838D01*
X131900Y93907D01*
X132011Y93968D01*
X132057Y94008D01*
X132087Y94027D01*
X132120Y94062D01*
X132197Y94127D01*
X140097Y102027D01*
X142627Y104557D01*
X150444Y104557D01*
X150470Y104560D01*
X150496Y104558D01*
X150643Y104580D01*
X150790Y104597D01*
X150815Y104605D01*
X150841Y104609D01*
X150979Y104664D01*
X151118Y104714D01*
X151140Y104728D01*
X151165Y104738D01*
X151286Y104823D01*
X151411Y104903D01*
X151429Y104922D01*
X151451Y104937D01*
X151550Y105047D01*
X151653Y105154D01*
X151667Y105176D01*
X151684Y105196D01*
X151756Y105326D01*
X151832Y105453D01*
X151840Y105478D01*
X151853Y105501D01*
X151893Y105644D01*
X151938Y105785D01*
X151940Y105811D01*
X151942Y105817D01*
X153158Y107033D01*
X166842Y107033D01*
X168033Y105842D01*
X168033Y98628D01*
X168047Y98503D01*
X168054Y98376D01*
X168067Y98330D01*
X168073Y98282D01*
X168115Y98163D01*
X168150Y98042D01*
X168174Y97999D01*
X168190Y97954D01*
X168259Y97848D01*
X168320Y97737D01*
X168360Y97691D01*
X168379Y97661D01*
X168414Y97628D01*
X168479Y97551D01*
X177551Y88479D01*
X177650Y88400D01*
X177744Y88316D01*
X177786Y88292D01*
X177824Y88262D01*
X177938Y88208D01*
X178049Y88147D01*
X178096Y88134D01*
X178139Y88113D01*
X178263Y88087D01*
X178384Y88052D01*
X178445Y88047D01*
X178480Y88040D01*
X178528Y88041D01*
X178628Y88033D01*
X180842Y88033D01*
X182033Y86842D01*
X182033Y73158D01*
X180811Y71936D01*
X180734Y71927D01*
X180709Y71919D01*
X180683Y71915D01*
X180545Y71860D01*
X180406Y71810D01*
X180384Y71796D01*
X180359Y71786D01*
X180238Y71701D01*
X180113Y71621D01*
X180095Y71602D01*
X180073Y71587D01*
X179974Y71477D01*
X179871Y71370D01*
X179857Y71348D01*
X179840Y71328D01*
X179768Y71198D01*
X179692Y71071D01*
X179684Y71046D01*
X179671Y71023D01*
X179631Y70880D01*
X179586Y70739D01*
X179584Y70713D01*
X179576Y70688D01*
X179557Y70444D01*
X179557Y50588D01*
X179560Y50562D01*
X179558Y50536D01*
X179580Y50389D01*
X179597Y50242D01*
X179605Y50217D01*
X179609Y50191D01*
X179664Y50053D01*
X179714Y49914D01*
X179728Y49892D01*
X179738Y49867D01*
X179823Y49746D01*
X179903Y49621D01*
X179922Y49603D01*
X179937Y49581D01*
X180047Y49482D01*
X180154Y49379D01*
X180176Y49365D01*
X180196Y49348D01*
X180326Y49276D01*
X180453Y49200D01*
X180478Y49192D01*
X180501Y49179D01*
X180644Y49139D01*
X180785Y49094D01*
X180811Y49092D01*
X180836Y49084D01*
X181080Y49065D01*
X294920Y49065D01*
X294946Y49068D01*
X294972Y49066D01*
X295119Y49088D01*
X295266Y49105D01*
X295291Y49113D01*
X295317Y49117D01*
X295455Y49172D01*
X295594Y49222D01*
X295616Y49236D01*
X295641Y49246D01*
X295762Y49331D01*
X295887Y49411D01*
X295905Y49430D01*
X295927Y49445D01*
X296026Y49555D01*
X296129Y49662D01*
X296143Y49684D01*
X296160Y49704D01*
X296232Y49834D01*
X296308Y49961D01*
X296316Y49986D01*
X296329Y50009D01*
X296369Y50152D01*
X296414Y50293D01*
X296416Y50319D01*
X296424Y50344D01*
X296443Y50588D01*
X296443Y67896D01*
X296429Y68021D01*
X296422Y68148D01*
X296409Y68194D01*
X296403Y68242D01*
X296361Y68361D01*
X296326Y68482D01*
X296302Y68525D01*
X296286Y68570D01*
X296217Y68676D01*
X296156Y68787D01*
X296116Y68833D01*
X296097Y68863D01*
X296062Y68896D01*
X295997Y68973D01*
X284373Y80597D01*
X284274Y80676D01*
X284180Y80760D01*
X284138Y80784D01*
X284100Y80814D01*
X283986Y80868D01*
X283875Y80929D01*
X283828Y80942D01*
X283785Y80963D01*
X283661Y80989D01*
X283540Y81024D01*
X283479Y81029D01*
X283444Y81036D01*
X283396Y81035D01*
X283296Y81043D01*
X277616Y81043D01*
X277491Y81029D01*
X277364Y81022D01*
X277318Y81009D01*
X277270Y81003D01*
X277151Y80961D01*
X277030Y80926D01*
X276987Y80902D01*
X276942Y80886D01*
X276836Y80817D01*
X276725Y80756D01*
X276679Y80716D01*
X276649Y80697D01*
X276616Y80662D01*
X276539Y80597D01*
X271575Y75633D01*
X271513Y75555D01*
X271443Y75482D01*
X271405Y75418D01*
X271359Y75360D01*
X271316Y75269D01*
X271264Y75183D01*
X271241Y75112D01*
X271210Y75045D01*
X271188Y74947D01*
X271158Y74851D01*
X271152Y74777D01*
X271136Y74704D01*
X271138Y74604D01*
X271130Y74504D01*
X271141Y74430D01*
X271142Y74356D01*
X271167Y74259D01*
X271182Y74159D01*
X271209Y74090D01*
X271227Y74018D01*
X271273Y73928D01*
X271310Y73835D01*
X271353Y73774D01*
X271387Y73708D01*
X271452Y73631D01*
X271509Y73549D01*
X271564Y73499D01*
X271613Y73443D01*
X271693Y73383D01*
X271768Y73316D01*
X271833Y73280D01*
X271893Y73235D01*
X271985Y73196D01*
X272073Y73147D01*
X272145Y73127D01*
X272213Y73097D01*
X272291Y73083D01*
X273533Y71842D01*
X273533Y70080D01*
X273536Y70054D01*
X273534Y70028D01*
X273556Y69881D01*
X273573Y69734D01*
X273581Y69709D01*
X273585Y69683D01*
X273640Y69545D01*
X273690Y69406D01*
X273704Y69384D01*
X273714Y69359D01*
X273799Y69238D01*
X273879Y69113D01*
X273898Y69095D01*
X273913Y69073D01*
X274023Y68974D01*
X274130Y68871D01*
X274152Y68857D01*
X274172Y68840D01*
X274302Y68768D01*
X274429Y68692D01*
X274454Y68684D01*
X274477Y68671D01*
X274620Y68631D01*
X274761Y68586D01*
X274787Y68584D01*
X274812Y68576D01*
X275056Y68557D01*
X281473Y68557D01*
X282471Y67559D01*
X282570Y67480D01*
X282664Y67396D01*
X282706Y67372D01*
X282744Y67342D01*
X282858Y67288D01*
X282969Y67227D01*
X283016Y67214D01*
X283059Y67193D01*
X283183Y67167D01*
X283304Y67132D01*
X283365Y67127D01*
X283400Y67120D01*
X283448Y67121D01*
X283548Y67113D01*
X286415Y67113D01*
X289029Y66030D01*
X291030Y64029D01*
X292113Y61415D01*
X292113Y58585D01*
X291030Y55971D01*
X289029Y53970D01*
X286415Y52887D01*
X283585Y52887D01*
X280971Y53970D01*
X278970Y55971D01*
X277887Y58585D01*
X277887Y59920D01*
X277884Y59946D01*
X277886Y59972D01*
X277864Y60119D01*
X277847Y60266D01*
X277839Y60291D01*
X277835Y60317D01*
X277780Y60455D01*
X277730Y60594D01*
X277716Y60616D01*
X277706Y60641D01*
X277621Y60762D01*
X277541Y60887D01*
X277522Y60905D01*
X277507Y60927D01*
X277397Y61026D01*
X277290Y61129D01*
X277268Y61143D01*
X277248Y61160D01*
X277118Y61232D01*
X276991Y61308D01*
X276966Y61316D01*
X276943Y61329D01*
X276800Y61369D01*
X276659Y61414D01*
X276633Y61416D01*
X276608Y61424D01*
X276364Y61443D01*
X275056Y61443D01*
X275030Y61440D01*
X275004Y61442D01*
X274857Y61420D01*
X274710Y61403D01*
X274685Y61395D01*
X274659Y61391D01*
X274521Y61336D01*
X274382Y61286D01*
X274360Y61272D01*
X274335Y61262D01*
X274214Y61177D01*
X274089Y61097D01*
X274071Y61078D01*
X274049Y61063D01*
X273950Y60953D01*
X273847Y60846D01*
X273833Y60824D01*
X273816Y60804D01*
X273744Y60674D01*
X273668Y60547D01*
X273660Y60522D01*
X273647Y60499D01*
X273607Y60356D01*
X273562Y60215D01*
X273560Y60189D01*
X273552Y60164D01*
X273533Y59920D01*
X273533Y58158D01*
X272342Y56967D01*
X258658Y56967D01*
X257467Y58158D01*
X257467Y69260D01*
X257456Y69360D01*
X257454Y69460D01*
X257436Y69532D01*
X257427Y69606D01*
X257394Y69701D01*
X257369Y69798D01*
X257335Y69864D01*
X257310Y69934D01*
X257255Y70019D01*
X257209Y70108D01*
X257161Y70164D01*
X257121Y70227D01*
X257049Y70297D01*
X256984Y70373D01*
X256924Y70417D01*
X256870Y70469D01*
X256784Y70521D01*
X256703Y70580D01*
X256635Y70610D01*
X256571Y70648D01*
X256475Y70679D01*
X256383Y70718D01*
X256310Y70732D01*
X256239Y70754D01*
X256139Y70762D01*
X256040Y70780D01*
X255966Y70776D01*
X255892Y70782D01*
X255792Y70767D01*
X255692Y70762D01*
X255621Y70742D01*
X255547Y70731D01*
X255454Y70693D01*
X255357Y70666D01*
X255292Y70629D01*
X255223Y70602D01*
X255141Y70545D01*
X255053Y70495D01*
X254977Y70430D01*
X254937Y70403D01*
X254913Y70376D01*
X254867Y70337D01*
X252979Y68449D01*
X252900Y68350D01*
X252816Y68256D01*
X252792Y68214D01*
X252762Y68176D01*
X252708Y68062D01*
X252647Y67951D01*
X252634Y67904D01*
X252613Y67861D01*
X252587Y67737D01*
X252552Y67616D01*
X252547Y67555D01*
X252540Y67520D01*
X252541Y67472D01*
X252533Y67372D01*
X252533Y58158D01*
X251342Y56967D01*
X237658Y56967D01*
X236467Y58158D01*
X236467Y59920D01*
X236464Y59946D01*
X236466Y59972D01*
X236444Y60119D01*
X236427Y60266D01*
X236419Y60291D01*
X236415Y60317D01*
X236360Y60455D01*
X236310Y60594D01*
X236296Y60616D01*
X236286Y60641D01*
X236201Y60762D01*
X236121Y60887D01*
X236102Y60905D01*
X236087Y60927D01*
X235977Y61026D01*
X235870Y61129D01*
X235848Y61143D01*
X235828Y61160D01*
X235698Y61232D01*
X235571Y61308D01*
X235546Y61316D01*
X235523Y61329D01*
X235380Y61369D01*
X235239Y61414D01*
X235213Y61416D01*
X235188Y61424D01*
X234944Y61443D01*
X207527Y61443D01*
X197449Y71521D01*
X197350Y71600D01*
X197256Y71684D01*
X197214Y71708D01*
X197176Y71738D01*
X197062Y71792D01*
X196951Y71853D01*
X196904Y71866D01*
X196861Y71887D01*
X196737Y71913D01*
X196616Y71948D01*
X196555Y71953D01*
X196520Y71960D01*
X196472Y71959D01*
X196372Y71967D01*
X189158Y71967D01*
X187967Y73158D01*
X187967Y86842D01*
X189158Y88033D01*
X198842Y88033D01*
X200033Y86842D01*
X200033Y79628D01*
X200047Y79503D01*
X200054Y79376D01*
X200067Y79330D01*
X200073Y79282D01*
X200115Y79163D01*
X200150Y79042D01*
X200174Y78999D01*
X200190Y78954D01*
X200259Y78848D01*
X200320Y78737D01*
X200360Y78691D01*
X200379Y78661D01*
X200414Y78628D01*
X200479Y78551D01*
X210027Y69003D01*
X210126Y68924D01*
X210220Y68840D01*
X210262Y68816D01*
X210300Y68786D01*
X210414Y68732D01*
X210525Y68671D01*
X210572Y68658D01*
X210615Y68637D01*
X210739Y68611D01*
X210860Y68576D01*
X210921Y68571D01*
X210956Y68564D01*
X211004Y68565D01*
X211104Y68557D01*
X234944Y68557D01*
X234970Y68560D01*
X234996Y68558D01*
X235143Y68580D01*
X235290Y68597D01*
X235315Y68605D01*
X235341Y68609D01*
X235479Y68664D01*
X235618Y68714D01*
X235640Y68728D01*
X235665Y68738D01*
X235786Y68823D01*
X235911Y68903D01*
X235929Y68922D01*
X235951Y68937D01*
X236050Y69047D01*
X236153Y69154D01*
X236167Y69176D01*
X236184Y69196D01*
X236256Y69326D01*
X236332Y69453D01*
X236340Y69478D01*
X236353Y69501D01*
X236393Y69644D01*
X236438Y69785D01*
X236440Y69811D01*
X236448Y69836D01*
X236467Y70080D01*
X236467Y71842D01*
X237700Y73075D01*
X237788Y73106D01*
X237886Y73131D01*
X237952Y73165D01*
X238022Y73190D01*
X238106Y73245D01*
X238196Y73291D01*
X238252Y73339D01*
X238315Y73379D01*
X238385Y73451D01*
X238461Y73516D01*
X238505Y73576D01*
X238557Y73630D01*
X238609Y73716D01*
X238668Y73797D01*
X238698Y73865D01*
X238736Y73929D01*
X238767Y74025D01*
X238806Y74117D01*
X238819Y74190D01*
X238842Y74261D01*
X238850Y74361D01*
X238868Y74460D01*
X238864Y74534D01*
X238870Y74608D01*
X238855Y74708D01*
X238850Y74808D01*
X238829Y74879D01*
X238818Y74953D01*
X238781Y75046D01*
X238754Y75143D01*
X238717Y75208D01*
X238690Y75277D01*
X238632Y75359D01*
X238583Y75447D01*
X238518Y75523D01*
X238491Y75563D01*
X238464Y75587D01*
X238425Y75633D01*
X233219Y80839D01*
X233219Y88020D01*
X233205Y88145D01*
X233198Y88272D01*
X233185Y88318D01*
X233179Y88366D01*
X233137Y88485D01*
X233102Y88606D01*
X233078Y88649D01*
X233062Y88694D01*
X232993Y88800D01*
X232932Y88911D01*
X232892Y88957D01*
X232873Y88987D01*
X232838Y89020D01*
X232773Y89097D01*
X224873Y96997D01*
X224774Y97076D01*
X224680Y97160D01*
X224638Y97184D01*
X224600Y97214D01*
X224486Y97268D01*
X224375Y97329D01*
X224328Y97342D01*
X224285Y97363D01*
X224161Y97389D01*
X224040Y97424D01*
X223979Y97429D01*
X223944Y97436D01*
X223896Y97435D01*
X223796Y97443D01*
X219556Y97443D01*
X219530Y97440D01*
X219504Y97442D01*
X219357Y97420D01*
X219210Y97403D01*
X219185Y97395D01*
X219159Y97391D01*
X219021Y97336D01*
X218882Y97286D01*
X218860Y97272D01*
X218835Y97262D01*
X218714Y97177D01*
X218589Y97097D01*
X218571Y97078D01*
X218549Y97063D01*
X218450Y96953D01*
X218347Y96846D01*
X218333Y96824D01*
X218316Y96804D01*
X218244Y96674D01*
X218168Y96547D01*
X218160Y96522D01*
X218147Y96499D01*
X218107Y96356D01*
X218062Y96215D01*
X218060Y96189D01*
X218058Y96183D01*
X216842Y94967D01*
X203158Y94967D01*
X201967Y96158D01*
X201967Y105842D01*
X203158Y107033D01*
X216842Y107033D01*
X218064Y105811D01*
X218073Y105734D01*
X218081Y105709D01*
X218085Y105683D01*
X218140Y105545D01*
X218190Y105406D01*
X218204Y105384D01*
X218214Y105359D01*
X218299Y105238D01*
X218379Y105113D01*
X218398Y105095D01*
X218413Y105073D01*
X218523Y104974D01*
X218630Y104871D01*
X218652Y104857D01*
X218672Y104840D01*
X218802Y104768D01*
X218929Y104692D01*
X218954Y104684D01*
X218977Y104671D01*
X219120Y104631D01*
X219261Y104586D01*
X219287Y104584D01*
X219312Y104576D01*
X219556Y104557D01*
X219920Y104557D01*
X219946Y104560D01*
X219972Y104558D01*
X220119Y104580D01*
X220266Y104597D01*
X220291Y104605D01*
X220317Y104609D01*
X220455Y104664D01*
X220594Y104714D01*
X220616Y104728D01*
X220641Y104738D01*
X220762Y104823D01*
X220887Y104903D01*
X220905Y104922D01*
X220927Y104937D01*
X221026Y105047D01*
X221129Y105154D01*
X221143Y105176D01*
X221160Y105196D01*
X221232Y105326D01*
X221308Y105453D01*
X221316Y105478D01*
X221329Y105501D01*
X221369Y105644D01*
X221414Y105785D01*
X221416Y105811D01*
X221424Y105836D01*
X221443Y106080D01*
X221443Y113928D01*
X221426Y114076D01*
X221414Y114226D01*
X221406Y114249D01*
X221403Y114274D01*
X221353Y114415D01*
X221307Y114557D01*
X221294Y114579D01*
X221286Y114602D01*
X221205Y114728D01*
X221128Y114856D01*
X221110Y114874D01*
X221097Y114895D01*
X220989Y114999D01*
X220885Y115106D01*
X220864Y115120D01*
X220846Y115137D01*
X220718Y115214D01*
X220592Y115295D01*
X220568Y115303D01*
X220547Y115316D01*
X220405Y115361D01*
X220264Y115412D01*
X220239Y115414D01*
X220215Y115422D01*
X220066Y115434D01*
X219917Y115451D01*
X219893Y115448D01*
X219868Y115450D01*
X219720Y115428D01*
X219571Y115410D01*
X219548Y115402D01*
X219523Y115398D01*
X219384Y115343D01*
X219243Y115292D01*
X219222Y115279D01*
X219199Y115270D01*
X219076Y115184D01*
X218951Y115103D01*
X218933Y115085D01*
X218913Y115071D01*
X218813Y114960D01*
X218709Y114852D01*
X218696Y114830D01*
X218680Y114812D01*
X218607Y114681D01*
X218531Y114552D01*
X218521Y114524D01*
X218511Y114507D01*
X218498Y114461D01*
X218449Y114322D01*
X218368Y114019D01*
X218033Y113440D01*
X217560Y112967D01*
X216981Y112632D01*
X216335Y112459D01*
X211999Y112459D01*
X211999Y118524D01*
X211996Y118550D01*
X211998Y118576D01*
X211976Y118723D01*
X211959Y118870D01*
X211951Y118895D01*
X211947Y118921D01*
X211914Y119002D01*
X211925Y119040D01*
X211970Y119181D01*
X211972Y119207D01*
X211980Y119232D01*
X211999Y119476D01*
X211999Y125541D01*
X216335Y125541D01*
X216981Y125368D01*
X217560Y125033D01*
X218033Y124560D01*
X218368Y123981D01*
X218449Y123678D01*
X218504Y123539D01*
X218554Y123398D01*
X218568Y123377D01*
X218577Y123354D01*
X218662Y123231D01*
X218743Y123105D01*
X218761Y123088D01*
X218775Y123068D01*
X218886Y122967D01*
X218994Y122863D01*
X219015Y122850D01*
X219034Y122834D01*
X219164Y122761D01*
X219293Y122684D01*
X219316Y122677D01*
X219338Y122665D01*
X219482Y122624D01*
X219625Y122578D01*
X219650Y122576D01*
X219674Y122569D01*
X219823Y122562D01*
X219972Y122550D01*
X219997Y122554D01*
X220022Y122552D01*
X220169Y122579D01*
X220317Y122602D01*
X220340Y122611D01*
X220364Y122615D01*
X220502Y122675D01*
X220641Y122730D01*
X220661Y122745D01*
X220684Y122754D01*
X220804Y122844D01*
X220927Y122929D01*
X220943Y122948D01*
X220963Y122963D01*
X221060Y123077D01*
X221160Y123188D01*
X221172Y123210D01*
X221188Y123229D01*
X221256Y123362D01*
X221329Y123493D01*
X221336Y123517D01*
X221347Y123539D01*
X221383Y123684D01*
X221424Y123829D01*
X221426Y123858D01*
X221431Y123877D01*
X221431Y123925D01*
X221443Y124072D01*
X221443Y156473D01*
X228497Y163527D01*
X228576Y163626D01*
X228660Y163720D01*
X228684Y163762D01*
X228714Y163800D01*
X228768Y163914D01*
X228829Y164025D01*
X228842Y164072D01*
X228863Y164115D01*
X228889Y164239D01*
X228924Y164360D01*
X228929Y164421D01*
X228936Y164456D01*
X228935Y164504D01*
X228943Y164604D01*
X228943Y171551D01*
X228929Y171677D01*
X228922Y171803D01*
X228909Y171849D01*
X228903Y171897D01*
X228861Y172016D01*
X228826Y172138D01*
X228802Y172180D01*
X228786Y172225D01*
X228717Y172332D01*
X228656Y172442D01*
X228616Y172488D01*
X228597Y172518D01*
X228562Y172552D01*
X228497Y172628D01*
X226967Y174158D01*
X226967Y181915D01*
X226956Y182015D01*
X226954Y182115D01*
X226936Y182187D01*
X226927Y182261D01*
X226894Y182356D01*
X226869Y182453D01*
X226835Y182519D01*
X226810Y182589D01*
X226755Y182674D01*
X226709Y182763D01*
X226661Y182820D01*
X226621Y182882D01*
X226549Y182952D01*
X226484Y183029D01*
X226424Y183073D01*
X226370Y183124D01*
X226284Y183176D01*
X226203Y183236D01*
X226135Y183265D01*
X226071Y183303D01*
X225976Y183334D01*
X225883Y183374D01*
X225810Y183387D01*
X225739Y183409D01*
X225639Y183418D01*
X225540Y183435D01*
X225466Y183431D01*
X225392Y183437D01*
X225293Y183423D01*
X225192Y183417D01*
X225121Y183397D01*
X225047Y183386D01*
X224954Y183349D01*
X224857Y183321D01*
X224792Y183285D01*
X224723Y183257D01*
X224641Y183200D01*
X224553Y183151D01*
X224477Y183086D01*
X224437Y183058D01*
X224413Y183032D01*
X224367Y182992D01*
X224342Y182967D01*
X212658Y182967D01*
X211467Y184158D01*
X211467Y193842D01*
X212658Y195033D01*
X224342Y195033D01*
X225533Y193842D01*
X225533Y193085D01*
X225544Y192985D01*
X225546Y192885D01*
X225564Y192813D01*
X225573Y192739D01*
X225606Y192644D01*
X225631Y192547D01*
X225665Y192481D01*
X225690Y192411D01*
X225745Y192326D01*
X225791Y192237D01*
X225839Y192180D01*
X225879Y192118D01*
X225951Y192048D01*
X226016Y191971D01*
X226076Y191927D01*
X226130Y191876D01*
X226216Y191824D01*
X226297Y191764D01*
X226365Y191735D01*
X226429Y191697D01*
X226524Y191666D01*
X226617Y191626D01*
X226690Y191613D01*
X226761Y191591D01*
X226861Y191582D01*
X226960Y191565D01*
X227034Y191569D01*
X227108Y191563D01*
X227207Y191577D01*
X227308Y191583D01*
X227379Y191603D01*
X227453Y191614D01*
X227546Y191651D01*
X227643Y191679D01*
X227708Y191715D01*
X227777Y191743D01*
X227859Y191800D01*
X227947Y191849D01*
X228023Y191914D01*
X228063Y191942D01*
X228087Y191968D01*
X228133Y192008D01*
X228158Y192033D01*
X234333Y192033D01*
X234432Y192044D01*
X234533Y192046D01*
X234605Y192064D01*
X234679Y192073D01*
X234773Y192106D01*
X234871Y192131D01*
X234937Y192165D01*
X235007Y192190D01*
X235091Y192245D01*
X235181Y192291D01*
X235237Y192339D01*
X235300Y192379D01*
X235370Y192451D01*
X235446Y192516D01*
X235490Y192576D01*
X235542Y192630D01*
X235594Y192716D01*
X235653Y192797D01*
X235683Y192865D01*
X235721Y192929D01*
X235752Y193025D01*
X235791Y193117D01*
X235804Y193190D01*
X235827Y193261D01*
X235835Y193361D01*
X235853Y193460D01*
X235849Y193534D01*
X235855Y193608D01*
X235840Y193708D01*
X235835Y193808D01*
X235814Y193879D01*
X235803Y193953D01*
X235766Y194046D01*
X235738Y194143D01*
X235702Y194208D01*
X235675Y194277D01*
X235617Y194359D01*
X235568Y194447D01*
X235503Y194523D01*
X235476Y194563D01*
X235449Y194587D01*
X235410Y194633D01*
X234031Y196012D01*
X232959Y198600D01*
X232959Y201400D01*
X234031Y203988D01*
X236012Y205969D01*
X238600Y207041D01*
X241400Y207041D01*
X243988Y205969D01*
X245969Y203988D01*
X247041Y201400D01*
X247041Y198600D01*
X245969Y196012D01*
X244590Y194633D01*
X244528Y194554D01*
X244458Y194482D01*
X244420Y194418D01*
X244374Y194360D01*
X244331Y194269D01*
X244279Y194183D01*
X244256Y194112D01*
X244225Y194045D01*
X244204Y193947D01*
X244173Y193851D01*
X244167Y193777D01*
X244151Y193704D01*
X244153Y193604D01*
X244145Y193504D01*
X244156Y193430D01*
X244157Y193356D01*
X244182Y193259D01*
X244197Y193159D01*
X244224Y193090D01*
X244242Y193018D01*
X244288Y192929D01*
X244325Y192835D01*
X244368Y192774D01*
X244402Y192708D01*
X244467Y192632D01*
X244524Y192549D01*
X244579Y192499D01*
X244628Y192443D01*
X244709Y192383D01*
X244783Y192316D01*
X244848Y192280D01*
X244908Y192235D01*
X245000Y192196D01*
X245088Y192147D01*
X245160Y192127D01*
X245228Y192097D01*
X245327Y192080D01*
X245423Y192052D01*
X245523Y192044D01*
X245571Y192036D01*
X245607Y192038D01*
X245667Y192033D01*
X251842Y192033D01*
X253033Y190842D01*
X253033Y174158D01*
X251503Y172628D01*
X251424Y172529D01*
X251340Y172435D01*
X251316Y172393D01*
X251286Y172355D01*
X251232Y172241D01*
X251171Y172130D01*
X251158Y172084D01*
X251137Y172040D01*
X251111Y171917D01*
X251076Y171795D01*
X251071Y171734D01*
X251064Y171699D01*
X251065Y171651D01*
X251057Y171551D01*
X251057Y164604D01*
X251071Y164479D01*
X251078Y164352D01*
X251091Y164306D01*
X251097Y164258D01*
X251139Y164139D01*
X251174Y164018D01*
X251198Y163975D01*
X251214Y163930D01*
X251283Y163824D01*
X251344Y163713D01*
X251384Y163667D01*
X251403Y163637D01*
X251438Y163604D01*
X251503Y163527D01*
X258557Y156473D01*
X258557Y142776D01*
X258568Y142676D01*
X258570Y142576D01*
X258588Y142504D01*
X258597Y142430D01*
X258630Y142336D01*
X258655Y142238D01*
X258689Y142172D01*
X258714Y142102D01*
X258769Y142018D01*
X258815Y141928D01*
X258863Y141872D01*
X258903Y141809D01*
X258975Y141739D01*
X259040Y141663D01*
X259100Y141619D01*
X259154Y141567D01*
X259240Y141515D01*
X259321Y141456D01*
X259389Y141426D01*
X259453Y141388D01*
X259549Y141357D01*
X259641Y141318D01*
X259714Y141305D01*
X259785Y141282D01*
X259885Y141274D01*
X259984Y141256D01*
X260058Y141260D01*
X260132Y141254D01*
X260232Y141269D01*
X260332Y141274D01*
X260403Y141295D01*
X260477Y141306D01*
X260570Y141343D01*
X260667Y141370D01*
X260732Y141407D01*
X260801Y141434D01*
X260883Y141492D01*
X260971Y141541D01*
X261047Y141606D01*
X261087Y141633D01*
X261111Y141660D01*
X261157Y141699D01*
X263939Y144481D01*
X271461Y144481D01*
X276539Y139403D01*
X276638Y139324D01*
X276732Y139240D01*
X276774Y139216D01*
X276812Y139186D01*
X276926Y139132D01*
X277037Y139071D01*
X277084Y139058D01*
X277127Y139037D01*
X277251Y139011D01*
X277373Y138976D01*
X277433Y138971D01*
X277468Y138964D01*
X277516Y138965D01*
X277616Y138957D01*
X296073Y138957D01*
X303557Y131473D01*
X303557Y126556D01*
X303560Y126530D01*
X303558Y126504D01*
X303580Y126357D01*
X303597Y126210D01*
X303605Y126185D01*
X303609Y126159D01*
X303664Y126021D01*
X303714Y125882D01*
X303728Y125860D01*
X303738Y125835D01*
X303823Y125714D01*
X303903Y125589D01*
X303922Y125571D01*
X303937Y125549D01*
X304047Y125450D01*
X304154Y125347D01*
X304176Y125333D01*
X304196Y125316D01*
X304326Y125244D01*
X304453Y125168D01*
X304478Y125160D01*
X304501Y125147D01*
X304644Y125107D01*
X304785Y125062D01*
X304811Y125060D01*
X304836Y125052D01*
X305080Y125033D01*
X306842Y125033D01*
X308033Y123842D01*
X308033Y114158D01*
X306842Y112967D01*
X293158Y112967D01*
X291967Y114158D01*
X291967Y123842D01*
X293158Y125033D01*
X294920Y125033D01*
X294946Y125036D01*
X294972Y125034D01*
X295119Y125056D01*
X295266Y125073D01*
X295291Y125081D01*
X295317Y125085D01*
X295455Y125140D01*
X295594Y125190D01*
X295616Y125204D01*
X295641Y125214D01*
X295762Y125299D01*
X295887Y125379D01*
X295905Y125398D01*
X295927Y125413D01*
X296026Y125523D01*
X296129Y125630D01*
X296143Y125652D01*
X296160Y125672D01*
X296232Y125802D01*
X296308Y125929D01*
X296316Y125954D01*
X296329Y125977D01*
X296369Y126120D01*
X296414Y126261D01*
X296416Y126287D01*
X296424Y126312D01*
X296443Y126556D01*
X296443Y127896D01*
X296429Y128021D01*
X296422Y128148D01*
X296409Y128194D01*
X296403Y128242D01*
X296361Y128361D01*
X296326Y128482D01*
X296302Y128525D01*
X296286Y128570D01*
X296217Y128676D01*
X296156Y128787D01*
X296116Y128833D01*
X296097Y128863D01*
X296062Y128896D01*
X295997Y128973D01*
X293573Y131397D01*
X293474Y131476D01*
X293380Y131560D01*
X293338Y131584D01*
X293300Y131614D01*
X293186Y131668D01*
X293075Y131729D01*
X293028Y131742D01*
X292985Y131763D01*
X292861Y131789D01*
X292740Y131824D01*
X292679Y131829D01*
X292644Y131836D01*
X292596Y131835D01*
X292496Y131843D01*
X277616Y131843D01*
X277491Y131829D01*
X277364Y131822D01*
X277318Y131809D01*
X277270Y131803D01*
X277151Y131761D01*
X277030Y131726D01*
X276987Y131702D01*
X276942Y131686D01*
X276836Y131617D01*
X276725Y131556D01*
X276679Y131516D01*
X276649Y131497D01*
X276616Y131462D01*
X276539Y131397D01*
X271461Y126319D01*
X264556Y126319D01*
X264530Y126316D01*
X264504Y126318D01*
X264357Y126296D01*
X264210Y126279D01*
X264185Y126271D01*
X264159Y126267D01*
X264021Y126212D01*
X263882Y126162D01*
X263860Y126148D01*
X263835Y126138D01*
X263714Y126053D01*
X263589Y125973D01*
X263571Y125954D01*
X263549Y125939D01*
X263450Y125829D01*
X263347Y125722D01*
X263333Y125700D01*
X263316Y125680D01*
X263244Y125550D01*
X263168Y125423D01*
X263160Y125398D01*
X263147Y125375D01*
X263107Y125232D01*
X263062Y125091D01*
X263060Y125065D01*
X263052Y125040D01*
X263033Y124796D01*
X263033Y113658D01*
X261842Y112467D01*
X252628Y112467D01*
X252503Y112453D01*
X252376Y112446D01*
X252330Y112433D01*
X252282Y112427D01*
X252163Y112385D01*
X252042Y112350D01*
X251999Y112326D01*
X251954Y112310D01*
X251848Y112241D01*
X251737Y112180D01*
X251691Y112140D01*
X251661Y112121D01*
X251628Y112086D01*
X251551Y112021D01*
X249663Y110133D01*
X249601Y110055D01*
X249531Y109982D01*
X249493Y109918D01*
X249446Y109860D01*
X249404Y109769D01*
X249352Y109683D01*
X249329Y109612D01*
X249298Y109545D01*
X249276Y109447D01*
X249246Y109351D01*
X249240Y109277D01*
X249224Y109204D01*
X249226Y109104D01*
X249218Y109004D01*
X249229Y108930D01*
X249230Y108856D01*
X249255Y108759D01*
X249269Y108659D01*
X249297Y108590D01*
X249315Y108518D01*
X249361Y108429D01*
X249398Y108335D01*
X249441Y108274D01*
X249475Y108208D01*
X249540Y108132D01*
X249597Y108049D01*
X249652Y107999D01*
X249701Y107943D01*
X249781Y107883D01*
X249856Y107816D01*
X249921Y107780D01*
X249981Y107735D01*
X250073Y107696D01*
X250161Y107647D01*
X250233Y107627D01*
X250301Y107597D01*
X250400Y107580D01*
X250496Y107552D01*
X250596Y107544D01*
X250644Y107536D01*
X250680Y107538D01*
X250740Y107533D01*
X261842Y107533D01*
X263033Y106342D01*
X263033Y95204D01*
X263036Y95178D01*
X263034Y95152D01*
X263056Y95005D01*
X263073Y94858D01*
X263081Y94833D01*
X263085Y94807D01*
X263140Y94669D01*
X263190Y94530D01*
X263204Y94508D01*
X263214Y94483D01*
X263299Y94362D01*
X263379Y94237D01*
X263398Y94219D01*
X263413Y94197D01*
X263523Y94098D01*
X263630Y93995D01*
X263652Y93981D01*
X263672Y93964D01*
X263802Y93892D01*
X263929Y93816D01*
X263954Y93808D01*
X263977Y93795D01*
X264120Y93755D01*
X264261Y93710D01*
X264287Y93708D01*
X264312Y93700D01*
X264556Y93681D01*
X271461Y93681D01*
X276539Y88603D01*
X276638Y88524D01*
X276732Y88440D01*
X276774Y88416D01*
X276812Y88386D01*
X276926Y88332D01*
X277037Y88271D01*
X277084Y88258D01*
X277127Y88237D01*
X277251Y88211D01*
X277372Y88176D01*
X277433Y88171D01*
X277468Y88164D01*
X277516Y88165D01*
X277616Y88157D01*
X286873Y88157D01*
X303557Y71473D01*
X303557Y50588D01*
X303560Y50562D01*
X303558Y50536D01*
X303580Y50389D01*
X303597Y50242D01*
X303605Y50217D01*
X303609Y50191D01*
X303664Y50053D01*
X303714Y49914D01*
X303728Y49892D01*
X303738Y49867D01*
X303823Y49746D01*
X303903Y49621D01*
X303922Y49603D01*
X303937Y49581D01*
X304047Y49482D01*
X304154Y49379D01*
X304176Y49365D01*
X304196Y49348D01*
X304326Y49276D01*
X304453Y49200D01*
X304478Y49192D01*
X304501Y49179D01*
X304644Y49139D01*
X304785Y49094D01*
X304811Y49092D01*
X304836Y49084D01*
X305080Y49065D01*
X310920Y49065D01*
X310946Y49068D01*
X310972Y49066D01*
X311119Y49088D01*
X311266Y49105D01*
X311291Y49113D01*
X311317Y49117D01*
X311455Y49172D01*
X311594Y49222D01*
X311616Y49236D01*
X311641Y49246D01*
X311762Y49331D01*
X311887Y49411D01*
X311905Y49430D01*
X311927Y49445D01*
X312026Y49555D01*
X312129Y49662D01*
X312143Y49684D01*
X312160Y49704D01*
X312232Y49834D01*
X312308Y49961D01*
X312316Y49986D01*
X312329Y50009D01*
X312369Y50152D01*
X312414Y50293D01*
X312416Y50319D01*
X312424Y50344D01*
X312443Y50588D01*
X312443Y70444D01*
X312440Y70470D01*
X312442Y70496D01*
X312420Y70643D01*
X312403Y70790D01*
X312395Y70815D01*
X312391Y70841D01*
X312336Y70979D01*
X312286Y71118D01*
X312272Y71140D01*
X312262Y71165D01*
X312177Y71286D01*
X312097Y71411D01*
X312078Y71429D01*
X312063Y71451D01*
X311953Y71550D01*
X311846Y71653D01*
X311824Y71667D01*
X311804Y71684D01*
X311674Y71756D01*
X311547Y71832D01*
X311522Y71840D01*
X311499Y71853D01*
X311356Y71893D01*
X311215Y71938D01*
X311189Y71940D01*
X311183Y71942D01*
X309967Y73158D01*
X309967Y86842D01*
X310471Y87345D01*
X310487Y87366D01*
X310507Y87383D01*
X310595Y87502D01*
X310687Y87618D01*
X310698Y87642D01*
X310714Y87663D01*
X310773Y87799D01*
X310836Y87933D01*
X310842Y87959D01*
X310852Y87983D01*
X310878Y88129D01*
X310909Y88274D01*
X310909Y88300D01*
X310914Y88326D01*
X310906Y88475D01*
X310903Y88622D01*
X310897Y88648D01*
X310896Y88674D01*
X310855Y88817D01*
X310818Y88960D01*
X310806Y88984D01*
X310799Y89009D01*
X310727Y89138D01*
X310659Y89270D01*
X310642Y89290D01*
X310629Y89313D01*
X310471Y89499D01*
X305449Y94521D01*
X305350Y94600D01*
X305256Y94684D01*
X305214Y94708D01*
X305176Y94738D01*
X305062Y94792D01*
X304951Y94853D01*
X304904Y94866D01*
X304861Y94887D01*
X304737Y94913D01*
X304616Y94948D01*
X304555Y94953D01*
X304520Y94960D01*
X304472Y94959D01*
X304372Y94967D01*
X293158Y94967D01*
X291967Y96158D01*
X291967Y105842D01*
X293158Y107033D01*
X306372Y107033D01*
X306497Y107047D01*
X306624Y107054D01*
X306670Y107067D01*
X306718Y107073D01*
X306837Y107115D01*
X306958Y107150D01*
X307001Y107174D01*
X307046Y107190D01*
X307152Y107259D01*
X307263Y107320D01*
X307309Y107360D01*
X307339Y107379D01*
X307372Y107414D01*
X307449Y107479D01*
X311997Y112027D01*
X312076Y112126D01*
X312160Y112220D01*
X312184Y112262D01*
X312214Y112300D01*
X312268Y112414D01*
X312329Y112525D01*
X312342Y112572D01*
X312363Y112615D01*
X312389Y112739D01*
X312424Y112860D01*
X312429Y112921D01*
X312436Y112956D01*
X312435Y113004D01*
X312443Y113104D01*
X312443Y130444D01*
X312440Y130470D01*
X312442Y130496D01*
X312420Y130643D01*
X312403Y130790D01*
X312395Y130815D01*
X312391Y130841D01*
X312336Y130979D01*
X312286Y131118D01*
X312272Y131140D01*
X312262Y131165D01*
X312177Y131286D01*
X312097Y131411D01*
X312078Y131429D01*
X312063Y131451D01*
X311953Y131550D01*
X311846Y131653D01*
X311824Y131667D01*
X311804Y131684D01*
X311674Y131756D01*
X311547Y131832D01*
X311522Y131840D01*
X311499Y131853D01*
X311356Y131893D01*
X311215Y131938D01*
X311189Y131940D01*
X311183Y131942D01*
X309967Y133158D01*
X309967Y146842D01*
X311158Y148033D01*
X320842Y148033D01*
X322033Y146842D01*
X322033Y133158D01*
X320811Y131936D01*
X320734Y131927D01*
X320709Y131919D01*
X320683Y131915D01*
X320545Y131860D01*
X320406Y131810D01*
X320384Y131796D01*
X320359Y131786D01*
X320238Y131701D01*
X320113Y131621D01*
X320095Y131602D01*
X320073Y131587D01*
X319974Y131477D01*
X319871Y131370D01*
X319857Y131348D01*
X319840Y131328D01*
X319768Y131198D01*
X319692Y131071D01*
X319684Y131046D01*
X319671Y131023D01*
X319631Y130880D01*
X319586Y130739D01*
X319584Y130713D01*
X319576Y130688D01*
X319557Y130444D01*
X319557Y109527D01*
X311107Y101077D01*
X311091Y101057D01*
X311071Y101040D01*
X311023Y100976D01*
X311004Y100955D01*
X310984Y100922D01*
X310982Y100920D01*
X310890Y100804D01*
X310879Y100780D01*
X310864Y100759D01*
X310805Y100623D01*
X310742Y100489D01*
X310736Y100463D01*
X310726Y100439D01*
X310699Y100293D01*
X310668Y100148D01*
X310669Y100122D01*
X310664Y100096D01*
X310672Y99948D01*
X310674Y99800D01*
X310681Y99774D01*
X310682Y99748D01*
X310723Y99606D01*
X310759Y99462D01*
X310771Y99439D01*
X310778Y99413D01*
X310851Y99284D01*
X310919Y99152D01*
X310936Y99132D01*
X310949Y99109D01*
X311107Y98923D01*
X319557Y90473D01*
X319557Y89556D01*
X319560Y89530D01*
X319558Y89504D01*
X319580Y89357D01*
X319597Y89210D01*
X319605Y89185D01*
X319609Y89159D01*
X319664Y89021D01*
X319714Y88882D01*
X319728Y88860D01*
X319738Y88835D01*
X319823Y88714D01*
X319903Y88589D01*
X319922Y88571D01*
X319937Y88549D01*
X320047Y88450D01*
X320154Y88347D01*
X320176Y88333D01*
X320196Y88316D01*
X320326Y88244D01*
X320453Y88168D01*
X320478Y88160D01*
X320501Y88147D01*
X320644Y88107D01*
X320785Y88062D01*
X320811Y88060D01*
X320817Y88058D01*
X322033Y86842D01*
X322033Y73158D01*
X320811Y71936D01*
X320734Y71927D01*
X320709Y71919D01*
X320683Y71915D01*
X320545Y71860D01*
X320406Y71810D01*
X320384Y71796D01*
X320359Y71786D01*
X320238Y71701D01*
X320113Y71621D01*
X320095Y71602D01*
X320073Y71587D01*
X319974Y71477D01*
X319871Y71370D01*
X319857Y71348D01*
X319840Y71328D01*
X319768Y71198D01*
X319692Y71071D01*
X319684Y71046D01*
X319671Y71023D01*
X319631Y70880D01*
X319586Y70739D01*
X319584Y70713D01*
X319576Y70688D01*
X319557Y70444D01*
X319557Y50588D01*
X319560Y50562D01*
X319558Y50536D01*
X319580Y50389D01*
X319597Y50242D01*
X319605Y50217D01*
X319609Y50191D01*
X319664Y50053D01*
X319714Y49914D01*
X319728Y49892D01*
X319738Y49867D01*
X319823Y49746D01*
X319903Y49621D01*
X319922Y49603D01*
X319937Y49581D01*
X320047Y49482D01*
X320154Y49379D01*
X320176Y49365D01*
X320196Y49348D01*
X320326Y49276D01*
X320453Y49200D01*
X320478Y49192D01*
X320501Y49179D01*
X320644Y49139D01*
X320785Y49094D01*
X320811Y49092D01*
X320836Y49084D01*
X321080Y49065D01*
X432685Y49065D01*
X432811Y49079D01*
X432937Y49086D01*
X432984Y49099D01*
X433032Y49105D01*
X433151Y49147D01*
X433272Y49182D01*
X433314Y49206D01*
X433360Y49222D01*
X433466Y49291D01*
X433576Y49352D01*
X433622Y49392D01*
X433652Y49411D01*
X433686Y49446D01*
X433762Y49511D01*
X435771Y51520D01*
X435803Y51559D01*
X435840Y51593D01*
X435911Y51695D01*
X435988Y51793D01*
X436010Y51838D01*
X436038Y51880D01*
X436084Y51996D01*
X436137Y52108D01*
X436148Y52157D01*
X436166Y52204D01*
X436184Y52327D01*
X436210Y52449D01*
X436209Y52499D01*
X436217Y52549D01*
X436207Y52673D01*
X436204Y52797D01*
X436192Y52846D01*
X436188Y52896D01*
X436150Y53015D01*
X436119Y53135D01*
X436096Y53180D01*
X436081Y53228D01*
X436017Y53334D01*
X435960Y53445D01*
X435927Y53483D01*
X435901Y53526D01*
X435814Y53616D01*
X435734Y53710D01*
X435693Y53740D01*
X435658Y53776D01*
X435554Y53844D01*
X435454Y53918D01*
X435407Y53937D01*
X435365Y53965D01*
X435248Y54006D01*
X435134Y54056D01*
X435084Y54064D01*
X435037Y54081D01*
X434913Y54095D01*
X434791Y54117D01*
X434740Y54115D01*
X434690Y54120D01*
X434567Y54106D01*
X434443Y54099D01*
X434394Y54085D01*
X434344Y54079D01*
X434111Y54004D01*
X434108Y54003D01*
X431415Y52887D01*
X428585Y52887D01*
X425971Y53970D01*
X423970Y55971D01*
X422887Y58585D01*
X422887Y59920D01*
X422884Y59946D01*
X422886Y59972D01*
X422864Y60119D01*
X422847Y60266D01*
X422839Y60291D01*
X422835Y60317D01*
X422780Y60455D01*
X422730Y60594D01*
X422716Y60616D01*
X422706Y60641D01*
X422621Y60762D01*
X422541Y60887D01*
X422522Y60905D01*
X422507Y60927D01*
X422397Y61026D01*
X422290Y61129D01*
X422268Y61143D01*
X422248Y61160D01*
X422118Y61232D01*
X421991Y61308D01*
X421966Y61316D01*
X421943Y61329D01*
X421800Y61369D01*
X421659Y61414D01*
X421633Y61416D01*
X421608Y61424D01*
X421364Y61443D01*
X415056Y61443D01*
X415030Y61440D01*
X415004Y61442D01*
X414857Y61420D01*
X414710Y61403D01*
X414685Y61395D01*
X414659Y61391D01*
X414521Y61336D01*
X414382Y61286D01*
X414360Y61272D01*
X414335Y61262D01*
X414214Y61177D01*
X414089Y61097D01*
X414071Y61078D01*
X414049Y61063D01*
X413950Y60953D01*
X413847Y60846D01*
X413833Y60824D01*
X413816Y60804D01*
X413744Y60674D01*
X413668Y60547D01*
X413660Y60522D01*
X413647Y60499D01*
X413607Y60356D01*
X413562Y60215D01*
X413560Y60189D01*
X413552Y60164D01*
X413533Y59920D01*
X413533Y58158D01*
X412342Y56967D01*
X398658Y56967D01*
X397467Y58158D01*
X397467Y69260D01*
X397456Y69360D01*
X397454Y69460D01*
X397436Y69532D01*
X397427Y69606D01*
X397394Y69701D01*
X397369Y69798D01*
X397335Y69864D01*
X397310Y69934D01*
X397255Y70019D01*
X397209Y70108D01*
X397161Y70164D01*
X397121Y70227D01*
X397049Y70297D01*
X396984Y70373D01*
X396924Y70417D01*
X396870Y70469D01*
X396784Y70521D01*
X396703Y70580D01*
X396635Y70610D01*
X396571Y70648D01*
X396475Y70679D01*
X396383Y70718D01*
X396310Y70732D01*
X396239Y70754D01*
X396139Y70762D01*
X396040Y70780D01*
X395966Y70776D01*
X395892Y70782D01*
X395792Y70767D01*
X395692Y70762D01*
X395621Y70742D01*
X395547Y70731D01*
X395454Y70693D01*
X395357Y70666D01*
X395292Y70629D01*
X395223Y70602D01*
X395141Y70545D01*
X395053Y70495D01*
X394977Y70430D01*
X394937Y70403D01*
X394913Y70376D01*
X394867Y70337D01*
X392979Y68449D01*
X392900Y68350D01*
X392816Y68256D01*
X392792Y68214D01*
X392762Y68176D01*
X392708Y68062D01*
X392647Y67951D01*
X392634Y67904D01*
X392613Y67861D01*
X392587Y67737D01*
X392552Y67616D01*
X392547Y67555D01*
X392540Y67520D01*
X392541Y67472D01*
X392533Y67372D01*
X392533Y58158D01*
X391342Y56967D01*
X377658Y56967D01*
X376467Y58158D01*
X376467Y59920D01*
X376464Y59946D01*
X376466Y59972D01*
X376444Y60119D01*
X376427Y60266D01*
X376419Y60291D01*
X376415Y60317D01*
X376360Y60455D01*
X376310Y60594D01*
X376296Y60616D01*
X376286Y60641D01*
X376201Y60762D01*
X376121Y60887D01*
X376102Y60905D01*
X376087Y60927D01*
X375977Y61026D01*
X375870Y61129D01*
X375848Y61143D01*
X375828Y61160D01*
X375698Y61232D01*
X375571Y61308D01*
X375546Y61316D01*
X375523Y61329D01*
X375380Y61369D01*
X375239Y61414D01*
X375213Y61416D01*
X375188Y61424D01*
X374944Y61443D01*
X347527Y61443D01*
X337449Y71521D01*
X337350Y71600D01*
X337256Y71684D01*
X337214Y71708D01*
X337176Y71738D01*
X337062Y71792D01*
X336951Y71853D01*
X336904Y71866D01*
X336861Y71887D01*
X336737Y71913D01*
X336616Y71948D01*
X336555Y71953D01*
X336520Y71960D01*
X336472Y71959D01*
X336372Y71967D01*
X329158Y71967D01*
X327967Y73158D01*
X327967Y86842D01*
X329158Y88033D01*
X338842Y88033D01*
X340033Y86842D01*
X340033Y79628D01*
X340047Y79503D01*
X340054Y79376D01*
X340067Y79330D01*
X340073Y79282D01*
X340115Y79163D01*
X340150Y79042D01*
X340174Y78999D01*
X340190Y78954D01*
X340259Y78848D01*
X340320Y78737D01*
X340360Y78691D01*
X340379Y78661D01*
X340414Y78628D01*
X340479Y78551D01*
X350027Y69003D01*
X350126Y68924D01*
X350220Y68840D01*
X350262Y68816D01*
X350300Y68786D01*
X350414Y68732D01*
X350525Y68671D01*
X350572Y68658D01*
X350615Y68637D01*
X350739Y68611D01*
X350860Y68576D01*
X350921Y68571D01*
X350956Y68564D01*
X351004Y68565D01*
X351104Y68557D01*
X374944Y68557D01*
X374970Y68560D01*
X374996Y68558D01*
X375143Y68580D01*
X375290Y68597D01*
X375315Y68605D01*
X375341Y68609D01*
X375479Y68664D01*
X375618Y68714D01*
X375640Y68728D01*
X375665Y68738D01*
X375786Y68823D01*
X375911Y68903D01*
X375929Y68922D01*
X375951Y68937D01*
X376050Y69047D01*
X376153Y69154D01*
X376167Y69176D01*
X376184Y69196D01*
X376256Y69326D01*
X376332Y69453D01*
X376340Y69478D01*
X376353Y69501D01*
X376393Y69644D01*
X376438Y69785D01*
X376440Y69811D01*
X376448Y69836D01*
X376467Y70080D01*
X376467Y71842D01*
X377700Y73075D01*
X377788Y73106D01*
X377886Y73131D01*
X377952Y73165D01*
X378022Y73190D01*
X378106Y73245D01*
X378196Y73291D01*
X378252Y73339D01*
X378315Y73379D01*
X378385Y73451D01*
X378461Y73516D01*
X378505Y73576D01*
X378557Y73630D01*
X378609Y73716D01*
X378668Y73797D01*
X378698Y73865D01*
X378736Y73929D01*
X378767Y74025D01*
X378806Y74117D01*
X378819Y74190D01*
X378842Y74261D01*
X378850Y74361D01*
X378868Y74460D01*
X378864Y74534D01*
X378870Y74608D01*
X378855Y74708D01*
X378850Y74808D01*
X378829Y74879D01*
X378818Y74953D01*
X378781Y75046D01*
X378754Y75143D01*
X378717Y75208D01*
X378690Y75277D01*
X378632Y75359D01*
X378583Y75447D01*
X378518Y75523D01*
X378491Y75563D01*
X378464Y75587D01*
X378425Y75633D01*
X373461Y80597D01*
X373362Y80676D01*
X373268Y80760D01*
X373226Y80784D01*
X373188Y80814D01*
X373074Y80868D01*
X372963Y80929D01*
X372916Y80942D01*
X372873Y80963D01*
X372749Y80989D01*
X372627Y81024D01*
X372567Y81029D01*
X372532Y81036D01*
X372484Y81035D01*
X372384Y81043D01*
X370827Y81043D01*
X361443Y90427D01*
X361443Y95920D01*
X361440Y95946D01*
X361442Y95972D01*
X361420Y96119D01*
X361403Y96266D01*
X361395Y96291D01*
X361391Y96317D01*
X361336Y96455D01*
X361286Y96594D01*
X361272Y96616D01*
X361262Y96641D01*
X361177Y96762D01*
X361097Y96887D01*
X361078Y96905D01*
X361063Y96927D01*
X360953Y97026D01*
X360846Y97129D01*
X360824Y97143D01*
X360804Y97160D01*
X360674Y97232D01*
X360547Y97308D01*
X360522Y97316D01*
X360499Y97329D01*
X360356Y97369D01*
X360215Y97414D01*
X360189Y97416D01*
X360164Y97424D01*
X359920Y97443D01*
X359556Y97443D01*
X359530Y97440D01*
X359504Y97442D01*
X359357Y97420D01*
X359210Y97403D01*
X359185Y97395D01*
X359159Y97391D01*
X359021Y97336D01*
X358882Y97286D01*
X358860Y97272D01*
X358835Y97262D01*
X358714Y97177D01*
X358589Y97097D01*
X358571Y97078D01*
X358549Y97063D01*
X358450Y96953D01*
X358347Y96846D01*
X358333Y96824D01*
X358316Y96804D01*
X358244Y96674D01*
X358168Y96547D01*
X358160Y96522D01*
X358147Y96499D01*
X358107Y96356D01*
X358062Y96215D01*
X358060Y96189D01*
X358058Y96183D01*
X356842Y94967D01*
X343158Y94967D01*
X341967Y96158D01*
X341967Y105842D01*
X343158Y107033D01*
X356842Y107033D01*
X358064Y105811D01*
X358073Y105734D01*
X358081Y105709D01*
X358085Y105683D01*
X358140Y105545D01*
X358190Y105406D01*
X358204Y105384D01*
X358214Y105359D01*
X358299Y105238D01*
X358379Y105113D01*
X358398Y105095D01*
X358413Y105073D01*
X358523Y104974D01*
X358630Y104871D01*
X358652Y104857D01*
X358672Y104840D01*
X358802Y104768D01*
X358929Y104692D01*
X358954Y104684D01*
X358977Y104671D01*
X359120Y104631D01*
X359261Y104586D01*
X359287Y104584D01*
X359312Y104576D01*
X359556Y104557D01*
X359920Y104557D01*
X359946Y104560D01*
X359972Y104558D01*
X360119Y104580D01*
X360266Y104597D01*
X360291Y104605D01*
X360317Y104609D01*
X360455Y104664D01*
X360594Y104714D01*
X360616Y104728D01*
X360641Y104738D01*
X360762Y104823D01*
X360887Y104903D01*
X360905Y104922D01*
X360927Y104937D01*
X361026Y105047D01*
X361129Y105154D01*
X361143Y105176D01*
X361160Y105196D01*
X361232Y105326D01*
X361308Y105453D01*
X361316Y105478D01*
X361329Y105501D01*
X361369Y105644D01*
X361414Y105785D01*
X361416Y105811D01*
X361424Y105836D01*
X361443Y106080D01*
X361443Y113928D01*
X361426Y114076D01*
X361414Y114226D01*
X361406Y114249D01*
X361403Y114274D01*
X361353Y114415D01*
X361307Y114557D01*
X361294Y114579D01*
X361286Y114602D01*
X361204Y114728D01*
X361128Y114856D01*
X361110Y114874D01*
X361097Y114895D01*
X360989Y114999D01*
X360885Y115106D01*
X360864Y115120D01*
X360846Y115137D01*
X360718Y115214D01*
X360592Y115295D01*
X360568Y115303D01*
X360547Y115316D01*
X360405Y115361D01*
X360264Y115412D01*
X360239Y115415D01*
X360215Y115422D01*
X360066Y115434D01*
X359917Y115451D01*
X359892Y115448D01*
X359868Y115450D01*
X359720Y115428D01*
X359571Y115410D01*
X359548Y115402D01*
X359523Y115398D01*
X359384Y115343D01*
X359243Y115292D01*
X359222Y115279D01*
X359199Y115270D01*
X359077Y115184D01*
X358951Y115103D01*
X358933Y115085D01*
X358913Y115071D01*
X358813Y114960D01*
X358709Y114852D01*
X358696Y114830D01*
X358680Y114812D01*
X358607Y114681D01*
X358531Y114552D01*
X358521Y114524D01*
X358511Y114507D01*
X358498Y114461D01*
X358449Y114322D01*
X358368Y114019D01*
X358033Y113440D01*
X357560Y112967D01*
X356981Y112632D01*
X356335Y112459D01*
X351999Y112459D01*
X351999Y118524D01*
X351996Y118550D01*
X351998Y118576D01*
X351976Y118723D01*
X351959Y118870D01*
X351951Y118895D01*
X351947Y118921D01*
X351914Y119002D01*
X351925Y119040D01*
X351970Y119181D01*
X351972Y119207D01*
X351980Y119232D01*
X351999Y119476D01*
X351999Y125541D01*
X356335Y125541D01*
X356981Y125368D01*
X357560Y125033D01*
X358033Y124560D01*
X358368Y123981D01*
X358449Y123678D01*
X358504Y123539D01*
X358554Y123398D01*
X358568Y123377D01*
X358577Y123354D01*
X358662Y123231D01*
X358743Y123105D01*
X358761Y123088D01*
X358775Y123067D01*
X358886Y122967D01*
X358994Y122863D01*
X359015Y122850D01*
X359034Y122834D01*
X359164Y122761D01*
X359293Y122684D01*
X359317Y122677D01*
X359338Y122665D01*
X359482Y122624D01*
X359625Y122578D01*
X359650Y122576D01*
X359673Y122569D01*
X359823Y122562D01*
X359972Y122550D01*
X359997Y122554D01*
X360022Y122552D01*
X360169Y122579D01*
X360317Y122602D01*
X360340Y122611D01*
X360364Y122615D01*
X360502Y122675D01*
X360641Y122730D01*
X360661Y122745D01*
X360684Y122754D01*
X360804Y122844D01*
X360927Y122929D01*
X360943Y122948D01*
X360963Y122963D01*
X361060Y123077D01*
X361160Y123188D01*
X361172Y123210D01*
X361188Y123229D01*
X361256Y123362D01*
X361329Y123493D01*
X361336Y123517D01*
X361347Y123539D01*
X361383Y123684D01*
X361424Y123829D01*
X361426Y123859D01*
X361431Y123877D01*
X361431Y123925D01*
X361443Y124072D01*
X361443Y156473D01*
X368497Y163527D01*
X368576Y163626D01*
X368660Y163720D01*
X368684Y163762D01*
X368714Y163800D01*
X368768Y163914D01*
X368829Y164025D01*
X368842Y164072D01*
X368863Y164115D01*
X368889Y164239D01*
X368924Y164360D01*
X368929Y164421D01*
X368936Y164456D01*
X368935Y164504D01*
X368943Y164604D01*
X368943Y171551D01*
X368929Y171677D01*
X368922Y171803D01*
X368909Y171849D01*
X368903Y171897D01*
X368861Y172016D01*
X368826Y172138D01*
X368802Y172180D01*
X368786Y172225D01*
X368717Y172332D01*
X368656Y172442D01*
X368616Y172488D01*
X368597Y172518D01*
X368562Y172552D01*
X368497Y172628D01*
X366967Y174158D01*
X366967Y181915D01*
X366956Y182015D01*
X366954Y182115D01*
X366936Y182187D01*
X366927Y182261D01*
X366894Y182356D01*
X366869Y182453D01*
X366835Y182519D01*
X366810Y182589D01*
X366755Y182674D01*
X366709Y182763D01*
X366661Y182820D01*
X366621Y182882D01*
X366549Y182952D01*
X366484Y183029D01*
X366424Y183073D01*
X366370Y183124D01*
X366284Y183176D01*
X366203Y183236D01*
X366135Y183265D01*
X366071Y183303D01*
X365976Y183334D01*
X365883Y183374D01*
X365810Y183387D01*
X365739Y183409D01*
X365639Y183418D01*
X365540Y183435D01*
X365466Y183431D01*
X365392Y183437D01*
X365293Y183423D01*
X365192Y183417D01*
X365121Y183397D01*
X365047Y183386D01*
X364954Y183349D01*
X364857Y183321D01*
X364792Y183285D01*
X364723Y183257D01*
X364641Y183200D01*
X364553Y183151D01*
X364477Y183086D01*
X364437Y183058D01*
X364413Y183032D01*
X364367Y182992D01*
X364342Y182967D01*
X352658Y182967D01*
X351467Y184158D01*
X351467Y193842D01*
X352658Y195033D01*
X364342Y195033D01*
X365533Y193842D01*
X365533Y193085D01*
X365544Y192985D01*
X365546Y192885D01*
X365564Y192813D01*
X365573Y192739D01*
X365606Y192644D01*
X365631Y192547D01*
X365665Y192481D01*
X365690Y192411D01*
X365745Y192326D01*
X365791Y192237D01*
X365839Y192180D01*
X365879Y192118D01*
X365951Y192048D01*
X366016Y191971D01*
X366076Y191927D01*
X366130Y191876D01*
X366216Y191824D01*
X366297Y191764D01*
X366365Y191735D01*
X366429Y191697D01*
X366524Y191666D01*
X366617Y191626D01*
X366690Y191613D01*
X366761Y191591D01*
X366861Y191582D01*
X366960Y191565D01*
X367034Y191569D01*
X367108Y191563D01*
X367207Y191577D01*
X367308Y191583D01*
X367379Y191603D01*
X367453Y191614D01*
X367546Y191651D01*
X367643Y191679D01*
X367708Y191715D01*
X367777Y191743D01*
X367859Y191800D01*
X367947Y191849D01*
X368023Y191914D01*
X368063Y191942D01*
X368087Y191968D01*
X368133Y192008D01*
X368158Y192033D01*
X374333Y192033D01*
X374432Y192044D01*
X374533Y192046D01*
X374605Y192064D01*
X374679Y192073D01*
X374773Y192106D01*
X374871Y192131D01*
X374937Y192165D01*
X375007Y192190D01*
X375091Y192245D01*
X375181Y192291D01*
X375237Y192339D01*
X375300Y192379D01*
X375370Y192451D01*
X375446Y192516D01*
X375490Y192576D01*
X375542Y192630D01*
X375594Y192716D01*
X375653Y192797D01*
X375683Y192865D01*
X375721Y192929D01*
X375752Y193025D01*
X375791Y193117D01*
X375804Y193190D01*
X375827Y193261D01*
X375835Y193361D01*
X375853Y193460D01*
X375849Y193534D01*
X375855Y193608D01*
X375840Y193708D01*
X375835Y193808D01*
X375814Y193879D01*
X375803Y193953D01*
X375766Y194046D01*
X375738Y194143D01*
X375702Y194208D01*
X375675Y194277D01*
X375617Y194359D01*
X375568Y194447D01*
X375503Y194523D01*
X375476Y194563D01*
X375449Y194587D01*
X375410Y194633D01*
X374031Y196012D01*
X372959Y198600D01*
X372959Y201400D01*
X374031Y203988D01*
X376012Y205969D01*
X378600Y207041D01*
X381400Y207041D01*
X383988Y205969D01*
X385969Y203988D01*
X387041Y201400D01*
X387041Y198600D01*
X385969Y196012D01*
X384590Y194633D01*
X384528Y194554D01*
X384458Y194482D01*
X384420Y194418D01*
X384374Y194360D01*
X384331Y194269D01*
X384279Y194183D01*
X384256Y194112D01*
X384225Y194045D01*
X384204Y193947D01*
X384173Y193851D01*
X384167Y193777D01*
X384151Y193704D01*
X384153Y193604D01*
X384145Y193504D01*
X384156Y193430D01*
X384157Y193356D01*
X384182Y193259D01*
X384197Y193159D01*
X384224Y193090D01*
X384242Y193018D01*
X384288Y192929D01*
X384325Y192835D01*
X384368Y192774D01*
X384402Y192708D01*
X384467Y192632D01*
X384524Y192549D01*
X384579Y192499D01*
X384628Y192443D01*
X384709Y192383D01*
X384783Y192316D01*
X384848Y192280D01*
X384908Y192235D01*
X385000Y192196D01*
X385088Y192147D01*
X385160Y192127D01*
X385228Y192097D01*
X385327Y192080D01*
X385423Y192052D01*
X385523Y192044D01*
X385571Y192036D01*
X385607Y192038D01*
X385667Y192033D01*
X391842Y192033D01*
X393033Y190842D01*
X393033Y174158D01*
X391503Y172628D01*
X391424Y172529D01*
X391340Y172435D01*
X391316Y172393D01*
X391286Y172355D01*
X391232Y172241D01*
X391171Y172130D01*
X391158Y172084D01*
X391137Y172040D01*
X391111Y171917D01*
X391076Y171795D01*
X391071Y171734D01*
X391064Y171699D01*
X391065Y171651D01*
X391057Y171551D01*
X391057Y164604D01*
X391071Y164479D01*
X391078Y164352D01*
X391091Y164306D01*
X391097Y164258D01*
X391139Y164139D01*
X391174Y164018D01*
X391198Y163975D01*
X391214Y163930D01*
X391283Y163824D01*
X391344Y163713D01*
X391384Y163667D01*
X391403Y163637D01*
X391438Y163604D01*
X391503Y163527D01*
X398557Y156473D01*
X398557Y142776D01*
X398568Y142676D01*
X398570Y142576D01*
X398588Y142504D01*
X398597Y142430D01*
X398630Y142336D01*
X398655Y142238D01*
X398689Y142172D01*
X398714Y142102D01*
X398769Y142018D01*
X398815Y141928D01*
X398863Y141872D01*
X398903Y141809D01*
X398975Y141739D01*
X399040Y141663D01*
X399100Y141619D01*
X399154Y141567D01*
X399240Y141515D01*
X399321Y141456D01*
X399389Y141426D01*
X399453Y141388D01*
X399549Y141357D01*
X399641Y141318D01*
X399714Y141305D01*
X399785Y141282D01*
X399885Y141274D01*
X399984Y141256D01*
X400058Y141260D01*
X400132Y141254D01*
X400232Y141269D01*
X400332Y141274D01*
X400403Y141295D01*
X400477Y141306D01*
X400570Y141343D01*
X400667Y141370D01*
X400732Y141407D01*
X400801Y141434D01*
X400883Y141492D01*
X400971Y141541D01*
X401047Y141606D01*
X401087Y141633D01*
X401111Y141660D01*
X401157Y141699D01*
X403939Y144481D01*
X411470Y144481D01*
X411558Y144420D01*
X411656Y144343D01*
X411701Y144321D01*
X411743Y144292D01*
X411859Y144247D01*
X411971Y144194D01*
X412020Y144183D01*
X412067Y144165D01*
X412190Y144146D01*
X412312Y144120D01*
X412362Y144121D01*
X412412Y144114D01*
X412536Y144124D01*
X412660Y144126D01*
X412709Y144138D01*
X412759Y144143D01*
X412878Y144181D01*
X412998Y144211D01*
X413043Y144234D01*
X413091Y144250D01*
X413197Y144314D01*
X413308Y144371D01*
X413346Y144403D01*
X413389Y144429D01*
X413479Y144516D01*
X413573Y144597D01*
X413603Y144637D01*
X413639Y144672D01*
X413706Y144777D01*
X413781Y144877D01*
X413800Y144923D01*
X413828Y144966D01*
X413869Y145083D01*
X413919Y145197D01*
X413927Y145246D01*
X413944Y145294D01*
X413958Y145418D01*
X413980Y145540D01*
X413978Y145590D01*
X413983Y145640D01*
X413969Y145764D01*
X413962Y145888D01*
X413948Y145937D01*
X413942Y145986D01*
X413867Y146219D01*
X412887Y148585D01*
X412887Y151415D01*
X413970Y154029D01*
X415971Y156030D01*
X418585Y157113D01*
X421415Y157113D01*
X424029Y156030D01*
X426030Y154029D01*
X427113Y151415D01*
X427113Y149306D01*
X427116Y149280D01*
X427114Y149254D01*
X427136Y149107D01*
X427153Y148960D01*
X427161Y148935D01*
X427165Y148909D01*
X427220Y148771D01*
X427270Y148632D01*
X427284Y148610D01*
X427294Y148585D01*
X427379Y148464D01*
X427459Y148339D01*
X427478Y148321D01*
X427493Y148299D01*
X427603Y148200D01*
X427710Y148097D01*
X427732Y148083D01*
X427752Y148066D01*
X427882Y147994D01*
X428009Y147918D01*
X428034Y147910D01*
X428057Y147897D01*
X428200Y147857D01*
X428341Y147812D01*
X428367Y147810D01*
X428392Y147802D01*
X428636Y147783D01*
X445842Y147783D01*
X446077Y147548D01*
X446195Y147454D01*
X446309Y147357D01*
X446331Y147346D01*
X446350Y147331D01*
X446486Y147267D01*
X446620Y147198D01*
X446643Y147193D01*
X446665Y147182D01*
X446812Y147151D01*
X446958Y147114D01*
X446982Y147114D01*
X447006Y147109D01*
X447155Y147111D01*
X447306Y147109D01*
X447330Y147114D01*
X447354Y147115D01*
X447500Y147151D01*
X447647Y147184D01*
X447669Y147194D01*
X447692Y147200D01*
X447826Y147269D01*
X447962Y147333D01*
X447980Y147348D01*
X448002Y147359D01*
X448117Y147457D01*
X448234Y147551D01*
X448249Y147570D01*
X448267Y147585D01*
X448357Y147706D01*
X448450Y147824D01*
X448463Y147850D01*
X448474Y147866D01*
X448493Y147909D01*
X448561Y148042D01*
X448970Y149029D01*
X450971Y151030D01*
X453585Y152113D01*
X456364Y152113D01*
X456464Y152124D01*
X456564Y152126D01*
X456636Y152144D01*
X456710Y152153D01*
X456805Y152186D01*
X456902Y152211D01*
X456968Y152245D01*
X457038Y152270D01*
X457123Y152325D01*
X457212Y152371D01*
X457269Y152419D01*
X457331Y152459D01*
X457401Y152531D01*
X457477Y152596D01*
X457522Y152656D01*
X457573Y152710D01*
X457625Y152796D01*
X457685Y152877D01*
X457714Y152945D01*
X457752Y153009D01*
X457783Y153105D01*
X457823Y153197D01*
X457836Y153270D01*
X457858Y153341D01*
X457867Y153441D01*
X457884Y153540D01*
X457880Y153614D01*
X457886Y153688D01*
X457872Y153788D01*
X457866Y153888D01*
X457846Y153959D01*
X457835Y154033D01*
X457798Y154126D01*
X457770Y154223D01*
X457734Y154288D01*
X457706Y154357D01*
X457649Y154439D01*
X457600Y154527D01*
X457535Y154603D01*
X457507Y154643D01*
X457481Y154667D01*
X457441Y154713D01*
X446077Y166077D01*
X445978Y166156D01*
X445884Y166240D01*
X445842Y166264D01*
X445804Y166294D01*
X445690Y166348D01*
X445579Y166409D01*
X445533Y166422D01*
X445489Y166443D01*
X445366Y166469D01*
X445244Y166504D01*
X445183Y166509D01*
X445148Y166516D01*
X445100Y166515D01*
X445000Y166523D01*
X423447Y166523D01*
X417449Y172521D01*
X417350Y172600D01*
X417256Y172684D01*
X417214Y172708D01*
X417176Y172738D01*
X417062Y172792D01*
X416951Y172853D01*
X416904Y172866D01*
X416861Y172887D01*
X416737Y172913D01*
X416616Y172948D01*
X416555Y172953D01*
X416520Y172960D01*
X416472Y172959D01*
X416372Y172967D01*
X413158Y172967D01*
X411967Y174158D01*
X411967Y191436D01*
X411965Y191457D01*
X411966Y191476D01*
X411966Y191480D01*
X411966Y191488D01*
X411944Y191635D01*
X411927Y191782D01*
X411919Y191807D01*
X411915Y191833D01*
X411860Y191971D01*
X411810Y192110D01*
X411796Y192132D01*
X411786Y192157D01*
X411701Y192278D01*
X411621Y192403D01*
X411602Y192421D01*
X411587Y192443D01*
X411477Y192542D01*
X411370Y192645D01*
X411348Y192659D01*
X411328Y192676D01*
X411198Y192748D01*
X411071Y192824D01*
X411046Y192832D01*
X411023Y192845D01*
X410880Y192885D01*
X410739Y192930D01*
X410713Y192932D01*
X410688Y192940D01*
X410444Y192959D01*
X408600Y192959D01*
X406012Y194031D01*
X404031Y196012D01*
X402959Y198600D01*
X402959Y201400D01*
X404031Y203988D01*
X406012Y205969D01*
X408600Y207041D01*
X411400Y207041D01*
X413988Y205969D01*
X415969Y203988D01*
X417041Y201400D01*
X417041Y198600D01*
X415969Y196012D01*
X414590Y194633D01*
X414528Y194554D01*
X414458Y194482D01*
X414420Y194418D01*
X414374Y194360D01*
X414331Y194269D01*
X414279Y194183D01*
X414256Y194112D01*
X414225Y194045D01*
X414204Y193947D01*
X414173Y193851D01*
X414167Y193777D01*
X414151Y193704D01*
X414153Y193604D01*
X414145Y193504D01*
X414156Y193430D01*
X414157Y193356D01*
X414182Y193259D01*
X414197Y193159D01*
X414224Y193090D01*
X414242Y193018D01*
X414288Y192929D01*
X414325Y192835D01*
X414368Y192774D01*
X414402Y192708D01*
X414467Y192632D01*
X414524Y192549D01*
X414579Y192499D01*
X414628Y192443D01*
X414709Y192383D01*
X414783Y192316D01*
X414848Y192280D01*
X414908Y192235D01*
X415000Y192196D01*
X415088Y192147D01*
X415160Y192127D01*
X415228Y192097D01*
X415327Y192080D01*
X415423Y192052D01*
X415523Y192044D01*
X415571Y192036D01*
X415607Y192038D01*
X415667Y192033D01*
X421842Y192033D01*
X421867Y192008D01*
X421945Y191946D01*
X422018Y191876D01*
X422082Y191837D01*
X422140Y191791D01*
X422231Y191748D01*
X422317Y191697D01*
X422388Y191674D01*
X422455Y191642D01*
X422553Y191621D01*
X422649Y191591D01*
X422723Y191585D01*
X422796Y191569D01*
X422896Y191571D01*
X422996Y191563D01*
X423070Y191574D01*
X423144Y191575D01*
X423242Y191599D01*
X423341Y191614D01*
X423410Y191642D01*
X423482Y191660D01*
X423571Y191706D01*
X423665Y191743D01*
X423726Y191785D01*
X423792Y191819D01*
X423868Y191885D01*
X423951Y191942D01*
X424001Y191997D01*
X424057Y192045D01*
X424117Y192126D01*
X424184Y192201D01*
X424220Y192266D01*
X424265Y192326D01*
X424304Y192418D01*
X424353Y192506D01*
X424373Y192577D01*
X424403Y192646D01*
X424420Y192744D01*
X424448Y192841D01*
X424456Y192941D01*
X424464Y192989D01*
X424462Y193024D01*
X424467Y193085D01*
X424467Y193842D01*
X425658Y195033D01*
X437342Y195033D01*
X438533Y193842D01*
X438533Y184158D01*
X437342Y182967D01*
X425658Y182967D01*
X425633Y182992D01*
X425555Y183054D01*
X425482Y183124D01*
X425418Y183163D01*
X425360Y183209D01*
X425269Y183252D01*
X425183Y183303D01*
X425112Y183326D01*
X425045Y183358D01*
X424947Y183379D01*
X424851Y183409D01*
X424777Y183415D01*
X424704Y183431D01*
X424604Y183429D01*
X424504Y183437D01*
X424430Y183426D01*
X424356Y183425D01*
X424258Y183401D01*
X424159Y183386D01*
X424090Y183358D01*
X424018Y183340D01*
X423929Y183294D01*
X423835Y183257D01*
X423774Y183215D01*
X423708Y183181D01*
X423632Y183115D01*
X423549Y183058D01*
X423499Y183003D01*
X423443Y182955D01*
X423383Y182874D01*
X423316Y182799D01*
X423280Y182734D01*
X423235Y182674D01*
X423196Y182582D01*
X423147Y182494D01*
X423127Y182423D01*
X423097Y182354D01*
X423080Y182256D01*
X423052Y182159D01*
X423044Y182059D01*
X423036Y182011D01*
X423038Y181976D01*
X423033Y181915D01*
X423033Y177628D01*
X423047Y177503D01*
X423054Y177376D01*
X423067Y177330D01*
X423073Y177282D01*
X423115Y177163D01*
X423150Y177042D01*
X423174Y176999D01*
X423190Y176954D01*
X423259Y176848D01*
X423320Y176737D01*
X423360Y176691D01*
X423379Y176661D01*
X423414Y176628D01*
X423479Y176551D01*
X425947Y174083D01*
X426046Y174004D01*
X426140Y173920D01*
X426182Y173896D01*
X426220Y173866D01*
X426334Y173812D01*
X426445Y173751D01*
X426492Y173738D01*
X426535Y173717D01*
X426659Y173691D01*
X426780Y173656D01*
X426841Y173651D01*
X426876Y173644D01*
X426924Y173645D01*
X427024Y173637D01*
X448578Y173637D01*
X473711Y148503D01*
X473810Y148424D01*
X473904Y148340D01*
X473947Y148316D01*
X473984Y148286D01*
X474099Y148232D01*
X474209Y148171D01*
X474256Y148158D01*
X474299Y148137D01*
X474423Y148111D01*
X474545Y148076D01*
X474605Y148071D01*
X474640Y148064D01*
X474688Y148065D01*
X474788Y148057D01*
X483301Y148057D01*
X483427Y148071D01*
X483553Y148078D01*
X483599Y148091D01*
X483647Y148097D01*
X483766Y148139D01*
X483888Y148174D01*
X483930Y148198D01*
X483975Y148214D01*
X484082Y148283D01*
X501842Y148283D01*
X503033Y147092D01*
X503033Y141490D01*
X503013Y141398D01*
X503013Y141372D01*
X503009Y141345D01*
X503016Y141197D01*
X503019Y141050D01*
X503025Y141024D01*
X503027Y140997D01*
X503033Y140977D01*
X503033Y135219D01*
X503044Y135118D01*
X503046Y135016D01*
X503064Y134945D01*
X503073Y134873D01*
X503107Y134777D01*
X503132Y134678D01*
X503174Y134589D01*
X503190Y134545D01*
X503210Y134514D01*
X503237Y134457D01*
X503368Y134231D01*
X503541Y133585D01*
X503541Y133023D01*
X493000Y133023D01*
X482459Y133023D01*
X482459Y133585D01*
X482632Y134231D01*
X482763Y134457D01*
X482804Y134551D01*
X482853Y134640D01*
X482873Y134710D01*
X482902Y134777D01*
X482920Y134877D01*
X482948Y134975D01*
X482956Y135073D01*
X482964Y135120D01*
X482962Y135156D01*
X482967Y135219D01*
X482967Y139420D01*
X482964Y139446D01*
X482966Y139472D01*
X482944Y139619D01*
X482927Y139766D01*
X482919Y139791D01*
X482915Y139817D01*
X482860Y139955D01*
X482810Y140094D01*
X482796Y140116D01*
X482786Y140141D01*
X482701Y140262D01*
X482621Y140387D01*
X482602Y140405D01*
X482587Y140427D01*
X482477Y140526D01*
X482370Y140629D01*
X482348Y140643D01*
X482328Y140660D01*
X482198Y140732D01*
X482071Y140808D01*
X482046Y140816D01*
X482023Y140829D01*
X481880Y140869D01*
X481739Y140914D01*
X481713Y140916D01*
X481688Y140924D01*
X481444Y140943D01*
X471709Y140943D01*
X471560Y140926D01*
X471410Y140914D01*
X471387Y140906D01*
X471363Y140903D01*
X471222Y140853D01*
X471078Y140807D01*
X471057Y140794D01*
X471035Y140786D01*
X470908Y140704D01*
X470779Y140627D01*
X470762Y140610D01*
X470742Y140597D01*
X470637Y140489D01*
X470529Y140384D01*
X470516Y140364D01*
X470500Y140346D01*
X470422Y140217D01*
X470341Y140091D01*
X470333Y140068D01*
X470321Y140047D01*
X470275Y139904D01*
X470225Y139762D01*
X470222Y139738D01*
X470215Y139715D01*
X470203Y139566D01*
X470186Y139416D01*
X470189Y139392D01*
X470187Y139368D01*
X470209Y139219D01*
X470226Y139070D01*
X470235Y139042D01*
X470238Y139023D01*
X470256Y138979D01*
X470302Y138837D01*
X470734Y137794D01*
X470734Y134964D01*
X470125Y133494D01*
X470097Y133397D01*
X470060Y133304D01*
X470050Y133231D01*
X470029Y133159D01*
X470024Y133059D01*
X470010Y132959D01*
X470016Y132885D01*
X470012Y132811D01*
X470030Y132712D01*
X470039Y132612D01*
X470061Y132541D01*
X470075Y132468D01*
X470115Y132376D01*
X470146Y132280D01*
X470184Y132216D01*
X470214Y132148D01*
X470274Y132068D01*
X470325Y131982D01*
X470377Y131928D01*
X470422Y131869D01*
X470498Y131804D01*
X470568Y131732D01*
X470631Y131691D01*
X470688Y131643D01*
X470777Y131598D01*
X470861Y131543D01*
X470932Y131519D01*
X470998Y131485D01*
X471095Y131460D01*
X471190Y131427D01*
X471264Y131418D01*
X471336Y131401D01*
X471436Y131399D01*
X471536Y131388D01*
X471610Y131397D01*
X471684Y131395D01*
X471783Y131417D01*
X471882Y131429D01*
X471978Y131459D01*
X472025Y131470D01*
X472057Y131485D01*
X472115Y131504D01*
X473585Y132113D01*
X476415Y132113D01*
X479029Y131030D01*
X479859Y130200D01*
X479938Y130138D01*
X480010Y130068D01*
X480074Y130030D01*
X480132Y129983D01*
X480223Y129940D01*
X480309Y129889D01*
X480380Y129866D01*
X480447Y129834D01*
X480545Y129813D01*
X480641Y129783D01*
X480715Y129777D01*
X480788Y129761D01*
X480888Y129763D01*
X480988Y129755D01*
X481062Y129766D01*
X481136Y129767D01*
X481233Y129792D01*
X481333Y129806D01*
X481402Y129834D01*
X481474Y129852D01*
X481563Y129898D01*
X481657Y129935D01*
X481716Y129977D01*
X493000Y129977D01*
X503541Y129977D01*
X503541Y129415D01*
X503368Y128769D01*
X503237Y128543D01*
X503196Y128449D01*
X503147Y128360D01*
X503127Y128290D01*
X503098Y128223D01*
X503080Y128123D01*
X503052Y128025D01*
X503044Y127927D01*
X503036Y127880D01*
X503038Y127844D01*
X503033Y127781D01*
X503033Y121991D01*
X503013Y121899D01*
X503013Y121873D01*
X503009Y121846D01*
X503016Y121699D01*
X503019Y121551D01*
X503025Y121525D01*
X503027Y121498D01*
X503033Y121477D01*
X503033Y115491D01*
X503013Y115399D01*
X503013Y115373D01*
X503009Y115346D01*
X503016Y115199D01*
X503019Y115051D01*
X503025Y115025D01*
X503027Y114998D01*
X503033Y114977D01*
X503033Y108991D01*
X503013Y108899D01*
X503013Y108873D01*
X503009Y108846D01*
X503016Y108699D01*
X503019Y108551D01*
X503025Y108525D01*
X503027Y108498D01*
X503033Y108477D01*
X503033Y102908D01*
X501842Y101717D01*
X487378Y101717D01*
X487253Y101703D01*
X487126Y101696D01*
X487080Y101683D01*
X487032Y101677D01*
X486913Y101635D01*
X486792Y101600D01*
X486749Y101576D01*
X486704Y101560D01*
X486598Y101491D01*
X486487Y101430D01*
X486441Y101390D01*
X486411Y101371D01*
X486378Y101336D01*
X486301Y101271D01*
X476473Y91443D01*
X467133Y91443D01*
X467008Y91429D01*
X466881Y91422D01*
X466835Y91409D01*
X466787Y91403D01*
X466668Y91361D01*
X466546Y91326D01*
X466504Y91302D01*
X466459Y91286D01*
X466353Y91217D01*
X466242Y91156D01*
X466196Y91116D01*
X466166Y91097D01*
X466132Y91062D01*
X466056Y90997D01*
X464029Y88970D01*
X461415Y87887D01*
X458585Y87887D01*
X455971Y88970D01*
X453970Y90971D01*
X452887Y93585D01*
X452887Y96415D01*
X454044Y99208D01*
X454095Y99293D01*
X454118Y99363D01*
X454149Y99430D01*
X454171Y99529D01*
X454201Y99625D01*
X454207Y99699D01*
X454223Y99771D01*
X454221Y99872D01*
X454229Y99972D01*
X454218Y100045D01*
X454217Y100119D01*
X454193Y100217D01*
X454178Y100317D01*
X454150Y100386D01*
X454132Y100457D01*
X454086Y100547D01*
X454049Y100641D01*
X454007Y100702D01*
X453973Y100767D01*
X453907Y100844D01*
X453850Y100927D01*
X453795Y100976D01*
X453747Y101033D01*
X453666Y101093D01*
X453591Y101160D01*
X453526Y101196D01*
X453467Y101240D01*
X453375Y101280D01*
X453286Y101329D01*
X453215Y101349D01*
X453147Y101378D01*
X453048Y101396D01*
X452951Y101424D01*
X452851Y101432D01*
X452804Y101440D01*
X452768Y101438D01*
X452707Y101443D01*
X446699Y101443D01*
X446573Y101429D01*
X446447Y101422D01*
X446401Y101409D01*
X446353Y101403D01*
X446234Y101361D01*
X446112Y101326D01*
X446070Y101302D01*
X446025Y101286D01*
X445918Y101217D01*
X428158Y101217D01*
X426967Y102408D01*
X426967Y108010D01*
X426987Y108102D01*
X426987Y108128D01*
X426991Y108155D01*
X426984Y108303D01*
X426981Y108450D01*
X426975Y108476D01*
X426973Y108503D01*
X426967Y108523D01*
X426967Y114624D01*
X426956Y114724D01*
X426954Y114824D01*
X426936Y114896D01*
X426927Y114970D01*
X426894Y115065D01*
X426869Y115162D01*
X426835Y115228D01*
X426810Y115298D01*
X426755Y115383D01*
X426709Y115472D01*
X426661Y115529D01*
X426621Y115591D01*
X426549Y115661D01*
X426484Y115737D01*
X426424Y115781D01*
X426370Y115833D01*
X426284Y115885D01*
X426203Y115944D01*
X426135Y115974D01*
X426071Y116012D01*
X425975Y116043D01*
X425883Y116082D01*
X425810Y116096D01*
X425739Y116118D01*
X425639Y116126D01*
X425540Y116144D01*
X425466Y116140D01*
X425392Y116146D01*
X425292Y116131D01*
X425192Y116126D01*
X425121Y116106D01*
X425047Y116095D01*
X424954Y116057D01*
X424857Y116030D01*
X424792Y115993D01*
X424723Y115966D01*
X424641Y115909D01*
X424553Y115859D01*
X424477Y115794D01*
X424437Y115767D01*
X424413Y115740D01*
X424367Y115701D01*
X417559Y108893D01*
X417480Y108794D01*
X417396Y108700D01*
X417372Y108658D01*
X417342Y108620D01*
X417288Y108506D01*
X417227Y108395D01*
X417214Y108348D01*
X417193Y108305D01*
X417167Y108181D01*
X417132Y108060D01*
X417127Y107999D01*
X417120Y107964D01*
X417121Y107916D01*
X417113Y107816D01*
X417113Y104949D01*
X416030Y102335D01*
X414029Y100334D01*
X411415Y99251D01*
X408585Y99251D01*
X405971Y100334D01*
X405633Y100672D01*
X405555Y100734D01*
X405482Y100804D01*
X405418Y100842D01*
X405360Y100889D01*
X405269Y100932D01*
X405183Y100983D01*
X405112Y101006D01*
X405045Y101038D01*
X404947Y101059D01*
X404851Y101089D01*
X404777Y101095D01*
X404704Y101111D01*
X404604Y101109D01*
X404504Y101117D01*
X404430Y101106D01*
X404356Y101105D01*
X404258Y101080D01*
X404159Y101066D01*
X404090Y101038D01*
X404018Y101020D01*
X403929Y100974D01*
X403835Y100937D01*
X403774Y100894D01*
X403708Y100860D01*
X403631Y100795D01*
X403549Y100738D01*
X403499Y100683D01*
X403443Y100635D01*
X403383Y100554D01*
X403316Y100479D01*
X403280Y100414D01*
X403235Y100354D01*
X403196Y100262D01*
X403147Y100174D01*
X403127Y100103D01*
X403097Y100034D01*
X403080Y99935D01*
X403052Y99839D01*
X403044Y99739D01*
X403036Y99691D01*
X403038Y99655D01*
X403033Y99595D01*
X403033Y95204D01*
X403036Y95178D01*
X403034Y95152D01*
X403056Y95005D01*
X403073Y94858D01*
X403081Y94833D01*
X403085Y94807D01*
X403140Y94669D01*
X403190Y94530D01*
X403204Y94508D01*
X403214Y94483D01*
X403299Y94362D01*
X403379Y94237D01*
X403398Y94219D01*
X403413Y94197D01*
X403523Y94098D01*
X403630Y93995D01*
X403652Y93981D01*
X403672Y93964D01*
X403802Y93892D01*
X403929Y93816D01*
X403954Y93808D01*
X403977Y93795D01*
X404120Y93755D01*
X404261Y93710D01*
X404287Y93708D01*
X404312Y93700D01*
X404556Y93681D01*
X411461Y93681D01*
X416539Y88603D01*
X416638Y88524D01*
X416732Y88440D01*
X416774Y88416D01*
X416812Y88386D01*
X416926Y88332D01*
X417037Y88271D01*
X417084Y88258D01*
X417127Y88237D01*
X417251Y88211D01*
X417372Y88176D01*
X417433Y88171D01*
X417468Y88164D01*
X417516Y88165D01*
X417616Y88157D01*
X447873Y88157D01*
X452551Y83479D01*
X452650Y83400D01*
X452744Y83316D01*
X452786Y83292D01*
X452824Y83262D01*
X452938Y83208D01*
X453049Y83147D01*
X453096Y83134D01*
X453139Y83113D01*
X453263Y83087D01*
X453384Y83052D01*
X453445Y83047D01*
X453480Y83040D01*
X453528Y83041D01*
X453628Y83033D01*
X460842Y83033D01*
X462033Y81842D01*
X462033Y68158D01*
X460511Y66636D01*
X460432Y66537D01*
X460348Y66443D01*
X460324Y66401D01*
X460294Y66363D01*
X460240Y66249D01*
X460179Y66138D01*
X460166Y66092D01*
X460145Y66048D01*
X460119Y65925D01*
X460084Y65803D01*
X460079Y65742D01*
X460072Y65707D01*
X460073Y65659D01*
X460065Y65559D01*
X460065Y64316D01*
X436684Y40935D01*
X210588Y40935D01*
X210562Y40932D01*
X210536Y40934D01*
X210389Y40912D01*
X210242Y40895D01*
X210217Y40887D01*
X210191Y40883D01*
X210053Y40828D01*
X209914Y40778D01*
X209892Y40764D01*
X209867Y40754D01*
X209746Y40669D01*
X209621Y40589D01*
X209603Y40570D01*
X209581Y40555D01*
X209482Y40445D01*
X209379Y40338D01*
X209365Y40316D01*
X209348Y40296D01*
X209276Y40166D01*
X209200Y40039D01*
X209192Y40014D01*
X209179Y39991D01*
X209139Y39848D01*
X209094Y39707D01*
X209092Y39681D01*
X209084Y39656D01*
X209065Y39412D01*
X209065Y31707D01*
X209073Y31631D01*
X209072Y31554D01*
X209093Y31458D01*
X209105Y31360D01*
X209130Y31289D01*
X209147Y31214D01*
X209189Y31125D01*
X209222Y31032D01*
X209264Y30968D01*
X209296Y30899D01*
X209358Y30822D01*
X209411Y30740D01*
X209466Y30686D01*
X209514Y30627D01*
X209591Y30566D01*
X209662Y30497D01*
X209727Y30458D01*
X209787Y30411D01*
X209920Y30343D01*
X209961Y30319D01*
X209979Y30313D01*
X210005Y30299D01*
X211475Y29690D01*
X214690Y26475D01*
X216293Y22607D01*
X216341Y22519D01*
X216381Y22427D01*
X216426Y22367D01*
X216462Y22302D01*
X216530Y22228D01*
X216589Y22147D01*
X216646Y22099D01*
X216696Y22044D01*
X216779Y21987D01*
X216855Y21922D01*
X216922Y21888D01*
X216983Y21846D01*
X217076Y21809D01*
X217166Y21763D01*
X217238Y21745D01*
X217307Y21718D01*
X217406Y21704D01*
X217504Y21679D01*
X217578Y21678D01*
X217652Y21667D01*
X217752Y21676D01*
X217852Y21674D01*
X217925Y21690D01*
X217999Y21696D01*
X218095Y21727D01*
X218193Y21749D01*
X218260Y21780D01*
X218331Y21803D01*
X218417Y21855D01*
X218508Y21898D01*
X218566Y21945D01*
X218629Y21983D01*
X218702Y22053D01*
X218780Y22116D01*
X218826Y22174D01*
X218879Y22226D01*
X218934Y22310D01*
X218996Y22389D01*
X219042Y22479D01*
X219068Y22519D01*
X219080Y22553D01*
X219107Y22607D01*
X220710Y26475D01*
X223925Y29690D01*
X228126Y31431D01*
X232674Y31431D01*
X236875Y29690D01*
X240090Y26475D01*
X241693Y22607D01*
X241741Y22519D01*
X241781Y22427D01*
X241826Y22367D01*
X241862Y22302D01*
X241930Y22228D01*
X241989Y22147D01*
X242046Y22099D01*
X242096Y22044D01*
X242179Y21987D01*
X242255Y21922D01*
X242322Y21888D01*
X242383Y21846D01*
X242476Y21809D01*
X242566Y21763D01*
X242638Y21745D01*
X242707Y21718D01*
X242806Y21704D01*
X242904Y21679D01*
X242978Y21678D01*
X243052Y21667D01*
X243152Y21676D01*
X243252Y21674D01*
X243325Y21690D01*
X243399Y21696D01*
X243495Y21727D01*
X243593Y21749D01*
X243660Y21780D01*
X243731Y21803D01*
X243817Y21855D01*
X243908Y21898D01*
X243966Y21945D01*
X244029Y21983D01*
X244102Y22053D01*
X244180Y22116D01*
X244226Y22174D01*
X244279Y22226D01*
X244334Y22310D01*
X244396Y22389D01*
X244442Y22479D01*
X244468Y22519D01*
X244480Y22553D01*
X244507Y22607D01*
X246110Y26475D01*
X249325Y29690D01*
X253526Y31431D01*
X258074Y31431D01*
X262275Y29690D01*
X265490Y26475D01*
X267093Y22607D01*
X267141Y22519D01*
X267181Y22427D01*
X267226Y22367D01*
X267262Y22302D01*
X267330Y22228D01*
X267389Y22147D01*
X267446Y22099D01*
X267496Y22044D01*
X267579Y21987D01*
X267655Y21922D01*
X267722Y21888D01*
X267783Y21846D01*
X267876Y21809D01*
X267966Y21763D01*
X268038Y21745D01*
X268107Y21718D01*
X268206Y21704D01*
X268304Y21679D01*
X268378Y21678D01*
X268452Y21667D01*
X268552Y21676D01*
X268652Y21674D01*
X268725Y21690D01*
X268799Y21696D01*
X268895Y21727D01*
X268993Y21749D01*
X269060Y21780D01*
X269131Y21803D01*
X269217Y21855D01*
X269308Y21898D01*
X269366Y21945D01*
X269429Y21983D01*
X269502Y22053D01*
X269580Y22116D01*
X269626Y22174D01*
X269679Y22226D01*
X269734Y22310D01*
X269796Y22389D01*
X269842Y22479D01*
X269868Y22519D01*
X269880Y22553D01*
X269907Y22607D01*
X271510Y26475D01*
X274725Y29690D01*
X278926Y31431D01*
X283474Y31431D01*
X287675Y29690D01*
X290890Y26475D01*
X292258Y23173D01*
X292336Y23033D01*
X292411Y22892D01*
X292421Y22881D01*
X292428Y22868D01*
X292535Y22750D01*
X292640Y22629D01*
X292652Y22621D01*
X292662Y22610D01*
X292793Y22519D01*
X292923Y22426D01*
X292936Y22420D01*
X292948Y22412D01*
X293097Y22353D01*
X293245Y22292D01*
X293259Y22289D01*
X293273Y22284D01*
X293431Y22261D01*
X293589Y22235D01*
X293603Y22235D01*
X293617Y22233D01*
X293777Y22247D01*
X293936Y22257D01*
X293950Y22261D01*
X293965Y22262D01*
X294117Y22311D01*
X294270Y22358D01*
X294283Y22365D01*
X294296Y22369D01*
X294433Y22452D01*
X294572Y22532D01*
X294583Y22541D01*
X294595Y22549D01*
X294710Y22661D01*
X294826Y22770D01*
X294835Y22782D01*
X294845Y22792D01*
X294932Y22927D01*
X295020Y23059D01*
X295027Y23075D01*
X295033Y23085D01*
X295046Y23122D01*
X295114Y23285D01*
X295536Y24583D01*
X296389Y26257D01*
X297494Y27778D01*
X298822Y29106D01*
X300343Y30211D01*
X302017Y31064D01*
X303804Y31645D01*
X304061Y31685D01*
X304061Y21016D01*
X304064Y20990D01*
X304062Y20964D01*
X304084Y20817D01*
X304101Y20670D01*
X304109Y20645D01*
X304113Y20619D01*
X304168Y20482D01*
X304218Y20342D01*
X304232Y20320D01*
X304242Y20295D01*
X304327Y20174D01*
X304407Y20049D01*
X304426Y20031D01*
X304441Y20009D01*
X304457Y19995D01*
X304375Y19910D01*
X304361Y19887D01*
X304344Y19868D01*
X304272Y19738D01*
X304196Y19611D01*
X304188Y19586D01*
X304175Y19563D01*
X304135Y19420D01*
X304090Y19279D01*
X304087Y19253D01*
X304080Y19228D01*
X304061Y18984D01*
X304061Y8315D01*
X303804Y8355D01*
G37*
%LPD*%
G36*
X370108Y103228D02*
X370108Y103228D01*
X370132Y103226D01*
X370281Y103248D01*
X370430Y103266D01*
X370458Y103275D01*
X370477Y103278D01*
X370521Y103295D01*
X370663Y103341D01*
X373182Y104385D01*
X376049Y104385D01*
X376175Y104399D01*
X376301Y104406D01*
X376347Y104419D01*
X376395Y104425D01*
X376514Y104467D01*
X376636Y104502D01*
X376678Y104526D01*
X376723Y104542D01*
X376830Y104611D01*
X376940Y104672D01*
X376986Y104712D01*
X377016Y104731D01*
X377050Y104766D01*
X377126Y104831D01*
X386521Y114226D01*
X386590Y114312D01*
X386612Y114335D01*
X386617Y114344D01*
X386684Y114419D01*
X386708Y114461D01*
X386738Y114499D01*
X386792Y114613D01*
X386853Y114724D01*
X386866Y114770D01*
X386887Y114814D01*
X386913Y114937D01*
X386948Y115059D01*
X386953Y115120D01*
X386960Y115155D01*
X386959Y115203D01*
X386967Y115303D01*
X386967Y124288D01*
X386964Y124314D01*
X386966Y124340D01*
X386944Y124487D01*
X386927Y124634D01*
X386919Y124659D01*
X386915Y124685D01*
X386860Y124823D01*
X386810Y124962D01*
X386796Y124984D01*
X386786Y125009D01*
X386701Y125130D01*
X386621Y125255D01*
X386602Y125273D01*
X386587Y125295D01*
X386477Y125394D01*
X386370Y125497D01*
X386348Y125511D01*
X386328Y125528D01*
X386198Y125600D01*
X386071Y125676D01*
X386046Y125684D01*
X386023Y125697D01*
X385880Y125737D01*
X385739Y125782D01*
X385713Y125784D01*
X385688Y125792D01*
X385444Y125811D01*
X384299Y125811D01*
X384299Y134924D01*
X384296Y134950D01*
X384298Y134976D01*
X384276Y135123D01*
X384259Y135270D01*
X384251Y135295D01*
X384247Y135321D01*
X384214Y135402D01*
X384225Y135440D01*
X384270Y135581D01*
X384272Y135607D01*
X384280Y135632D01*
X384299Y135876D01*
X384299Y144989D01*
X386272Y144989D01*
X388843Y142418D01*
X388921Y142355D01*
X388994Y142285D01*
X389058Y142247D01*
X389116Y142201D01*
X389207Y142158D01*
X389293Y142107D01*
X389364Y142084D01*
X389431Y142052D01*
X389529Y142031D01*
X389625Y142000D01*
X389699Y141994D01*
X389772Y141979D01*
X389872Y141980D01*
X389972Y141972D01*
X390046Y141983D01*
X390120Y141985D01*
X390217Y142009D01*
X390317Y142024D01*
X390386Y142052D01*
X390458Y142070D01*
X390547Y142116D01*
X390641Y142153D01*
X390702Y142195D01*
X390768Y142229D01*
X390844Y142294D01*
X390927Y142352D01*
X390977Y142407D01*
X391033Y142455D01*
X391093Y142536D01*
X391160Y142610D01*
X391196Y142676D01*
X391241Y142735D01*
X391280Y142828D01*
X391329Y142915D01*
X391349Y142987D01*
X391379Y143055D01*
X391396Y143154D01*
X391424Y143251D01*
X391432Y143351D01*
X391440Y143398D01*
X391438Y143434D01*
X391443Y143495D01*
X391443Y152896D01*
X391429Y153021D01*
X391422Y153148D01*
X391409Y153194D01*
X391403Y153242D01*
X391361Y153361D01*
X391326Y153482D01*
X391302Y153525D01*
X391286Y153570D01*
X391217Y153676D01*
X391156Y153787D01*
X391116Y153833D01*
X391097Y153863D01*
X391062Y153896D01*
X390997Y153973D01*
X383943Y161027D01*
X383943Y171551D01*
X383929Y171677D01*
X383922Y171803D01*
X383909Y171849D01*
X383903Y171897D01*
X383861Y172016D01*
X383826Y172138D01*
X383802Y172180D01*
X383786Y172225D01*
X383717Y172332D01*
X383656Y172442D01*
X383616Y172488D01*
X383597Y172518D01*
X383562Y172552D01*
X383497Y172628D01*
X381967Y174158D01*
X381967Y191436D01*
X381965Y191457D01*
X381966Y191476D01*
X381966Y191480D01*
X381966Y191488D01*
X381944Y191635D01*
X381927Y191782D01*
X381919Y191807D01*
X381915Y191833D01*
X381860Y191971D01*
X381810Y192110D01*
X381796Y192132D01*
X381786Y192157D01*
X381701Y192278D01*
X381621Y192403D01*
X381602Y192421D01*
X381587Y192443D01*
X381477Y192542D01*
X381370Y192645D01*
X381348Y192659D01*
X381328Y192676D01*
X381198Y192748D01*
X381071Y192824D01*
X381046Y192832D01*
X381023Y192845D01*
X380880Y192885D01*
X380739Y192930D01*
X380713Y192932D01*
X380688Y192940D01*
X380444Y192959D01*
X379556Y192959D01*
X379530Y192956D01*
X379504Y192958D01*
X379357Y192936D01*
X379210Y192919D01*
X379185Y192911D01*
X379159Y192907D01*
X379021Y192852D01*
X378882Y192802D01*
X378860Y192788D01*
X378835Y192778D01*
X378714Y192693D01*
X378589Y192613D01*
X378571Y192594D01*
X378549Y192579D01*
X378450Y192469D01*
X378347Y192362D01*
X378333Y192340D01*
X378316Y192320D01*
X378244Y192190D01*
X378168Y192063D01*
X378160Y192038D01*
X378147Y192015D01*
X378107Y191872D01*
X378062Y191731D01*
X378060Y191705D01*
X378052Y191680D01*
X378033Y191436D01*
X378033Y174158D01*
X376503Y172628D01*
X376424Y172529D01*
X376340Y172435D01*
X376316Y172393D01*
X376286Y172355D01*
X376232Y172241D01*
X376171Y172130D01*
X376158Y172084D01*
X376137Y172040D01*
X376111Y171917D01*
X376076Y171795D01*
X376071Y171734D01*
X376064Y171699D01*
X376065Y171651D01*
X376057Y171551D01*
X376057Y161027D01*
X369003Y153973D01*
X368924Y153874D01*
X368840Y153780D01*
X368816Y153738D01*
X368786Y153700D01*
X368732Y153586D01*
X368671Y153475D01*
X368658Y153428D01*
X368637Y153385D01*
X368611Y153261D01*
X368576Y153140D01*
X368571Y153079D01*
X368564Y153044D01*
X368565Y152996D01*
X368557Y152896D01*
X368557Y104748D01*
X368574Y104599D01*
X368586Y104449D01*
X368594Y104426D01*
X368597Y104402D01*
X368647Y104261D01*
X368693Y104118D01*
X368706Y104097D01*
X368714Y104074D01*
X368796Y103948D01*
X368873Y103819D01*
X368890Y103802D01*
X368903Y103781D01*
X369011Y103677D01*
X369116Y103569D01*
X369136Y103556D01*
X369154Y103539D01*
X369283Y103462D01*
X369409Y103381D01*
X369432Y103373D01*
X369453Y103360D01*
X369596Y103314D01*
X369738Y103264D01*
X369762Y103261D01*
X369785Y103254D01*
X369934Y103242D01*
X370084Y103225D01*
X370108Y103228D01*
G37*
%LPC*%
G36*
X31312Y11459D02*
X31312Y11459D01*
X24497Y14282D01*
X19282Y19497D01*
X16459Y26312D01*
X16459Y33688D01*
X19282Y40503D01*
X24497Y45718D01*
X31312Y48541D01*
X38688Y48541D01*
X45503Y45718D01*
X50718Y40503D01*
X53541Y33688D01*
X53541Y26312D01*
X50718Y19497D01*
X45503Y14282D01*
X38688Y11459D01*
X31312Y11459D01*
G37*
%LPD*%
%LPC*%
G36*
X471312Y11459D02*
X471312Y11459D01*
X464497Y14282D01*
X459282Y19497D01*
X456459Y26312D01*
X456459Y33688D01*
X459282Y40503D01*
X464497Y45718D01*
X471312Y48541D01*
X478688Y48541D01*
X485503Y45718D01*
X490718Y40503D01*
X493541Y33688D01*
X493541Y26312D01*
X490718Y19497D01*
X485503Y14282D01*
X478688Y11459D01*
X471312Y11459D01*
G37*
%LPD*%
G36*
X91723Y116436D02*
X91723Y116436D01*
X91821Y116438D01*
X91896Y116457D01*
X91971Y116466D01*
X92114Y116511D01*
X92159Y116523D01*
X92176Y116532D01*
X92204Y116541D01*
X93456Y117059D01*
X93479Y117072D01*
X93504Y117080D01*
X93631Y117156D01*
X93761Y117229D01*
X93780Y117246D01*
X93803Y117260D01*
X93909Y117363D01*
X94019Y117463D01*
X94034Y117484D01*
X94053Y117503D01*
X94133Y117627D01*
X94217Y117749D01*
X94227Y117774D01*
X94241Y117796D01*
X94290Y117935D01*
X94345Y118074D01*
X94349Y118100D01*
X94357Y118124D01*
X94374Y118272D01*
X94396Y118418D01*
X94393Y118445D01*
X94396Y118471D01*
X94379Y118618D01*
X94367Y118766D01*
X94359Y118791D01*
X94356Y118817D01*
X94280Y119049D01*
X94008Y119706D01*
X94008Y122536D01*
X95091Y125150D01*
X95963Y126022D01*
X95980Y126043D01*
X95999Y126060D01*
X96087Y126179D01*
X96180Y126295D01*
X96191Y126319D01*
X96207Y126340D01*
X96265Y126476D01*
X96329Y126610D01*
X96334Y126636D01*
X96345Y126660D01*
X96371Y126806D01*
X96402Y126951D01*
X96402Y126977D01*
X96406Y127003D01*
X96399Y127151D01*
X96396Y127299D01*
X96390Y127325D01*
X96388Y127351D01*
X96347Y127494D01*
X96311Y127637D01*
X96299Y127661D01*
X96292Y127686D01*
X96219Y127816D01*
X96152Y127947D01*
X96135Y127967D01*
X96122Y127990D01*
X95963Y128176D01*
X92711Y131428D01*
X92711Y133401D01*
X101824Y133401D01*
X101850Y133404D01*
X101876Y133402D01*
X102023Y133424D01*
X102170Y133441D01*
X102195Y133449D01*
X102221Y133453D01*
X102358Y133508D01*
X102498Y133558D01*
X102520Y133572D01*
X102545Y133582D01*
X102666Y133667D01*
X102791Y133747D01*
X102809Y133766D01*
X102831Y133781D01*
X102930Y133891D01*
X103033Y133998D01*
X103047Y134020D01*
X103064Y134040D01*
X103136Y134170D01*
X103212Y134297D01*
X103220Y134322D01*
X103233Y134345D01*
X103260Y134440D01*
X103311Y134460D01*
X103450Y134510D01*
X103472Y134525D01*
X103497Y134534D01*
X103618Y134619D01*
X103743Y134699D01*
X103761Y134718D01*
X103783Y134733D01*
X103882Y134843D01*
X103985Y134950D01*
X103999Y134973D01*
X104016Y134992D01*
X104088Y135122D01*
X104164Y135249D01*
X104172Y135274D01*
X104185Y135297D01*
X104225Y135440D01*
X104270Y135581D01*
X104272Y135607D01*
X104280Y135632D01*
X104299Y135876D01*
X104299Y144989D01*
X106272Y144989D01*
X108843Y142418D01*
X108921Y142355D01*
X108994Y142285D01*
X109058Y142247D01*
X109116Y142201D01*
X109207Y142158D01*
X109293Y142107D01*
X109364Y142084D01*
X109431Y142052D01*
X109529Y142031D01*
X109625Y142000D01*
X109699Y141994D01*
X109772Y141979D01*
X109872Y141980D01*
X109972Y141972D01*
X110046Y141983D01*
X110120Y141985D01*
X110217Y142009D01*
X110317Y142024D01*
X110386Y142052D01*
X110458Y142070D01*
X110547Y142116D01*
X110641Y142153D01*
X110702Y142195D01*
X110768Y142229D01*
X110844Y142294D01*
X110927Y142352D01*
X110977Y142407D01*
X111033Y142455D01*
X111093Y142536D01*
X111160Y142610D01*
X111196Y142676D01*
X111241Y142735D01*
X111280Y142828D01*
X111329Y142915D01*
X111349Y142987D01*
X111379Y143055D01*
X111396Y143154D01*
X111424Y143251D01*
X111432Y143351D01*
X111440Y143398D01*
X111438Y143434D01*
X111443Y143495D01*
X111443Y152896D01*
X111429Y153021D01*
X111422Y153148D01*
X111409Y153194D01*
X111403Y153242D01*
X111361Y153361D01*
X111326Y153482D01*
X111302Y153525D01*
X111286Y153570D01*
X111217Y153676D01*
X111156Y153787D01*
X111116Y153833D01*
X111097Y153863D01*
X111062Y153896D01*
X110997Y153973D01*
X103943Y161027D01*
X103943Y171551D01*
X103929Y171677D01*
X103922Y171803D01*
X103909Y171849D01*
X103903Y171897D01*
X103861Y172016D01*
X103826Y172138D01*
X103802Y172180D01*
X103786Y172225D01*
X103717Y172332D01*
X103656Y172442D01*
X103616Y172488D01*
X103597Y172518D01*
X103562Y172552D01*
X103497Y172628D01*
X101967Y174158D01*
X101967Y191436D01*
X101965Y191457D01*
X101966Y191476D01*
X101966Y191480D01*
X101966Y191488D01*
X101944Y191635D01*
X101927Y191782D01*
X101919Y191807D01*
X101915Y191833D01*
X101860Y191971D01*
X101810Y192110D01*
X101796Y192132D01*
X101786Y192157D01*
X101701Y192278D01*
X101621Y192403D01*
X101602Y192421D01*
X101587Y192443D01*
X101477Y192542D01*
X101370Y192645D01*
X101348Y192659D01*
X101328Y192676D01*
X101198Y192748D01*
X101071Y192824D01*
X101046Y192832D01*
X101023Y192845D01*
X100880Y192885D01*
X100739Y192930D01*
X100713Y192932D01*
X100688Y192940D01*
X100444Y192959D01*
X99556Y192959D01*
X99530Y192956D01*
X99504Y192958D01*
X99357Y192936D01*
X99210Y192919D01*
X99185Y192911D01*
X99159Y192907D01*
X99021Y192852D01*
X98882Y192802D01*
X98860Y192788D01*
X98835Y192778D01*
X98714Y192693D01*
X98589Y192613D01*
X98571Y192594D01*
X98549Y192579D01*
X98450Y192469D01*
X98347Y192362D01*
X98333Y192340D01*
X98316Y192320D01*
X98244Y192190D01*
X98168Y192063D01*
X98160Y192038D01*
X98147Y192015D01*
X98107Y191872D01*
X98062Y191731D01*
X98060Y191705D01*
X98052Y191680D01*
X98033Y191436D01*
X98033Y174158D01*
X96503Y172628D01*
X96424Y172529D01*
X96340Y172435D01*
X96316Y172393D01*
X96286Y172355D01*
X96232Y172241D01*
X96171Y172130D01*
X96158Y172084D01*
X96137Y172040D01*
X96111Y171917D01*
X96076Y171795D01*
X96071Y171734D01*
X96064Y171699D01*
X96065Y171651D01*
X96057Y171551D01*
X96057Y166027D01*
X66671Y136641D01*
X66609Y136563D01*
X66539Y136490D01*
X66501Y136426D01*
X66454Y136368D01*
X66412Y136277D01*
X66360Y136191D01*
X66337Y136120D01*
X66306Y136053D01*
X66284Y135955D01*
X66254Y135859D01*
X66248Y135785D01*
X66232Y135712D01*
X66234Y135612D01*
X66226Y135512D01*
X66237Y135438D01*
X66238Y135364D01*
X66263Y135267D01*
X66277Y135167D01*
X66305Y135098D01*
X66323Y135026D01*
X66369Y134936D01*
X66406Y134843D01*
X66449Y134782D01*
X66483Y134716D01*
X66548Y134639D01*
X66605Y134557D01*
X66660Y134507D01*
X66709Y134451D01*
X66789Y134391D01*
X66864Y134324D01*
X66929Y134288D01*
X66989Y134243D01*
X67081Y134204D01*
X67169Y134155D01*
X67241Y134135D01*
X67309Y134105D01*
X67408Y134088D01*
X67504Y134060D01*
X67604Y134052D01*
X67652Y134044D01*
X67688Y134046D01*
X67748Y134041D01*
X88227Y134041D01*
X89418Y132850D01*
X89418Y118628D01*
X89432Y118503D01*
X89439Y118376D01*
X89452Y118330D01*
X89458Y118282D01*
X89500Y118163D01*
X89535Y118042D01*
X89559Y117999D01*
X89575Y117954D01*
X89644Y117848D01*
X89705Y117737D01*
X89745Y117691D01*
X89764Y117661D01*
X89799Y117628D01*
X89864Y117551D01*
X90544Y116871D01*
X90604Y116823D01*
X90657Y116769D01*
X90740Y116715D01*
X90817Y116654D01*
X90886Y116622D01*
X90951Y116580D01*
X91043Y116547D01*
X91132Y116505D01*
X91207Y116489D01*
X91279Y116464D01*
X91377Y116453D01*
X91473Y116432D01*
X91549Y116433D01*
X91625Y116425D01*
X91723Y116436D01*
G37*
G36*
X231837Y100811D02*
X231837Y100811D01*
X231962Y100813D01*
X232010Y100825D01*
X232061Y100829D01*
X232179Y100867D01*
X232300Y100898D01*
X232344Y100921D01*
X232392Y100936D01*
X232499Y101000D01*
X232609Y101057D01*
X232648Y101090D01*
X232691Y101116D01*
X232780Y101203D01*
X232875Y101283D01*
X232905Y101324D01*
X232941Y101359D01*
X233008Y101463D01*
X233082Y101563D01*
X233102Y101610D01*
X233129Y101652D01*
X233171Y101769D01*
X233220Y101883D01*
X233229Y101933D01*
X233246Y101980D01*
X233260Y102104D01*
X233282Y102226D01*
X233279Y102277D01*
X233285Y102327D01*
X233270Y102450D01*
X233264Y102575D01*
X233250Y102623D01*
X233244Y102673D01*
X233169Y102906D01*
X232887Y103585D01*
X232887Y106415D01*
X233970Y109029D01*
X235971Y111030D01*
X238585Y112113D01*
X240952Y112113D01*
X241077Y112127D01*
X241204Y112134D01*
X241250Y112147D01*
X241298Y112153D01*
X241417Y112195D01*
X241538Y112230D01*
X241581Y112254D01*
X241626Y112270D01*
X241732Y112339D01*
X241843Y112400D01*
X241889Y112440D01*
X241919Y112459D01*
X241952Y112494D01*
X242029Y112559D01*
X246521Y117051D01*
X246600Y117150D01*
X246684Y117244D01*
X246708Y117286D01*
X246738Y117324D01*
X246792Y117438D01*
X246853Y117549D01*
X246866Y117596D01*
X246887Y117639D01*
X246913Y117763D01*
X246948Y117884D01*
X246953Y117945D01*
X246960Y117980D01*
X246959Y118028D01*
X246967Y118128D01*
X246967Y124288D01*
X246964Y124314D01*
X246966Y124340D01*
X246944Y124487D01*
X246927Y124634D01*
X246919Y124659D01*
X246915Y124685D01*
X246860Y124823D01*
X246810Y124962D01*
X246796Y124984D01*
X246786Y125009D01*
X246701Y125130D01*
X246621Y125255D01*
X246602Y125273D01*
X246587Y125295D01*
X246477Y125394D01*
X246370Y125497D01*
X246348Y125511D01*
X246328Y125528D01*
X246198Y125600D01*
X246071Y125676D01*
X246046Y125684D01*
X246023Y125697D01*
X245880Y125737D01*
X245739Y125782D01*
X245713Y125784D01*
X245688Y125792D01*
X245444Y125811D01*
X244299Y125811D01*
X244299Y134924D01*
X244296Y134950D01*
X244298Y134976D01*
X244276Y135123D01*
X244259Y135270D01*
X244251Y135295D01*
X244247Y135321D01*
X244214Y135402D01*
X244225Y135440D01*
X244270Y135581D01*
X244272Y135607D01*
X244280Y135632D01*
X244299Y135876D01*
X244299Y144989D01*
X246272Y144989D01*
X248843Y142418D01*
X248921Y142355D01*
X248994Y142285D01*
X249058Y142247D01*
X249116Y142201D01*
X249207Y142158D01*
X249293Y142107D01*
X249364Y142084D01*
X249431Y142052D01*
X249529Y142031D01*
X249625Y142000D01*
X249699Y141994D01*
X249772Y141979D01*
X249872Y141980D01*
X249972Y141972D01*
X250046Y141983D01*
X250120Y141985D01*
X250217Y142009D01*
X250317Y142024D01*
X250386Y142052D01*
X250458Y142070D01*
X250547Y142116D01*
X250641Y142153D01*
X250702Y142195D01*
X250768Y142229D01*
X250844Y142294D01*
X250927Y142352D01*
X250977Y142407D01*
X251033Y142455D01*
X251093Y142536D01*
X251160Y142610D01*
X251196Y142676D01*
X251241Y142735D01*
X251280Y142828D01*
X251329Y142915D01*
X251349Y142987D01*
X251379Y143055D01*
X251396Y143154D01*
X251424Y143251D01*
X251432Y143351D01*
X251440Y143398D01*
X251438Y143434D01*
X251443Y143495D01*
X251443Y152896D01*
X251429Y153021D01*
X251422Y153148D01*
X251409Y153194D01*
X251403Y153242D01*
X251361Y153361D01*
X251326Y153482D01*
X251302Y153525D01*
X251286Y153570D01*
X251217Y153676D01*
X251156Y153787D01*
X251116Y153833D01*
X251097Y153863D01*
X251062Y153896D01*
X250997Y153973D01*
X243943Y161027D01*
X243943Y171551D01*
X243929Y171677D01*
X243922Y171803D01*
X243909Y171849D01*
X243903Y171897D01*
X243861Y172016D01*
X243826Y172138D01*
X243802Y172180D01*
X243786Y172225D01*
X243717Y172332D01*
X243656Y172442D01*
X243616Y172488D01*
X243597Y172518D01*
X243562Y172552D01*
X243497Y172628D01*
X241967Y174158D01*
X241967Y191436D01*
X241965Y191457D01*
X241966Y191476D01*
X241966Y191480D01*
X241966Y191488D01*
X241944Y191635D01*
X241927Y191782D01*
X241919Y191807D01*
X241915Y191833D01*
X241860Y191971D01*
X241810Y192110D01*
X241796Y192132D01*
X241786Y192157D01*
X241701Y192278D01*
X241621Y192403D01*
X241602Y192421D01*
X241587Y192443D01*
X241477Y192542D01*
X241370Y192645D01*
X241348Y192659D01*
X241328Y192676D01*
X241198Y192748D01*
X241071Y192824D01*
X241046Y192832D01*
X241023Y192845D01*
X240880Y192885D01*
X240739Y192930D01*
X240713Y192932D01*
X240688Y192940D01*
X240444Y192959D01*
X239556Y192959D01*
X239530Y192956D01*
X239504Y192958D01*
X239357Y192936D01*
X239210Y192919D01*
X239185Y192911D01*
X239159Y192907D01*
X239021Y192852D01*
X238882Y192802D01*
X238860Y192788D01*
X238835Y192778D01*
X238714Y192693D01*
X238589Y192613D01*
X238571Y192594D01*
X238549Y192579D01*
X238450Y192469D01*
X238347Y192362D01*
X238333Y192340D01*
X238316Y192320D01*
X238244Y192190D01*
X238168Y192063D01*
X238160Y192038D01*
X238147Y192015D01*
X238107Y191872D01*
X238062Y191731D01*
X238060Y191705D01*
X238052Y191680D01*
X238033Y191436D01*
X238033Y174158D01*
X236503Y172628D01*
X236424Y172529D01*
X236340Y172435D01*
X236316Y172393D01*
X236286Y172355D01*
X236232Y172241D01*
X236171Y172130D01*
X236158Y172084D01*
X236137Y172040D01*
X236111Y171917D01*
X236076Y171795D01*
X236071Y171734D01*
X236064Y171699D01*
X236065Y171651D01*
X236057Y171551D01*
X236057Y161027D01*
X229003Y153973D01*
X228924Y153874D01*
X228840Y153780D01*
X228816Y153738D01*
X228786Y153700D01*
X228732Y153586D01*
X228671Y153475D01*
X228658Y153428D01*
X228637Y153385D01*
X228611Y153261D01*
X228576Y153140D01*
X228571Y153079D01*
X228564Y153044D01*
X228565Y152996D01*
X228557Y152896D01*
X228557Y104004D01*
X228571Y103879D01*
X228578Y103752D01*
X228591Y103706D01*
X228597Y103658D01*
X228639Y103539D01*
X228674Y103418D01*
X228698Y103375D01*
X228714Y103330D01*
X228783Y103224D01*
X228844Y103113D01*
X228884Y103067D01*
X228903Y103037D01*
X228938Y103004D01*
X229003Y102927D01*
X230684Y101246D01*
X230724Y101214D01*
X230758Y101177D01*
X230860Y101106D01*
X230957Y101029D01*
X231003Y101007D01*
X231044Y100979D01*
X231160Y100933D01*
X231272Y100880D01*
X231322Y100870D01*
X231369Y100851D01*
X231492Y100833D01*
X231613Y100807D01*
X231663Y100808D01*
X231713Y100800D01*
X231837Y100811D01*
G37*
%LPC*%
G36*
X143585Y147887D02*
X143585Y147887D01*
X140971Y148970D01*
X138970Y150971D01*
X137887Y153585D01*
X137887Y156452D01*
X137873Y156577D01*
X137866Y156704D01*
X137853Y156750D01*
X137847Y156798D01*
X137805Y156917D01*
X137770Y157038D01*
X137746Y157081D01*
X137730Y157126D01*
X137661Y157232D01*
X137600Y157343D01*
X137560Y157389D01*
X137541Y157419D01*
X137506Y157452D01*
X137441Y157529D01*
X133943Y161027D01*
X133943Y171551D01*
X133929Y171677D01*
X133922Y171803D01*
X133909Y171849D01*
X133903Y171897D01*
X133861Y172016D01*
X133826Y172138D01*
X133802Y172180D01*
X133786Y172225D01*
X133717Y172332D01*
X133656Y172442D01*
X133616Y172488D01*
X133597Y172518D01*
X133562Y172552D01*
X133497Y172628D01*
X131967Y174158D01*
X131967Y191436D01*
X131965Y191457D01*
X131966Y191476D01*
X131966Y191480D01*
X131966Y191488D01*
X131944Y191635D01*
X131927Y191782D01*
X131919Y191807D01*
X131915Y191833D01*
X131860Y191971D01*
X131810Y192110D01*
X131796Y192132D01*
X131786Y192157D01*
X131701Y192278D01*
X131621Y192403D01*
X131602Y192421D01*
X131587Y192443D01*
X131477Y192542D01*
X131370Y192645D01*
X131348Y192659D01*
X131328Y192676D01*
X131198Y192748D01*
X131071Y192824D01*
X131046Y192832D01*
X131023Y192845D01*
X130880Y192885D01*
X130739Y192930D01*
X130713Y192932D01*
X130688Y192940D01*
X130444Y192959D01*
X128600Y192959D01*
X126012Y194031D01*
X124031Y196012D01*
X122959Y198600D01*
X122959Y201400D01*
X124031Y203988D01*
X126012Y205969D01*
X128600Y207041D01*
X131400Y207041D01*
X133988Y205969D01*
X135969Y203988D01*
X137041Y201400D01*
X137041Y198600D01*
X135969Y196012D01*
X134590Y194633D01*
X134528Y194554D01*
X134458Y194482D01*
X134420Y194418D01*
X134374Y194360D01*
X134331Y194269D01*
X134279Y194183D01*
X134256Y194112D01*
X134225Y194045D01*
X134204Y193947D01*
X134173Y193851D01*
X134167Y193777D01*
X134151Y193704D01*
X134153Y193604D01*
X134145Y193504D01*
X134156Y193430D01*
X134157Y193356D01*
X134182Y193259D01*
X134197Y193159D01*
X134224Y193090D01*
X134242Y193018D01*
X134288Y192929D01*
X134325Y192835D01*
X134368Y192774D01*
X134402Y192708D01*
X134467Y192632D01*
X134524Y192549D01*
X134579Y192499D01*
X134628Y192443D01*
X134709Y192383D01*
X134783Y192316D01*
X134848Y192280D01*
X134908Y192235D01*
X135000Y192196D01*
X135088Y192147D01*
X135160Y192127D01*
X135228Y192097D01*
X135327Y192080D01*
X135423Y192052D01*
X135523Y192044D01*
X135571Y192036D01*
X135607Y192038D01*
X135667Y192033D01*
X141842Y192033D01*
X141867Y192008D01*
X141945Y191946D01*
X142018Y191876D01*
X142082Y191837D01*
X142140Y191791D01*
X142231Y191748D01*
X142317Y191697D01*
X142388Y191674D01*
X142455Y191642D01*
X142553Y191621D01*
X142649Y191591D01*
X142723Y191585D01*
X142796Y191569D01*
X142896Y191571D01*
X142996Y191563D01*
X143070Y191574D01*
X143144Y191575D01*
X143242Y191599D01*
X143341Y191614D01*
X143410Y191642D01*
X143482Y191660D01*
X143571Y191706D01*
X143665Y191743D01*
X143726Y191785D01*
X143792Y191819D01*
X143868Y191885D01*
X143951Y191942D01*
X144001Y191997D01*
X144057Y192045D01*
X144117Y192126D01*
X144184Y192201D01*
X144220Y192266D01*
X144265Y192326D01*
X144304Y192418D01*
X144353Y192506D01*
X144373Y192577D01*
X144403Y192646D01*
X144420Y192744D01*
X144448Y192841D01*
X144456Y192941D01*
X144464Y192989D01*
X144462Y193024D01*
X144467Y193085D01*
X144467Y193842D01*
X145658Y195033D01*
X157342Y195033D01*
X158533Y193842D01*
X158533Y184158D01*
X157342Y182967D01*
X145658Y182967D01*
X145633Y182992D01*
X145555Y183054D01*
X145482Y183124D01*
X145418Y183163D01*
X145360Y183209D01*
X145269Y183252D01*
X145183Y183303D01*
X145112Y183326D01*
X145045Y183358D01*
X144947Y183379D01*
X144851Y183409D01*
X144777Y183415D01*
X144704Y183431D01*
X144604Y183429D01*
X144504Y183437D01*
X144430Y183426D01*
X144356Y183425D01*
X144258Y183401D01*
X144159Y183386D01*
X144090Y183358D01*
X144018Y183340D01*
X143929Y183294D01*
X143835Y183257D01*
X143774Y183215D01*
X143708Y183181D01*
X143632Y183115D01*
X143549Y183058D01*
X143499Y183003D01*
X143443Y182955D01*
X143383Y182874D01*
X143316Y182799D01*
X143280Y182734D01*
X143235Y182674D01*
X143196Y182582D01*
X143147Y182494D01*
X143127Y182423D01*
X143097Y182354D01*
X143080Y182256D01*
X143052Y182159D01*
X143044Y182059D01*
X143036Y182011D01*
X143038Y181976D01*
X143033Y181915D01*
X143033Y174158D01*
X141503Y172628D01*
X141424Y172529D01*
X141340Y172435D01*
X141316Y172393D01*
X141286Y172355D01*
X141232Y172241D01*
X141171Y172130D01*
X141158Y172084D01*
X141137Y172040D01*
X141111Y171917D01*
X141076Y171795D01*
X141071Y171734D01*
X141064Y171699D01*
X141065Y171651D01*
X141057Y171551D01*
X141057Y164604D01*
X141071Y164479D01*
X141078Y164352D01*
X141091Y164306D01*
X141097Y164258D01*
X141139Y164139D01*
X141174Y164018D01*
X141198Y163975D01*
X141214Y163930D01*
X141283Y163824D01*
X141344Y163713D01*
X141384Y163667D01*
X141403Y163637D01*
X141438Y163604D01*
X141503Y163527D01*
X142471Y162559D01*
X142570Y162480D01*
X142664Y162396D01*
X142706Y162372D01*
X142744Y162342D01*
X142858Y162288D01*
X142969Y162227D01*
X143016Y162214D01*
X143059Y162193D01*
X143183Y162167D01*
X143304Y162132D01*
X143365Y162127D01*
X143400Y162120D01*
X143448Y162121D01*
X143548Y162113D01*
X146415Y162113D01*
X149029Y161030D01*
X151030Y159029D01*
X152113Y156415D01*
X152113Y153585D01*
X151030Y150971D01*
X149029Y148970D01*
X146415Y147887D01*
X143585Y147887D01*
G37*
%LPD*%
%LPC*%
G36*
X283585Y157887D02*
X283585Y157887D01*
X280971Y158970D01*
X278970Y160971D01*
X277887Y163585D01*
X277887Y166452D01*
X277873Y166577D01*
X277866Y166704D01*
X277853Y166750D01*
X277847Y166798D01*
X277805Y166917D01*
X277770Y167038D01*
X277746Y167081D01*
X277730Y167126D01*
X277661Y167232D01*
X277600Y167343D01*
X277560Y167389D01*
X277541Y167419D01*
X277506Y167452D01*
X277441Y167529D01*
X273943Y171027D01*
X273943Y171551D01*
X273929Y171677D01*
X273922Y171803D01*
X273909Y171849D01*
X273903Y171897D01*
X273861Y172016D01*
X273826Y172138D01*
X273802Y172180D01*
X273786Y172225D01*
X273717Y172332D01*
X273656Y172442D01*
X273616Y172488D01*
X273597Y172518D01*
X273562Y172552D01*
X273497Y172628D01*
X271967Y174158D01*
X271967Y191436D01*
X271965Y191457D01*
X271966Y191476D01*
X271966Y191480D01*
X271966Y191488D01*
X271944Y191635D01*
X271927Y191782D01*
X271919Y191807D01*
X271915Y191833D01*
X271860Y191971D01*
X271810Y192110D01*
X271796Y192132D01*
X271786Y192157D01*
X271701Y192278D01*
X271621Y192403D01*
X271602Y192421D01*
X271587Y192443D01*
X271477Y192542D01*
X271370Y192645D01*
X271348Y192659D01*
X271328Y192676D01*
X271198Y192748D01*
X271071Y192824D01*
X271046Y192832D01*
X271023Y192845D01*
X270880Y192885D01*
X270739Y192930D01*
X270713Y192932D01*
X270688Y192940D01*
X270444Y192959D01*
X268600Y192959D01*
X266012Y194031D01*
X264031Y196012D01*
X262959Y198600D01*
X262959Y201400D01*
X264031Y203988D01*
X266012Y205969D01*
X268600Y207041D01*
X271400Y207041D01*
X273988Y205969D01*
X275969Y203988D01*
X277041Y201400D01*
X277041Y198600D01*
X275969Y196012D01*
X274590Y194633D01*
X274528Y194554D01*
X274458Y194482D01*
X274420Y194418D01*
X274374Y194360D01*
X274331Y194269D01*
X274279Y194183D01*
X274256Y194112D01*
X274225Y194045D01*
X274204Y193947D01*
X274173Y193851D01*
X274167Y193777D01*
X274151Y193704D01*
X274153Y193604D01*
X274145Y193504D01*
X274156Y193430D01*
X274157Y193356D01*
X274182Y193259D01*
X274197Y193159D01*
X274224Y193090D01*
X274242Y193018D01*
X274288Y192929D01*
X274325Y192835D01*
X274368Y192774D01*
X274402Y192708D01*
X274467Y192632D01*
X274524Y192549D01*
X274579Y192499D01*
X274628Y192443D01*
X274709Y192383D01*
X274783Y192316D01*
X274848Y192280D01*
X274908Y192235D01*
X275000Y192196D01*
X275088Y192147D01*
X275160Y192127D01*
X275228Y192097D01*
X275327Y192080D01*
X275423Y192052D01*
X275523Y192044D01*
X275571Y192036D01*
X275607Y192038D01*
X275667Y192033D01*
X281842Y192033D01*
X281867Y192008D01*
X281945Y191946D01*
X282018Y191876D01*
X282082Y191837D01*
X282140Y191791D01*
X282231Y191748D01*
X282317Y191697D01*
X282388Y191674D01*
X282455Y191642D01*
X282553Y191621D01*
X282649Y191591D01*
X282723Y191585D01*
X282796Y191569D01*
X282896Y191571D01*
X282996Y191563D01*
X283070Y191574D01*
X283144Y191575D01*
X283242Y191599D01*
X283341Y191614D01*
X283410Y191642D01*
X283482Y191660D01*
X283571Y191706D01*
X283665Y191743D01*
X283726Y191785D01*
X283792Y191819D01*
X283868Y191885D01*
X283951Y191942D01*
X284001Y191997D01*
X284057Y192045D01*
X284117Y192126D01*
X284184Y192201D01*
X284220Y192266D01*
X284265Y192326D01*
X284304Y192418D01*
X284353Y192506D01*
X284373Y192577D01*
X284403Y192646D01*
X284420Y192744D01*
X284448Y192841D01*
X284456Y192941D01*
X284464Y192989D01*
X284462Y193024D01*
X284467Y193085D01*
X284467Y193842D01*
X285658Y195033D01*
X297342Y195033D01*
X298533Y193842D01*
X298533Y184158D01*
X297342Y182967D01*
X285658Y182967D01*
X285633Y182992D01*
X285555Y183054D01*
X285482Y183124D01*
X285418Y183163D01*
X285360Y183209D01*
X285269Y183252D01*
X285183Y183303D01*
X285112Y183326D01*
X285045Y183358D01*
X284947Y183379D01*
X284851Y183409D01*
X284777Y183415D01*
X284704Y183431D01*
X284604Y183429D01*
X284504Y183437D01*
X284430Y183426D01*
X284356Y183425D01*
X284258Y183401D01*
X284159Y183386D01*
X284090Y183358D01*
X284018Y183340D01*
X283929Y183294D01*
X283835Y183257D01*
X283774Y183215D01*
X283708Y183181D01*
X283632Y183115D01*
X283549Y183058D01*
X283499Y183003D01*
X283443Y182955D01*
X283383Y182874D01*
X283316Y182799D01*
X283280Y182734D01*
X283235Y182674D01*
X283196Y182582D01*
X283147Y182494D01*
X283127Y182423D01*
X283097Y182354D01*
X283080Y182256D01*
X283052Y182159D01*
X283044Y182059D01*
X283036Y182011D01*
X283038Y181976D01*
X283033Y181915D01*
X283033Y173636D01*
X283036Y173610D01*
X283034Y173584D01*
X283056Y173437D01*
X283073Y173290D01*
X283081Y173265D01*
X283085Y173239D01*
X283140Y173101D01*
X283190Y172962D01*
X283204Y172940D01*
X283214Y172915D01*
X283299Y172794D01*
X283379Y172669D01*
X283398Y172651D01*
X283413Y172629D01*
X283523Y172530D01*
X283630Y172427D01*
X283652Y172413D01*
X283672Y172396D01*
X283802Y172324D01*
X283929Y172248D01*
X283954Y172240D01*
X283977Y172227D01*
X284120Y172187D01*
X284261Y172142D01*
X284287Y172140D01*
X284312Y172132D01*
X284556Y172113D01*
X286415Y172113D01*
X289029Y171030D01*
X291030Y169029D01*
X292113Y166415D01*
X292113Y163585D01*
X291030Y160971D01*
X289029Y158970D01*
X286415Y157887D01*
X283585Y157887D01*
G37*
%LPD*%
%LPC*%
G36*
X329158Y131967D02*
X329158Y131967D01*
X327967Y133158D01*
X327967Y146842D01*
X329158Y148033D01*
X338842Y148033D01*
X340033Y146842D01*
X340033Y145080D01*
X340036Y145054D01*
X340034Y145028D01*
X340056Y144881D01*
X340073Y144734D01*
X340081Y144709D01*
X340085Y144683D01*
X340140Y144545D01*
X340190Y144406D01*
X340204Y144384D01*
X340214Y144359D01*
X340299Y144238D01*
X340379Y144113D01*
X340398Y144095D01*
X340413Y144073D01*
X340523Y143974D01*
X340630Y143871D01*
X340652Y143857D01*
X340672Y143840D01*
X340802Y143768D01*
X340929Y143692D01*
X340954Y143684D01*
X340977Y143671D01*
X341120Y143631D01*
X341261Y143586D01*
X341287Y143584D01*
X341312Y143576D01*
X341556Y143557D01*
X342867Y143557D01*
X342992Y143571D01*
X343119Y143578D01*
X343165Y143591D01*
X343213Y143597D01*
X343332Y143639D01*
X343454Y143674D01*
X343496Y143698D01*
X343541Y143714D01*
X343647Y143783D01*
X343758Y143844D01*
X343804Y143884D01*
X343834Y143903D01*
X343868Y143938D01*
X343944Y144003D01*
X345971Y146030D01*
X348585Y147113D01*
X351415Y147113D01*
X354029Y146030D01*
X356030Y144029D01*
X357113Y141415D01*
X357113Y138585D01*
X356030Y135971D01*
X354029Y133970D01*
X351415Y132887D01*
X348585Y132887D01*
X345971Y133970D01*
X343944Y135997D01*
X343845Y136076D01*
X343751Y136160D01*
X343709Y136184D01*
X343671Y136214D01*
X343557Y136268D01*
X343446Y136329D01*
X343400Y136342D01*
X343356Y136363D01*
X343232Y136389D01*
X343111Y136424D01*
X343050Y136429D01*
X343015Y136436D01*
X342967Y136435D01*
X342867Y136443D01*
X341556Y136443D01*
X341530Y136440D01*
X341504Y136442D01*
X341357Y136420D01*
X341210Y136403D01*
X341185Y136395D01*
X341159Y136391D01*
X341021Y136336D01*
X340882Y136286D01*
X340860Y136272D01*
X340835Y136262D01*
X340714Y136177D01*
X340589Y136097D01*
X340571Y136078D01*
X340549Y136063D01*
X340450Y135953D01*
X340347Y135846D01*
X340333Y135824D01*
X340316Y135804D01*
X340244Y135674D01*
X340168Y135547D01*
X340160Y135522D01*
X340147Y135499D01*
X340107Y135356D01*
X340062Y135215D01*
X340060Y135189D01*
X340052Y135164D01*
X340033Y134920D01*
X340033Y133158D01*
X338842Y131967D01*
X329158Y131967D01*
G37*
%LPD*%
%LPC*%
G36*
X309139Y22539D02*
X309139Y22539D01*
X309139Y31685D01*
X309396Y31645D01*
X311183Y31064D01*
X312857Y30211D01*
X314378Y29106D01*
X315706Y27778D01*
X316811Y26257D01*
X317664Y24583D01*
X318245Y22796D01*
X318285Y22539D01*
X309139Y22539D01*
G37*
%LPD*%
%LPC*%
G36*
X309139Y17461D02*
X309139Y17461D01*
X318285Y17461D01*
X318245Y17204D01*
X317664Y15417D01*
X316811Y13743D01*
X315706Y12222D01*
X314378Y10894D01*
X312857Y9789D01*
X311183Y8936D01*
X309396Y8355D01*
X309139Y8315D01*
X309139Y17461D01*
G37*
%LPD*%
%LPC*%
G36*
X232711Y137399D02*
X232711Y137399D01*
X232711Y139372D01*
X238328Y144989D01*
X240301Y144989D01*
X240301Y137399D01*
X232711Y137399D01*
G37*
%LPD*%
%LPC*%
G36*
X92711Y137399D02*
X92711Y137399D01*
X92711Y139372D01*
X98328Y144989D01*
X100301Y144989D01*
X100301Y137399D01*
X92711Y137399D01*
G37*
%LPD*%
%LPC*%
G36*
X372711Y137399D02*
X372711Y137399D01*
X372711Y139372D01*
X378328Y144989D01*
X380301Y144989D01*
X380301Y137399D01*
X372711Y137399D01*
G37*
%LPD*%
%LPC*%
G36*
X238328Y125811D02*
X238328Y125811D01*
X232711Y131428D01*
X232711Y133401D01*
X240301Y133401D01*
X240301Y125811D01*
X238328Y125811D01*
G37*
%LPD*%
%LPC*%
G36*
X378328Y125811D02*
X378328Y125811D01*
X372711Y131428D01*
X372711Y133401D01*
X380301Y133401D01*
X380301Y125811D01*
X378328Y125811D01*
G37*
%LPD*%
%LPC*%
G36*
X22647Y139547D02*
X22647Y139547D01*
X22647Y145541D01*
X26435Y145541D01*
X27081Y145368D01*
X27660Y145033D01*
X28133Y144560D01*
X28468Y143981D01*
X28641Y143335D01*
X28641Y139547D01*
X22647Y139547D01*
G37*
%LPD*%
%LPC*%
G36*
X10559Y139547D02*
X10559Y139547D01*
X10559Y143335D01*
X10732Y143981D01*
X11067Y144560D01*
X11540Y145033D01*
X12119Y145368D01*
X12765Y145541D01*
X16553Y145541D01*
X16553Y139547D01*
X10559Y139547D01*
G37*
%LPD*%
%LPC*%
G36*
X22647Y127459D02*
X22647Y127459D01*
X22647Y133453D01*
X28641Y133453D01*
X28641Y129665D01*
X28468Y129019D01*
X28133Y128440D01*
X27660Y127967D01*
X27081Y127632D01*
X26435Y127459D01*
X22647Y127459D01*
G37*
%LPD*%
%LPC*%
G36*
X12765Y127459D02*
X12765Y127459D01*
X12119Y127632D01*
X11540Y127967D01*
X11067Y128440D01*
X10732Y129019D01*
X10559Y129665D01*
X10559Y133453D01*
X16553Y133453D01*
X16553Y127459D01*
X12765Y127459D01*
G37*
%LPD*%
%LPC*%
G36*
X195999Y141999D02*
X195999Y141999D01*
X195999Y148541D01*
X198335Y148541D01*
X198981Y148368D01*
X199560Y148033D01*
X200033Y147560D01*
X200368Y146981D01*
X200541Y146335D01*
X200541Y141999D01*
X195999Y141999D01*
G37*
%LPD*%
%LPC*%
G36*
X475999Y76999D02*
X475999Y76999D01*
X475999Y83541D01*
X478335Y83541D01*
X478981Y83368D01*
X479560Y83033D01*
X480033Y82560D01*
X480368Y81981D01*
X480541Y81335D01*
X480541Y76999D01*
X475999Y76999D01*
G37*
%LPD*%
%LPC*%
G36*
X187459Y141999D02*
X187459Y141999D01*
X187459Y146335D01*
X187632Y146981D01*
X187967Y147560D01*
X188440Y148033D01*
X189019Y148368D01*
X189665Y148541D01*
X192001Y148541D01*
X192001Y141999D01*
X187459Y141999D01*
G37*
%LPD*%
%LPC*%
G36*
X467459Y76999D02*
X467459Y76999D01*
X467459Y81335D01*
X467632Y81981D01*
X467967Y82560D01*
X468440Y83033D01*
X469019Y83368D01*
X469665Y83541D01*
X472001Y83541D01*
X472001Y76999D01*
X467459Y76999D01*
G37*
%LPD*%
%LPC*%
G36*
X201459Y120999D02*
X201459Y120999D01*
X201459Y123335D01*
X201632Y123981D01*
X201967Y124560D01*
X202440Y125033D01*
X203019Y125368D01*
X203665Y125541D01*
X208001Y125541D01*
X208001Y120999D01*
X201459Y120999D01*
G37*
%LPD*%
%LPC*%
G36*
X341459Y120999D02*
X341459Y120999D01*
X341459Y123335D01*
X341632Y123981D01*
X341967Y124560D01*
X342440Y125033D01*
X343019Y125368D01*
X343665Y125541D01*
X348001Y125541D01*
X348001Y120999D01*
X341459Y120999D01*
G37*
%LPD*%
%LPC*%
G36*
X475999Y66459D02*
X475999Y66459D01*
X475999Y73001D01*
X480541Y73001D01*
X480541Y68665D01*
X480368Y68019D01*
X480033Y67440D01*
X479560Y66967D01*
X478981Y66632D01*
X478335Y66459D01*
X475999Y66459D01*
G37*
%LPD*%
%LPC*%
G36*
X195999Y131459D02*
X195999Y131459D01*
X195999Y138001D01*
X200541Y138001D01*
X200541Y133665D01*
X200368Y133019D01*
X200033Y132440D01*
X199560Y131967D01*
X198981Y131632D01*
X198335Y131459D01*
X195999Y131459D01*
G37*
%LPD*%
%LPC*%
G36*
X343665Y112459D02*
X343665Y112459D01*
X343019Y112632D01*
X342440Y112967D01*
X341967Y113440D01*
X341632Y114019D01*
X341601Y114135D01*
X341459Y114665D01*
X341459Y117001D01*
X348001Y117001D01*
X348001Y112459D01*
X343665Y112459D01*
G37*
%LPD*%
%LPC*%
G36*
X203665Y112459D02*
X203665Y112459D01*
X203019Y112632D01*
X202440Y112967D01*
X201967Y113440D01*
X201632Y114019D01*
X201601Y114135D01*
X201459Y114665D01*
X201459Y117001D01*
X208001Y117001D01*
X208001Y112459D01*
X203665Y112459D01*
G37*
%LPD*%
%LPC*%
G36*
X469665Y66459D02*
X469665Y66459D01*
X469019Y66632D01*
X468440Y66967D01*
X467967Y67440D01*
X467632Y68019D01*
X467459Y68665D01*
X467459Y73001D01*
X472001Y73001D01*
X472001Y66459D01*
X469665Y66459D01*
G37*
%LPD*%
%LPC*%
G36*
X189665Y131459D02*
X189665Y131459D01*
X189019Y131632D01*
X188440Y131967D01*
X187967Y132440D01*
X187632Y133019D01*
X187459Y133665D01*
X187459Y138001D01*
X192001Y138001D01*
X192001Y131459D01*
X189665Y131459D01*
G37*
%LPD*%
%LPC*%
G36*
X19599Y136499D02*
X19599Y136499D01*
X19599Y136501D01*
X19601Y136501D01*
X19601Y136499D01*
X19599Y136499D01*
G37*
%LPD*%
D10*
X456000Y75000D03*
X474000Y75000D03*
D11*
X205000Y20000D03*
X230400Y20000D03*
X255800Y20000D03*
X281200Y20000D03*
X306600Y20000D03*
D12*
X395000Y120500D03*
X395000Y99500D03*
X255000Y120500D03*
X255000Y99500D03*
X115000Y120500D03*
X115000Y99500D03*
D13*
X102300Y135400D03*
X102300Y84600D03*
X127700Y135400D03*
X127700Y84600D03*
X242300Y135400D03*
X242300Y84600D03*
X267700Y135400D03*
X267700Y84600D03*
X382300Y135400D03*
X382300Y84600D03*
X407700Y135400D03*
X407700Y84600D03*
D14*
X160000Y101000D03*
X160000Y119000D03*
X300000Y101000D03*
X300000Y119000D03*
D10*
X316000Y140000D03*
X334000Y140000D03*
X194000Y140000D03*
X176000Y140000D03*
D14*
X210000Y119000D03*
X210000Y101000D03*
X350000Y119000D03*
X350000Y101000D03*
D10*
X334000Y80000D03*
X316000Y80000D03*
X194000Y80000D03*
X176000Y80000D03*
X54000Y75000D03*
X36000Y75000D03*
D15*
X92500Y182500D03*
X107500Y182500D03*
X137500Y182500D03*
D16*
X78500Y210000D03*
D17*
X78500Y189000D03*
D16*
X151500Y210000D03*
D17*
X151500Y189000D03*
D15*
X232500Y182500D03*
X247500Y182500D03*
X277500Y182500D03*
D16*
X218500Y210000D03*
D17*
X218500Y189000D03*
D16*
X291500Y210000D03*
D17*
X291500Y189000D03*
D15*
X372500Y182500D03*
X387500Y182500D03*
X417500Y182500D03*
D16*
X358500Y210000D03*
D17*
X358500Y189000D03*
D16*
X431500Y210000D03*
D17*
X431500Y189000D03*
D18*
X437000Y124500D03*
X493000Y125000D03*
X493000Y131500D03*
X493000Y138000D03*
X493000Y144500D03*
X493000Y118500D03*
X493000Y112000D03*
X493000Y105500D03*
X437000Y131000D03*
X437000Y137500D03*
X437000Y144000D03*
X437000Y118000D03*
X437000Y111500D03*
X437000Y105000D03*
D19*
X19600Y113500D03*
D20*
X77385Y125000D03*
D19*
X19600Y136500D03*
D12*
X125500Y65000D03*
X104500Y65000D03*
X265500Y65000D03*
X244500Y65000D03*
X405500Y65000D03*
X384500Y65000D03*
D21*
X160000Y119000D02*
X160000Y131364D01*
D22*
X160000Y131364D03*
D21*
X300000Y130000D02*
X300000Y119000D01*
X300000Y130000D02*
X294600Y135400D01*
X267700Y135400D01*
X334000Y140000D02*
X350000Y140000D01*
D22*
X350000Y140000D03*
D23*
X205000Y45000D02*
X205000Y20000D01*
X205000Y45000D02*
X175000Y45000D01*
X160000Y45000D01*
X60000Y45000D01*
X36000Y69000D01*
X36000Y75000D01*
X205000Y45000D02*
X300000Y45000D01*
X315000Y45000D01*
X435000Y45000D01*
X456000Y66000D01*
X456000Y75000D01*
D21*
X144100Y101000D02*
X127700Y84600D01*
X144100Y101000D02*
X160000Y101000D01*
X176000Y85000D01*
X176000Y80000D01*
X176000Y46000D01*
X175000Y45000D01*
X316000Y111000D02*
X316000Y140000D01*
X316000Y111000D02*
X305000Y100000D01*
X301000Y100000D02*
X300000Y101000D01*
X301000Y100000D02*
X305000Y100000D01*
X316000Y89000D02*
X316000Y80000D01*
X316000Y89000D02*
X305000Y100000D01*
X316000Y80000D02*
X316000Y46000D01*
X315000Y45000D01*
X285400Y84600D02*
X267700Y84600D01*
X285400Y84600D02*
X300000Y70000D01*
X300000Y45000D01*
X145400Y84600D02*
X127700Y84600D01*
X145400Y84600D02*
X160000Y70000D01*
X160000Y45000D01*
X407700Y84600D02*
X446400Y84600D01*
X456000Y75000D01*
X458242Y131000D02*
X437000Y131000D01*
X458242Y131000D02*
X463621Y136379D01*
D22*
X463621Y136379D03*
D21*
X36000Y97100D02*
X36000Y75000D01*
X36000Y97100D02*
X19600Y113500D01*
X77385Y125000D02*
X92385Y110000D01*
X95000Y110000D01*
D22*
X95000Y110000D03*
X475000Y125000D03*
D21*
X475000Y115000D01*
X478000Y112000D01*
X493000Y112000D01*
X475000Y115000D02*
X465000Y105000D01*
X437000Y105000D01*
X437000Y118000D02*
X448000Y118000D01*
X455000Y125000D02*
X475000Y125000D01*
X455000Y125000D02*
X448000Y118000D01*
X115000Y120500D02*
X115000Y155000D01*
X107500Y162500D02*
X107500Y182500D01*
X107500Y162500D02*
X115000Y155000D01*
X125500Y65000D02*
X145000Y65000D01*
D22*
X145000Y65000D03*
D21*
X115000Y120500D02*
X101742Y120500D01*
X101121Y121121D01*
D22*
X101121Y121121D03*
D21*
X255000Y120500D02*
X255000Y155000D01*
X247500Y162500D02*
X247500Y182500D01*
X247500Y162500D02*
X255000Y155000D01*
X265500Y65000D02*
X280000Y65000D01*
X285000Y60000D01*
D22*
X285000Y60000D03*
D21*
X240000Y105500D02*
X255000Y120500D01*
X240000Y105500D02*
X240000Y105000D01*
D22*
X240000Y105000D03*
D21*
X387500Y162500D02*
X387500Y182500D01*
X387500Y162500D02*
X395000Y155000D01*
X405500Y65000D02*
X425000Y65000D01*
X430000Y60000D01*
D22*
X430000Y60000D03*
D21*
X395000Y120500D02*
X395000Y155000D01*
D22*
X374597Y97272D03*
D21*
X395000Y117675D01*
X395000Y120500D01*
D22*
X460000Y115000D03*
D21*
X456500Y111500D01*
X437000Y111500D01*
X92500Y167500D02*
X92500Y182500D01*
X60000Y100000D02*
X75000Y85000D01*
X101900Y85000D02*
X102300Y84600D01*
X101900Y85000D02*
X75000Y85000D01*
X60000Y135000D02*
X92500Y167500D01*
X60000Y135000D02*
X60000Y100000D01*
X107527Y109056D02*
X124056Y109056D01*
X102300Y103829D02*
X102300Y84600D01*
X102300Y103829D02*
X107527Y109056D01*
X155000Y140000D02*
X176000Y140000D01*
X155000Y140000D02*
X124056Y109056D01*
D22*
X145000Y155000D03*
D21*
X140000Y160000D01*
D22*
X420000Y150000D03*
D21*
X426000Y144000D01*
X437000Y144000D01*
X140000Y160000D02*
X137500Y162500D01*
X137500Y182500D01*
D22*
X410000Y106364D03*
D21*
X428136Y124500D02*
X437000Y124500D01*
X428136Y124500D02*
X410000Y106364D01*
X232500Y162500D02*
X232500Y182500D01*
X232500Y162500D02*
X225000Y155000D01*
X225000Y101900D01*
X242300Y84600D01*
X224100Y101000D02*
X210000Y101000D01*
X224100Y101000D02*
X225000Y101900D01*
X437000Y137500D02*
X447500Y137500D01*
X455000Y145000D01*
D22*
X455000Y145000D03*
X285000Y165000D03*
D21*
X277500Y172500D01*
X277500Y182500D01*
D22*
X460000Y95000D03*
D21*
X475000Y95000D01*
X485500Y105500D02*
X493000Y105500D01*
X485500Y105500D02*
X475000Y95000D01*
X372500Y162500D02*
X372500Y182500D01*
X372500Y162500D02*
X365000Y155000D01*
X365000Y101900D01*
X365000Y91900D01*
X372300Y84600D02*
X382300Y84600D01*
X372300Y84600D02*
X365000Y91900D01*
X364100Y101000D02*
X350000Y101000D01*
X364100Y101000D02*
X365000Y101900D01*
X472684Y144500D02*
X493000Y144500D01*
X472684Y144500D02*
X447104Y170080D01*
X417500Y177500D02*
X417500Y182500D01*
X424920Y170080D02*
X447104Y170080D01*
X424920Y170080D02*
X417500Y177500D01*
X395000Y99500D02*
X395000Y75500D01*
X384500Y65000D01*
X349000Y65000D01*
X334000Y80000D01*
X255000Y75500D02*
X255000Y99500D01*
X255000Y75500D02*
X244500Y65000D01*
X209000Y65000D01*
X194000Y80000D01*
X64000Y65000D02*
X54000Y75000D01*
X64000Y65000D02*
X104500Y65000D01*
X115000Y75500D02*
X115000Y99500D01*
X115000Y75500D02*
X104500Y65000D01*
M02*
