G04 EAGLE Gerber RS-274X export*
G75*
%MOMM*%
%FSLAX34Y34*%
%LPD*%
%INSolderpaste Top*%
%IPPOS*%
%AMOC8*
5,1,8,0,0,1.08239X$1,22.5*%
G01*
%ADD10R,0.800000X1.200000*%
%ADD11R,1.200000X1.200000*%
%ADD12R,1.200000X0.800000*%
%ADD13R,0.700000X1.500000*%
%ADD14R,1.000000X0.600000*%
%ADD15R,1.000000X0.800000*%
%ADD16R,1.600000X0.350000*%
%ADD17R,1.300000X1.300000*%
%ADD18R,2.000000X1.401600*%


D10*
X456000Y75000D03*
X474000Y75000D03*
D11*
X395000Y120500D03*
X395000Y99500D03*
X255000Y120500D03*
X255000Y99500D03*
X115000Y120500D03*
X115000Y99500D03*
D12*
X160000Y101000D03*
X160000Y119000D03*
X300000Y101000D03*
X300000Y119000D03*
D10*
X316000Y140000D03*
X334000Y140000D03*
X194000Y140000D03*
X176000Y140000D03*
D12*
X210000Y119000D03*
X210000Y101000D03*
X350000Y119000D03*
X350000Y101000D03*
D10*
X334000Y80000D03*
X316000Y80000D03*
X194000Y80000D03*
X176000Y80000D03*
X54000Y75000D03*
X36000Y75000D03*
D13*
X92500Y182500D03*
X107500Y182500D03*
X137500Y182500D03*
D14*
X78500Y210000D03*
D15*
X78500Y189000D03*
D14*
X151500Y210000D03*
D15*
X151500Y189000D03*
D13*
X232500Y182500D03*
X247500Y182500D03*
X277500Y182500D03*
D14*
X218500Y210000D03*
D15*
X218500Y189000D03*
D14*
X291500Y210000D03*
D15*
X291500Y189000D03*
D13*
X372500Y182500D03*
X387500Y182500D03*
X417500Y182500D03*
D14*
X358500Y210000D03*
D15*
X358500Y189000D03*
D14*
X431500Y210000D03*
D15*
X431500Y189000D03*
D16*
X437000Y124500D03*
X493000Y125000D03*
X493000Y131500D03*
X493000Y138000D03*
X493000Y144500D03*
X493000Y118500D03*
X493000Y112000D03*
X493000Y105500D03*
X437000Y131000D03*
X437000Y137500D03*
X437000Y144000D03*
X437000Y118000D03*
X437000Y111500D03*
X437000Y105000D03*
D17*
X19600Y113500D03*
D18*
X77385Y125000D03*
D17*
X19600Y136500D03*
D11*
X125500Y65000D03*
X104500Y65000D03*
X265500Y65000D03*
X244500Y65000D03*
X405500Y65000D03*
X384500Y65000D03*
M02*
