M48
;GenerationSoftware,Autodesk,EAGLE,9.6.1*%
;CreationDate,2020-05-23T22:11:21Z*%
FMAT,2
ICI,OFF
METRIC,TZ,000.000
T5C0.508
T4C0.800
T3C0.900
T2C1.016
T1C3.200
%
G90
M71
T1
X47500Y3000
X3500Y3000
T2
X20500Y2000
X30660Y2000
X28120Y2000
X25580Y2000
X23040Y2000
T3
X41000Y20000
X38000Y20000
X27000Y20000
X10000Y20000
X13000Y20000
X24000Y20000
T4
X12770Y8460
X24230Y13540
X24230Y8460
X26770Y8460
X38230Y13540
X38230Y8460
X40770Y13540
X40770Y8460
X26770Y13540
X10230Y13540
X10230Y8460
X12770Y13540
T5
X16000Y13136
X35000Y14000
X46362Y13638
X9500Y11000
X47500Y12500
X10112Y12112
X28500Y6000
X24000Y10500
X41000Y10636
X42000Y15000
X28500Y16500
X14500Y15500
X14500Y6500
X46000Y11500
X37460Y9727
X43000Y6000
X46000Y9500
X45500Y14500
M30