G04 EAGLE Gerber RS-274X export*
G75*
%MOMM*%
%FSLAX34Y34*%
%LPD*%
%INSilkscreen Top*%
%IPPOS*%
%AMOC8*
5,1,8,0,0,1.08239X$1,22.5*%
G01*
%ADD10C,0.152400*%
%ADD11C,0.203200*%
%ADD12C,0.063400*%
%ADD13C,0.250000*%
%ADD14C,0.127000*%

G36*
X441895Y152055D02*
X441895Y152055D01*
X441897Y152057D01*
X441898Y152056D01*
X442569Y152291D01*
X442570Y152292D01*
X442571Y152292D01*
X443173Y152670D01*
X443174Y152672D01*
X443176Y152672D01*
X443678Y153174D01*
X443678Y153176D01*
X443680Y153177D01*
X444058Y153779D01*
X444058Y153780D01*
X444059Y153781D01*
X444294Y154452D01*
X444294Y154454D01*
X444295Y154455D01*
X444374Y155161D01*
X444374Y155162D01*
X444373Y155163D01*
X444374Y155164D01*
X444295Y155870D01*
X444293Y155872D01*
X444294Y155873D01*
X444059Y156544D01*
X444058Y156545D01*
X444058Y156546D01*
X443680Y157148D01*
X443678Y157149D01*
X443678Y157151D01*
X443176Y157653D01*
X443174Y157653D01*
X443173Y157655D01*
X442571Y158033D01*
X442570Y158033D01*
X442569Y158034D01*
X441898Y158269D01*
X441896Y158269D01*
X441895Y158270D01*
X441189Y158349D01*
X441187Y158348D01*
X441186Y158349D01*
X440480Y158270D01*
X440478Y158268D01*
X440477Y158269D01*
X439806Y158034D01*
X439805Y158033D01*
X439804Y158033D01*
X439202Y157655D01*
X439201Y157653D01*
X439199Y157653D01*
X438697Y157151D01*
X438697Y157149D01*
X438695Y157148D01*
X438317Y156546D01*
X438317Y156545D01*
X438316Y156544D01*
X438081Y155873D01*
X438082Y155871D01*
X438080Y155870D01*
X438001Y155164D01*
X438002Y155162D01*
X438001Y155161D01*
X438080Y154455D01*
X438082Y154453D01*
X438081Y154452D01*
X438316Y153781D01*
X438317Y153780D01*
X438317Y153779D01*
X438695Y153177D01*
X438697Y153176D01*
X438697Y153174D01*
X439199Y152672D01*
X439201Y152672D01*
X439202Y152670D01*
X439804Y152292D01*
X439805Y152292D01*
X439806Y152291D01*
X440477Y152056D01*
X440479Y152057D01*
X440480Y152055D01*
X441186Y151976D01*
X441188Y151977D01*
X441189Y151976D01*
X441895Y152055D01*
G37*
D10*
X113081Y54318D02*
X113081Y45682D01*
X116919Y45682D01*
X125762Y115762D02*
X125762Y124398D01*
X125762Y115762D02*
X129600Y115762D01*
X228081Y44398D02*
X228081Y35762D01*
X231919Y35762D01*
X267681Y115762D02*
X269600Y115762D01*
X267681Y115762D02*
X267595Y115764D01*
X267509Y115770D01*
X267423Y115779D01*
X267338Y115793D01*
X267254Y115810D01*
X267170Y115831D01*
X267088Y115856D01*
X267007Y115884D01*
X266927Y115916D01*
X266848Y115952D01*
X266772Y115991D01*
X266697Y116034D01*
X266624Y116079D01*
X266553Y116128D01*
X266485Y116181D01*
X266418Y116236D01*
X266355Y116294D01*
X266294Y116355D01*
X266236Y116418D01*
X266181Y116485D01*
X266128Y116553D01*
X266079Y116624D01*
X266034Y116697D01*
X265991Y116772D01*
X265952Y116848D01*
X265916Y116927D01*
X265884Y117007D01*
X265856Y117088D01*
X265831Y117170D01*
X265810Y117254D01*
X265793Y117338D01*
X265779Y117423D01*
X265770Y117509D01*
X265764Y117595D01*
X265762Y117681D01*
X265762Y122479D01*
X265764Y122565D01*
X265770Y122651D01*
X265779Y122737D01*
X265793Y122822D01*
X265810Y122906D01*
X265831Y122990D01*
X265856Y123072D01*
X265884Y123153D01*
X265916Y123233D01*
X265952Y123312D01*
X265991Y123388D01*
X266034Y123463D01*
X266079Y123536D01*
X266128Y123607D01*
X266181Y123675D01*
X266236Y123742D01*
X266294Y123805D01*
X266355Y123866D01*
X266418Y123924D01*
X266485Y123979D01*
X266553Y124031D01*
X266624Y124081D01*
X266697Y124126D01*
X266772Y124169D01*
X266848Y124208D01*
X266927Y124244D01*
X267007Y124276D01*
X267088Y124304D01*
X267170Y124329D01*
X267254Y124350D01*
X267338Y124367D01*
X267423Y124381D01*
X267509Y124390D01*
X267595Y124396D01*
X267681Y124398D01*
X269600Y124398D01*
X256919Y45682D02*
X255000Y45682D01*
X254914Y45684D01*
X254828Y45690D01*
X254742Y45699D01*
X254657Y45713D01*
X254573Y45730D01*
X254489Y45751D01*
X254407Y45776D01*
X254326Y45804D01*
X254246Y45836D01*
X254167Y45872D01*
X254091Y45911D01*
X254016Y45954D01*
X253943Y45999D01*
X253872Y46048D01*
X253804Y46101D01*
X253737Y46156D01*
X253674Y46214D01*
X253613Y46275D01*
X253555Y46338D01*
X253500Y46405D01*
X253447Y46473D01*
X253398Y46544D01*
X253353Y46617D01*
X253310Y46692D01*
X253271Y46768D01*
X253235Y46847D01*
X253203Y46927D01*
X253175Y47008D01*
X253150Y47090D01*
X253129Y47174D01*
X253112Y47258D01*
X253098Y47343D01*
X253089Y47429D01*
X253083Y47515D01*
X253081Y47601D01*
X253081Y52399D01*
X253083Y52485D01*
X253089Y52571D01*
X253098Y52657D01*
X253112Y52742D01*
X253129Y52826D01*
X253150Y52910D01*
X253175Y52992D01*
X253203Y53073D01*
X253235Y53153D01*
X253271Y53232D01*
X253310Y53308D01*
X253353Y53383D01*
X253398Y53456D01*
X253447Y53527D01*
X253500Y53595D01*
X253555Y53662D01*
X253613Y53725D01*
X253674Y53786D01*
X253737Y53844D01*
X253804Y53899D01*
X253872Y53951D01*
X253943Y54001D01*
X254016Y54046D01*
X254091Y54089D01*
X254167Y54128D01*
X254246Y54164D01*
X254326Y54196D01*
X254407Y54224D01*
X254489Y54249D01*
X254573Y54270D01*
X254657Y54287D01*
X254742Y54301D01*
X254828Y54310D01*
X254914Y54316D01*
X255000Y54318D01*
X256919Y54318D01*
X256919Y35762D02*
X255000Y35762D01*
X254914Y35764D01*
X254828Y35770D01*
X254742Y35779D01*
X254657Y35793D01*
X254573Y35810D01*
X254489Y35831D01*
X254407Y35856D01*
X254326Y35884D01*
X254246Y35916D01*
X254167Y35952D01*
X254091Y35991D01*
X254016Y36034D01*
X253943Y36079D01*
X253872Y36128D01*
X253804Y36181D01*
X253737Y36236D01*
X253674Y36294D01*
X253613Y36355D01*
X253555Y36418D01*
X253500Y36485D01*
X253447Y36553D01*
X253398Y36624D01*
X253353Y36697D01*
X253310Y36772D01*
X253271Y36848D01*
X253235Y36927D01*
X253203Y37007D01*
X253175Y37088D01*
X253150Y37170D01*
X253129Y37254D01*
X253112Y37338D01*
X253098Y37423D01*
X253089Y37509D01*
X253083Y37595D01*
X253081Y37681D01*
X253081Y42479D01*
X253083Y42565D01*
X253089Y42651D01*
X253098Y42737D01*
X253112Y42822D01*
X253129Y42906D01*
X253150Y42990D01*
X253175Y43072D01*
X253203Y43153D01*
X253235Y43233D01*
X253271Y43312D01*
X253310Y43388D01*
X253353Y43463D01*
X253398Y43536D01*
X253447Y43607D01*
X253500Y43675D01*
X253555Y43742D01*
X253613Y43805D01*
X253674Y43866D01*
X253737Y43924D01*
X253804Y43979D01*
X253872Y44031D01*
X253943Y44081D01*
X254016Y44126D01*
X254091Y44169D01*
X254167Y44208D01*
X254246Y44244D01*
X254326Y44276D01*
X254407Y44304D01*
X254489Y44329D01*
X254573Y44350D01*
X254657Y44367D01*
X254742Y44381D01*
X254828Y44390D01*
X254914Y44396D01*
X255000Y44398D01*
X256919Y44398D01*
X392601Y45682D02*
X392601Y54318D01*
X395000Y54318D01*
X395097Y54316D01*
X395193Y54310D01*
X395289Y54301D01*
X395385Y54287D01*
X395480Y54270D01*
X395574Y54248D01*
X395667Y54223D01*
X395760Y54195D01*
X395851Y54162D01*
X395940Y54126D01*
X396028Y54086D01*
X396115Y54043D01*
X396200Y53997D01*
X396282Y53947D01*
X396363Y53893D01*
X396441Y53837D01*
X396517Y53777D01*
X396591Y53715D01*
X396662Y53649D01*
X396730Y53581D01*
X396796Y53510D01*
X396858Y53436D01*
X396918Y53360D01*
X396974Y53282D01*
X397028Y53201D01*
X397078Y53118D01*
X397124Y53034D01*
X397167Y52947D01*
X397207Y52859D01*
X397243Y52770D01*
X397276Y52679D01*
X397304Y52586D01*
X397329Y52493D01*
X397351Y52399D01*
X397368Y52304D01*
X397382Y52208D01*
X397391Y52112D01*
X397397Y52016D01*
X397399Y51919D01*
X397397Y51822D01*
X397391Y51726D01*
X397382Y51630D01*
X397368Y51534D01*
X397351Y51439D01*
X397329Y51345D01*
X397304Y51252D01*
X397276Y51159D01*
X397243Y51068D01*
X397207Y50979D01*
X397167Y50891D01*
X397124Y50804D01*
X397078Y50719D01*
X397028Y50637D01*
X396974Y50556D01*
X396918Y50478D01*
X396858Y50402D01*
X396796Y50328D01*
X396730Y50257D01*
X396662Y50189D01*
X396591Y50123D01*
X396517Y50061D01*
X396441Y50001D01*
X396363Y49945D01*
X396282Y49891D01*
X396200Y49841D01*
X396115Y49795D01*
X396028Y49752D01*
X395940Y49712D01*
X395851Y49676D01*
X395760Y49643D01*
X395667Y49615D01*
X395574Y49590D01*
X395480Y49568D01*
X395385Y49551D01*
X395289Y49537D01*
X395193Y49528D01*
X395097Y49522D01*
X395000Y49520D01*
X392601Y49520D01*
X395480Y49520D02*
X397399Y45682D01*
X405762Y115762D02*
X405762Y124398D01*
X408161Y124398D01*
X408258Y124396D01*
X408354Y124390D01*
X408450Y124381D01*
X408546Y124367D01*
X408641Y124350D01*
X408735Y124328D01*
X408828Y124303D01*
X408921Y124275D01*
X409012Y124242D01*
X409101Y124206D01*
X409189Y124166D01*
X409276Y124123D01*
X409361Y124077D01*
X409443Y124027D01*
X409524Y123973D01*
X409602Y123917D01*
X409678Y123857D01*
X409752Y123795D01*
X409823Y123729D01*
X409891Y123661D01*
X409957Y123590D01*
X410019Y123516D01*
X410079Y123440D01*
X410135Y123362D01*
X410189Y123281D01*
X410239Y123198D01*
X410285Y123114D01*
X410328Y123027D01*
X410368Y122939D01*
X410404Y122850D01*
X410437Y122759D01*
X410465Y122666D01*
X410490Y122573D01*
X410512Y122479D01*
X410529Y122384D01*
X410543Y122288D01*
X410552Y122192D01*
X410558Y122096D01*
X410560Y121999D01*
X410558Y121902D01*
X410552Y121806D01*
X410543Y121710D01*
X410529Y121614D01*
X410512Y121519D01*
X410490Y121425D01*
X410465Y121332D01*
X410437Y121239D01*
X410404Y121148D01*
X410368Y121059D01*
X410328Y120971D01*
X410285Y120884D01*
X410239Y120799D01*
X410189Y120717D01*
X410135Y120636D01*
X410079Y120558D01*
X410019Y120482D01*
X409957Y120408D01*
X409891Y120337D01*
X409823Y120269D01*
X409752Y120203D01*
X409678Y120141D01*
X409602Y120081D01*
X409524Y120025D01*
X409443Y119971D01*
X409361Y119921D01*
X409276Y119875D01*
X409189Y119832D01*
X409101Y119792D01*
X409012Y119756D01*
X408921Y119723D01*
X408828Y119695D01*
X408735Y119670D01*
X408641Y119648D01*
X408546Y119631D01*
X408450Y119617D01*
X408354Y119608D01*
X408258Y119602D01*
X408161Y119600D01*
X405762Y119600D01*
X408641Y119600D02*
X410560Y115762D01*
X277601Y44398D02*
X277601Y35762D01*
X277601Y44398D02*
X280000Y44398D01*
X280097Y44396D01*
X280193Y44390D01*
X280289Y44381D01*
X280385Y44367D01*
X280480Y44350D01*
X280574Y44328D01*
X280667Y44303D01*
X280760Y44275D01*
X280851Y44242D01*
X280940Y44206D01*
X281028Y44166D01*
X281115Y44123D01*
X281200Y44077D01*
X281282Y44027D01*
X281363Y43973D01*
X281441Y43917D01*
X281517Y43857D01*
X281591Y43795D01*
X281662Y43729D01*
X281730Y43661D01*
X281796Y43590D01*
X281858Y43516D01*
X281918Y43440D01*
X281974Y43362D01*
X282028Y43281D01*
X282078Y43198D01*
X282124Y43114D01*
X282167Y43027D01*
X282207Y42939D01*
X282243Y42850D01*
X282276Y42759D01*
X282304Y42666D01*
X282329Y42573D01*
X282351Y42479D01*
X282368Y42384D01*
X282382Y42288D01*
X282391Y42192D01*
X282397Y42096D01*
X282399Y41999D01*
X282397Y41902D01*
X282391Y41806D01*
X282382Y41710D01*
X282368Y41614D01*
X282351Y41519D01*
X282329Y41425D01*
X282304Y41332D01*
X282276Y41239D01*
X282243Y41148D01*
X282207Y41059D01*
X282167Y40971D01*
X282124Y40884D01*
X282078Y40799D01*
X282028Y40717D01*
X281974Y40636D01*
X281918Y40558D01*
X281858Y40482D01*
X281796Y40408D01*
X281730Y40337D01*
X281662Y40269D01*
X281591Y40203D01*
X281517Y40141D01*
X281441Y40081D01*
X281363Y40025D01*
X281282Y39971D01*
X281200Y39921D01*
X281115Y39875D01*
X281028Y39832D01*
X280940Y39792D01*
X280851Y39756D01*
X280760Y39723D01*
X280667Y39695D01*
X280574Y39670D01*
X280480Y39648D01*
X280385Y39631D01*
X280289Y39617D01*
X280193Y39608D01*
X280097Y39602D01*
X280000Y39600D01*
X277601Y39600D01*
X280480Y39600D02*
X282399Y35762D01*
X200668Y35762D02*
X197789Y35762D01*
X200668Y35762D02*
X200754Y35764D01*
X200840Y35770D01*
X200926Y35779D01*
X201011Y35793D01*
X201095Y35810D01*
X201179Y35831D01*
X201261Y35856D01*
X201342Y35884D01*
X201422Y35916D01*
X201501Y35952D01*
X201577Y35991D01*
X201652Y36034D01*
X201725Y36079D01*
X201796Y36129D01*
X201864Y36181D01*
X201931Y36236D01*
X201994Y36294D01*
X202055Y36355D01*
X202113Y36418D01*
X202168Y36485D01*
X202221Y36553D01*
X202270Y36624D01*
X202315Y36697D01*
X202358Y36772D01*
X202397Y36848D01*
X202433Y36927D01*
X202465Y37007D01*
X202493Y37088D01*
X202518Y37171D01*
X202539Y37254D01*
X202556Y37338D01*
X202570Y37423D01*
X202579Y37509D01*
X202585Y37595D01*
X202587Y37681D01*
X202587Y38641D01*
X202585Y38727D01*
X202579Y38813D01*
X202570Y38899D01*
X202556Y38984D01*
X202539Y39068D01*
X202518Y39152D01*
X202493Y39234D01*
X202465Y39315D01*
X202433Y39395D01*
X202397Y39474D01*
X202358Y39550D01*
X202315Y39625D01*
X202270Y39698D01*
X202221Y39769D01*
X202168Y39837D01*
X202113Y39904D01*
X202055Y39967D01*
X201994Y40028D01*
X201931Y40086D01*
X201864Y40141D01*
X201796Y40194D01*
X201725Y40243D01*
X201652Y40288D01*
X201577Y40331D01*
X201501Y40370D01*
X201422Y40406D01*
X201342Y40438D01*
X201261Y40466D01*
X201179Y40491D01*
X201095Y40512D01*
X201011Y40529D01*
X200926Y40543D01*
X200840Y40552D01*
X200754Y40558D01*
X200668Y40560D01*
X197789Y40560D01*
X197789Y44398D01*
X202587Y44398D01*
X206453Y44398D02*
X209332Y35762D01*
X212211Y44398D01*
X298706Y40560D02*
X300145Y40560D01*
X300145Y35762D01*
X297267Y35762D01*
X297181Y35764D01*
X297095Y35770D01*
X297009Y35779D01*
X296924Y35793D01*
X296840Y35810D01*
X296756Y35831D01*
X296674Y35856D01*
X296593Y35884D01*
X296513Y35916D01*
X296434Y35952D01*
X296358Y35991D01*
X296283Y36034D01*
X296210Y36079D01*
X296139Y36128D01*
X296071Y36181D01*
X296004Y36236D01*
X295941Y36294D01*
X295880Y36355D01*
X295822Y36418D01*
X295767Y36485D01*
X295714Y36553D01*
X295665Y36624D01*
X295620Y36697D01*
X295577Y36772D01*
X295538Y36848D01*
X295502Y36927D01*
X295470Y37007D01*
X295442Y37088D01*
X295417Y37170D01*
X295396Y37254D01*
X295379Y37338D01*
X295365Y37423D01*
X295356Y37509D01*
X295350Y37595D01*
X295348Y37681D01*
X295348Y42479D01*
X295350Y42565D01*
X295356Y42651D01*
X295365Y42737D01*
X295379Y42822D01*
X295396Y42906D01*
X295417Y42990D01*
X295442Y43072D01*
X295470Y43153D01*
X295502Y43233D01*
X295538Y43312D01*
X295577Y43388D01*
X295620Y43463D01*
X295665Y43536D01*
X295714Y43607D01*
X295767Y43675D01*
X295822Y43742D01*
X295880Y43805D01*
X295941Y43866D01*
X296004Y43924D01*
X296071Y43979D01*
X296139Y44031D01*
X296210Y44081D01*
X296283Y44126D01*
X296358Y44169D01*
X296434Y44208D01*
X296513Y44244D01*
X296593Y44276D01*
X296674Y44304D01*
X296756Y44329D01*
X296840Y44350D01*
X296924Y44367D01*
X297009Y44381D01*
X297095Y44390D01*
X297181Y44396D01*
X297267Y44398D01*
X300145Y44398D01*
X305101Y44398D02*
X305101Y35762D01*
X309899Y35762D02*
X305101Y44398D01*
X309899Y44398D02*
X309899Y35762D01*
X314855Y35762D02*
X314855Y44398D01*
X317254Y44398D01*
X317351Y44396D01*
X317447Y44390D01*
X317543Y44381D01*
X317639Y44367D01*
X317734Y44350D01*
X317828Y44328D01*
X317921Y44303D01*
X318014Y44275D01*
X318105Y44242D01*
X318194Y44206D01*
X318282Y44166D01*
X318369Y44123D01*
X318454Y44077D01*
X318536Y44027D01*
X318617Y43973D01*
X318695Y43917D01*
X318771Y43857D01*
X318845Y43795D01*
X318916Y43729D01*
X318984Y43661D01*
X319050Y43590D01*
X319112Y43516D01*
X319172Y43440D01*
X319228Y43362D01*
X319282Y43281D01*
X319332Y43199D01*
X319378Y43114D01*
X319421Y43027D01*
X319461Y42939D01*
X319497Y42850D01*
X319530Y42759D01*
X319558Y42666D01*
X319583Y42573D01*
X319605Y42479D01*
X319622Y42384D01*
X319636Y42288D01*
X319645Y42192D01*
X319651Y42096D01*
X319653Y41999D01*
X319652Y41999D02*
X319652Y38161D01*
X319653Y38161D02*
X319651Y38064D01*
X319645Y37968D01*
X319636Y37872D01*
X319622Y37776D01*
X319605Y37681D01*
X319583Y37587D01*
X319558Y37494D01*
X319530Y37401D01*
X319497Y37310D01*
X319461Y37221D01*
X319421Y37133D01*
X319378Y37046D01*
X319332Y36961D01*
X319282Y36879D01*
X319228Y36798D01*
X319172Y36720D01*
X319112Y36644D01*
X319050Y36570D01*
X318984Y36499D01*
X318916Y36431D01*
X318845Y36365D01*
X318771Y36303D01*
X318695Y36243D01*
X318617Y36187D01*
X318536Y36133D01*
X318454Y36083D01*
X318369Y36037D01*
X318282Y35994D01*
X318194Y35954D01*
X318105Y35918D01*
X318014Y35885D01*
X317921Y35857D01*
X317828Y35832D01*
X317734Y35810D01*
X317639Y35793D01*
X317543Y35779D01*
X317447Y35770D01*
X317351Y35764D01*
X317254Y35762D01*
X314855Y35762D01*
X460691Y54652D02*
X462610Y54652D01*
X460691Y54652D02*
X460605Y54654D01*
X460519Y54660D01*
X460433Y54669D01*
X460348Y54683D01*
X460264Y54700D01*
X460180Y54721D01*
X460098Y54746D01*
X460017Y54774D01*
X459937Y54806D01*
X459858Y54842D01*
X459782Y54881D01*
X459707Y54924D01*
X459634Y54969D01*
X459563Y55018D01*
X459495Y55071D01*
X459428Y55126D01*
X459365Y55184D01*
X459304Y55245D01*
X459246Y55308D01*
X459191Y55375D01*
X459138Y55443D01*
X459089Y55514D01*
X459044Y55587D01*
X459001Y55662D01*
X458962Y55738D01*
X458926Y55817D01*
X458894Y55897D01*
X458866Y55978D01*
X458841Y56060D01*
X458820Y56144D01*
X458803Y56228D01*
X458789Y56313D01*
X458780Y56399D01*
X458774Y56485D01*
X458772Y56571D01*
X458772Y61369D01*
X458774Y61455D01*
X458780Y61541D01*
X458789Y61627D01*
X458803Y61712D01*
X458820Y61796D01*
X458841Y61880D01*
X458866Y61962D01*
X458894Y62043D01*
X458926Y62123D01*
X458962Y62202D01*
X459001Y62278D01*
X459044Y62353D01*
X459089Y62426D01*
X459138Y62497D01*
X459191Y62565D01*
X459246Y62632D01*
X459304Y62695D01*
X459365Y62756D01*
X459428Y62814D01*
X459495Y62869D01*
X459563Y62921D01*
X459634Y62971D01*
X459707Y63016D01*
X459782Y63059D01*
X459858Y63098D01*
X459937Y63134D01*
X460017Y63166D01*
X460098Y63194D01*
X460180Y63219D01*
X460264Y63240D01*
X460348Y63257D01*
X460433Y63271D01*
X460519Y63280D01*
X460605Y63286D01*
X460691Y63288D01*
X462610Y63288D01*
X466430Y61369D02*
X468829Y63288D01*
X468829Y54652D01*
X466430Y54652D02*
X471228Y54652D01*
D11*
X287550Y32700D02*
X274850Y32700D01*
X287550Y32700D02*
X293900Y26350D01*
X293900Y13650D02*
X287550Y7300D01*
X293900Y26350D02*
X300250Y32700D01*
X312950Y32700D01*
X319300Y26350D01*
X319300Y13650D02*
X312950Y7300D01*
X300250Y7300D01*
X293900Y13650D01*
X249450Y32700D02*
X243100Y26350D01*
X249450Y32700D02*
X262150Y32700D01*
X268500Y26350D01*
X268500Y13650D02*
X262150Y7300D01*
X249450Y7300D01*
X243100Y13650D01*
X268500Y26350D02*
X274850Y32700D01*
X268500Y13650D02*
X274850Y7300D01*
X287550Y7300D01*
X211350Y32700D02*
X198650Y32700D01*
X211350Y32700D02*
X217700Y26350D01*
X217700Y13650D02*
X211350Y7300D01*
X217700Y26350D02*
X224050Y32700D01*
X236750Y32700D01*
X243100Y26350D01*
X243100Y13650D02*
X236750Y7300D01*
X224050Y7300D01*
X217700Y13650D01*
X192300Y13650D02*
X192300Y26350D01*
X198650Y32700D01*
X192300Y13650D02*
X198650Y7300D01*
X211350Y7300D01*
X319300Y13650D02*
X319300Y26350D01*
D12*
X396500Y110000D02*
X394750Y111750D01*
X396500Y110000D02*
X395000Y108500D01*
X393250Y110250D01*
X394750Y111750D01*
D13*
X399000Y112750D03*
D12*
X256500Y110000D02*
X254750Y111750D01*
X256500Y110000D02*
X255000Y108500D01*
X253250Y110250D01*
X254750Y111750D01*
D13*
X259000Y112750D03*
D12*
X116500Y110000D02*
X114750Y111750D01*
X116500Y110000D02*
X115000Y108500D01*
X113250Y110250D01*
X114750Y111750D01*
D13*
X119000Y112750D03*
D10*
X153071Y93288D02*
X153071Y84652D01*
X153071Y93288D02*
X155470Y93288D01*
X155567Y93286D01*
X155663Y93280D01*
X155759Y93271D01*
X155855Y93257D01*
X155950Y93240D01*
X156044Y93218D01*
X156137Y93193D01*
X156230Y93165D01*
X156321Y93132D01*
X156410Y93096D01*
X156498Y93056D01*
X156585Y93013D01*
X156670Y92967D01*
X156752Y92917D01*
X156833Y92863D01*
X156911Y92807D01*
X156987Y92747D01*
X157061Y92685D01*
X157132Y92619D01*
X157200Y92551D01*
X157266Y92480D01*
X157328Y92406D01*
X157388Y92330D01*
X157444Y92252D01*
X157498Y92171D01*
X157548Y92088D01*
X157594Y92004D01*
X157637Y91917D01*
X157677Y91829D01*
X157713Y91740D01*
X157746Y91649D01*
X157774Y91556D01*
X157799Y91463D01*
X157821Y91369D01*
X157838Y91274D01*
X157852Y91178D01*
X157861Y91082D01*
X157867Y90986D01*
X157869Y90889D01*
X157867Y90792D01*
X157861Y90696D01*
X157852Y90600D01*
X157838Y90504D01*
X157821Y90409D01*
X157799Y90315D01*
X157774Y90222D01*
X157746Y90129D01*
X157713Y90038D01*
X157677Y89949D01*
X157637Y89861D01*
X157594Y89774D01*
X157548Y89689D01*
X157498Y89607D01*
X157444Y89526D01*
X157388Y89448D01*
X157328Y89372D01*
X157266Y89298D01*
X157200Y89227D01*
X157132Y89159D01*
X157061Y89093D01*
X156987Y89031D01*
X156911Y88971D01*
X156833Y88915D01*
X156752Y88861D01*
X156670Y88811D01*
X156585Y88765D01*
X156498Y88722D01*
X156410Y88682D01*
X156321Y88646D01*
X156230Y88613D01*
X156137Y88585D01*
X156044Y88560D01*
X155950Y88538D01*
X155855Y88521D01*
X155759Y88507D01*
X155663Y88498D01*
X155567Y88492D01*
X155470Y88490D01*
X153071Y88490D01*
X155950Y88490D02*
X157869Y84652D01*
X162131Y91369D02*
X164530Y93288D01*
X164530Y84652D01*
X162131Y84652D02*
X166929Y84652D01*
X293071Y84652D02*
X293071Y93288D01*
X295470Y93288D01*
X295567Y93286D01*
X295663Y93280D01*
X295759Y93271D01*
X295855Y93257D01*
X295950Y93240D01*
X296044Y93218D01*
X296137Y93193D01*
X296230Y93165D01*
X296321Y93132D01*
X296410Y93096D01*
X296498Y93056D01*
X296585Y93013D01*
X296670Y92967D01*
X296752Y92917D01*
X296833Y92863D01*
X296911Y92807D01*
X296987Y92747D01*
X297061Y92685D01*
X297132Y92619D01*
X297200Y92551D01*
X297266Y92480D01*
X297328Y92406D01*
X297388Y92330D01*
X297444Y92252D01*
X297498Y92171D01*
X297548Y92088D01*
X297594Y92004D01*
X297637Y91917D01*
X297677Y91829D01*
X297713Y91740D01*
X297746Y91649D01*
X297774Y91556D01*
X297799Y91463D01*
X297821Y91369D01*
X297838Y91274D01*
X297852Y91178D01*
X297861Y91082D01*
X297867Y90986D01*
X297869Y90889D01*
X297867Y90792D01*
X297861Y90696D01*
X297852Y90600D01*
X297838Y90504D01*
X297821Y90409D01*
X297799Y90315D01*
X297774Y90222D01*
X297746Y90129D01*
X297713Y90038D01*
X297677Y89949D01*
X297637Y89861D01*
X297594Y89774D01*
X297548Y89689D01*
X297498Y89607D01*
X297444Y89526D01*
X297388Y89448D01*
X297328Y89372D01*
X297266Y89298D01*
X297200Y89227D01*
X297132Y89159D01*
X297061Y89093D01*
X296987Y89031D01*
X296911Y88971D01*
X296833Y88915D01*
X296752Y88861D01*
X296670Y88811D01*
X296585Y88765D01*
X296498Y88722D01*
X296410Y88682D01*
X296321Y88646D01*
X296230Y88613D01*
X296137Y88585D01*
X296044Y88560D01*
X295950Y88538D01*
X295855Y88521D01*
X295759Y88507D01*
X295663Y88498D01*
X295567Y88492D01*
X295470Y88490D01*
X293071Y88490D01*
X295950Y88490D02*
X297869Y84652D01*
X304770Y93288D02*
X304862Y93286D01*
X304953Y93280D01*
X305044Y93271D01*
X305135Y93257D01*
X305225Y93240D01*
X305314Y93218D01*
X305402Y93193D01*
X305489Y93165D01*
X305575Y93132D01*
X305659Y93096D01*
X305742Y93057D01*
X305823Y93014D01*
X305902Y92967D01*
X305979Y92918D01*
X306054Y92865D01*
X306126Y92809D01*
X306196Y92750D01*
X306264Y92688D01*
X306329Y92623D01*
X306391Y92555D01*
X306450Y92485D01*
X306506Y92413D01*
X306559Y92338D01*
X306608Y92261D01*
X306655Y92182D01*
X306698Y92101D01*
X306737Y92018D01*
X306773Y91934D01*
X306806Y91848D01*
X306834Y91761D01*
X306859Y91673D01*
X306881Y91584D01*
X306898Y91494D01*
X306912Y91403D01*
X306921Y91312D01*
X306927Y91221D01*
X306929Y91129D01*
X304770Y93288D02*
X304667Y93286D01*
X304565Y93280D01*
X304463Y93271D01*
X304361Y93258D01*
X304260Y93241D01*
X304159Y93220D01*
X304060Y93196D01*
X303961Y93167D01*
X303864Y93136D01*
X303767Y93100D01*
X303672Y93062D01*
X303579Y93019D01*
X303487Y92973D01*
X303397Y92924D01*
X303309Y92872D01*
X303222Y92816D01*
X303138Y92757D01*
X303057Y92696D01*
X302977Y92631D01*
X302900Y92563D01*
X302825Y92492D01*
X302754Y92419D01*
X302685Y92343D01*
X302618Y92265D01*
X302555Y92184D01*
X302495Y92101D01*
X302438Y92016D01*
X302384Y91929D01*
X302333Y91839D01*
X302286Y91748D01*
X302242Y91656D01*
X302201Y91561D01*
X302164Y91466D01*
X302131Y91369D01*
X306209Y89450D02*
X306276Y89516D01*
X306340Y89585D01*
X306401Y89656D01*
X306459Y89730D01*
X306514Y89806D01*
X306566Y89884D01*
X306615Y89964D01*
X306661Y90046D01*
X306703Y90130D01*
X306742Y90216D01*
X306777Y90303D01*
X306808Y90391D01*
X306836Y90481D01*
X306861Y90571D01*
X306882Y90663D01*
X306899Y90755D01*
X306912Y90848D01*
X306921Y90941D01*
X306927Y91035D01*
X306929Y91129D01*
X306209Y89450D02*
X302131Y84652D01*
X306929Y84652D01*
X318071Y119652D02*
X318071Y128288D01*
X320470Y128288D01*
X320567Y128286D01*
X320663Y128280D01*
X320759Y128271D01*
X320855Y128257D01*
X320950Y128240D01*
X321044Y128218D01*
X321137Y128193D01*
X321230Y128165D01*
X321321Y128132D01*
X321410Y128096D01*
X321498Y128056D01*
X321585Y128013D01*
X321670Y127967D01*
X321752Y127917D01*
X321833Y127863D01*
X321911Y127807D01*
X321987Y127747D01*
X322061Y127685D01*
X322132Y127619D01*
X322200Y127551D01*
X322266Y127480D01*
X322328Y127406D01*
X322388Y127330D01*
X322444Y127252D01*
X322498Y127171D01*
X322548Y127088D01*
X322594Y127004D01*
X322637Y126917D01*
X322677Y126829D01*
X322713Y126740D01*
X322746Y126649D01*
X322774Y126556D01*
X322799Y126463D01*
X322821Y126369D01*
X322838Y126274D01*
X322852Y126178D01*
X322861Y126082D01*
X322867Y125986D01*
X322869Y125889D01*
X322867Y125792D01*
X322861Y125696D01*
X322852Y125600D01*
X322838Y125504D01*
X322821Y125409D01*
X322799Y125315D01*
X322774Y125222D01*
X322746Y125129D01*
X322713Y125038D01*
X322677Y124949D01*
X322637Y124861D01*
X322594Y124774D01*
X322548Y124689D01*
X322498Y124607D01*
X322444Y124526D01*
X322388Y124448D01*
X322328Y124372D01*
X322266Y124298D01*
X322200Y124227D01*
X322132Y124159D01*
X322061Y124093D01*
X321987Y124031D01*
X321911Y123971D01*
X321833Y123915D01*
X321752Y123861D01*
X321670Y123811D01*
X321585Y123765D01*
X321498Y123722D01*
X321410Y123682D01*
X321321Y123646D01*
X321230Y123613D01*
X321137Y123585D01*
X321044Y123560D01*
X320950Y123538D01*
X320855Y123521D01*
X320759Y123507D01*
X320663Y123498D01*
X320567Y123492D01*
X320470Y123490D01*
X318071Y123490D01*
X320950Y123490D02*
X322869Y119652D01*
X327131Y119652D02*
X329530Y119652D01*
X329627Y119654D01*
X329723Y119660D01*
X329819Y119669D01*
X329915Y119683D01*
X330010Y119700D01*
X330104Y119722D01*
X330197Y119747D01*
X330290Y119775D01*
X330381Y119808D01*
X330470Y119844D01*
X330558Y119884D01*
X330645Y119927D01*
X330730Y119973D01*
X330812Y120023D01*
X330893Y120077D01*
X330971Y120133D01*
X331047Y120193D01*
X331121Y120255D01*
X331192Y120321D01*
X331260Y120389D01*
X331326Y120460D01*
X331388Y120534D01*
X331448Y120610D01*
X331504Y120688D01*
X331558Y120769D01*
X331608Y120851D01*
X331654Y120936D01*
X331697Y121023D01*
X331737Y121111D01*
X331773Y121200D01*
X331806Y121291D01*
X331834Y121384D01*
X331859Y121477D01*
X331881Y121571D01*
X331898Y121666D01*
X331912Y121762D01*
X331921Y121858D01*
X331927Y121954D01*
X331929Y122051D01*
X331927Y122148D01*
X331921Y122244D01*
X331912Y122340D01*
X331898Y122436D01*
X331881Y122531D01*
X331859Y122625D01*
X331834Y122718D01*
X331806Y122811D01*
X331773Y122902D01*
X331737Y122991D01*
X331697Y123079D01*
X331654Y123166D01*
X331608Y123250D01*
X331558Y123333D01*
X331504Y123414D01*
X331448Y123492D01*
X331388Y123568D01*
X331326Y123642D01*
X331260Y123713D01*
X331192Y123781D01*
X331121Y123847D01*
X331047Y123909D01*
X330971Y123969D01*
X330893Y124025D01*
X330812Y124079D01*
X330730Y124129D01*
X330645Y124175D01*
X330558Y124218D01*
X330470Y124258D01*
X330381Y124294D01*
X330290Y124327D01*
X330197Y124355D01*
X330104Y124380D01*
X330010Y124402D01*
X329915Y124419D01*
X329819Y124433D01*
X329723Y124442D01*
X329627Y124448D01*
X329530Y124450D01*
X330009Y128288D02*
X327131Y128288D01*
X330009Y128288D02*
X330095Y128286D01*
X330181Y128280D01*
X330267Y128271D01*
X330352Y128257D01*
X330436Y128240D01*
X330520Y128219D01*
X330602Y128194D01*
X330683Y128166D01*
X330763Y128134D01*
X330842Y128098D01*
X330918Y128059D01*
X330993Y128016D01*
X331066Y127971D01*
X331137Y127922D01*
X331205Y127869D01*
X331272Y127814D01*
X331335Y127756D01*
X331396Y127695D01*
X331454Y127632D01*
X331509Y127565D01*
X331562Y127497D01*
X331611Y127426D01*
X331656Y127353D01*
X331699Y127278D01*
X331738Y127202D01*
X331774Y127123D01*
X331806Y127043D01*
X331834Y126962D01*
X331859Y126880D01*
X331880Y126796D01*
X331897Y126712D01*
X331911Y126627D01*
X331920Y126541D01*
X331926Y126455D01*
X331928Y126369D01*
X331926Y126283D01*
X331920Y126197D01*
X331911Y126111D01*
X331897Y126026D01*
X331880Y125942D01*
X331859Y125858D01*
X331834Y125776D01*
X331806Y125695D01*
X331774Y125615D01*
X331738Y125536D01*
X331699Y125460D01*
X331656Y125385D01*
X331611Y125312D01*
X331562Y125241D01*
X331509Y125173D01*
X331454Y125106D01*
X331396Y125043D01*
X331335Y124982D01*
X331272Y124924D01*
X331205Y124869D01*
X331137Y124816D01*
X331066Y124767D01*
X330993Y124722D01*
X330918Y124679D01*
X330842Y124640D01*
X330763Y124604D01*
X330683Y124572D01*
X330602Y124544D01*
X330520Y124519D01*
X330436Y124498D01*
X330352Y124481D01*
X330267Y124467D01*
X330181Y124458D01*
X330095Y124452D01*
X330009Y124450D01*
X328090Y124450D01*
X178071Y121712D02*
X178071Y130348D01*
X180470Y130348D01*
X180567Y130346D01*
X180663Y130340D01*
X180759Y130331D01*
X180855Y130317D01*
X180950Y130300D01*
X181044Y130278D01*
X181137Y130253D01*
X181230Y130225D01*
X181321Y130192D01*
X181410Y130156D01*
X181498Y130116D01*
X181585Y130073D01*
X181670Y130027D01*
X181752Y129977D01*
X181833Y129923D01*
X181911Y129867D01*
X181987Y129807D01*
X182061Y129745D01*
X182132Y129679D01*
X182200Y129611D01*
X182266Y129540D01*
X182328Y129466D01*
X182388Y129390D01*
X182444Y129312D01*
X182498Y129231D01*
X182548Y129148D01*
X182594Y129064D01*
X182637Y128977D01*
X182677Y128889D01*
X182713Y128800D01*
X182746Y128709D01*
X182774Y128616D01*
X182799Y128523D01*
X182821Y128429D01*
X182838Y128334D01*
X182852Y128238D01*
X182861Y128142D01*
X182867Y128046D01*
X182869Y127949D01*
X182867Y127852D01*
X182861Y127756D01*
X182852Y127660D01*
X182838Y127564D01*
X182821Y127469D01*
X182799Y127375D01*
X182774Y127282D01*
X182746Y127189D01*
X182713Y127098D01*
X182677Y127009D01*
X182637Y126921D01*
X182594Y126834D01*
X182548Y126749D01*
X182498Y126667D01*
X182444Y126586D01*
X182388Y126508D01*
X182328Y126432D01*
X182266Y126358D01*
X182200Y126287D01*
X182132Y126219D01*
X182061Y126153D01*
X181987Y126091D01*
X181911Y126031D01*
X181833Y125975D01*
X181752Y125921D01*
X181670Y125871D01*
X181585Y125825D01*
X181498Y125782D01*
X181410Y125742D01*
X181321Y125706D01*
X181230Y125673D01*
X181137Y125645D01*
X181044Y125620D01*
X180950Y125598D01*
X180855Y125581D01*
X180759Y125567D01*
X180663Y125558D01*
X180567Y125552D01*
X180470Y125550D01*
X178071Y125550D01*
X180950Y125550D02*
X182869Y121712D01*
X187131Y123631D02*
X189050Y130348D01*
X187131Y123631D02*
X191929Y123631D01*
X190489Y125550D02*
X190489Y121712D01*
X203071Y93288D02*
X203071Y84652D01*
X203071Y93288D02*
X205470Y93288D01*
X205567Y93286D01*
X205663Y93280D01*
X205759Y93271D01*
X205855Y93257D01*
X205950Y93240D01*
X206044Y93218D01*
X206137Y93193D01*
X206230Y93165D01*
X206321Y93132D01*
X206410Y93096D01*
X206498Y93056D01*
X206585Y93013D01*
X206670Y92967D01*
X206752Y92917D01*
X206833Y92863D01*
X206911Y92807D01*
X206987Y92747D01*
X207061Y92685D01*
X207132Y92619D01*
X207200Y92551D01*
X207266Y92480D01*
X207328Y92406D01*
X207388Y92330D01*
X207444Y92252D01*
X207498Y92171D01*
X207548Y92088D01*
X207594Y92004D01*
X207637Y91917D01*
X207677Y91829D01*
X207713Y91740D01*
X207746Y91649D01*
X207774Y91556D01*
X207799Y91463D01*
X207821Y91369D01*
X207838Y91274D01*
X207852Y91178D01*
X207861Y91082D01*
X207867Y90986D01*
X207869Y90889D01*
X207867Y90792D01*
X207861Y90696D01*
X207852Y90600D01*
X207838Y90504D01*
X207821Y90409D01*
X207799Y90315D01*
X207774Y90222D01*
X207746Y90129D01*
X207713Y90038D01*
X207677Y89949D01*
X207637Y89861D01*
X207594Y89774D01*
X207548Y89689D01*
X207498Y89607D01*
X207444Y89526D01*
X207388Y89448D01*
X207328Y89372D01*
X207266Y89298D01*
X207200Y89227D01*
X207132Y89159D01*
X207061Y89093D01*
X206987Y89031D01*
X206911Y88971D01*
X206833Y88915D01*
X206752Y88861D01*
X206670Y88811D01*
X206585Y88765D01*
X206498Y88722D01*
X206410Y88682D01*
X206321Y88646D01*
X206230Y88613D01*
X206137Y88585D01*
X206044Y88560D01*
X205950Y88538D01*
X205855Y88521D01*
X205759Y88507D01*
X205663Y88498D01*
X205567Y88492D01*
X205470Y88490D01*
X203071Y88490D01*
X205950Y88490D02*
X207869Y84652D01*
X212131Y84652D02*
X215009Y84652D01*
X215095Y84654D01*
X215181Y84660D01*
X215267Y84669D01*
X215352Y84683D01*
X215436Y84700D01*
X215520Y84721D01*
X215602Y84746D01*
X215683Y84774D01*
X215763Y84806D01*
X215842Y84842D01*
X215918Y84881D01*
X215993Y84924D01*
X216066Y84969D01*
X216137Y85019D01*
X216205Y85071D01*
X216272Y85126D01*
X216335Y85184D01*
X216396Y85245D01*
X216454Y85308D01*
X216509Y85375D01*
X216562Y85443D01*
X216611Y85514D01*
X216656Y85587D01*
X216699Y85662D01*
X216738Y85738D01*
X216774Y85817D01*
X216806Y85897D01*
X216834Y85978D01*
X216859Y86061D01*
X216880Y86144D01*
X216897Y86228D01*
X216911Y86313D01*
X216920Y86399D01*
X216926Y86485D01*
X216928Y86571D01*
X216929Y86571D02*
X216929Y87531D01*
X216928Y87531D02*
X216926Y87617D01*
X216920Y87703D01*
X216911Y87789D01*
X216897Y87874D01*
X216880Y87958D01*
X216859Y88042D01*
X216834Y88124D01*
X216806Y88205D01*
X216774Y88285D01*
X216738Y88364D01*
X216699Y88440D01*
X216656Y88515D01*
X216611Y88588D01*
X216562Y88659D01*
X216509Y88727D01*
X216454Y88794D01*
X216396Y88857D01*
X216335Y88918D01*
X216272Y88976D01*
X216205Y89031D01*
X216137Y89084D01*
X216066Y89133D01*
X215993Y89178D01*
X215918Y89221D01*
X215842Y89260D01*
X215763Y89296D01*
X215683Y89328D01*
X215602Y89356D01*
X215520Y89381D01*
X215436Y89402D01*
X215352Y89419D01*
X215267Y89433D01*
X215181Y89442D01*
X215095Y89448D01*
X215009Y89450D01*
X212131Y89450D01*
X212131Y93288D01*
X216929Y93288D01*
X343071Y93288D02*
X343071Y84652D01*
X343071Y93288D02*
X345470Y93288D01*
X345567Y93286D01*
X345663Y93280D01*
X345759Y93271D01*
X345855Y93257D01*
X345950Y93240D01*
X346044Y93218D01*
X346137Y93193D01*
X346230Y93165D01*
X346321Y93132D01*
X346410Y93096D01*
X346498Y93056D01*
X346585Y93013D01*
X346670Y92967D01*
X346752Y92917D01*
X346833Y92863D01*
X346911Y92807D01*
X346987Y92747D01*
X347061Y92685D01*
X347132Y92619D01*
X347200Y92551D01*
X347266Y92480D01*
X347328Y92406D01*
X347388Y92330D01*
X347444Y92252D01*
X347498Y92171D01*
X347548Y92088D01*
X347594Y92004D01*
X347637Y91917D01*
X347677Y91829D01*
X347713Y91740D01*
X347746Y91649D01*
X347774Y91556D01*
X347799Y91463D01*
X347821Y91369D01*
X347838Y91274D01*
X347852Y91178D01*
X347861Y91082D01*
X347867Y90986D01*
X347869Y90889D01*
X347867Y90792D01*
X347861Y90696D01*
X347852Y90600D01*
X347838Y90504D01*
X347821Y90409D01*
X347799Y90315D01*
X347774Y90222D01*
X347746Y90129D01*
X347713Y90038D01*
X347677Y89949D01*
X347637Y89861D01*
X347594Y89774D01*
X347548Y89689D01*
X347498Y89607D01*
X347444Y89526D01*
X347388Y89448D01*
X347328Y89372D01*
X347266Y89298D01*
X347200Y89227D01*
X347132Y89159D01*
X347061Y89093D01*
X346987Y89031D01*
X346911Y88971D01*
X346833Y88915D01*
X346752Y88861D01*
X346670Y88811D01*
X346585Y88765D01*
X346498Y88722D01*
X346410Y88682D01*
X346321Y88646D01*
X346230Y88613D01*
X346137Y88585D01*
X346044Y88560D01*
X345950Y88538D01*
X345855Y88521D01*
X345759Y88507D01*
X345663Y88498D01*
X345567Y88492D01*
X345470Y88490D01*
X343071Y88490D01*
X345950Y88490D02*
X347869Y84652D01*
X352131Y89450D02*
X355009Y89450D01*
X355095Y89448D01*
X355181Y89442D01*
X355267Y89433D01*
X355352Y89419D01*
X355436Y89402D01*
X355520Y89381D01*
X355602Y89356D01*
X355683Y89328D01*
X355763Y89296D01*
X355842Y89260D01*
X355918Y89221D01*
X355993Y89178D01*
X356066Y89133D01*
X356137Y89084D01*
X356205Y89031D01*
X356272Y88976D01*
X356335Y88918D01*
X356396Y88857D01*
X356454Y88794D01*
X356509Y88727D01*
X356562Y88659D01*
X356611Y88588D01*
X356656Y88515D01*
X356699Y88440D01*
X356738Y88364D01*
X356774Y88285D01*
X356806Y88205D01*
X356834Y88124D01*
X356859Y88042D01*
X356880Y87958D01*
X356897Y87874D01*
X356911Y87789D01*
X356920Y87703D01*
X356926Y87617D01*
X356928Y87531D01*
X356929Y87531D02*
X356929Y87051D01*
X356927Y86954D01*
X356921Y86858D01*
X356912Y86762D01*
X356898Y86666D01*
X356881Y86571D01*
X356859Y86477D01*
X356834Y86384D01*
X356806Y86291D01*
X356773Y86200D01*
X356737Y86111D01*
X356697Y86023D01*
X356654Y85936D01*
X356608Y85851D01*
X356558Y85769D01*
X356504Y85688D01*
X356448Y85610D01*
X356388Y85534D01*
X356326Y85460D01*
X356260Y85389D01*
X356192Y85321D01*
X356121Y85255D01*
X356047Y85193D01*
X355971Y85133D01*
X355893Y85077D01*
X355812Y85023D01*
X355730Y84973D01*
X355645Y84927D01*
X355558Y84884D01*
X355470Y84844D01*
X355381Y84808D01*
X355290Y84775D01*
X355197Y84747D01*
X355104Y84722D01*
X355010Y84700D01*
X354915Y84683D01*
X354819Y84669D01*
X354723Y84660D01*
X354627Y84654D01*
X354530Y84652D01*
X354433Y84654D01*
X354337Y84660D01*
X354241Y84669D01*
X354145Y84683D01*
X354050Y84700D01*
X353956Y84722D01*
X353863Y84747D01*
X353770Y84775D01*
X353679Y84808D01*
X353590Y84844D01*
X353502Y84884D01*
X353415Y84927D01*
X353331Y84973D01*
X353248Y85023D01*
X353167Y85077D01*
X353089Y85133D01*
X353013Y85193D01*
X352939Y85255D01*
X352868Y85321D01*
X352800Y85389D01*
X352734Y85460D01*
X352672Y85534D01*
X352612Y85610D01*
X352556Y85688D01*
X352502Y85769D01*
X352452Y85852D01*
X352406Y85936D01*
X352363Y86023D01*
X352323Y86111D01*
X352287Y86200D01*
X352254Y86291D01*
X352226Y86384D01*
X352201Y86477D01*
X352179Y86571D01*
X352162Y86666D01*
X352148Y86762D01*
X352139Y86858D01*
X352133Y86954D01*
X352131Y87051D01*
X352131Y89450D01*
X352133Y89573D01*
X352139Y89696D01*
X352149Y89819D01*
X352163Y89941D01*
X352180Y90063D01*
X352202Y90184D01*
X352227Y90304D01*
X352257Y90424D01*
X352290Y90542D01*
X352327Y90659D01*
X352367Y90776D01*
X352411Y90890D01*
X352459Y91004D01*
X352511Y91115D01*
X352566Y91225D01*
X352625Y91333D01*
X352687Y91440D01*
X352752Y91544D01*
X352821Y91646D01*
X352893Y91746D01*
X352968Y91843D01*
X353047Y91938D01*
X353128Y92030D01*
X353212Y92120D01*
X353299Y92207D01*
X353389Y92291D01*
X353481Y92372D01*
X353576Y92451D01*
X353673Y92526D01*
X353773Y92598D01*
X353875Y92667D01*
X353979Y92732D01*
X354086Y92794D01*
X354194Y92853D01*
X354304Y92908D01*
X354415Y92960D01*
X354529Y93007D01*
X354643Y93052D01*
X354760Y93092D01*
X354877Y93129D01*
X354995Y93162D01*
X355115Y93192D01*
X355235Y93217D01*
X355356Y93239D01*
X355478Y93256D01*
X355600Y93270D01*
X355723Y93280D01*
X355846Y93286D01*
X355969Y93288D01*
X318071Y70348D02*
X318071Y61712D01*
X318071Y70348D02*
X320470Y70348D01*
X320567Y70346D01*
X320663Y70340D01*
X320759Y70331D01*
X320855Y70317D01*
X320950Y70300D01*
X321044Y70278D01*
X321137Y70253D01*
X321230Y70225D01*
X321321Y70192D01*
X321410Y70156D01*
X321498Y70116D01*
X321585Y70073D01*
X321670Y70027D01*
X321752Y69977D01*
X321833Y69923D01*
X321911Y69867D01*
X321987Y69807D01*
X322061Y69745D01*
X322132Y69679D01*
X322200Y69611D01*
X322266Y69540D01*
X322328Y69466D01*
X322388Y69390D01*
X322444Y69312D01*
X322498Y69231D01*
X322548Y69148D01*
X322594Y69064D01*
X322637Y68977D01*
X322677Y68889D01*
X322713Y68800D01*
X322746Y68709D01*
X322774Y68616D01*
X322799Y68523D01*
X322821Y68429D01*
X322838Y68334D01*
X322852Y68238D01*
X322861Y68142D01*
X322867Y68046D01*
X322869Y67949D01*
X322867Y67852D01*
X322861Y67756D01*
X322852Y67660D01*
X322838Y67564D01*
X322821Y67469D01*
X322799Y67375D01*
X322774Y67282D01*
X322746Y67189D01*
X322713Y67098D01*
X322677Y67009D01*
X322637Y66921D01*
X322594Y66834D01*
X322548Y66749D01*
X322498Y66667D01*
X322444Y66586D01*
X322388Y66508D01*
X322328Y66432D01*
X322266Y66358D01*
X322200Y66287D01*
X322132Y66219D01*
X322061Y66153D01*
X321987Y66091D01*
X321911Y66031D01*
X321833Y65975D01*
X321752Y65921D01*
X321670Y65871D01*
X321585Y65825D01*
X321498Y65782D01*
X321410Y65742D01*
X321321Y65706D01*
X321230Y65673D01*
X321137Y65645D01*
X321044Y65620D01*
X320950Y65598D01*
X320855Y65581D01*
X320759Y65567D01*
X320663Y65558D01*
X320567Y65552D01*
X320470Y65550D01*
X318071Y65550D01*
X320950Y65550D02*
X322869Y61712D01*
X327131Y69388D02*
X327131Y70348D01*
X331929Y70348D01*
X329530Y61712D01*
X178071Y61712D02*
X178071Y70348D01*
X180470Y70348D01*
X180567Y70346D01*
X180663Y70340D01*
X180759Y70331D01*
X180855Y70317D01*
X180950Y70300D01*
X181044Y70278D01*
X181137Y70253D01*
X181230Y70225D01*
X181321Y70192D01*
X181410Y70156D01*
X181498Y70116D01*
X181585Y70073D01*
X181670Y70027D01*
X181752Y69977D01*
X181833Y69923D01*
X181911Y69867D01*
X181987Y69807D01*
X182061Y69745D01*
X182132Y69679D01*
X182200Y69611D01*
X182266Y69540D01*
X182328Y69466D01*
X182388Y69390D01*
X182444Y69312D01*
X182498Y69231D01*
X182548Y69148D01*
X182594Y69064D01*
X182637Y68977D01*
X182677Y68889D01*
X182713Y68800D01*
X182746Y68709D01*
X182774Y68616D01*
X182799Y68523D01*
X182821Y68429D01*
X182838Y68334D01*
X182852Y68238D01*
X182861Y68142D01*
X182867Y68046D01*
X182869Y67949D01*
X182867Y67852D01*
X182861Y67756D01*
X182852Y67660D01*
X182838Y67564D01*
X182821Y67469D01*
X182799Y67375D01*
X182774Y67282D01*
X182746Y67189D01*
X182713Y67098D01*
X182677Y67009D01*
X182637Y66921D01*
X182594Y66834D01*
X182548Y66749D01*
X182498Y66667D01*
X182444Y66586D01*
X182388Y66508D01*
X182328Y66432D01*
X182266Y66358D01*
X182200Y66287D01*
X182132Y66219D01*
X182061Y66153D01*
X181987Y66091D01*
X181911Y66031D01*
X181833Y65975D01*
X181752Y65921D01*
X181670Y65871D01*
X181585Y65825D01*
X181498Y65782D01*
X181410Y65742D01*
X181321Y65706D01*
X181230Y65673D01*
X181137Y65645D01*
X181044Y65620D01*
X180950Y65598D01*
X180855Y65581D01*
X180759Y65567D01*
X180663Y65558D01*
X180567Y65552D01*
X180470Y65550D01*
X178071Y65550D01*
X180950Y65550D02*
X182869Y61712D01*
X187131Y64111D02*
X187133Y64208D01*
X187139Y64304D01*
X187148Y64400D01*
X187162Y64496D01*
X187179Y64591D01*
X187201Y64685D01*
X187226Y64778D01*
X187254Y64871D01*
X187287Y64962D01*
X187323Y65051D01*
X187363Y65139D01*
X187406Y65226D01*
X187452Y65311D01*
X187502Y65393D01*
X187556Y65474D01*
X187612Y65552D01*
X187672Y65628D01*
X187734Y65702D01*
X187800Y65773D01*
X187868Y65841D01*
X187939Y65907D01*
X188013Y65969D01*
X188089Y66029D01*
X188167Y66085D01*
X188248Y66139D01*
X188331Y66189D01*
X188415Y66235D01*
X188502Y66278D01*
X188590Y66318D01*
X188679Y66354D01*
X188770Y66387D01*
X188863Y66415D01*
X188956Y66440D01*
X189050Y66462D01*
X189145Y66479D01*
X189241Y66493D01*
X189337Y66502D01*
X189433Y66508D01*
X189530Y66510D01*
X189627Y66508D01*
X189723Y66502D01*
X189819Y66493D01*
X189915Y66479D01*
X190010Y66462D01*
X190104Y66440D01*
X190197Y66415D01*
X190290Y66387D01*
X190381Y66354D01*
X190470Y66318D01*
X190558Y66278D01*
X190645Y66235D01*
X190730Y66189D01*
X190812Y66139D01*
X190893Y66085D01*
X190971Y66029D01*
X191047Y65969D01*
X191121Y65907D01*
X191192Y65841D01*
X191260Y65773D01*
X191326Y65702D01*
X191388Y65628D01*
X191448Y65552D01*
X191504Y65474D01*
X191558Y65393D01*
X191608Y65311D01*
X191654Y65226D01*
X191697Y65139D01*
X191737Y65051D01*
X191773Y64962D01*
X191806Y64871D01*
X191834Y64778D01*
X191859Y64685D01*
X191881Y64591D01*
X191898Y64496D01*
X191912Y64400D01*
X191921Y64304D01*
X191927Y64208D01*
X191929Y64111D01*
X191927Y64014D01*
X191921Y63918D01*
X191912Y63822D01*
X191898Y63726D01*
X191881Y63631D01*
X191859Y63537D01*
X191834Y63444D01*
X191806Y63351D01*
X191773Y63260D01*
X191737Y63171D01*
X191697Y63083D01*
X191654Y62996D01*
X191608Y62911D01*
X191558Y62829D01*
X191504Y62748D01*
X191448Y62670D01*
X191388Y62594D01*
X191326Y62520D01*
X191260Y62449D01*
X191192Y62381D01*
X191121Y62315D01*
X191047Y62253D01*
X190971Y62193D01*
X190893Y62137D01*
X190812Y62083D01*
X190729Y62033D01*
X190645Y61987D01*
X190558Y61944D01*
X190470Y61904D01*
X190381Y61868D01*
X190290Y61835D01*
X190197Y61807D01*
X190104Y61782D01*
X190010Y61760D01*
X189915Y61743D01*
X189819Y61729D01*
X189723Y61720D01*
X189627Y61714D01*
X189530Y61712D01*
X189433Y61714D01*
X189337Y61720D01*
X189241Y61729D01*
X189145Y61743D01*
X189050Y61760D01*
X188956Y61782D01*
X188863Y61807D01*
X188770Y61835D01*
X188679Y61868D01*
X188590Y61904D01*
X188502Y61944D01*
X188415Y61987D01*
X188331Y62033D01*
X188248Y62083D01*
X188167Y62137D01*
X188089Y62193D01*
X188013Y62253D01*
X187939Y62315D01*
X187868Y62381D01*
X187800Y62449D01*
X187734Y62520D01*
X187672Y62594D01*
X187612Y62670D01*
X187556Y62748D01*
X187502Y62829D01*
X187452Y62912D01*
X187406Y62996D01*
X187363Y63083D01*
X187323Y63171D01*
X187287Y63260D01*
X187254Y63351D01*
X187226Y63444D01*
X187201Y63537D01*
X187179Y63631D01*
X187162Y63726D01*
X187148Y63822D01*
X187139Y63918D01*
X187133Y64014D01*
X187131Y64111D01*
X187611Y68429D02*
X187613Y68515D01*
X187619Y68601D01*
X187628Y68687D01*
X187642Y68772D01*
X187659Y68856D01*
X187680Y68940D01*
X187705Y69022D01*
X187733Y69103D01*
X187765Y69183D01*
X187801Y69262D01*
X187840Y69338D01*
X187883Y69413D01*
X187928Y69486D01*
X187977Y69557D01*
X188030Y69625D01*
X188085Y69692D01*
X188143Y69755D01*
X188204Y69816D01*
X188267Y69874D01*
X188334Y69929D01*
X188402Y69982D01*
X188473Y70031D01*
X188546Y70076D01*
X188621Y70119D01*
X188697Y70158D01*
X188776Y70194D01*
X188856Y70226D01*
X188937Y70254D01*
X189019Y70279D01*
X189103Y70300D01*
X189187Y70317D01*
X189272Y70331D01*
X189358Y70340D01*
X189444Y70346D01*
X189530Y70348D01*
X189616Y70346D01*
X189702Y70340D01*
X189788Y70331D01*
X189873Y70317D01*
X189957Y70300D01*
X190041Y70279D01*
X190123Y70254D01*
X190204Y70226D01*
X190284Y70194D01*
X190363Y70158D01*
X190439Y70119D01*
X190514Y70076D01*
X190587Y70031D01*
X190658Y69982D01*
X190726Y69929D01*
X190793Y69874D01*
X190856Y69816D01*
X190917Y69755D01*
X190975Y69692D01*
X191030Y69625D01*
X191083Y69557D01*
X191132Y69486D01*
X191177Y69413D01*
X191220Y69338D01*
X191259Y69262D01*
X191295Y69183D01*
X191327Y69103D01*
X191355Y69022D01*
X191380Y68940D01*
X191401Y68856D01*
X191418Y68772D01*
X191432Y68687D01*
X191441Y68601D01*
X191447Y68515D01*
X191449Y68429D01*
X191447Y68343D01*
X191441Y68257D01*
X191432Y68171D01*
X191418Y68086D01*
X191401Y68002D01*
X191380Y67918D01*
X191355Y67836D01*
X191327Y67755D01*
X191295Y67675D01*
X191259Y67596D01*
X191220Y67520D01*
X191177Y67445D01*
X191132Y67372D01*
X191083Y67301D01*
X191030Y67233D01*
X190975Y67166D01*
X190917Y67103D01*
X190856Y67042D01*
X190793Y66984D01*
X190726Y66929D01*
X190658Y66876D01*
X190587Y66827D01*
X190514Y66782D01*
X190439Y66739D01*
X190363Y66700D01*
X190284Y66664D01*
X190204Y66632D01*
X190123Y66604D01*
X190041Y66579D01*
X189957Y66558D01*
X189873Y66541D01*
X189788Y66527D01*
X189702Y66518D01*
X189616Y66512D01*
X189530Y66510D01*
X189444Y66512D01*
X189358Y66518D01*
X189272Y66527D01*
X189187Y66541D01*
X189103Y66558D01*
X189019Y66579D01*
X188937Y66604D01*
X188856Y66632D01*
X188776Y66664D01*
X188697Y66700D01*
X188621Y66739D01*
X188546Y66782D01*
X188473Y66827D01*
X188402Y66876D01*
X188334Y66929D01*
X188267Y66984D01*
X188204Y67042D01*
X188143Y67103D01*
X188085Y67166D01*
X188030Y67233D01*
X187977Y67301D01*
X187928Y67372D01*
X187883Y67445D01*
X187840Y67520D01*
X187801Y67596D01*
X187765Y67675D01*
X187733Y67755D01*
X187705Y67836D01*
X187680Y67918D01*
X187659Y68002D01*
X187642Y68086D01*
X187628Y68171D01*
X187619Y68257D01*
X187613Y68343D01*
X187611Y68429D01*
X38071Y65348D02*
X38071Y56712D01*
X38071Y65348D02*
X40470Y65348D01*
X40567Y65346D01*
X40663Y65340D01*
X40759Y65331D01*
X40855Y65317D01*
X40950Y65300D01*
X41044Y65278D01*
X41137Y65253D01*
X41230Y65225D01*
X41321Y65192D01*
X41410Y65156D01*
X41498Y65116D01*
X41585Y65073D01*
X41670Y65027D01*
X41752Y64977D01*
X41833Y64923D01*
X41911Y64867D01*
X41987Y64807D01*
X42061Y64745D01*
X42132Y64679D01*
X42200Y64611D01*
X42266Y64540D01*
X42328Y64466D01*
X42388Y64390D01*
X42444Y64312D01*
X42498Y64231D01*
X42548Y64148D01*
X42594Y64064D01*
X42637Y63977D01*
X42677Y63889D01*
X42713Y63800D01*
X42746Y63709D01*
X42774Y63616D01*
X42799Y63523D01*
X42821Y63429D01*
X42838Y63334D01*
X42852Y63238D01*
X42861Y63142D01*
X42867Y63046D01*
X42869Y62949D01*
X42867Y62852D01*
X42861Y62756D01*
X42852Y62660D01*
X42838Y62564D01*
X42821Y62469D01*
X42799Y62375D01*
X42774Y62282D01*
X42746Y62189D01*
X42713Y62098D01*
X42677Y62009D01*
X42637Y61921D01*
X42594Y61834D01*
X42548Y61749D01*
X42498Y61667D01*
X42444Y61586D01*
X42388Y61508D01*
X42328Y61432D01*
X42266Y61358D01*
X42200Y61287D01*
X42132Y61219D01*
X42061Y61153D01*
X41987Y61091D01*
X41911Y61031D01*
X41833Y60975D01*
X41752Y60921D01*
X41669Y60871D01*
X41585Y60825D01*
X41498Y60782D01*
X41410Y60742D01*
X41321Y60706D01*
X41230Y60673D01*
X41137Y60645D01*
X41044Y60620D01*
X40950Y60598D01*
X40855Y60581D01*
X40759Y60567D01*
X40663Y60558D01*
X40567Y60552D01*
X40470Y60550D01*
X38071Y60550D01*
X40950Y60550D02*
X42869Y56712D01*
X49050Y60550D02*
X51929Y60550D01*
X49050Y60550D02*
X48964Y60552D01*
X48878Y60558D01*
X48792Y60567D01*
X48707Y60581D01*
X48623Y60598D01*
X48539Y60619D01*
X48457Y60644D01*
X48376Y60672D01*
X48296Y60704D01*
X48217Y60740D01*
X48141Y60779D01*
X48066Y60822D01*
X47993Y60867D01*
X47922Y60916D01*
X47854Y60969D01*
X47787Y61024D01*
X47724Y61082D01*
X47663Y61143D01*
X47605Y61206D01*
X47550Y61273D01*
X47497Y61341D01*
X47448Y61412D01*
X47403Y61485D01*
X47360Y61560D01*
X47321Y61636D01*
X47285Y61715D01*
X47253Y61795D01*
X47225Y61876D01*
X47200Y61958D01*
X47179Y62042D01*
X47162Y62126D01*
X47148Y62211D01*
X47139Y62297D01*
X47133Y62383D01*
X47131Y62469D01*
X47131Y62949D01*
X47133Y63046D01*
X47139Y63142D01*
X47148Y63238D01*
X47162Y63334D01*
X47179Y63429D01*
X47201Y63523D01*
X47226Y63616D01*
X47254Y63709D01*
X47287Y63800D01*
X47323Y63889D01*
X47363Y63977D01*
X47406Y64064D01*
X47452Y64149D01*
X47502Y64231D01*
X47556Y64312D01*
X47612Y64390D01*
X47672Y64466D01*
X47734Y64540D01*
X47800Y64611D01*
X47868Y64679D01*
X47939Y64745D01*
X48013Y64807D01*
X48089Y64867D01*
X48167Y64923D01*
X48248Y64977D01*
X48331Y65027D01*
X48415Y65073D01*
X48502Y65116D01*
X48590Y65156D01*
X48679Y65192D01*
X48770Y65225D01*
X48863Y65253D01*
X48956Y65278D01*
X49050Y65300D01*
X49145Y65317D01*
X49241Y65331D01*
X49337Y65340D01*
X49433Y65346D01*
X49530Y65348D01*
X49627Y65346D01*
X49723Y65340D01*
X49819Y65331D01*
X49915Y65317D01*
X50010Y65300D01*
X50104Y65278D01*
X50197Y65253D01*
X50290Y65225D01*
X50381Y65192D01*
X50470Y65156D01*
X50558Y65116D01*
X50645Y65073D01*
X50730Y65027D01*
X50812Y64977D01*
X50893Y64923D01*
X50971Y64867D01*
X51047Y64807D01*
X51121Y64745D01*
X51192Y64679D01*
X51260Y64611D01*
X51326Y64540D01*
X51388Y64466D01*
X51448Y64390D01*
X51504Y64312D01*
X51558Y64231D01*
X51608Y64149D01*
X51654Y64064D01*
X51697Y63977D01*
X51737Y63889D01*
X51773Y63800D01*
X51806Y63709D01*
X51834Y63616D01*
X51859Y63523D01*
X51881Y63429D01*
X51898Y63334D01*
X51912Y63238D01*
X51921Y63142D01*
X51927Y63046D01*
X51929Y62949D01*
X51929Y60550D01*
X51928Y60550D02*
X51926Y60427D01*
X51920Y60304D01*
X51910Y60181D01*
X51896Y60059D01*
X51879Y59937D01*
X51857Y59816D01*
X51832Y59696D01*
X51802Y59576D01*
X51769Y59458D01*
X51732Y59341D01*
X51692Y59224D01*
X51648Y59110D01*
X51600Y58996D01*
X51548Y58885D01*
X51493Y58775D01*
X51434Y58667D01*
X51372Y58560D01*
X51307Y58456D01*
X51238Y58354D01*
X51166Y58254D01*
X51091Y58157D01*
X51012Y58062D01*
X50931Y57970D01*
X50847Y57880D01*
X50760Y57793D01*
X50670Y57709D01*
X50578Y57628D01*
X50483Y57549D01*
X50386Y57474D01*
X50286Y57402D01*
X50184Y57333D01*
X50080Y57268D01*
X49973Y57206D01*
X49865Y57147D01*
X49755Y57092D01*
X49644Y57040D01*
X49530Y56993D01*
X49416Y56948D01*
X49299Y56908D01*
X49182Y56871D01*
X49064Y56838D01*
X48944Y56808D01*
X48824Y56783D01*
X48703Y56761D01*
X48581Y56744D01*
X48459Y56730D01*
X48336Y56720D01*
X48213Y56714D01*
X48090Y56712D01*
D11*
X80230Y195730D02*
X80230Y204270D01*
X149770Y204270D02*
X149770Y195730D01*
X142000Y214270D02*
X88000Y214270D01*
X113730Y185730D02*
X131270Y185730D01*
D10*
X60599Y198551D02*
X60597Y198465D01*
X60591Y198379D01*
X60582Y198293D01*
X60568Y198208D01*
X60551Y198124D01*
X60530Y198040D01*
X60505Y197958D01*
X60477Y197877D01*
X60445Y197797D01*
X60409Y197718D01*
X60370Y197642D01*
X60327Y197567D01*
X60282Y197494D01*
X60233Y197423D01*
X60180Y197355D01*
X60125Y197288D01*
X60067Y197225D01*
X60006Y197164D01*
X59943Y197106D01*
X59876Y197051D01*
X59808Y196999D01*
X59737Y196949D01*
X59664Y196904D01*
X59589Y196861D01*
X59513Y196822D01*
X59434Y196786D01*
X59354Y196754D01*
X59273Y196726D01*
X59191Y196701D01*
X59107Y196680D01*
X59023Y196663D01*
X58938Y196649D01*
X58852Y196640D01*
X58766Y196634D01*
X58680Y196632D01*
X58557Y196634D01*
X58434Y196639D01*
X58311Y196649D01*
X58189Y196662D01*
X58067Y196679D01*
X57945Y196699D01*
X57825Y196723D01*
X57705Y196751D01*
X57586Y196782D01*
X57468Y196817D01*
X57351Y196856D01*
X57235Y196898D01*
X57121Y196944D01*
X57008Y196993D01*
X56897Y197045D01*
X56787Y197101D01*
X56679Y197160D01*
X56573Y197223D01*
X56468Y197288D01*
X56366Y197357D01*
X56266Y197429D01*
X56169Y197504D01*
X56073Y197581D01*
X55980Y197662D01*
X55889Y197745D01*
X55801Y197831D01*
X56042Y203349D02*
X56044Y203435D01*
X56050Y203521D01*
X56059Y203607D01*
X56073Y203692D01*
X56090Y203776D01*
X56111Y203860D01*
X56136Y203942D01*
X56164Y204023D01*
X56196Y204103D01*
X56232Y204182D01*
X56271Y204258D01*
X56314Y204333D01*
X56359Y204406D01*
X56408Y204477D01*
X56461Y204545D01*
X56516Y204612D01*
X56574Y204675D01*
X56635Y204736D01*
X56698Y204794D01*
X56765Y204849D01*
X56833Y204902D01*
X56904Y204951D01*
X56977Y204996D01*
X57052Y205039D01*
X57128Y205078D01*
X57207Y205114D01*
X57287Y205146D01*
X57368Y205174D01*
X57450Y205199D01*
X57534Y205220D01*
X57618Y205237D01*
X57703Y205251D01*
X57789Y205260D01*
X57875Y205266D01*
X57961Y205268D01*
X58077Y205266D01*
X58192Y205261D01*
X58308Y205251D01*
X58423Y205238D01*
X58537Y205222D01*
X58651Y205201D01*
X58765Y205177D01*
X58877Y205149D01*
X58988Y205118D01*
X59099Y205083D01*
X59208Y205045D01*
X59316Y205003D01*
X59422Y204958D01*
X59528Y204909D01*
X59631Y204857D01*
X59733Y204802D01*
X59832Y204743D01*
X59930Y204681D01*
X60026Y204616D01*
X60120Y204548D01*
X57001Y201670D02*
X56927Y201716D01*
X56854Y201766D01*
X56784Y201819D01*
X56716Y201875D01*
X56651Y201934D01*
X56588Y201996D01*
X56529Y202061D01*
X56472Y202128D01*
X56418Y202198D01*
X56368Y202270D01*
X56321Y202344D01*
X56277Y202420D01*
X56237Y202499D01*
X56201Y202579D01*
X56168Y202660D01*
X56139Y202743D01*
X56113Y202828D01*
X56091Y202913D01*
X56074Y202999D01*
X56060Y203086D01*
X56050Y203173D01*
X56044Y203261D01*
X56042Y203349D01*
X59640Y200230D02*
X59714Y200184D01*
X59787Y200134D01*
X59857Y200081D01*
X59925Y200025D01*
X59990Y199966D01*
X60053Y199904D01*
X60112Y199839D01*
X60169Y199772D01*
X60223Y199702D01*
X60273Y199630D01*
X60320Y199556D01*
X60364Y199480D01*
X60404Y199401D01*
X60440Y199321D01*
X60473Y199240D01*
X60502Y199157D01*
X60528Y199072D01*
X60550Y198987D01*
X60567Y198901D01*
X60581Y198814D01*
X60591Y198727D01*
X60597Y198639D01*
X60599Y198551D01*
X59640Y200230D02*
X57001Y201670D01*
X64641Y203349D02*
X67040Y205268D01*
X67040Y196632D01*
X69438Y196632D02*
X64641Y196632D01*
D11*
X220230Y195730D02*
X220230Y204270D01*
X289770Y204270D02*
X289770Y195730D01*
X282000Y214270D02*
X228000Y214270D01*
X253730Y185730D02*
X271270Y185730D01*
D10*
X200599Y198551D02*
X200597Y198465D01*
X200591Y198379D01*
X200582Y198293D01*
X200568Y198208D01*
X200551Y198124D01*
X200530Y198040D01*
X200505Y197958D01*
X200477Y197877D01*
X200445Y197797D01*
X200409Y197718D01*
X200370Y197642D01*
X200327Y197567D01*
X200282Y197494D01*
X200233Y197423D01*
X200180Y197355D01*
X200125Y197288D01*
X200067Y197225D01*
X200006Y197164D01*
X199943Y197106D01*
X199876Y197051D01*
X199808Y196999D01*
X199737Y196949D01*
X199664Y196904D01*
X199589Y196861D01*
X199513Y196822D01*
X199434Y196786D01*
X199354Y196754D01*
X199273Y196726D01*
X199191Y196701D01*
X199107Y196680D01*
X199023Y196663D01*
X198938Y196649D01*
X198852Y196640D01*
X198766Y196634D01*
X198680Y196632D01*
X198557Y196634D01*
X198434Y196639D01*
X198311Y196649D01*
X198189Y196662D01*
X198067Y196679D01*
X197945Y196699D01*
X197825Y196723D01*
X197705Y196751D01*
X197586Y196782D01*
X197468Y196817D01*
X197351Y196856D01*
X197235Y196898D01*
X197121Y196944D01*
X197008Y196993D01*
X196897Y197045D01*
X196787Y197101D01*
X196679Y197160D01*
X196573Y197223D01*
X196468Y197288D01*
X196366Y197357D01*
X196266Y197429D01*
X196169Y197504D01*
X196073Y197581D01*
X195980Y197662D01*
X195889Y197745D01*
X195801Y197831D01*
X196042Y203349D02*
X196044Y203435D01*
X196050Y203521D01*
X196059Y203607D01*
X196073Y203692D01*
X196090Y203776D01*
X196111Y203860D01*
X196136Y203942D01*
X196164Y204023D01*
X196196Y204103D01*
X196232Y204182D01*
X196271Y204258D01*
X196314Y204333D01*
X196359Y204406D01*
X196408Y204477D01*
X196461Y204545D01*
X196516Y204612D01*
X196574Y204675D01*
X196635Y204736D01*
X196698Y204794D01*
X196765Y204849D01*
X196833Y204902D01*
X196904Y204951D01*
X196977Y204996D01*
X197052Y205039D01*
X197128Y205078D01*
X197207Y205114D01*
X197287Y205146D01*
X197368Y205174D01*
X197450Y205199D01*
X197534Y205220D01*
X197618Y205237D01*
X197703Y205251D01*
X197789Y205260D01*
X197875Y205266D01*
X197961Y205268D01*
X198077Y205266D01*
X198192Y205261D01*
X198308Y205251D01*
X198423Y205238D01*
X198537Y205222D01*
X198651Y205201D01*
X198765Y205177D01*
X198877Y205149D01*
X198988Y205118D01*
X199099Y205083D01*
X199208Y205045D01*
X199316Y205003D01*
X199422Y204958D01*
X199528Y204909D01*
X199631Y204857D01*
X199733Y204802D01*
X199832Y204743D01*
X199930Y204681D01*
X200026Y204616D01*
X200120Y204548D01*
X197001Y201670D02*
X196927Y201716D01*
X196854Y201766D01*
X196784Y201819D01*
X196716Y201875D01*
X196651Y201934D01*
X196588Y201996D01*
X196529Y202061D01*
X196472Y202128D01*
X196418Y202198D01*
X196368Y202270D01*
X196321Y202344D01*
X196277Y202420D01*
X196237Y202499D01*
X196201Y202579D01*
X196168Y202660D01*
X196139Y202743D01*
X196113Y202828D01*
X196091Y202913D01*
X196074Y202999D01*
X196060Y203086D01*
X196050Y203173D01*
X196044Y203261D01*
X196042Y203349D01*
X199640Y200230D02*
X199714Y200184D01*
X199787Y200134D01*
X199857Y200081D01*
X199925Y200025D01*
X199990Y199966D01*
X200053Y199904D01*
X200112Y199839D01*
X200169Y199772D01*
X200223Y199702D01*
X200273Y199630D01*
X200320Y199556D01*
X200364Y199480D01*
X200404Y199401D01*
X200440Y199321D01*
X200473Y199240D01*
X200502Y199157D01*
X200528Y199072D01*
X200550Y198987D01*
X200567Y198901D01*
X200581Y198814D01*
X200591Y198727D01*
X200597Y198639D01*
X200599Y198551D01*
X199640Y200230D02*
X197001Y201670D01*
X207279Y205268D02*
X207371Y205266D01*
X207462Y205260D01*
X207553Y205251D01*
X207644Y205237D01*
X207734Y205220D01*
X207823Y205198D01*
X207911Y205173D01*
X207998Y205145D01*
X208084Y205112D01*
X208168Y205076D01*
X208251Y205037D01*
X208332Y204994D01*
X208411Y204947D01*
X208488Y204898D01*
X208563Y204845D01*
X208635Y204789D01*
X208705Y204730D01*
X208773Y204668D01*
X208838Y204603D01*
X208900Y204535D01*
X208959Y204465D01*
X209015Y204393D01*
X209068Y204318D01*
X209117Y204241D01*
X209164Y204162D01*
X209207Y204081D01*
X209246Y203998D01*
X209282Y203914D01*
X209315Y203828D01*
X209343Y203741D01*
X209368Y203653D01*
X209390Y203564D01*
X209407Y203474D01*
X209421Y203383D01*
X209430Y203292D01*
X209436Y203201D01*
X209438Y203109D01*
X207279Y205268D02*
X207176Y205266D01*
X207074Y205260D01*
X206972Y205251D01*
X206870Y205238D01*
X206769Y205221D01*
X206668Y205200D01*
X206569Y205176D01*
X206470Y205147D01*
X206373Y205116D01*
X206276Y205080D01*
X206181Y205042D01*
X206088Y204999D01*
X205996Y204953D01*
X205906Y204904D01*
X205818Y204852D01*
X205731Y204796D01*
X205647Y204737D01*
X205566Y204676D01*
X205486Y204611D01*
X205409Y204543D01*
X205334Y204472D01*
X205263Y204399D01*
X205194Y204323D01*
X205127Y204245D01*
X205064Y204164D01*
X205004Y204081D01*
X204947Y203996D01*
X204893Y203909D01*
X204842Y203819D01*
X204795Y203728D01*
X204751Y203636D01*
X204710Y203541D01*
X204673Y203446D01*
X204640Y203349D01*
X208718Y201430D02*
X208785Y201496D01*
X208849Y201565D01*
X208910Y201636D01*
X208968Y201710D01*
X209023Y201786D01*
X209075Y201864D01*
X209124Y201944D01*
X209170Y202026D01*
X209212Y202110D01*
X209251Y202196D01*
X209286Y202283D01*
X209317Y202371D01*
X209345Y202461D01*
X209370Y202551D01*
X209391Y202643D01*
X209408Y202735D01*
X209421Y202828D01*
X209430Y202921D01*
X209436Y203015D01*
X209438Y203109D01*
X208719Y201430D02*
X204641Y196632D01*
X209438Y196632D01*
D11*
X360230Y195730D02*
X360230Y204270D01*
X429770Y204270D02*
X429770Y195730D01*
X422000Y214270D02*
X368000Y214270D01*
X393730Y185730D02*
X411270Y185730D01*
D10*
X340599Y198551D02*
X340597Y198465D01*
X340591Y198379D01*
X340582Y198293D01*
X340568Y198208D01*
X340551Y198124D01*
X340530Y198040D01*
X340505Y197958D01*
X340477Y197877D01*
X340445Y197797D01*
X340409Y197718D01*
X340370Y197642D01*
X340327Y197567D01*
X340282Y197494D01*
X340233Y197423D01*
X340180Y197355D01*
X340125Y197288D01*
X340067Y197225D01*
X340006Y197164D01*
X339943Y197106D01*
X339876Y197051D01*
X339808Y196999D01*
X339737Y196949D01*
X339664Y196904D01*
X339589Y196861D01*
X339513Y196822D01*
X339434Y196786D01*
X339354Y196754D01*
X339273Y196726D01*
X339191Y196701D01*
X339107Y196680D01*
X339023Y196663D01*
X338938Y196649D01*
X338852Y196640D01*
X338766Y196634D01*
X338680Y196632D01*
X338557Y196634D01*
X338434Y196639D01*
X338311Y196649D01*
X338189Y196662D01*
X338067Y196679D01*
X337945Y196699D01*
X337825Y196723D01*
X337705Y196751D01*
X337586Y196782D01*
X337468Y196817D01*
X337351Y196856D01*
X337235Y196898D01*
X337121Y196944D01*
X337008Y196993D01*
X336897Y197045D01*
X336787Y197101D01*
X336679Y197160D01*
X336573Y197223D01*
X336468Y197288D01*
X336366Y197357D01*
X336266Y197429D01*
X336169Y197504D01*
X336073Y197581D01*
X335980Y197662D01*
X335889Y197745D01*
X335801Y197831D01*
X336042Y203349D02*
X336044Y203435D01*
X336050Y203521D01*
X336059Y203607D01*
X336073Y203692D01*
X336090Y203776D01*
X336111Y203860D01*
X336136Y203942D01*
X336164Y204023D01*
X336196Y204103D01*
X336232Y204182D01*
X336271Y204258D01*
X336314Y204333D01*
X336359Y204406D01*
X336408Y204477D01*
X336461Y204545D01*
X336516Y204612D01*
X336574Y204675D01*
X336635Y204736D01*
X336698Y204794D01*
X336765Y204849D01*
X336833Y204902D01*
X336904Y204951D01*
X336977Y204996D01*
X337052Y205039D01*
X337128Y205078D01*
X337207Y205114D01*
X337287Y205146D01*
X337368Y205174D01*
X337450Y205199D01*
X337534Y205220D01*
X337618Y205237D01*
X337703Y205251D01*
X337789Y205260D01*
X337875Y205266D01*
X337961Y205268D01*
X338077Y205266D01*
X338192Y205261D01*
X338308Y205251D01*
X338423Y205238D01*
X338537Y205222D01*
X338651Y205201D01*
X338765Y205177D01*
X338877Y205149D01*
X338988Y205118D01*
X339099Y205083D01*
X339208Y205045D01*
X339316Y205003D01*
X339422Y204958D01*
X339528Y204909D01*
X339631Y204857D01*
X339733Y204802D01*
X339832Y204743D01*
X339930Y204681D01*
X340026Y204616D01*
X340120Y204548D01*
X337001Y201670D02*
X336927Y201716D01*
X336854Y201766D01*
X336784Y201819D01*
X336716Y201875D01*
X336651Y201934D01*
X336588Y201996D01*
X336529Y202061D01*
X336472Y202128D01*
X336418Y202198D01*
X336368Y202270D01*
X336321Y202344D01*
X336277Y202420D01*
X336237Y202499D01*
X336201Y202579D01*
X336168Y202660D01*
X336139Y202743D01*
X336113Y202828D01*
X336091Y202913D01*
X336074Y202999D01*
X336060Y203086D01*
X336050Y203173D01*
X336044Y203261D01*
X336042Y203349D01*
X339640Y200230D02*
X339714Y200184D01*
X339787Y200134D01*
X339857Y200081D01*
X339925Y200025D01*
X339990Y199966D01*
X340053Y199904D01*
X340112Y199839D01*
X340169Y199772D01*
X340223Y199702D01*
X340273Y199630D01*
X340320Y199556D01*
X340364Y199480D01*
X340404Y199401D01*
X340440Y199321D01*
X340473Y199240D01*
X340502Y199157D01*
X340528Y199072D01*
X340550Y198987D01*
X340567Y198901D01*
X340581Y198814D01*
X340591Y198727D01*
X340597Y198639D01*
X340599Y198551D01*
X339640Y200230D02*
X337001Y201670D01*
X344641Y196632D02*
X347040Y196632D01*
X347137Y196634D01*
X347233Y196640D01*
X347329Y196649D01*
X347425Y196663D01*
X347520Y196680D01*
X347614Y196702D01*
X347707Y196727D01*
X347800Y196755D01*
X347891Y196788D01*
X347980Y196824D01*
X348068Y196864D01*
X348155Y196907D01*
X348240Y196953D01*
X348322Y197003D01*
X348403Y197057D01*
X348481Y197113D01*
X348557Y197173D01*
X348631Y197235D01*
X348702Y197301D01*
X348770Y197369D01*
X348836Y197440D01*
X348898Y197514D01*
X348958Y197590D01*
X349014Y197668D01*
X349068Y197749D01*
X349118Y197832D01*
X349164Y197916D01*
X349207Y198003D01*
X349247Y198091D01*
X349283Y198180D01*
X349316Y198271D01*
X349344Y198364D01*
X349369Y198457D01*
X349391Y198551D01*
X349408Y198646D01*
X349422Y198742D01*
X349431Y198838D01*
X349437Y198934D01*
X349439Y199031D01*
X349437Y199128D01*
X349431Y199224D01*
X349422Y199320D01*
X349408Y199416D01*
X349391Y199511D01*
X349369Y199605D01*
X349344Y199698D01*
X349316Y199791D01*
X349283Y199882D01*
X349247Y199971D01*
X349207Y200059D01*
X349164Y200146D01*
X349118Y200230D01*
X349068Y200313D01*
X349014Y200394D01*
X348958Y200472D01*
X348898Y200548D01*
X348836Y200622D01*
X348770Y200693D01*
X348702Y200761D01*
X348631Y200827D01*
X348557Y200889D01*
X348481Y200949D01*
X348403Y201005D01*
X348322Y201059D01*
X348240Y201109D01*
X348155Y201155D01*
X348068Y201198D01*
X347980Y201238D01*
X347891Y201274D01*
X347800Y201307D01*
X347707Y201335D01*
X347614Y201360D01*
X347520Y201382D01*
X347425Y201399D01*
X347329Y201413D01*
X347233Y201422D01*
X347137Y201428D01*
X347040Y201430D01*
X347519Y205268D02*
X344641Y205268D01*
X347519Y205268D02*
X347605Y205266D01*
X347691Y205260D01*
X347777Y205251D01*
X347862Y205237D01*
X347946Y205220D01*
X348030Y205199D01*
X348112Y205174D01*
X348193Y205146D01*
X348273Y205114D01*
X348352Y205078D01*
X348428Y205039D01*
X348503Y204996D01*
X348576Y204951D01*
X348647Y204902D01*
X348715Y204849D01*
X348782Y204794D01*
X348845Y204736D01*
X348906Y204675D01*
X348964Y204612D01*
X349019Y204545D01*
X349072Y204477D01*
X349121Y204406D01*
X349166Y204333D01*
X349209Y204258D01*
X349248Y204182D01*
X349284Y204103D01*
X349316Y204023D01*
X349344Y203942D01*
X349369Y203860D01*
X349390Y203776D01*
X349407Y203692D01*
X349421Y203607D01*
X349430Y203521D01*
X349436Y203435D01*
X349438Y203349D01*
X349436Y203263D01*
X349430Y203177D01*
X349421Y203091D01*
X349407Y203006D01*
X349390Y202922D01*
X349369Y202838D01*
X349344Y202756D01*
X349316Y202675D01*
X349284Y202595D01*
X349248Y202516D01*
X349209Y202440D01*
X349166Y202365D01*
X349121Y202292D01*
X349072Y202221D01*
X349019Y202153D01*
X348964Y202086D01*
X348906Y202023D01*
X348845Y201962D01*
X348782Y201904D01*
X348715Y201849D01*
X348647Y201796D01*
X348576Y201747D01*
X348503Y201702D01*
X348428Y201659D01*
X348352Y201620D01*
X348273Y201584D01*
X348193Y201552D01*
X348112Y201524D01*
X348030Y201499D01*
X347946Y201478D01*
X347862Y201461D01*
X347777Y201447D01*
X347691Y201438D01*
X347605Y201432D01*
X347519Y201430D01*
X345600Y201430D01*
D14*
X445000Y150000D02*
X485000Y150000D01*
X445000Y150000D02*
X445000Y100000D01*
X485000Y100000D01*
X485000Y150000D01*
X447646Y143500D02*
X447648Y143616D01*
X447654Y143731D01*
X447664Y143847D01*
X447678Y143962D01*
X447696Y144076D01*
X447718Y144190D01*
X447743Y144303D01*
X447773Y144415D01*
X447807Y144525D01*
X447844Y144635D01*
X447885Y144743D01*
X447930Y144850D01*
X447978Y144955D01*
X448030Y145059D01*
X448086Y145160D01*
X448145Y145260D01*
X448207Y145357D01*
X448273Y145453D01*
X448342Y145546D01*
X448414Y145636D01*
X448489Y145724D01*
X448568Y145809D01*
X448649Y145892D01*
X448733Y145972D01*
X448820Y146049D01*
X448909Y146122D01*
X449001Y146193D01*
X449095Y146260D01*
X449191Y146324D01*
X449290Y146385D01*
X449390Y146442D01*
X449493Y146496D01*
X449597Y146547D01*
X449703Y146593D01*
X449811Y146636D01*
X449920Y146675D01*
X450030Y146711D01*
X450141Y146742D01*
X450254Y146770D01*
X450367Y146794D01*
X450481Y146814D01*
X450596Y146830D01*
X450711Y146842D01*
X450826Y146850D01*
X450942Y146854D01*
X451058Y146854D01*
X451174Y146850D01*
X451289Y146842D01*
X451404Y146830D01*
X451519Y146814D01*
X451633Y146794D01*
X451746Y146770D01*
X451859Y146742D01*
X451970Y146711D01*
X452080Y146675D01*
X452189Y146636D01*
X452297Y146593D01*
X452403Y146547D01*
X452507Y146496D01*
X452610Y146442D01*
X452710Y146385D01*
X452809Y146324D01*
X452905Y146260D01*
X452999Y146193D01*
X453091Y146122D01*
X453180Y146049D01*
X453267Y145972D01*
X453351Y145892D01*
X453432Y145809D01*
X453511Y145724D01*
X453586Y145636D01*
X453658Y145546D01*
X453727Y145453D01*
X453793Y145357D01*
X453855Y145260D01*
X453914Y145160D01*
X453970Y145059D01*
X454022Y144955D01*
X454070Y144850D01*
X454115Y144743D01*
X454156Y144635D01*
X454193Y144525D01*
X454227Y144415D01*
X454257Y144303D01*
X454282Y144190D01*
X454304Y144076D01*
X454322Y143962D01*
X454336Y143847D01*
X454346Y143731D01*
X454352Y143616D01*
X454354Y143500D01*
X454352Y143384D01*
X454346Y143269D01*
X454336Y143153D01*
X454322Y143038D01*
X454304Y142924D01*
X454282Y142810D01*
X454257Y142697D01*
X454227Y142585D01*
X454193Y142475D01*
X454156Y142365D01*
X454115Y142257D01*
X454070Y142150D01*
X454022Y142045D01*
X453970Y141941D01*
X453914Y141840D01*
X453855Y141740D01*
X453793Y141643D01*
X453727Y141547D01*
X453658Y141454D01*
X453586Y141364D01*
X453511Y141276D01*
X453432Y141191D01*
X453351Y141108D01*
X453267Y141028D01*
X453180Y140951D01*
X453091Y140878D01*
X452999Y140807D01*
X452905Y140740D01*
X452809Y140676D01*
X452710Y140615D01*
X452610Y140558D01*
X452507Y140504D01*
X452403Y140453D01*
X452297Y140407D01*
X452189Y140364D01*
X452080Y140325D01*
X451970Y140289D01*
X451859Y140258D01*
X451746Y140230D01*
X451633Y140206D01*
X451519Y140186D01*
X451404Y140170D01*
X451289Y140158D01*
X451174Y140150D01*
X451058Y140146D01*
X450942Y140146D01*
X450826Y140150D01*
X450711Y140158D01*
X450596Y140170D01*
X450481Y140186D01*
X450367Y140206D01*
X450254Y140230D01*
X450141Y140258D01*
X450030Y140289D01*
X449920Y140325D01*
X449811Y140364D01*
X449703Y140407D01*
X449597Y140453D01*
X449493Y140504D01*
X449390Y140558D01*
X449290Y140615D01*
X449191Y140676D01*
X449095Y140740D01*
X449001Y140807D01*
X448909Y140878D01*
X448820Y140951D01*
X448733Y141028D01*
X448649Y141108D01*
X448568Y141191D01*
X448489Y141276D01*
X448414Y141364D01*
X448342Y141454D01*
X448273Y141547D01*
X448207Y141643D01*
X448145Y141740D01*
X448086Y141840D01*
X448030Y141941D01*
X447978Y142045D01*
X447930Y142150D01*
X447885Y142257D01*
X447844Y142365D01*
X447807Y142475D01*
X447773Y142585D01*
X447743Y142697D01*
X447718Y142810D01*
X447696Y142924D01*
X447678Y143038D01*
X447664Y143153D01*
X447654Y143269D01*
X447648Y143384D01*
X447646Y143500D01*
D10*
X462877Y159911D02*
X462877Y166148D01*
X462877Y159911D02*
X462879Y159814D01*
X462885Y159718D01*
X462894Y159622D01*
X462908Y159526D01*
X462925Y159431D01*
X462947Y159337D01*
X462972Y159244D01*
X463000Y159151D01*
X463033Y159060D01*
X463069Y158971D01*
X463109Y158883D01*
X463152Y158796D01*
X463198Y158712D01*
X463248Y158629D01*
X463302Y158548D01*
X463358Y158470D01*
X463418Y158394D01*
X463480Y158320D01*
X463546Y158249D01*
X463614Y158181D01*
X463685Y158115D01*
X463759Y158053D01*
X463835Y157993D01*
X463913Y157937D01*
X463994Y157883D01*
X464077Y157833D01*
X464161Y157787D01*
X464248Y157744D01*
X464336Y157704D01*
X464425Y157668D01*
X464516Y157635D01*
X464609Y157607D01*
X464702Y157582D01*
X464796Y157560D01*
X464891Y157543D01*
X464987Y157529D01*
X465083Y157520D01*
X465179Y157514D01*
X465276Y157512D01*
X465373Y157514D01*
X465469Y157520D01*
X465565Y157529D01*
X465661Y157543D01*
X465756Y157560D01*
X465850Y157582D01*
X465943Y157607D01*
X466036Y157635D01*
X466127Y157668D01*
X466216Y157704D01*
X466304Y157744D01*
X466391Y157787D01*
X466476Y157833D01*
X466558Y157883D01*
X466639Y157937D01*
X466717Y157993D01*
X466793Y158053D01*
X466867Y158115D01*
X466938Y158181D01*
X467006Y158249D01*
X467072Y158320D01*
X467134Y158394D01*
X467194Y158470D01*
X467250Y158548D01*
X467304Y158629D01*
X467354Y158711D01*
X467400Y158796D01*
X467443Y158883D01*
X467483Y158971D01*
X467519Y159060D01*
X467552Y159151D01*
X467580Y159244D01*
X467605Y159337D01*
X467627Y159431D01*
X467644Y159526D01*
X467658Y159622D01*
X467667Y159718D01*
X467673Y159814D01*
X467675Y159911D01*
X467675Y166148D01*
X472326Y164229D02*
X474724Y166148D01*
X474724Y157512D01*
X472326Y157512D02*
X477123Y157512D01*
D11*
X74600Y151000D02*
X74600Y139000D01*
X74600Y151000D02*
X60600Y151000D01*
X74600Y110908D02*
X74600Y99000D01*
X60600Y99000D01*
X22600Y145940D02*
X22600Y151000D01*
X29600Y151000D01*
X22600Y104000D02*
X22600Y99000D01*
X29600Y99000D01*
D10*
X34012Y153702D02*
X34012Y162338D01*
X36411Y162338D01*
X36508Y162336D01*
X36604Y162330D01*
X36700Y162321D01*
X36796Y162307D01*
X36891Y162290D01*
X36985Y162268D01*
X37078Y162243D01*
X37171Y162215D01*
X37262Y162182D01*
X37351Y162146D01*
X37439Y162106D01*
X37526Y162063D01*
X37611Y162017D01*
X37693Y161967D01*
X37774Y161913D01*
X37852Y161857D01*
X37928Y161797D01*
X38002Y161735D01*
X38073Y161669D01*
X38141Y161601D01*
X38207Y161530D01*
X38269Y161456D01*
X38329Y161380D01*
X38385Y161302D01*
X38439Y161221D01*
X38489Y161138D01*
X38535Y161054D01*
X38578Y160967D01*
X38618Y160879D01*
X38654Y160790D01*
X38687Y160699D01*
X38715Y160606D01*
X38740Y160513D01*
X38762Y160419D01*
X38779Y160324D01*
X38793Y160228D01*
X38802Y160132D01*
X38808Y160036D01*
X38810Y159939D01*
X38808Y159842D01*
X38802Y159746D01*
X38793Y159650D01*
X38779Y159554D01*
X38762Y159459D01*
X38740Y159365D01*
X38715Y159272D01*
X38687Y159179D01*
X38654Y159088D01*
X38618Y158999D01*
X38578Y158911D01*
X38535Y158824D01*
X38489Y158740D01*
X38439Y158657D01*
X38385Y158576D01*
X38329Y158498D01*
X38269Y158422D01*
X38207Y158348D01*
X38141Y158277D01*
X38073Y158209D01*
X38002Y158143D01*
X37928Y158081D01*
X37852Y158021D01*
X37774Y157965D01*
X37693Y157911D01*
X37610Y157861D01*
X37526Y157815D01*
X37439Y157772D01*
X37351Y157732D01*
X37262Y157696D01*
X37171Y157663D01*
X37078Y157635D01*
X36985Y157610D01*
X36891Y157588D01*
X36796Y157571D01*
X36700Y157557D01*
X36604Y157548D01*
X36508Y157542D01*
X36411Y157540D01*
X34012Y157540D01*
X42656Y156101D02*
X42656Y159939D01*
X42658Y160036D01*
X42664Y160132D01*
X42673Y160228D01*
X42687Y160324D01*
X42704Y160419D01*
X42726Y160513D01*
X42751Y160606D01*
X42779Y160699D01*
X42812Y160790D01*
X42848Y160879D01*
X42888Y160967D01*
X42931Y161054D01*
X42977Y161139D01*
X43027Y161221D01*
X43081Y161302D01*
X43137Y161380D01*
X43197Y161456D01*
X43259Y161530D01*
X43325Y161601D01*
X43393Y161669D01*
X43464Y161735D01*
X43538Y161797D01*
X43614Y161857D01*
X43692Y161913D01*
X43773Y161967D01*
X43856Y162017D01*
X43940Y162063D01*
X44027Y162106D01*
X44115Y162146D01*
X44204Y162182D01*
X44295Y162215D01*
X44388Y162243D01*
X44481Y162268D01*
X44575Y162290D01*
X44670Y162307D01*
X44766Y162321D01*
X44862Y162330D01*
X44958Y162336D01*
X45055Y162338D01*
X45152Y162336D01*
X45248Y162330D01*
X45344Y162321D01*
X45440Y162307D01*
X45535Y162290D01*
X45629Y162268D01*
X45722Y162243D01*
X45815Y162215D01*
X45906Y162182D01*
X45995Y162146D01*
X46083Y162106D01*
X46170Y162063D01*
X46255Y162017D01*
X46337Y161967D01*
X46418Y161913D01*
X46496Y161857D01*
X46572Y161797D01*
X46646Y161735D01*
X46717Y161669D01*
X46785Y161601D01*
X46851Y161530D01*
X46913Y161456D01*
X46973Y161380D01*
X47029Y161302D01*
X47083Y161221D01*
X47133Y161139D01*
X47179Y161054D01*
X47222Y160967D01*
X47262Y160879D01*
X47298Y160790D01*
X47331Y160699D01*
X47359Y160606D01*
X47384Y160513D01*
X47406Y160419D01*
X47423Y160324D01*
X47437Y160228D01*
X47446Y160132D01*
X47452Y160036D01*
X47454Y159939D01*
X47454Y156101D01*
X47452Y156004D01*
X47446Y155908D01*
X47437Y155812D01*
X47423Y155716D01*
X47406Y155621D01*
X47384Y155527D01*
X47359Y155434D01*
X47331Y155341D01*
X47298Y155250D01*
X47262Y155161D01*
X47222Y155073D01*
X47179Y154986D01*
X47133Y154901D01*
X47083Y154819D01*
X47029Y154738D01*
X46973Y154660D01*
X46913Y154584D01*
X46851Y154510D01*
X46785Y154439D01*
X46717Y154371D01*
X46646Y154305D01*
X46572Y154243D01*
X46496Y154183D01*
X46418Y154127D01*
X46337Y154073D01*
X46254Y154023D01*
X46170Y153977D01*
X46083Y153934D01*
X45995Y153894D01*
X45906Y153858D01*
X45815Y153825D01*
X45722Y153797D01*
X45629Y153772D01*
X45535Y153750D01*
X45440Y153733D01*
X45344Y153719D01*
X45248Y153710D01*
X45152Y153704D01*
X45055Y153702D01*
X44958Y153704D01*
X44862Y153710D01*
X44766Y153719D01*
X44670Y153733D01*
X44575Y153750D01*
X44481Y153772D01*
X44388Y153797D01*
X44295Y153825D01*
X44204Y153858D01*
X44115Y153894D01*
X44027Y153934D01*
X43940Y153977D01*
X43855Y154023D01*
X43773Y154073D01*
X43692Y154127D01*
X43614Y154183D01*
X43538Y154243D01*
X43464Y154305D01*
X43393Y154371D01*
X43325Y154439D01*
X43259Y154510D01*
X43197Y154584D01*
X43137Y154660D01*
X43081Y154738D01*
X43027Y154819D01*
X42977Y154902D01*
X42931Y154986D01*
X42888Y155073D01*
X42848Y155161D01*
X42812Y155250D01*
X42779Y155341D01*
X42751Y155434D01*
X42726Y155527D01*
X42704Y155621D01*
X42687Y155716D01*
X42673Y155812D01*
X42664Y155908D01*
X42658Y156004D01*
X42656Y156101D01*
X53589Y153702D02*
X53589Y162338D01*
X51191Y162338D02*
X55988Y162338D01*
D12*
X116750Y65250D02*
X115000Y63500D01*
X113500Y65000D01*
X115250Y66750D01*
X116750Y65250D01*
D13*
X117750Y61000D03*
D12*
X255000Y63500D02*
X256750Y65250D01*
X255000Y63500D02*
X253500Y65000D01*
X255250Y66750D01*
X256750Y65250D01*
D13*
X257750Y61000D03*
D12*
X395000Y63500D02*
X396750Y65250D01*
X395000Y63500D02*
X393500Y65000D01*
X395250Y66750D01*
X396750Y65250D01*
D13*
X397750Y61000D03*
M02*
