G04 EAGLE Gerber RS-274X export*
G75*
%MOMM*%
%FSLAX34Y34*%
%LPD*%
%INSilkscreen Bottom*%
%IPPOS*%
%AMOC8*
5,1,8,0,0,1.08239X$1,22.5*%
G01*
%ADD10C,0.152400*%
%ADD11C,0.101600*%
%ADD12C,0.177800*%
%ADD13C,0.127000*%
%ADD14C,0.254000*%


D10*
X212211Y35762D02*
X209332Y35762D01*
X209246Y35764D01*
X209160Y35770D01*
X209074Y35779D01*
X208989Y35793D01*
X208905Y35810D01*
X208821Y35831D01*
X208739Y35856D01*
X208658Y35884D01*
X208578Y35916D01*
X208499Y35952D01*
X208423Y35991D01*
X208348Y36034D01*
X208275Y36079D01*
X208204Y36128D01*
X208136Y36181D01*
X208069Y36236D01*
X208006Y36294D01*
X207945Y36355D01*
X207887Y36418D01*
X207832Y36485D01*
X207779Y36553D01*
X207730Y36624D01*
X207685Y36697D01*
X207642Y36772D01*
X207603Y36848D01*
X207567Y36927D01*
X207535Y37007D01*
X207507Y37088D01*
X207482Y37170D01*
X207461Y37254D01*
X207444Y37338D01*
X207430Y37423D01*
X207421Y37509D01*
X207415Y37595D01*
X207413Y37681D01*
X207413Y38641D01*
X207415Y38727D01*
X207421Y38813D01*
X207430Y38899D01*
X207444Y38984D01*
X207461Y39068D01*
X207482Y39152D01*
X207507Y39234D01*
X207535Y39315D01*
X207567Y39395D01*
X207603Y39474D01*
X207642Y39550D01*
X207685Y39625D01*
X207730Y39698D01*
X207780Y39769D01*
X207832Y39837D01*
X207887Y39904D01*
X207945Y39967D01*
X208006Y40028D01*
X208069Y40086D01*
X208136Y40141D01*
X208204Y40194D01*
X208275Y40243D01*
X208348Y40288D01*
X208423Y40331D01*
X208499Y40370D01*
X208578Y40406D01*
X208658Y40438D01*
X208739Y40466D01*
X208822Y40491D01*
X208905Y40512D01*
X208989Y40529D01*
X209074Y40543D01*
X209160Y40552D01*
X209246Y40558D01*
X209332Y40560D01*
X212211Y40560D01*
X212211Y44398D01*
X207413Y44398D01*
X203547Y44398D02*
X200668Y35762D01*
X197789Y44398D01*
X231919Y44398D02*
X231919Y35762D01*
X228081Y35762D01*
X253081Y35762D02*
X255000Y35762D01*
X255086Y35764D01*
X255172Y35770D01*
X255258Y35779D01*
X255343Y35793D01*
X255427Y35810D01*
X255511Y35831D01*
X255593Y35856D01*
X255674Y35884D01*
X255754Y35916D01*
X255833Y35952D01*
X255909Y35991D01*
X255984Y36034D01*
X256057Y36079D01*
X256128Y36129D01*
X256196Y36181D01*
X256263Y36236D01*
X256326Y36294D01*
X256387Y36355D01*
X256445Y36418D01*
X256500Y36485D01*
X256553Y36553D01*
X256602Y36624D01*
X256647Y36697D01*
X256690Y36772D01*
X256729Y36848D01*
X256765Y36927D01*
X256797Y37007D01*
X256825Y37088D01*
X256850Y37171D01*
X256871Y37254D01*
X256888Y37338D01*
X256902Y37423D01*
X256911Y37509D01*
X256917Y37595D01*
X256919Y37681D01*
X256919Y42479D01*
X256917Y42565D01*
X256911Y42651D01*
X256902Y42737D01*
X256888Y42822D01*
X256871Y42906D01*
X256850Y42990D01*
X256825Y43072D01*
X256797Y43153D01*
X256765Y43233D01*
X256729Y43312D01*
X256690Y43388D01*
X256647Y43463D01*
X256602Y43536D01*
X256553Y43607D01*
X256500Y43675D01*
X256445Y43742D01*
X256387Y43805D01*
X256326Y43866D01*
X256263Y43924D01*
X256197Y43979D01*
X256128Y44031D01*
X256057Y44081D01*
X255984Y44126D01*
X255909Y44169D01*
X255833Y44208D01*
X255754Y44244D01*
X255674Y44276D01*
X255593Y44304D01*
X255511Y44329D01*
X255427Y44350D01*
X255343Y44367D01*
X255258Y44381D01*
X255172Y44390D01*
X255086Y44396D01*
X255000Y44398D01*
X253081Y44398D01*
X282399Y44398D02*
X282399Y35762D01*
X282399Y44398D02*
X280000Y44398D01*
X279903Y44396D01*
X279807Y44390D01*
X279711Y44381D01*
X279615Y44367D01*
X279520Y44350D01*
X279426Y44328D01*
X279333Y44303D01*
X279240Y44275D01*
X279149Y44242D01*
X279060Y44206D01*
X278972Y44166D01*
X278885Y44123D01*
X278801Y44077D01*
X278718Y44027D01*
X278637Y43973D01*
X278559Y43917D01*
X278483Y43857D01*
X278409Y43795D01*
X278338Y43729D01*
X278270Y43661D01*
X278204Y43590D01*
X278142Y43516D01*
X278082Y43440D01*
X278026Y43362D01*
X277972Y43281D01*
X277922Y43199D01*
X277876Y43114D01*
X277833Y43027D01*
X277793Y42939D01*
X277757Y42850D01*
X277724Y42759D01*
X277696Y42666D01*
X277671Y42573D01*
X277649Y42479D01*
X277632Y42384D01*
X277618Y42288D01*
X277609Y42192D01*
X277603Y42096D01*
X277601Y41999D01*
X277603Y41902D01*
X277609Y41806D01*
X277618Y41710D01*
X277632Y41614D01*
X277649Y41519D01*
X277671Y41425D01*
X277696Y41332D01*
X277724Y41239D01*
X277757Y41148D01*
X277793Y41059D01*
X277833Y40971D01*
X277876Y40884D01*
X277922Y40800D01*
X277972Y40717D01*
X278026Y40636D01*
X278082Y40558D01*
X278142Y40482D01*
X278204Y40408D01*
X278270Y40337D01*
X278338Y40269D01*
X278409Y40203D01*
X278483Y40141D01*
X278559Y40081D01*
X278637Y40025D01*
X278718Y39971D01*
X278801Y39921D01*
X278885Y39875D01*
X278972Y39832D01*
X279060Y39792D01*
X279149Y39756D01*
X279240Y39723D01*
X279333Y39695D01*
X279426Y39670D01*
X279520Y39648D01*
X279615Y39631D01*
X279711Y39617D01*
X279807Y39608D01*
X279903Y39602D01*
X280000Y39600D01*
X282399Y39600D01*
X279520Y39600D02*
X277601Y35762D01*
X314855Y40560D02*
X316294Y40560D01*
X314855Y40560D02*
X314855Y35762D01*
X317733Y35762D01*
X317819Y35764D01*
X317905Y35770D01*
X317991Y35779D01*
X318076Y35793D01*
X318160Y35810D01*
X318244Y35831D01*
X318326Y35856D01*
X318407Y35884D01*
X318487Y35916D01*
X318566Y35952D01*
X318642Y35991D01*
X318717Y36034D01*
X318790Y36079D01*
X318861Y36129D01*
X318929Y36181D01*
X318996Y36236D01*
X319059Y36294D01*
X319120Y36355D01*
X319178Y36418D01*
X319233Y36485D01*
X319286Y36553D01*
X319335Y36624D01*
X319380Y36697D01*
X319423Y36772D01*
X319462Y36848D01*
X319498Y36927D01*
X319530Y37007D01*
X319558Y37088D01*
X319583Y37171D01*
X319604Y37254D01*
X319621Y37338D01*
X319635Y37423D01*
X319644Y37509D01*
X319650Y37595D01*
X319652Y37681D01*
X319652Y42479D01*
X319650Y42565D01*
X319644Y42651D01*
X319635Y42737D01*
X319621Y42822D01*
X319604Y42906D01*
X319583Y42990D01*
X319558Y43072D01*
X319530Y43153D01*
X319498Y43233D01*
X319462Y43312D01*
X319423Y43388D01*
X319380Y43463D01*
X319335Y43536D01*
X319286Y43607D01*
X319233Y43675D01*
X319178Y43742D01*
X319120Y43805D01*
X319059Y43866D01*
X318996Y43924D01*
X318930Y43979D01*
X318861Y44031D01*
X318790Y44081D01*
X318717Y44126D01*
X318642Y44169D01*
X318566Y44208D01*
X318487Y44244D01*
X318407Y44276D01*
X318326Y44304D01*
X318244Y44329D01*
X318160Y44350D01*
X318076Y44367D01*
X317991Y44381D01*
X317905Y44390D01*
X317819Y44396D01*
X317733Y44398D01*
X314855Y44398D01*
X309899Y44398D02*
X309899Y35762D01*
X305101Y35762D02*
X309899Y44398D01*
X305101Y44398D02*
X305101Y35762D01*
X300145Y35762D02*
X300145Y44398D01*
X297746Y44398D01*
X297649Y44396D01*
X297553Y44390D01*
X297457Y44381D01*
X297361Y44367D01*
X297266Y44350D01*
X297172Y44328D01*
X297079Y44303D01*
X296986Y44275D01*
X296895Y44242D01*
X296806Y44206D01*
X296718Y44166D01*
X296631Y44123D01*
X296547Y44077D01*
X296464Y44027D01*
X296383Y43973D01*
X296305Y43917D01*
X296229Y43857D01*
X296155Y43795D01*
X296084Y43729D01*
X296016Y43661D01*
X295950Y43590D01*
X295888Y43516D01*
X295828Y43440D01*
X295772Y43362D01*
X295718Y43281D01*
X295668Y43199D01*
X295622Y43114D01*
X295579Y43027D01*
X295539Y42939D01*
X295503Y42850D01*
X295470Y42759D01*
X295442Y42666D01*
X295417Y42573D01*
X295395Y42479D01*
X295378Y42384D01*
X295364Y42288D01*
X295355Y42192D01*
X295349Y42096D01*
X295347Y41999D01*
X295348Y41999D02*
X295348Y38161D01*
X295347Y38161D02*
X295349Y38064D01*
X295355Y37968D01*
X295364Y37872D01*
X295378Y37776D01*
X295395Y37681D01*
X295417Y37587D01*
X295442Y37494D01*
X295470Y37401D01*
X295503Y37310D01*
X295539Y37221D01*
X295579Y37133D01*
X295622Y37046D01*
X295668Y36962D01*
X295718Y36879D01*
X295772Y36798D01*
X295828Y36720D01*
X295888Y36644D01*
X295950Y36570D01*
X296016Y36499D01*
X296084Y36431D01*
X296155Y36365D01*
X296229Y36303D01*
X296305Y36243D01*
X296383Y36187D01*
X296464Y36133D01*
X296547Y36083D01*
X296631Y36037D01*
X296718Y35994D01*
X296806Y35954D01*
X296895Y35918D01*
X296986Y35885D01*
X297079Y35857D01*
X297172Y35832D01*
X297266Y35810D01*
X297361Y35793D01*
X297457Y35779D01*
X297553Y35770D01*
X297649Y35764D01*
X297746Y35762D01*
X300145Y35762D01*
D11*
X182816Y25742D02*
X182744Y25740D01*
X182673Y25734D01*
X182602Y25725D01*
X182531Y25712D01*
X182461Y25695D01*
X182392Y25675D01*
X182325Y25651D01*
X182258Y25623D01*
X182194Y25593D01*
X182131Y25558D01*
X182069Y25521D01*
X182010Y25480D01*
X181953Y25436D01*
X181899Y25390D01*
X181847Y25340D01*
X181797Y25288D01*
X181751Y25234D01*
X181707Y25177D01*
X181666Y25118D01*
X181629Y25057D01*
X181594Y24993D01*
X181564Y24929D01*
X181536Y24862D01*
X181512Y24795D01*
X181492Y24726D01*
X181475Y24656D01*
X181462Y24585D01*
X181453Y24514D01*
X181447Y24443D01*
X181445Y24371D01*
X182816Y25742D02*
X182898Y25740D01*
X182980Y25734D01*
X183061Y25725D01*
X183142Y25712D01*
X183222Y25694D01*
X183302Y25674D01*
X183380Y25649D01*
X183457Y25621D01*
X183533Y25590D01*
X183607Y25554D01*
X183679Y25516D01*
X183750Y25474D01*
X183818Y25429D01*
X183885Y25381D01*
X183949Y25329D01*
X184010Y25275D01*
X184069Y25218D01*
X184125Y25158D01*
X184179Y25096D01*
X184229Y25032D01*
X184277Y24965D01*
X184321Y24896D01*
X184362Y24824D01*
X184399Y24752D01*
X184434Y24677D01*
X184464Y24601D01*
X184491Y24524D01*
X181902Y23304D02*
X181849Y23357D01*
X181800Y23412D01*
X181752Y23470D01*
X181708Y23530D01*
X181667Y23593D01*
X181630Y23657D01*
X181595Y23723D01*
X181564Y23791D01*
X181536Y23860D01*
X181512Y23931D01*
X181492Y24002D01*
X181475Y24075D01*
X181462Y24148D01*
X181453Y24222D01*
X181447Y24296D01*
X181445Y24371D01*
X181902Y23305D02*
X184492Y20258D01*
X181445Y20258D01*
X178642Y20258D02*
X176814Y20258D01*
X176746Y20260D01*
X176678Y20266D01*
X176610Y20275D01*
X176543Y20289D01*
X176477Y20306D01*
X176411Y20326D01*
X176348Y20351D01*
X176285Y20379D01*
X176224Y20410D01*
X176165Y20445D01*
X176109Y20483D01*
X176054Y20524D01*
X176002Y20568D01*
X175952Y20615D01*
X175905Y20665D01*
X175861Y20717D01*
X175820Y20772D01*
X175782Y20828D01*
X175747Y20887D01*
X175716Y20948D01*
X175688Y21011D01*
X175663Y21074D01*
X175643Y21140D01*
X175626Y21206D01*
X175612Y21273D01*
X175603Y21341D01*
X175597Y21409D01*
X175595Y21477D01*
X175595Y22086D01*
X175597Y22154D01*
X175603Y22222D01*
X175612Y22290D01*
X175626Y22357D01*
X175643Y22423D01*
X175663Y22489D01*
X175688Y22552D01*
X175716Y22615D01*
X175747Y22676D01*
X175782Y22735D01*
X175820Y22791D01*
X175861Y22846D01*
X175905Y22898D01*
X175952Y22948D01*
X176002Y22995D01*
X176054Y23039D01*
X176109Y23080D01*
X176165Y23118D01*
X176224Y23153D01*
X176285Y23184D01*
X176348Y23212D01*
X176411Y23237D01*
X176477Y23257D01*
X176543Y23274D01*
X176610Y23288D01*
X176678Y23297D01*
X176746Y23303D01*
X176814Y23305D01*
X178642Y23305D01*
X178642Y25742D01*
X175595Y25742D01*
X170635Y26351D02*
X173072Y19649D01*
X168112Y23000D02*
X168110Y23128D01*
X168105Y23256D01*
X168096Y23384D01*
X168083Y23511D01*
X168067Y23638D01*
X168047Y23765D01*
X168023Y23891D01*
X167996Y24016D01*
X167966Y24141D01*
X167932Y24264D01*
X167894Y24387D01*
X167853Y24508D01*
X167809Y24628D01*
X167761Y24747D01*
X167710Y24864D01*
X167655Y24980D01*
X167632Y25043D01*
X167605Y25104D01*
X167574Y25163D01*
X167540Y25220D01*
X167503Y25275D01*
X167462Y25328D01*
X167418Y25378D01*
X167372Y25426D01*
X167323Y25470D01*
X167271Y25512D01*
X167217Y25551D01*
X167160Y25586D01*
X167102Y25618D01*
X167042Y25647D01*
X166980Y25672D01*
X166917Y25693D01*
X166853Y25711D01*
X166788Y25724D01*
X166722Y25734D01*
X166656Y25740D01*
X166589Y25742D01*
X166522Y25740D01*
X166456Y25734D01*
X166390Y25724D01*
X166325Y25711D01*
X166261Y25693D01*
X166198Y25672D01*
X166136Y25647D01*
X166076Y25618D01*
X166018Y25586D01*
X165961Y25551D01*
X165907Y25512D01*
X165855Y25471D01*
X165806Y25426D01*
X165760Y25378D01*
X165716Y25328D01*
X165675Y25275D01*
X165638Y25220D01*
X165604Y25163D01*
X165573Y25104D01*
X165546Y25043D01*
X165523Y24981D01*
X165523Y24980D02*
X165468Y24864D01*
X165417Y24747D01*
X165369Y24628D01*
X165325Y24508D01*
X165284Y24387D01*
X165246Y24264D01*
X165212Y24141D01*
X165182Y24016D01*
X165155Y23891D01*
X165131Y23765D01*
X165111Y23638D01*
X165095Y23511D01*
X165082Y23384D01*
X165073Y23256D01*
X165068Y23128D01*
X165066Y23000D01*
X168112Y23000D02*
X168110Y22872D01*
X168105Y22744D01*
X168096Y22616D01*
X168083Y22489D01*
X168067Y22362D01*
X168047Y22235D01*
X168023Y22109D01*
X167996Y21984D01*
X167966Y21859D01*
X167932Y21736D01*
X167894Y21614D01*
X167853Y21492D01*
X167809Y21372D01*
X167761Y21253D01*
X167710Y21136D01*
X167655Y21020D01*
X167632Y20957D01*
X167605Y20896D01*
X167574Y20837D01*
X167540Y20780D01*
X167503Y20725D01*
X167462Y20672D01*
X167418Y20622D01*
X167372Y20574D01*
X167323Y20529D01*
X167271Y20488D01*
X167217Y20449D01*
X167160Y20414D01*
X167102Y20382D01*
X167042Y20353D01*
X166980Y20328D01*
X166917Y20307D01*
X166853Y20289D01*
X166788Y20276D01*
X166722Y20266D01*
X166656Y20260D01*
X166589Y20258D01*
X165523Y21020D02*
X165468Y21136D01*
X165417Y21253D01*
X165369Y21372D01*
X165325Y21492D01*
X165284Y21614D01*
X165246Y21736D01*
X165212Y21859D01*
X165182Y21984D01*
X165155Y22109D01*
X165131Y22235D01*
X165111Y22362D01*
X165095Y22489D01*
X165082Y22616D01*
X165073Y22744D01*
X165068Y22872D01*
X165066Y23000D01*
X165523Y21019D02*
X165546Y20957D01*
X165573Y20896D01*
X165604Y20837D01*
X165638Y20780D01*
X165675Y20725D01*
X165716Y20672D01*
X165760Y20622D01*
X165806Y20574D01*
X165855Y20529D01*
X165907Y20488D01*
X165961Y20449D01*
X166018Y20414D01*
X166076Y20382D01*
X166136Y20353D01*
X166198Y20328D01*
X166261Y20307D01*
X166325Y20289D01*
X166390Y20276D01*
X166456Y20266D01*
X166522Y20260D01*
X166589Y20258D01*
X167807Y21477D02*
X165370Y24523D01*
X162262Y20258D02*
X160434Y20258D01*
X160366Y20260D01*
X160298Y20266D01*
X160230Y20275D01*
X160163Y20289D01*
X160097Y20306D01*
X160031Y20326D01*
X159968Y20351D01*
X159905Y20379D01*
X159844Y20410D01*
X159785Y20445D01*
X159729Y20483D01*
X159674Y20524D01*
X159622Y20568D01*
X159572Y20615D01*
X159525Y20665D01*
X159481Y20717D01*
X159440Y20772D01*
X159402Y20828D01*
X159367Y20887D01*
X159336Y20948D01*
X159308Y21011D01*
X159283Y21074D01*
X159263Y21140D01*
X159246Y21206D01*
X159232Y21273D01*
X159223Y21341D01*
X159217Y21409D01*
X159215Y21477D01*
X159215Y22086D01*
X159217Y22154D01*
X159223Y22222D01*
X159232Y22290D01*
X159246Y22357D01*
X159263Y22423D01*
X159283Y22489D01*
X159308Y22552D01*
X159336Y22615D01*
X159367Y22676D01*
X159402Y22735D01*
X159440Y22791D01*
X159481Y22846D01*
X159525Y22898D01*
X159572Y22948D01*
X159622Y22995D01*
X159674Y23039D01*
X159729Y23080D01*
X159785Y23118D01*
X159844Y23153D01*
X159905Y23184D01*
X159968Y23212D01*
X160031Y23237D01*
X160097Y23257D01*
X160163Y23274D01*
X160230Y23288D01*
X160298Y23297D01*
X160366Y23303D01*
X160434Y23305D01*
X162262Y23305D01*
X162262Y25742D01*
X159215Y25742D01*
X154255Y26351D02*
X156692Y19649D01*
X150056Y25742D02*
X149984Y25740D01*
X149913Y25734D01*
X149842Y25725D01*
X149771Y25712D01*
X149701Y25695D01*
X149632Y25675D01*
X149565Y25651D01*
X149498Y25623D01*
X149434Y25593D01*
X149371Y25558D01*
X149309Y25521D01*
X149250Y25480D01*
X149193Y25436D01*
X149139Y25390D01*
X149087Y25340D01*
X149037Y25288D01*
X148991Y25234D01*
X148947Y25177D01*
X148906Y25118D01*
X148869Y25057D01*
X148834Y24993D01*
X148804Y24929D01*
X148776Y24862D01*
X148752Y24795D01*
X148732Y24726D01*
X148715Y24656D01*
X148702Y24585D01*
X148693Y24514D01*
X148687Y24443D01*
X148685Y24371D01*
X150056Y25742D02*
X150138Y25740D01*
X150220Y25734D01*
X150301Y25725D01*
X150382Y25712D01*
X150462Y25694D01*
X150542Y25674D01*
X150620Y25649D01*
X150697Y25621D01*
X150773Y25590D01*
X150847Y25554D01*
X150919Y25516D01*
X150990Y25474D01*
X151058Y25429D01*
X151125Y25381D01*
X151189Y25329D01*
X151250Y25275D01*
X151309Y25218D01*
X151365Y25158D01*
X151419Y25096D01*
X151469Y25032D01*
X151517Y24965D01*
X151561Y24896D01*
X151602Y24824D01*
X151639Y24752D01*
X151674Y24677D01*
X151704Y24601D01*
X151731Y24524D01*
X149142Y23304D02*
X149089Y23357D01*
X149040Y23412D01*
X148992Y23470D01*
X148948Y23530D01*
X148907Y23593D01*
X148870Y23657D01*
X148835Y23723D01*
X148804Y23791D01*
X148776Y23860D01*
X148752Y23931D01*
X148732Y24002D01*
X148715Y24075D01*
X148702Y24148D01*
X148693Y24222D01*
X148687Y24296D01*
X148685Y24371D01*
X149142Y23305D02*
X151732Y20258D01*
X148685Y20258D01*
X145882Y23000D02*
X145880Y23128D01*
X145875Y23256D01*
X145866Y23384D01*
X145853Y23511D01*
X145837Y23638D01*
X145817Y23765D01*
X145793Y23891D01*
X145766Y24016D01*
X145736Y24141D01*
X145702Y24264D01*
X145664Y24387D01*
X145623Y24508D01*
X145579Y24628D01*
X145531Y24747D01*
X145480Y24864D01*
X145425Y24980D01*
X145402Y25043D01*
X145375Y25104D01*
X145344Y25163D01*
X145310Y25220D01*
X145273Y25275D01*
X145232Y25328D01*
X145188Y25378D01*
X145142Y25426D01*
X145093Y25470D01*
X145041Y25512D01*
X144987Y25551D01*
X144930Y25586D01*
X144872Y25618D01*
X144812Y25647D01*
X144750Y25672D01*
X144687Y25693D01*
X144623Y25711D01*
X144558Y25724D01*
X144492Y25734D01*
X144426Y25740D01*
X144359Y25742D01*
X144292Y25740D01*
X144226Y25734D01*
X144160Y25724D01*
X144095Y25711D01*
X144031Y25693D01*
X143968Y25672D01*
X143906Y25647D01*
X143846Y25618D01*
X143788Y25586D01*
X143731Y25551D01*
X143677Y25512D01*
X143625Y25471D01*
X143576Y25426D01*
X143530Y25378D01*
X143486Y25328D01*
X143445Y25275D01*
X143408Y25220D01*
X143374Y25163D01*
X143343Y25104D01*
X143316Y25043D01*
X143293Y24981D01*
X143293Y24980D02*
X143238Y24864D01*
X143187Y24747D01*
X143139Y24628D01*
X143095Y24508D01*
X143054Y24387D01*
X143016Y24264D01*
X142982Y24141D01*
X142952Y24016D01*
X142925Y23891D01*
X142901Y23765D01*
X142881Y23638D01*
X142865Y23511D01*
X142852Y23384D01*
X142843Y23256D01*
X142838Y23128D01*
X142836Y23000D01*
X145882Y23000D02*
X145880Y22872D01*
X145875Y22744D01*
X145866Y22616D01*
X145853Y22489D01*
X145837Y22362D01*
X145817Y22235D01*
X145793Y22109D01*
X145766Y21984D01*
X145736Y21859D01*
X145702Y21736D01*
X145664Y21614D01*
X145623Y21492D01*
X145579Y21372D01*
X145531Y21253D01*
X145480Y21136D01*
X145425Y21020D01*
X145402Y20957D01*
X145375Y20896D01*
X145344Y20837D01*
X145310Y20780D01*
X145273Y20725D01*
X145232Y20672D01*
X145188Y20622D01*
X145142Y20574D01*
X145093Y20529D01*
X145041Y20488D01*
X144987Y20449D01*
X144930Y20414D01*
X144872Y20382D01*
X144812Y20353D01*
X144750Y20328D01*
X144687Y20307D01*
X144623Y20289D01*
X144558Y20276D01*
X144492Y20266D01*
X144426Y20260D01*
X144359Y20258D01*
X143293Y21020D02*
X143238Y21136D01*
X143187Y21253D01*
X143139Y21372D01*
X143095Y21492D01*
X143054Y21614D01*
X143016Y21736D01*
X142982Y21859D01*
X142952Y21984D01*
X142925Y22109D01*
X142901Y22235D01*
X142881Y22362D01*
X142865Y22489D01*
X142852Y22616D01*
X142843Y22744D01*
X142838Y22872D01*
X142836Y23000D01*
X143293Y21019D02*
X143316Y20957D01*
X143343Y20896D01*
X143374Y20837D01*
X143408Y20780D01*
X143445Y20725D01*
X143486Y20672D01*
X143530Y20622D01*
X143576Y20574D01*
X143625Y20529D01*
X143677Y20488D01*
X143731Y20449D01*
X143788Y20414D01*
X143846Y20382D01*
X143906Y20353D01*
X143968Y20328D01*
X144031Y20307D01*
X144095Y20289D01*
X144160Y20276D01*
X144226Y20266D01*
X144292Y20260D01*
X144359Y20258D01*
X145578Y21477D02*
X143140Y24523D01*
X138357Y25742D02*
X138285Y25740D01*
X138214Y25734D01*
X138143Y25725D01*
X138072Y25712D01*
X138002Y25695D01*
X137933Y25675D01*
X137866Y25651D01*
X137799Y25623D01*
X137735Y25593D01*
X137672Y25558D01*
X137610Y25521D01*
X137551Y25480D01*
X137494Y25436D01*
X137440Y25390D01*
X137388Y25340D01*
X137338Y25288D01*
X137292Y25234D01*
X137248Y25177D01*
X137207Y25118D01*
X137170Y25057D01*
X137135Y24993D01*
X137105Y24929D01*
X137077Y24862D01*
X137053Y24795D01*
X137033Y24726D01*
X137016Y24656D01*
X137003Y24585D01*
X136994Y24514D01*
X136988Y24443D01*
X136986Y24371D01*
X138357Y25742D02*
X138439Y25740D01*
X138521Y25734D01*
X138602Y25725D01*
X138683Y25712D01*
X138763Y25694D01*
X138843Y25674D01*
X138921Y25649D01*
X138998Y25621D01*
X139074Y25590D01*
X139148Y25554D01*
X139220Y25516D01*
X139291Y25474D01*
X139359Y25429D01*
X139426Y25381D01*
X139490Y25329D01*
X139551Y25275D01*
X139610Y25218D01*
X139666Y25158D01*
X139720Y25096D01*
X139770Y25032D01*
X139818Y24965D01*
X139862Y24896D01*
X139903Y24824D01*
X139940Y24752D01*
X139975Y24677D01*
X140005Y24601D01*
X140032Y24524D01*
X137442Y23304D02*
X137389Y23357D01*
X137340Y23412D01*
X137292Y23470D01*
X137248Y23530D01*
X137207Y23593D01*
X137170Y23657D01*
X137135Y23723D01*
X137104Y23791D01*
X137076Y23860D01*
X137052Y23931D01*
X137032Y24002D01*
X137015Y24075D01*
X137002Y24148D01*
X136993Y24222D01*
X136987Y24296D01*
X136985Y24371D01*
X137443Y23305D02*
X140032Y20258D01*
X136986Y20258D01*
X134182Y23000D02*
X134180Y23128D01*
X134175Y23256D01*
X134166Y23384D01*
X134153Y23511D01*
X134137Y23638D01*
X134117Y23765D01*
X134093Y23891D01*
X134066Y24016D01*
X134036Y24141D01*
X134002Y24264D01*
X133964Y24387D01*
X133923Y24508D01*
X133879Y24628D01*
X133831Y24747D01*
X133780Y24864D01*
X133725Y24980D01*
X133702Y25043D01*
X133675Y25104D01*
X133644Y25163D01*
X133610Y25220D01*
X133573Y25275D01*
X133532Y25328D01*
X133488Y25378D01*
X133442Y25426D01*
X133393Y25470D01*
X133341Y25512D01*
X133287Y25551D01*
X133230Y25586D01*
X133172Y25618D01*
X133112Y25647D01*
X133050Y25672D01*
X132987Y25693D01*
X132923Y25711D01*
X132858Y25724D01*
X132792Y25734D01*
X132726Y25740D01*
X132659Y25742D01*
X132592Y25740D01*
X132526Y25734D01*
X132460Y25724D01*
X132395Y25711D01*
X132331Y25693D01*
X132268Y25672D01*
X132206Y25647D01*
X132146Y25618D01*
X132088Y25586D01*
X132031Y25551D01*
X131977Y25512D01*
X131925Y25471D01*
X131876Y25426D01*
X131830Y25378D01*
X131786Y25328D01*
X131745Y25275D01*
X131708Y25220D01*
X131674Y25163D01*
X131643Y25104D01*
X131616Y25043D01*
X131593Y24981D01*
X131593Y24980D02*
X131538Y24864D01*
X131487Y24747D01*
X131439Y24628D01*
X131395Y24508D01*
X131354Y24387D01*
X131316Y24264D01*
X131282Y24141D01*
X131252Y24016D01*
X131225Y23891D01*
X131201Y23765D01*
X131181Y23638D01*
X131165Y23511D01*
X131152Y23384D01*
X131143Y23256D01*
X131138Y23128D01*
X131136Y23000D01*
X134182Y23000D02*
X134180Y22872D01*
X134175Y22744D01*
X134166Y22616D01*
X134153Y22489D01*
X134137Y22362D01*
X134117Y22235D01*
X134093Y22109D01*
X134066Y21984D01*
X134036Y21859D01*
X134002Y21736D01*
X133964Y21614D01*
X133923Y21492D01*
X133879Y21372D01*
X133831Y21253D01*
X133780Y21136D01*
X133725Y21020D01*
X133702Y20957D01*
X133675Y20896D01*
X133644Y20837D01*
X133610Y20780D01*
X133573Y20725D01*
X133532Y20672D01*
X133488Y20622D01*
X133442Y20574D01*
X133393Y20529D01*
X133341Y20488D01*
X133287Y20449D01*
X133230Y20414D01*
X133172Y20382D01*
X133112Y20353D01*
X133050Y20328D01*
X132987Y20307D01*
X132923Y20289D01*
X132858Y20276D01*
X132792Y20266D01*
X132726Y20260D01*
X132659Y20258D01*
X131593Y21020D02*
X131538Y21136D01*
X131487Y21253D01*
X131439Y21372D01*
X131395Y21492D01*
X131354Y21614D01*
X131316Y21736D01*
X131282Y21859D01*
X131252Y21984D01*
X131225Y22109D01*
X131201Y22235D01*
X131181Y22362D01*
X131165Y22489D01*
X131152Y22616D01*
X131143Y22744D01*
X131138Y22872D01*
X131136Y23000D01*
X131593Y21019D02*
X131616Y20957D01*
X131643Y20896D01*
X131674Y20837D01*
X131708Y20780D01*
X131745Y20725D01*
X131786Y20672D01*
X131830Y20622D01*
X131876Y20574D01*
X131925Y20529D01*
X131977Y20488D01*
X132031Y20449D01*
X132088Y20414D01*
X132146Y20382D01*
X132206Y20353D01*
X132268Y20328D01*
X132331Y20307D01*
X132395Y20289D01*
X132460Y20276D01*
X132526Y20266D01*
X132592Y20260D01*
X132659Y20258D01*
X133878Y21477D02*
X131440Y24523D01*
X124079Y25742D02*
X124079Y20258D01*
X125602Y25742D02*
X122556Y25742D01*
X119206Y22391D02*
X117835Y22391D01*
X119206Y22390D02*
X119270Y22388D01*
X119334Y22382D01*
X119398Y22373D01*
X119461Y22359D01*
X119523Y22342D01*
X119584Y22321D01*
X119644Y22296D01*
X119701Y22268D01*
X119757Y22236D01*
X119812Y22201D01*
X119863Y22163D01*
X119913Y22122D01*
X119960Y22078D01*
X120004Y22031D01*
X120045Y21981D01*
X120083Y21930D01*
X120118Y21875D01*
X120150Y21819D01*
X120178Y21762D01*
X120203Y21702D01*
X120224Y21641D01*
X120241Y21579D01*
X120255Y21516D01*
X120264Y21452D01*
X120270Y21388D01*
X120272Y21324D01*
X120270Y21260D01*
X120264Y21196D01*
X120255Y21132D01*
X120241Y21069D01*
X120224Y21007D01*
X120203Y20946D01*
X120178Y20886D01*
X120150Y20829D01*
X120118Y20773D01*
X120083Y20718D01*
X120045Y20667D01*
X120004Y20617D01*
X119960Y20570D01*
X119913Y20526D01*
X119863Y20485D01*
X119812Y20447D01*
X119757Y20412D01*
X119701Y20380D01*
X119644Y20352D01*
X119584Y20327D01*
X119523Y20306D01*
X119461Y20289D01*
X119398Y20275D01*
X119334Y20266D01*
X119270Y20260D01*
X119206Y20258D01*
X117835Y20258D01*
X117835Y23000D01*
X117837Y23060D01*
X117843Y23119D01*
X117853Y23178D01*
X117866Y23237D01*
X117884Y23294D01*
X117905Y23350D01*
X117929Y23404D01*
X117957Y23457D01*
X117989Y23508D01*
X118024Y23556D01*
X118062Y23603D01*
X118103Y23646D01*
X118146Y23687D01*
X118193Y23725D01*
X118241Y23760D01*
X118292Y23792D01*
X118345Y23820D01*
X118399Y23844D01*
X118455Y23865D01*
X118512Y23883D01*
X118571Y23896D01*
X118630Y23906D01*
X118689Y23912D01*
X118749Y23914D01*
X119967Y23914D01*
X114717Y23914D02*
X114717Y20258D01*
X114717Y23914D02*
X112889Y23914D01*
X112889Y23305D01*
X111014Y23914D02*
X111014Y20258D01*
X111166Y25437D02*
X111166Y25742D01*
X110862Y25742D01*
X110862Y25437D01*
X111166Y25437D01*
X108333Y25742D02*
X108333Y20258D01*
X108333Y23914D02*
X106809Y23914D01*
X106749Y23912D01*
X106690Y23906D01*
X106631Y23896D01*
X106572Y23883D01*
X106515Y23865D01*
X106459Y23844D01*
X106405Y23820D01*
X106352Y23792D01*
X106301Y23760D01*
X106253Y23725D01*
X106206Y23687D01*
X106163Y23646D01*
X106122Y23603D01*
X106084Y23556D01*
X106049Y23508D01*
X106017Y23457D01*
X105989Y23404D01*
X105965Y23350D01*
X105944Y23294D01*
X105926Y23237D01*
X105913Y23178D01*
X105903Y23119D01*
X105897Y23060D01*
X105895Y23000D01*
X105895Y20258D01*
X103214Y20258D02*
X103214Y23914D01*
X103366Y25437D02*
X103366Y25742D01*
X103062Y25742D01*
X103062Y25437D01*
X103366Y25437D01*
X100533Y23914D02*
X100533Y20258D01*
X100533Y23914D02*
X99009Y23914D01*
X98949Y23912D01*
X98890Y23906D01*
X98831Y23896D01*
X98772Y23883D01*
X98715Y23865D01*
X98659Y23844D01*
X98605Y23820D01*
X98552Y23792D01*
X98501Y23760D01*
X98453Y23725D01*
X98406Y23687D01*
X98363Y23646D01*
X98322Y23603D01*
X98284Y23556D01*
X98249Y23508D01*
X98217Y23457D01*
X98189Y23404D01*
X98165Y23350D01*
X98144Y23294D01*
X98126Y23237D01*
X98113Y23178D01*
X98103Y23119D01*
X98097Y23060D01*
X98095Y23000D01*
X98095Y20258D01*
X92875Y20258D02*
X92875Y25742D01*
X92875Y20258D02*
X94398Y20258D01*
X94458Y20260D01*
X94517Y20266D01*
X94576Y20276D01*
X94635Y20289D01*
X94692Y20307D01*
X94748Y20328D01*
X94802Y20352D01*
X94855Y20380D01*
X94906Y20412D01*
X94954Y20447D01*
X95001Y20485D01*
X95044Y20526D01*
X95085Y20569D01*
X95123Y20616D01*
X95158Y20664D01*
X95190Y20715D01*
X95218Y20768D01*
X95242Y20822D01*
X95263Y20878D01*
X95281Y20935D01*
X95294Y20994D01*
X95304Y21053D01*
X95310Y21112D01*
X95312Y21172D01*
X95312Y23000D01*
X95310Y23060D01*
X95304Y23119D01*
X95294Y23178D01*
X95281Y23237D01*
X95263Y23294D01*
X95242Y23350D01*
X95218Y23404D01*
X95190Y23457D01*
X95158Y23508D01*
X95123Y23556D01*
X95085Y23603D01*
X95044Y23646D01*
X95001Y23687D01*
X94954Y23725D01*
X94906Y23760D01*
X94855Y23792D01*
X94802Y23820D01*
X94748Y23844D01*
X94692Y23865D01*
X94635Y23883D01*
X94576Y23896D01*
X94517Y23906D01*
X94458Y23912D01*
X94398Y23914D01*
X92875Y23914D01*
X89089Y20258D02*
X87565Y20258D01*
X89089Y20258D02*
X89149Y20260D01*
X89208Y20266D01*
X89267Y20276D01*
X89326Y20289D01*
X89383Y20307D01*
X89439Y20328D01*
X89493Y20352D01*
X89546Y20380D01*
X89597Y20412D01*
X89645Y20447D01*
X89692Y20485D01*
X89735Y20526D01*
X89776Y20569D01*
X89814Y20616D01*
X89849Y20664D01*
X89881Y20715D01*
X89909Y20768D01*
X89933Y20822D01*
X89954Y20878D01*
X89972Y20935D01*
X89985Y20994D01*
X89995Y21053D01*
X90001Y21112D01*
X90003Y21172D01*
X90003Y22695D01*
X90001Y22763D01*
X89995Y22831D01*
X89986Y22899D01*
X89972Y22966D01*
X89955Y23032D01*
X89935Y23098D01*
X89910Y23161D01*
X89882Y23224D01*
X89851Y23285D01*
X89816Y23344D01*
X89778Y23400D01*
X89737Y23455D01*
X89693Y23507D01*
X89646Y23557D01*
X89596Y23604D01*
X89544Y23648D01*
X89489Y23689D01*
X89433Y23727D01*
X89374Y23762D01*
X89313Y23793D01*
X89250Y23821D01*
X89187Y23846D01*
X89121Y23866D01*
X89055Y23883D01*
X88988Y23897D01*
X88920Y23906D01*
X88852Y23912D01*
X88784Y23914D01*
X88716Y23912D01*
X88648Y23906D01*
X88580Y23897D01*
X88513Y23883D01*
X88447Y23866D01*
X88381Y23846D01*
X88318Y23821D01*
X88255Y23793D01*
X88194Y23762D01*
X88135Y23727D01*
X88079Y23689D01*
X88024Y23648D01*
X87972Y23604D01*
X87922Y23557D01*
X87875Y23507D01*
X87831Y23455D01*
X87790Y23400D01*
X87752Y23344D01*
X87717Y23285D01*
X87686Y23224D01*
X87658Y23161D01*
X87633Y23098D01*
X87613Y23032D01*
X87596Y22966D01*
X87582Y22899D01*
X87573Y22831D01*
X87567Y22763D01*
X87565Y22695D01*
X87565Y22086D01*
X90003Y22086D01*
X81515Y20258D02*
X81515Y25742D01*
X81515Y20258D02*
X79078Y20258D01*
X76407Y20258D02*
X76407Y25742D01*
X74884Y25742D01*
X74807Y25740D01*
X74730Y25734D01*
X74653Y25724D01*
X74577Y25711D01*
X74502Y25693D01*
X74428Y25672D01*
X74355Y25647D01*
X74283Y25619D01*
X74213Y25586D01*
X74145Y25551D01*
X74078Y25511D01*
X74014Y25469D01*
X73952Y25423D01*
X73892Y25375D01*
X73835Y25323D01*
X73780Y25268D01*
X73728Y25211D01*
X73680Y25151D01*
X73634Y25089D01*
X73592Y25025D01*
X73552Y24958D01*
X73517Y24890D01*
X73484Y24820D01*
X73456Y24748D01*
X73431Y24675D01*
X73410Y24601D01*
X73392Y24526D01*
X73379Y24450D01*
X73369Y24373D01*
X73363Y24296D01*
X73361Y24219D01*
X73363Y24142D01*
X73369Y24065D01*
X73379Y23988D01*
X73392Y23912D01*
X73410Y23837D01*
X73431Y23763D01*
X73456Y23690D01*
X73484Y23618D01*
X73517Y23548D01*
X73552Y23480D01*
X73592Y23413D01*
X73634Y23349D01*
X73680Y23287D01*
X73728Y23227D01*
X73780Y23170D01*
X73835Y23115D01*
X73892Y23063D01*
X73952Y23015D01*
X74014Y22969D01*
X74078Y22927D01*
X74145Y22887D01*
X74213Y22852D01*
X74283Y22819D01*
X74355Y22791D01*
X74428Y22766D01*
X74502Y22745D01*
X74577Y22727D01*
X74653Y22714D01*
X74730Y22704D01*
X74807Y22698D01*
X74884Y22696D01*
X74884Y22695D02*
X76407Y22695D01*
X74579Y22695D02*
X73360Y20258D01*
X69479Y20258D02*
X69479Y25742D01*
X67956Y25742D02*
X71003Y25742D01*
X182055Y10508D02*
X183273Y10508D01*
X183341Y10510D01*
X183409Y10516D01*
X183477Y10525D01*
X183544Y10539D01*
X183610Y10556D01*
X183676Y10576D01*
X183739Y10601D01*
X183802Y10629D01*
X183863Y10660D01*
X183922Y10695D01*
X183978Y10733D01*
X184033Y10774D01*
X184085Y10818D01*
X184135Y10865D01*
X184182Y10915D01*
X184226Y10967D01*
X184267Y11022D01*
X184305Y11078D01*
X184340Y11137D01*
X184371Y11198D01*
X184399Y11261D01*
X184424Y11324D01*
X184444Y11390D01*
X184461Y11456D01*
X184475Y11523D01*
X184484Y11591D01*
X184490Y11659D01*
X184492Y11727D01*
X184492Y14773D01*
X184490Y14841D01*
X184484Y14909D01*
X184475Y14977D01*
X184461Y15044D01*
X184444Y15110D01*
X184424Y15176D01*
X184399Y15239D01*
X184371Y15302D01*
X184340Y15363D01*
X184305Y15422D01*
X184267Y15478D01*
X184226Y15533D01*
X184182Y15585D01*
X184135Y15635D01*
X184085Y15682D01*
X184033Y15726D01*
X183978Y15767D01*
X183922Y15805D01*
X183863Y15840D01*
X183802Y15871D01*
X183740Y15899D01*
X183676Y15924D01*
X183611Y15944D01*
X183544Y15961D01*
X183477Y15975D01*
X183410Y15984D01*
X183341Y15990D01*
X183273Y15992D01*
X182055Y15992D01*
X178655Y12641D02*
X177284Y12641D01*
X178655Y12640D02*
X178719Y12638D01*
X178783Y12632D01*
X178847Y12623D01*
X178910Y12609D01*
X178972Y12592D01*
X179033Y12571D01*
X179093Y12546D01*
X179150Y12518D01*
X179206Y12486D01*
X179261Y12451D01*
X179312Y12413D01*
X179362Y12372D01*
X179409Y12328D01*
X179453Y12281D01*
X179494Y12231D01*
X179532Y12180D01*
X179567Y12125D01*
X179599Y12069D01*
X179627Y12012D01*
X179652Y11952D01*
X179673Y11891D01*
X179690Y11829D01*
X179704Y11766D01*
X179713Y11702D01*
X179719Y11638D01*
X179721Y11574D01*
X179719Y11510D01*
X179713Y11446D01*
X179704Y11382D01*
X179690Y11319D01*
X179673Y11257D01*
X179652Y11196D01*
X179627Y11136D01*
X179599Y11079D01*
X179567Y11023D01*
X179532Y10968D01*
X179494Y10917D01*
X179453Y10867D01*
X179409Y10820D01*
X179362Y10776D01*
X179312Y10735D01*
X179261Y10697D01*
X179206Y10662D01*
X179150Y10630D01*
X179093Y10602D01*
X179033Y10577D01*
X178972Y10556D01*
X178910Y10539D01*
X178847Y10525D01*
X178783Y10516D01*
X178719Y10510D01*
X178655Y10508D01*
X177284Y10508D01*
X177284Y13250D01*
X177286Y13310D01*
X177292Y13369D01*
X177302Y13428D01*
X177315Y13487D01*
X177333Y13544D01*
X177354Y13600D01*
X177378Y13654D01*
X177406Y13707D01*
X177438Y13758D01*
X177473Y13806D01*
X177511Y13853D01*
X177552Y13896D01*
X177595Y13937D01*
X177642Y13975D01*
X177690Y14010D01*
X177741Y14042D01*
X177794Y14070D01*
X177848Y14094D01*
X177904Y14115D01*
X177961Y14133D01*
X178020Y14146D01*
X178079Y14156D01*
X178138Y14162D01*
X178198Y14164D01*
X179417Y14164D01*
X174217Y14164D02*
X174217Y10508D01*
X174217Y14164D02*
X172694Y14164D01*
X172634Y14162D01*
X172575Y14156D01*
X172516Y14146D01*
X172457Y14133D01*
X172400Y14115D01*
X172344Y14094D01*
X172290Y14070D01*
X172237Y14042D01*
X172186Y14010D01*
X172138Y13975D01*
X172091Y13937D01*
X172048Y13896D01*
X172007Y13853D01*
X171969Y13806D01*
X171934Y13758D01*
X171902Y13707D01*
X171874Y13654D01*
X171850Y13600D01*
X171829Y13544D01*
X171811Y13487D01*
X171798Y13428D01*
X171788Y13369D01*
X171782Y13310D01*
X171780Y13250D01*
X171780Y10508D01*
X168932Y11422D02*
X168932Y15992D01*
X168932Y11422D02*
X168930Y11362D01*
X168924Y11303D01*
X168914Y11244D01*
X168901Y11185D01*
X168883Y11128D01*
X168862Y11072D01*
X168838Y11018D01*
X168810Y10965D01*
X168778Y10914D01*
X168743Y10866D01*
X168705Y10819D01*
X168664Y10776D01*
X168621Y10735D01*
X168574Y10697D01*
X168526Y10662D01*
X168475Y10630D01*
X168422Y10602D01*
X168368Y10578D01*
X168312Y10557D01*
X168255Y10539D01*
X168196Y10526D01*
X168137Y10516D01*
X168078Y10510D01*
X168018Y10508D01*
X165979Y10508D02*
X165979Y14164D01*
X160592Y15992D02*
X158764Y13402D01*
X156936Y15992D01*
X158764Y13402D02*
X158764Y10508D01*
X153501Y12641D02*
X152130Y12641D01*
X153501Y12640D02*
X153565Y12638D01*
X153629Y12632D01*
X153693Y12623D01*
X153756Y12609D01*
X153818Y12592D01*
X153879Y12571D01*
X153939Y12546D01*
X153996Y12518D01*
X154052Y12486D01*
X154107Y12451D01*
X154158Y12413D01*
X154208Y12372D01*
X154255Y12328D01*
X154299Y12281D01*
X154340Y12231D01*
X154378Y12180D01*
X154413Y12125D01*
X154445Y12069D01*
X154473Y12012D01*
X154498Y11952D01*
X154519Y11891D01*
X154536Y11829D01*
X154550Y11766D01*
X154559Y11702D01*
X154565Y11638D01*
X154567Y11574D01*
X154565Y11510D01*
X154559Y11446D01*
X154550Y11382D01*
X154536Y11319D01*
X154519Y11257D01*
X154498Y11196D01*
X154473Y11136D01*
X154445Y11079D01*
X154413Y11023D01*
X154378Y10968D01*
X154340Y10917D01*
X154299Y10867D01*
X154255Y10820D01*
X154208Y10776D01*
X154158Y10735D01*
X154107Y10697D01*
X154052Y10662D01*
X153996Y10630D01*
X153939Y10602D01*
X153879Y10577D01*
X153818Y10556D01*
X153756Y10539D01*
X153693Y10525D01*
X153629Y10516D01*
X153565Y10510D01*
X153501Y10508D01*
X152130Y10508D01*
X152130Y13250D01*
X152132Y13310D01*
X152138Y13369D01*
X152148Y13428D01*
X152161Y13487D01*
X152179Y13544D01*
X152200Y13600D01*
X152224Y13654D01*
X152252Y13707D01*
X152284Y13758D01*
X152319Y13806D01*
X152357Y13853D01*
X152398Y13896D01*
X152441Y13937D01*
X152488Y13975D01*
X152536Y14010D01*
X152587Y14042D01*
X152640Y14070D01*
X152694Y14094D01*
X152750Y14115D01*
X152807Y14133D01*
X152866Y14146D01*
X152925Y14156D01*
X152984Y14162D01*
X153044Y14164D01*
X154262Y14164D01*
X149452Y8680D02*
X148843Y8680D01*
X147015Y14164D01*
X149452Y14164D02*
X148234Y10508D01*
X144724Y10508D02*
X144724Y14164D01*
X142042Y14164D02*
X142042Y10508D01*
X142042Y14164D02*
X140519Y14164D01*
X140459Y14162D01*
X140400Y14156D01*
X140341Y14146D01*
X140282Y14133D01*
X140225Y14115D01*
X140169Y14094D01*
X140115Y14070D01*
X140062Y14042D01*
X140011Y14010D01*
X139963Y13975D01*
X139916Y13937D01*
X139873Y13896D01*
X139832Y13853D01*
X139794Y13806D01*
X139759Y13758D01*
X139727Y13707D01*
X139699Y13654D01*
X139675Y13600D01*
X139654Y13544D01*
X139636Y13487D01*
X139623Y13428D01*
X139613Y13369D01*
X139607Y13310D01*
X139605Y13250D01*
X139605Y10508D01*
X136924Y10508D02*
X136924Y14164D01*
X131464Y14164D02*
X131464Y10508D01*
X131616Y15687D02*
X131616Y15992D01*
X131311Y15992D01*
X131311Y15687D01*
X131616Y15687D01*
X128957Y15992D02*
X128957Y11422D01*
X128955Y11362D01*
X128949Y11303D01*
X128939Y11244D01*
X128926Y11185D01*
X128908Y11128D01*
X128887Y11072D01*
X128863Y11018D01*
X128835Y10965D01*
X128803Y10914D01*
X128768Y10866D01*
X128730Y10819D01*
X128689Y10776D01*
X128646Y10735D01*
X128599Y10697D01*
X128551Y10662D01*
X128500Y10630D01*
X128447Y10602D01*
X128393Y10578D01*
X128337Y10557D01*
X128280Y10539D01*
X128221Y10526D01*
X128162Y10516D01*
X128103Y10510D01*
X128043Y10508D01*
X124943Y10508D02*
X123420Y10508D01*
X124943Y10508D02*
X125003Y10510D01*
X125062Y10516D01*
X125121Y10526D01*
X125180Y10539D01*
X125237Y10557D01*
X125293Y10578D01*
X125347Y10602D01*
X125400Y10630D01*
X125451Y10662D01*
X125499Y10697D01*
X125546Y10735D01*
X125589Y10776D01*
X125630Y10819D01*
X125668Y10866D01*
X125703Y10914D01*
X125735Y10965D01*
X125763Y11018D01*
X125787Y11072D01*
X125808Y11128D01*
X125826Y11185D01*
X125839Y11244D01*
X125849Y11303D01*
X125855Y11362D01*
X125857Y11422D01*
X125857Y12945D01*
X125858Y12945D02*
X125856Y13013D01*
X125850Y13081D01*
X125841Y13149D01*
X125827Y13216D01*
X125810Y13282D01*
X125790Y13348D01*
X125765Y13411D01*
X125737Y13474D01*
X125706Y13535D01*
X125671Y13594D01*
X125633Y13650D01*
X125592Y13705D01*
X125548Y13757D01*
X125501Y13807D01*
X125451Y13854D01*
X125399Y13898D01*
X125344Y13939D01*
X125288Y13977D01*
X125229Y14012D01*
X125168Y14043D01*
X125105Y14071D01*
X125042Y14096D01*
X124976Y14116D01*
X124910Y14133D01*
X124843Y14147D01*
X124775Y14156D01*
X124707Y14162D01*
X124639Y14164D01*
X124571Y14162D01*
X124503Y14156D01*
X124435Y14147D01*
X124368Y14133D01*
X124302Y14116D01*
X124236Y14096D01*
X124173Y14071D01*
X124110Y14043D01*
X124049Y14012D01*
X123990Y13977D01*
X123934Y13939D01*
X123879Y13898D01*
X123827Y13854D01*
X123777Y13807D01*
X123730Y13757D01*
X123686Y13705D01*
X123645Y13650D01*
X123607Y13594D01*
X123572Y13535D01*
X123541Y13474D01*
X123513Y13411D01*
X123488Y13348D01*
X123468Y13282D01*
X123451Y13216D01*
X123437Y13149D01*
X123428Y13081D01*
X123422Y13013D01*
X123420Y12945D01*
X123420Y12336D01*
X125857Y12336D01*
X116449Y10508D02*
X116449Y15992D01*
X117972Y15992D02*
X114925Y15992D01*
X111576Y12641D02*
X110205Y12641D01*
X111576Y12640D02*
X111640Y12638D01*
X111704Y12632D01*
X111768Y12623D01*
X111831Y12609D01*
X111893Y12592D01*
X111954Y12571D01*
X112014Y12546D01*
X112071Y12518D01*
X112127Y12486D01*
X112182Y12451D01*
X112233Y12413D01*
X112283Y12372D01*
X112330Y12328D01*
X112374Y12281D01*
X112415Y12231D01*
X112453Y12180D01*
X112488Y12125D01*
X112520Y12069D01*
X112548Y12012D01*
X112573Y11952D01*
X112594Y11891D01*
X112611Y11829D01*
X112625Y11766D01*
X112634Y11702D01*
X112640Y11638D01*
X112642Y11574D01*
X112640Y11510D01*
X112634Y11446D01*
X112625Y11382D01*
X112611Y11319D01*
X112594Y11257D01*
X112573Y11196D01*
X112548Y11136D01*
X112520Y11079D01*
X112488Y11023D01*
X112453Y10968D01*
X112415Y10917D01*
X112374Y10867D01*
X112330Y10820D01*
X112283Y10776D01*
X112233Y10735D01*
X112182Y10697D01*
X112127Y10662D01*
X112071Y10630D01*
X112014Y10602D01*
X111954Y10577D01*
X111893Y10556D01*
X111831Y10539D01*
X111768Y10525D01*
X111704Y10516D01*
X111640Y10510D01*
X111576Y10508D01*
X110205Y10508D01*
X110205Y13250D01*
X110207Y13310D01*
X110213Y13369D01*
X110223Y13428D01*
X110236Y13487D01*
X110254Y13544D01*
X110275Y13600D01*
X110299Y13654D01*
X110327Y13707D01*
X110359Y13758D01*
X110394Y13806D01*
X110432Y13853D01*
X110473Y13896D01*
X110516Y13937D01*
X110563Y13975D01*
X110611Y14010D01*
X110662Y14042D01*
X110715Y14070D01*
X110769Y14094D01*
X110825Y14115D01*
X110882Y14133D01*
X110941Y14146D01*
X111000Y14156D01*
X111059Y14162D01*
X111119Y14164D01*
X112337Y14164D01*
X106876Y12641D02*
X105352Y12031D01*
X106875Y12641D02*
X106926Y12663D01*
X106974Y12688D01*
X107021Y12717D01*
X107065Y12749D01*
X107107Y12784D01*
X107147Y12822D01*
X107184Y12862D01*
X107218Y12905D01*
X107249Y12950D01*
X107277Y12998D01*
X107301Y13047D01*
X107322Y13097D01*
X107339Y13149D01*
X107353Y13202D01*
X107363Y13256D01*
X107369Y13311D01*
X107372Y13366D01*
X107371Y13420D01*
X107366Y13475D01*
X107357Y13529D01*
X107344Y13582D01*
X107328Y13635D01*
X107308Y13686D01*
X107285Y13735D01*
X107258Y13783D01*
X107228Y13829D01*
X107195Y13873D01*
X107159Y13914D01*
X107120Y13953D01*
X107078Y13989D01*
X107035Y14021D01*
X106989Y14051D01*
X106941Y14078D01*
X106891Y14101D01*
X106840Y14121D01*
X106788Y14137D01*
X106734Y14149D01*
X106680Y14158D01*
X106625Y14163D01*
X106571Y14164D01*
X106570Y14164D02*
X106462Y14160D01*
X106353Y14154D01*
X106245Y14144D01*
X106137Y14130D01*
X106029Y14113D01*
X105923Y14093D01*
X105816Y14069D01*
X105711Y14042D01*
X105606Y14012D01*
X105503Y13979D01*
X105401Y13942D01*
X105299Y13902D01*
X105200Y13859D01*
X105353Y12031D02*
X105302Y12009D01*
X105254Y11984D01*
X105207Y11955D01*
X105163Y11923D01*
X105121Y11888D01*
X105081Y11850D01*
X105044Y11810D01*
X105010Y11767D01*
X104979Y11722D01*
X104951Y11674D01*
X104927Y11625D01*
X104906Y11575D01*
X104889Y11523D01*
X104875Y11470D01*
X104865Y11416D01*
X104859Y11361D01*
X104856Y11306D01*
X104857Y11252D01*
X104862Y11197D01*
X104871Y11143D01*
X104884Y11090D01*
X104900Y11037D01*
X104920Y10986D01*
X104943Y10937D01*
X104970Y10889D01*
X105000Y10843D01*
X105033Y10799D01*
X105069Y10758D01*
X105108Y10719D01*
X105150Y10683D01*
X105193Y10651D01*
X105239Y10621D01*
X105287Y10594D01*
X105337Y10571D01*
X105388Y10551D01*
X105440Y10535D01*
X105494Y10523D01*
X105548Y10514D01*
X105602Y10509D01*
X105657Y10508D01*
X105657Y10509D02*
X105799Y10513D01*
X105942Y10520D01*
X106084Y10532D01*
X106225Y10548D01*
X106367Y10568D01*
X106507Y10591D01*
X106647Y10619D01*
X106786Y10650D01*
X106924Y10685D01*
X107062Y10724D01*
X107198Y10767D01*
X107332Y10813D01*
X101241Y12641D02*
X99870Y12641D01*
X101241Y12640D02*
X101305Y12638D01*
X101369Y12632D01*
X101433Y12623D01*
X101496Y12609D01*
X101558Y12592D01*
X101619Y12571D01*
X101679Y12546D01*
X101736Y12518D01*
X101792Y12486D01*
X101847Y12451D01*
X101898Y12413D01*
X101948Y12372D01*
X101995Y12328D01*
X102039Y12281D01*
X102080Y12231D01*
X102118Y12180D01*
X102153Y12125D01*
X102185Y12069D01*
X102213Y12012D01*
X102238Y11952D01*
X102259Y11891D01*
X102276Y11829D01*
X102290Y11766D01*
X102299Y11702D01*
X102305Y11638D01*
X102307Y11574D01*
X102305Y11510D01*
X102299Y11446D01*
X102290Y11382D01*
X102276Y11319D01*
X102259Y11257D01*
X102238Y11196D01*
X102213Y11136D01*
X102185Y11079D01*
X102153Y11023D01*
X102118Y10968D01*
X102080Y10917D01*
X102039Y10867D01*
X101995Y10820D01*
X101948Y10776D01*
X101898Y10735D01*
X101847Y10697D01*
X101792Y10662D01*
X101736Y10630D01*
X101679Y10602D01*
X101619Y10577D01*
X101558Y10556D01*
X101496Y10539D01*
X101433Y10525D01*
X101369Y10516D01*
X101305Y10510D01*
X101241Y10508D01*
X99870Y10508D01*
X99870Y13250D01*
X99872Y13310D01*
X99878Y13369D01*
X99888Y13428D01*
X99901Y13487D01*
X99919Y13544D01*
X99940Y13600D01*
X99964Y13654D01*
X99992Y13707D01*
X100024Y13758D01*
X100059Y13806D01*
X100097Y13853D01*
X100138Y13896D01*
X100181Y13937D01*
X100228Y13975D01*
X100276Y14010D01*
X100327Y14042D01*
X100380Y14070D01*
X100434Y14094D01*
X100490Y14115D01*
X100547Y14133D01*
X100606Y14146D01*
X100665Y14156D01*
X100724Y14162D01*
X100784Y14164D01*
X102002Y14164D01*
X96752Y14164D02*
X96752Y10508D01*
X96752Y14164D02*
X94924Y14164D01*
X94924Y13555D01*
X92883Y11422D02*
X92883Y15992D01*
X92883Y11422D02*
X92881Y11362D01*
X92875Y11303D01*
X92865Y11244D01*
X92852Y11185D01*
X92834Y11128D01*
X92813Y11072D01*
X92789Y11018D01*
X92761Y10965D01*
X92729Y10914D01*
X92694Y10866D01*
X92656Y10819D01*
X92615Y10776D01*
X92572Y10735D01*
X92525Y10697D01*
X92477Y10662D01*
X92426Y10630D01*
X92373Y10602D01*
X92319Y10578D01*
X92263Y10557D01*
X92206Y10539D01*
X92147Y10526D01*
X92088Y10516D01*
X92029Y10510D01*
X91969Y10508D01*
X88761Y12641D02*
X87390Y12641D01*
X88761Y12640D02*
X88825Y12638D01*
X88889Y12632D01*
X88953Y12623D01*
X89016Y12609D01*
X89078Y12592D01*
X89139Y12571D01*
X89199Y12546D01*
X89256Y12518D01*
X89312Y12486D01*
X89367Y12451D01*
X89418Y12413D01*
X89468Y12372D01*
X89515Y12328D01*
X89559Y12281D01*
X89600Y12231D01*
X89638Y12180D01*
X89673Y12125D01*
X89705Y12069D01*
X89733Y12012D01*
X89758Y11952D01*
X89779Y11891D01*
X89796Y11829D01*
X89810Y11766D01*
X89819Y11702D01*
X89825Y11638D01*
X89827Y11574D01*
X89825Y11510D01*
X89819Y11446D01*
X89810Y11382D01*
X89796Y11319D01*
X89779Y11257D01*
X89758Y11196D01*
X89733Y11136D01*
X89705Y11079D01*
X89673Y11023D01*
X89638Y10968D01*
X89600Y10917D01*
X89559Y10867D01*
X89515Y10820D01*
X89468Y10776D01*
X89418Y10735D01*
X89367Y10697D01*
X89312Y10662D01*
X89256Y10630D01*
X89199Y10602D01*
X89139Y10577D01*
X89078Y10556D01*
X89016Y10539D01*
X88953Y10525D01*
X88889Y10516D01*
X88825Y10510D01*
X88761Y10508D01*
X87390Y10508D01*
X87390Y13250D01*
X87392Y13310D01*
X87398Y13369D01*
X87408Y13428D01*
X87421Y13487D01*
X87439Y13544D01*
X87460Y13600D01*
X87484Y13654D01*
X87512Y13707D01*
X87544Y13758D01*
X87579Y13806D01*
X87617Y13853D01*
X87658Y13896D01*
X87701Y13937D01*
X87748Y13975D01*
X87796Y14010D01*
X87847Y14042D01*
X87900Y14070D01*
X87954Y14094D01*
X88010Y14115D01*
X88067Y14133D01*
X88126Y14146D01*
X88185Y14156D01*
X88244Y14162D01*
X88304Y14164D01*
X89522Y14164D01*
X84323Y14164D02*
X84323Y10508D01*
X84323Y14164D02*
X82799Y14164D01*
X82739Y14162D01*
X82680Y14156D01*
X82621Y14146D01*
X82562Y14133D01*
X82505Y14115D01*
X82449Y14094D01*
X82395Y14070D01*
X82342Y14042D01*
X82291Y14010D01*
X82243Y13975D01*
X82196Y13937D01*
X82153Y13896D01*
X82112Y13853D01*
X82074Y13806D01*
X82039Y13758D01*
X82007Y13707D01*
X81979Y13654D01*
X81955Y13600D01*
X81934Y13544D01*
X81916Y13487D01*
X81903Y13428D01*
X81893Y13369D01*
X81887Y13310D01*
X81885Y13250D01*
X81885Y10508D01*
X78692Y10508D02*
X78692Y14164D01*
X75950Y14164D01*
X75890Y14162D01*
X75831Y14156D01*
X75772Y14146D01*
X75713Y14133D01*
X75656Y14115D01*
X75600Y14094D01*
X75546Y14070D01*
X75493Y14042D01*
X75442Y14010D01*
X75394Y13975D01*
X75347Y13937D01*
X75304Y13896D01*
X75263Y13853D01*
X75225Y13806D01*
X75190Y13758D01*
X75158Y13707D01*
X75130Y13654D01*
X75106Y13600D01*
X75085Y13544D01*
X75067Y13487D01*
X75054Y13428D01*
X75044Y13369D01*
X75038Y13310D01*
X75036Y13250D01*
X75036Y10508D01*
X76864Y10508D02*
X76864Y14164D01*
X72184Y14164D02*
X72184Y10508D01*
X69241Y12641D02*
X67717Y12031D01*
X69240Y12641D02*
X69291Y12663D01*
X69339Y12688D01*
X69386Y12717D01*
X69430Y12749D01*
X69472Y12784D01*
X69512Y12822D01*
X69549Y12862D01*
X69583Y12905D01*
X69614Y12950D01*
X69642Y12998D01*
X69666Y13047D01*
X69687Y13097D01*
X69704Y13149D01*
X69718Y13202D01*
X69728Y13256D01*
X69734Y13311D01*
X69737Y13366D01*
X69736Y13420D01*
X69731Y13475D01*
X69722Y13529D01*
X69709Y13582D01*
X69693Y13635D01*
X69673Y13686D01*
X69650Y13735D01*
X69623Y13783D01*
X69593Y13829D01*
X69560Y13873D01*
X69524Y13914D01*
X69485Y13953D01*
X69443Y13989D01*
X69400Y14021D01*
X69354Y14051D01*
X69306Y14078D01*
X69256Y14101D01*
X69205Y14121D01*
X69153Y14137D01*
X69099Y14149D01*
X69045Y14158D01*
X68990Y14163D01*
X68936Y14164D01*
X68828Y14160D01*
X68719Y14154D01*
X68611Y14144D01*
X68503Y14130D01*
X68395Y14113D01*
X68289Y14093D01*
X68182Y14069D01*
X68077Y14042D01*
X67972Y14012D01*
X67869Y13979D01*
X67767Y13942D01*
X67665Y13902D01*
X67566Y13859D01*
X67718Y12031D02*
X67667Y12009D01*
X67619Y11984D01*
X67572Y11955D01*
X67528Y11923D01*
X67486Y11888D01*
X67446Y11850D01*
X67409Y11810D01*
X67375Y11767D01*
X67344Y11722D01*
X67316Y11674D01*
X67292Y11625D01*
X67271Y11575D01*
X67254Y11523D01*
X67240Y11470D01*
X67230Y11416D01*
X67224Y11361D01*
X67221Y11306D01*
X67222Y11252D01*
X67227Y11197D01*
X67236Y11143D01*
X67249Y11090D01*
X67265Y11037D01*
X67285Y10986D01*
X67308Y10937D01*
X67335Y10889D01*
X67365Y10843D01*
X67398Y10799D01*
X67434Y10758D01*
X67473Y10719D01*
X67515Y10683D01*
X67558Y10651D01*
X67604Y10621D01*
X67652Y10594D01*
X67702Y10571D01*
X67753Y10551D01*
X67805Y10535D01*
X67859Y10523D01*
X67913Y10514D01*
X67967Y10509D01*
X68022Y10508D01*
X68022Y10509D02*
X68164Y10513D01*
X68307Y10520D01*
X68449Y10532D01*
X68590Y10548D01*
X68732Y10568D01*
X68872Y10591D01*
X69012Y10619D01*
X69151Y10650D01*
X69289Y10685D01*
X69427Y10724D01*
X69563Y10767D01*
X69697Y10813D01*
X68631Y10508D02*
X68631Y9746D01*
X68479Y9746D01*
X68427Y9744D01*
X68376Y9738D01*
X68325Y9729D01*
X68275Y9715D01*
X68226Y9698D01*
X68178Y9677D01*
X68132Y9653D01*
X68088Y9626D01*
X68047Y9595D01*
X68007Y9561D01*
X67971Y9524D01*
X67937Y9485D01*
X67906Y9443D01*
X67878Y9400D01*
X67854Y9354D01*
X67833Y9306D01*
X67816Y9257D01*
X67803Y9207D01*
X67793Y9156D01*
X67787Y9105D01*
X67785Y9053D01*
X67787Y9001D01*
X67793Y8950D01*
X67802Y8899D01*
X67815Y8849D01*
X67833Y8800D01*
X67853Y8752D01*
X67877Y8706D01*
X67905Y8662D01*
X67936Y8620D01*
X67969Y8581D01*
X68006Y8544D01*
X68045Y8510D01*
X68087Y8479D01*
X68131Y8452D01*
X68176Y8427D01*
X68224Y8407D01*
X68273Y8389D01*
X68323Y8376D01*
X68374Y8366D01*
X68425Y8360D01*
X68477Y8358D01*
X68529Y8360D01*
X68580Y8365D01*
X68631Y8375D01*
X65173Y14164D02*
X63345Y14164D01*
X64563Y15992D02*
X64563Y11422D01*
X64561Y11362D01*
X64555Y11303D01*
X64545Y11244D01*
X64532Y11185D01*
X64514Y11128D01*
X64493Y11072D01*
X64469Y11018D01*
X64441Y10965D01*
X64409Y10914D01*
X64374Y10866D01*
X64336Y10819D01*
X64295Y10776D01*
X64252Y10735D01*
X64205Y10697D01*
X64157Y10662D01*
X64106Y10630D01*
X64053Y10602D01*
X63999Y10578D01*
X63943Y10557D01*
X63886Y10539D01*
X63827Y10526D01*
X63768Y10516D01*
X63709Y10510D01*
X63649Y10508D01*
X63345Y10508D01*
X61069Y10508D02*
X61069Y14164D01*
X58337Y14164D02*
X58337Y10508D01*
X58337Y14164D02*
X56509Y14164D01*
X56509Y13555D01*
X54786Y10813D02*
X54786Y10508D01*
X54786Y10813D02*
X54482Y10813D01*
X54482Y10508D01*
X54786Y10508D01*
D12*
X425537Y26611D02*
X429111Y15889D01*
X421963Y15889D02*
X425537Y26611D01*
X422857Y18570D02*
X428218Y18570D01*
X416954Y15889D02*
X416954Y23037D01*
X413380Y23037D01*
X413380Y21846D01*
X409787Y23037D02*
X409787Y15889D01*
X410085Y26015D02*
X410085Y26611D01*
X409489Y26611D01*
X409489Y26015D01*
X410085Y26015D01*
X404485Y26611D02*
X404485Y15889D01*
X404485Y19463D02*
X399719Y23037D01*
X402400Y20952D02*
X399719Y15889D01*
X393290Y20059D02*
X390610Y20059D01*
X393290Y20059D02*
X393380Y20057D01*
X393469Y20051D01*
X393558Y20042D01*
X393647Y20028D01*
X393735Y20011D01*
X393822Y19990D01*
X393909Y19965D01*
X393994Y19937D01*
X394078Y19905D01*
X394160Y19869D01*
X394241Y19830D01*
X394320Y19787D01*
X394397Y19741D01*
X394472Y19692D01*
X394544Y19639D01*
X394615Y19584D01*
X394683Y19525D01*
X394748Y19464D01*
X394811Y19400D01*
X394871Y19333D01*
X394928Y19264D01*
X394982Y19192D01*
X395033Y19118D01*
X395081Y19042D01*
X395125Y18964D01*
X395166Y18884D01*
X395203Y18803D01*
X395237Y18720D01*
X395267Y18635D01*
X395294Y18550D01*
X395317Y18463D01*
X395336Y18375D01*
X395351Y18287D01*
X395363Y18198D01*
X395371Y18109D01*
X395375Y18019D01*
X395375Y17929D01*
X395371Y17839D01*
X395363Y17750D01*
X395351Y17661D01*
X395336Y17573D01*
X395317Y17485D01*
X395294Y17398D01*
X395267Y17313D01*
X395237Y17228D01*
X395203Y17145D01*
X395166Y17064D01*
X395125Y16984D01*
X395081Y16906D01*
X395033Y16830D01*
X394982Y16756D01*
X394928Y16684D01*
X394871Y16615D01*
X394811Y16548D01*
X394748Y16484D01*
X394683Y16423D01*
X394615Y16364D01*
X394544Y16309D01*
X394472Y16256D01*
X394397Y16207D01*
X394320Y16161D01*
X394241Y16118D01*
X394160Y16079D01*
X394078Y16043D01*
X393994Y16011D01*
X393909Y15983D01*
X393822Y15958D01*
X393735Y15937D01*
X393647Y15920D01*
X393558Y15906D01*
X393469Y15897D01*
X393380Y15891D01*
X393290Y15889D01*
X390610Y15889D01*
X390610Y21250D01*
X390612Y21333D01*
X390618Y21415D01*
X390627Y21497D01*
X390640Y21578D01*
X390657Y21659D01*
X390678Y21739D01*
X390703Y21818D01*
X390731Y21896D01*
X390762Y21972D01*
X390797Y22047D01*
X390836Y22120D01*
X390878Y22191D01*
X390923Y22260D01*
X390971Y22327D01*
X391022Y22392D01*
X391076Y22454D01*
X391133Y22514D01*
X391193Y22571D01*
X391255Y22625D01*
X391320Y22676D01*
X391387Y22724D01*
X391456Y22769D01*
X391527Y22811D01*
X391600Y22850D01*
X391675Y22885D01*
X391751Y22916D01*
X391829Y22944D01*
X391908Y22969D01*
X391988Y22990D01*
X392069Y23007D01*
X392150Y23020D01*
X392232Y23029D01*
X392314Y23035D01*
X392397Y23037D01*
X394780Y23037D01*
X385545Y12315D02*
X384353Y12315D01*
X380779Y23037D01*
X385545Y23037D02*
X383162Y15889D01*
X374166Y20059D02*
X371485Y20059D01*
X374166Y20059D02*
X374256Y20057D01*
X374345Y20051D01*
X374434Y20042D01*
X374523Y20028D01*
X374611Y20011D01*
X374698Y19990D01*
X374785Y19965D01*
X374870Y19937D01*
X374954Y19905D01*
X375036Y19869D01*
X375117Y19830D01*
X375196Y19787D01*
X375273Y19741D01*
X375348Y19692D01*
X375420Y19639D01*
X375491Y19584D01*
X375559Y19525D01*
X375624Y19464D01*
X375687Y19400D01*
X375747Y19333D01*
X375804Y19264D01*
X375858Y19192D01*
X375909Y19118D01*
X375957Y19042D01*
X376001Y18964D01*
X376042Y18884D01*
X376079Y18803D01*
X376113Y18720D01*
X376143Y18635D01*
X376170Y18550D01*
X376193Y18463D01*
X376212Y18375D01*
X376227Y18287D01*
X376239Y18198D01*
X376247Y18109D01*
X376251Y18019D01*
X376251Y17929D01*
X376247Y17839D01*
X376239Y17750D01*
X376227Y17661D01*
X376212Y17573D01*
X376193Y17485D01*
X376170Y17398D01*
X376143Y17313D01*
X376113Y17228D01*
X376079Y17145D01*
X376042Y17064D01*
X376001Y16984D01*
X375957Y16906D01*
X375909Y16830D01*
X375858Y16756D01*
X375804Y16684D01*
X375747Y16615D01*
X375687Y16548D01*
X375624Y16484D01*
X375559Y16423D01*
X375491Y16364D01*
X375420Y16309D01*
X375348Y16256D01*
X375273Y16207D01*
X375196Y16161D01*
X375117Y16118D01*
X375036Y16079D01*
X374954Y16043D01*
X374870Y16011D01*
X374785Y15983D01*
X374698Y15958D01*
X374611Y15937D01*
X374523Y15920D01*
X374434Y15906D01*
X374345Y15897D01*
X374256Y15891D01*
X374166Y15889D01*
X371485Y15889D01*
X371485Y21250D01*
X371487Y21333D01*
X371493Y21415D01*
X371502Y21497D01*
X371515Y21578D01*
X371532Y21659D01*
X371553Y21739D01*
X371578Y21818D01*
X371606Y21896D01*
X371637Y21972D01*
X371672Y22047D01*
X371711Y22120D01*
X371753Y22191D01*
X371798Y22260D01*
X371846Y22327D01*
X371897Y22392D01*
X371951Y22454D01*
X372008Y22514D01*
X372068Y22571D01*
X372130Y22625D01*
X372195Y22676D01*
X372262Y22724D01*
X372331Y22769D01*
X372402Y22811D01*
X372475Y22850D01*
X372550Y22885D01*
X372626Y22916D01*
X372704Y22944D01*
X372783Y22969D01*
X372863Y22990D01*
X372944Y23007D01*
X373025Y23020D01*
X373107Y23029D01*
X373189Y23035D01*
X373272Y23037D01*
X375655Y23037D01*
X364041Y20059D02*
X361360Y20059D01*
X364041Y20059D02*
X364131Y20057D01*
X364220Y20051D01*
X364309Y20042D01*
X364398Y20028D01*
X364486Y20011D01*
X364573Y19990D01*
X364660Y19965D01*
X364745Y19937D01*
X364829Y19905D01*
X364911Y19869D01*
X364992Y19830D01*
X365071Y19787D01*
X365148Y19741D01*
X365223Y19692D01*
X365295Y19639D01*
X365366Y19584D01*
X365434Y19525D01*
X365499Y19464D01*
X365562Y19400D01*
X365622Y19333D01*
X365679Y19264D01*
X365733Y19192D01*
X365784Y19118D01*
X365832Y19042D01*
X365876Y18964D01*
X365917Y18884D01*
X365954Y18803D01*
X365988Y18720D01*
X366018Y18635D01*
X366045Y18550D01*
X366068Y18463D01*
X366087Y18375D01*
X366102Y18287D01*
X366114Y18198D01*
X366122Y18109D01*
X366126Y18019D01*
X366126Y17929D01*
X366122Y17839D01*
X366114Y17750D01*
X366102Y17661D01*
X366087Y17573D01*
X366068Y17485D01*
X366045Y17398D01*
X366018Y17313D01*
X365988Y17228D01*
X365954Y17145D01*
X365917Y17064D01*
X365876Y16984D01*
X365832Y16906D01*
X365784Y16830D01*
X365733Y16756D01*
X365679Y16684D01*
X365622Y16615D01*
X365562Y16548D01*
X365499Y16484D01*
X365434Y16423D01*
X365366Y16364D01*
X365295Y16309D01*
X365223Y16256D01*
X365148Y16207D01*
X365071Y16161D01*
X364992Y16118D01*
X364911Y16079D01*
X364829Y16043D01*
X364745Y16011D01*
X364660Y15983D01*
X364573Y15958D01*
X364486Y15937D01*
X364398Y15920D01*
X364309Y15906D01*
X364220Y15897D01*
X364131Y15891D01*
X364041Y15889D01*
X361360Y15889D01*
X361360Y21250D01*
X361362Y21333D01*
X361368Y21415D01*
X361377Y21497D01*
X361390Y21578D01*
X361407Y21659D01*
X361428Y21739D01*
X361453Y21818D01*
X361481Y21896D01*
X361512Y21972D01*
X361547Y22047D01*
X361586Y22120D01*
X361628Y22191D01*
X361673Y22260D01*
X361721Y22327D01*
X361772Y22392D01*
X361826Y22454D01*
X361883Y22514D01*
X361943Y22571D01*
X362005Y22625D01*
X362070Y22676D01*
X362137Y22724D01*
X362206Y22769D01*
X362277Y22811D01*
X362350Y22850D01*
X362425Y22885D01*
X362501Y22916D01*
X362579Y22944D01*
X362658Y22969D01*
X362738Y22990D01*
X362819Y23007D01*
X362900Y23020D01*
X362982Y23029D01*
X363064Y23035D01*
X363147Y23037D01*
X365530Y23037D01*
X353916Y20059D02*
X351235Y20059D01*
X353916Y20059D02*
X354006Y20057D01*
X354095Y20051D01*
X354184Y20042D01*
X354273Y20028D01*
X354361Y20011D01*
X354448Y19990D01*
X354535Y19965D01*
X354620Y19937D01*
X354704Y19905D01*
X354786Y19869D01*
X354867Y19830D01*
X354946Y19787D01*
X355023Y19741D01*
X355098Y19692D01*
X355170Y19639D01*
X355241Y19584D01*
X355309Y19525D01*
X355374Y19464D01*
X355437Y19400D01*
X355497Y19333D01*
X355554Y19264D01*
X355608Y19192D01*
X355659Y19118D01*
X355707Y19042D01*
X355751Y18964D01*
X355792Y18884D01*
X355829Y18803D01*
X355863Y18720D01*
X355893Y18635D01*
X355920Y18550D01*
X355943Y18463D01*
X355962Y18375D01*
X355977Y18287D01*
X355989Y18198D01*
X355997Y18109D01*
X356001Y18019D01*
X356001Y17929D01*
X355997Y17839D01*
X355989Y17750D01*
X355977Y17661D01*
X355962Y17573D01*
X355943Y17485D01*
X355920Y17398D01*
X355893Y17313D01*
X355863Y17228D01*
X355829Y17145D01*
X355792Y17064D01*
X355751Y16984D01*
X355707Y16906D01*
X355659Y16830D01*
X355608Y16756D01*
X355554Y16684D01*
X355497Y16615D01*
X355437Y16548D01*
X355374Y16484D01*
X355309Y16423D01*
X355241Y16364D01*
X355170Y16309D01*
X355098Y16256D01*
X355023Y16207D01*
X354946Y16161D01*
X354867Y16118D01*
X354786Y16079D01*
X354704Y16043D01*
X354620Y16011D01*
X354535Y15983D01*
X354448Y15958D01*
X354361Y15937D01*
X354273Y15920D01*
X354184Y15906D01*
X354095Y15897D01*
X354006Y15891D01*
X353916Y15889D01*
X351235Y15889D01*
X351235Y21250D01*
X351237Y21333D01*
X351243Y21415D01*
X351252Y21497D01*
X351265Y21578D01*
X351282Y21659D01*
X351303Y21739D01*
X351328Y21818D01*
X351356Y21896D01*
X351387Y21972D01*
X351422Y22047D01*
X351461Y22120D01*
X351503Y22191D01*
X351548Y22260D01*
X351596Y22327D01*
X351647Y22392D01*
X351701Y22454D01*
X351758Y22514D01*
X351818Y22571D01*
X351880Y22625D01*
X351945Y22676D01*
X352012Y22724D01*
X352081Y22769D01*
X352152Y22811D01*
X352225Y22850D01*
X352300Y22885D01*
X352376Y22916D01*
X352454Y22944D01*
X352533Y22969D01*
X352613Y22990D01*
X352694Y23007D01*
X352775Y23020D01*
X352857Y23029D01*
X352939Y23035D01*
X353022Y23037D01*
X355405Y23037D01*
D13*
X136590Y65550D02*
X136590Y141750D01*
X125160Y153180D01*
X136590Y65550D02*
X93410Y65550D01*
X93410Y141750D01*
X104840Y153180D01*
X125160Y153180D01*
D14*
X92884Y66820D02*
X92886Y66904D01*
X92892Y66988D01*
X92902Y67072D01*
X92915Y67155D01*
X92933Y67237D01*
X92955Y67319D01*
X92980Y67399D01*
X93009Y67478D01*
X93042Y67556D01*
X93078Y67632D01*
X93118Y67706D01*
X93161Y67778D01*
X93207Y67848D01*
X93257Y67916D01*
X93310Y67982D01*
X93366Y68045D01*
X93425Y68105D01*
X93487Y68162D01*
X93551Y68217D01*
X93618Y68268D01*
X93687Y68316D01*
X93758Y68361D01*
X93831Y68403D01*
X93906Y68441D01*
X93983Y68475D01*
X94061Y68506D01*
X94141Y68533D01*
X94222Y68557D01*
X94304Y68576D01*
X94387Y68592D01*
X94470Y68604D01*
X94554Y68612D01*
X94638Y68616D01*
X94722Y68616D01*
X94806Y68612D01*
X94890Y68604D01*
X94973Y68592D01*
X95056Y68576D01*
X95138Y68557D01*
X95219Y68533D01*
X95299Y68506D01*
X95377Y68475D01*
X95454Y68441D01*
X95529Y68403D01*
X95602Y68361D01*
X95673Y68316D01*
X95742Y68268D01*
X95809Y68217D01*
X95873Y68162D01*
X95935Y68105D01*
X95994Y68045D01*
X96050Y67982D01*
X96103Y67916D01*
X96153Y67848D01*
X96199Y67778D01*
X96242Y67706D01*
X96282Y67632D01*
X96318Y67556D01*
X96351Y67478D01*
X96380Y67399D01*
X96405Y67319D01*
X96427Y67237D01*
X96445Y67155D01*
X96458Y67072D01*
X96468Y66988D01*
X96474Y66904D01*
X96476Y66820D01*
X96474Y66736D01*
X96468Y66652D01*
X96458Y66568D01*
X96445Y66485D01*
X96427Y66403D01*
X96405Y66321D01*
X96380Y66241D01*
X96351Y66162D01*
X96318Y66084D01*
X96282Y66008D01*
X96242Y65934D01*
X96199Y65862D01*
X96153Y65792D01*
X96103Y65724D01*
X96050Y65658D01*
X95994Y65595D01*
X95935Y65535D01*
X95873Y65478D01*
X95809Y65423D01*
X95742Y65372D01*
X95673Y65324D01*
X95602Y65279D01*
X95529Y65237D01*
X95454Y65199D01*
X95377Y65165D01*
X95299Y65134D01*
X95219Y65107D01*
X95138Y65083D01*
X95056Y65064D01*
X94973Y65048D01*
X94890Y65036D01*
X94806Y65028D01*
X94722Y65024D01*
X94638Y65024D01*
X94554Y65028D01*
X94470Y65036D01*
X94387Y65048D01*
X94304Y65064D01*
X94222Y65083D01*
X94141Y65107D01*
X94061Y65134D01*
X93983Y65165D01*
X93906Y65199D01*
X93831Y65237D01*
X93758Y65279D01*
X93687Y65324D01*
X93618Y65372D01*
X93551Y65423D01*
X93487Y65478D01*
X93425Y65535D01*
X93366Y65595D01*
X93310Y65658D01*
X93257Y65724D01*
X93207Y65792D01*
X93161Y65862D01*
X93118Y65934D01*
X93078Y66008D01*
X93042Y66084D01*
X93009Y66162D01*
X92980Y66241D01*
X92955Y66321D01*
X92933Y66403D01*
X92915Y66485D01*
X92902Y66568D01*
X92892Y66652D01*
X92886Y66736D01*
X92884Y66820D01*
X89444Y107460D02*
X89446Y107604D01*
X89452Y107748D01*
X89462Y107892D01*
X89476Y108036D01*
X89494Y108179D01*
X89515Y108322D01*
X89541Y108464D01*
X89571Y108605D01*
X89604Y108745D01*
X89642Y108885D01*
X89683Y109023D01*
X89728Y109160D01*
X89776Y109296D01*
X89829Y109430D01*
X89885Y109563D01*
X89945Y109695D01*
X90008Y109824D01*
X90075Y109952D01*
X90145Y110078D01*
X90219Y110202D01*
X90297Y110324D01*
X90377Y110444D01*
X90461Y110561D01*
X90548Y110676D01*
X90638Y110789D01*
X90731Y110899D01*
X90828Y111006D01*
X90927Y111111D01*
X91029Y111213D01*
X91134Y111312D01*
X91241Y111409D01*
X91351Y111502D01*
X91464Y111592D01*
X91579Y111679D01*
X91696Y111763D01*
X91816Y111843D01*
X91938Y111921D01*
X92062Y111995D01*
X92188Y112065D01*
X92316Y112132D01*
X92445Y112195D01*
X92577Y112255D01*
X92710Y112311D01*
X92844Y112364D01*
X92980Y112412D01*
X93117Y112457D01*
X93255Y112498D01*
X93395Y112536D01*
X93535Y112569D01*
X93676Y112599D01*
X93818Y112625D01*
X93961Y112646D01*
X94104Y112664D01*
X94248Y112678D01*
X94392Y112688D01*
X94536Y112694D01*
X94680Y112696D01*
X94824Y112694D01*
X94968Y112688D01*
X95112Y112678D01*
X95256Y112664D01*
X95399Y112646D01*
X95542Y112625D01*
X95684Y112599D01*
X95825Y112569D01*
X95965Y112536D01*
X96105Y112498D01*
X96243Y112457D01*
X96380Y112412D01*
X96516Y112364D01*
X96650Y112311D01*
X96783Y112255D01*
X96915Y112195D01*
X97044Y112132D01*
X97172Y112065D01*
X97298Y111995D01*
X97422Y111921D01*
X97544Y111843D01*
X97664Y111763D01*
X97781Y111679D01*
X97896Y111592D01*
X98009Y111502D01*
X98119Y111409D01*
X98226Y111312D01*
X98331Y111213D01*
X98433Y111111D01*
X98532Y111006D01*
X98629Y110899D01*
X98722Y110789D01*
X98812Y110676D01*
X98899Y110561D01*
X98983Y110444D01*
X99063Y110324D01*
X99141Y110202D01*
X99215Y110078D01*
X99285Y109952D01*
X99352Y109824D01*
X99415Y109695D01*
X99475Y109563D01*
X99531Y109430D01*
X99584Y109296D01*
X99632Y109160D01*
X99677Y109023D01*
X99718Y108885D01*
X99756Y108745D01*
X99789Y108605D01*
X99819Y108464D01*
X99845Y108322D01*
X99866Y108179D01*
X99884Y108036D01*
X99898Y107892D01*
X99908Y107748D01*
X99914Y107604D01*
X99916Y107460D01*
X99914Y107316D01*
X99908Y107172D01*
X99898Y107028D01*
X99884Y106884D01*
X99866Y106741D01*
X99845Y106598D01*
X99819Y106456D01*
X99789Y106315D01*
X99756Y106175D01*
X99718Y106035D01*
X99677Y105897D01*
X99632Y105760D01*
X99584Y105624D01*
X99531Y105490D01*
X99475Y105357D01*
X99415Y105225D01*
X99352Y105096D01*
X99285Y104968D01*
X99215Y104842D01*
X99141Y104718D01*
X99063Y104596D01*
X98983Y104476D01*
X98899Y104359D01*
X98812Y104244D01*
X98722Y104131D01*
X98629Y104021D01*
X98532Y103914D01*
X98433Y103809D01*
X98331Y103707D01*
X98226Y103608D01*
X98119Y103511D01*
X98009Y103418D01*
X97896Y103328D01*
X97781Y103241D01*
X97664Y103157D01*
X97544Y103077D01*
X97422Y102999D01*
X97298Y102925D01*
X97172Y102855D01*
X97044Y102788D01*
X96915Y102725D01*
X96783Y102665D01*
X96650Y102609D01*
X96516Y102556D01*
X96380Y102508D01*
X96243Y102463D01*
X96105Y102422D01*
X95965Y102384D01*
X95825Y102351D01*
X95684Y102321D01*
X95542Y102295D01*
X95399Y102274D01*
X95256Y102256D01*
X95112Y102242D01*
X94968Y102232D01*
X94824Y102226D01*
X94680Y102224D01*
X94536Y102226D01*
X94392Y102232D01*
X94248Y102242D01*
X94104Y102256D01*
X93961Y102274D01*
X93818Y102295D01*
X93676Y102321D01*
X93535Y102351D01*
X93395Y102384D01*
X93255Y102422D01*
X93117Y102463D01*
X92980Y102508D01*
X92844Y102556D01*
X92710Y102609D01*
X92577Y102665D01*
X92445Y102725D01*
X92316Y102788D01*
X92188Y102855D01*
X92062Y102925D01*
X91938Y102999D01*
X91816Y103077D01*
X91696Y103157D01*
X91579Y103241D01*
X91464Y103328D01*
X91351Y103418D01*
X91241Y103511D01*
X91134Y103608D01*
X91029Y103707D01*
X90927Y103809D01*
X90828Y103914D01*
X90731Y104021D01*
X90638Y104131D01*
X90548Y104244D01*
X90461Y104359D01*
X90377Y104476D01*
X90297Y104596D01*
X90219Y104718D01*
X90145Y104842D01*
X90075Y104968D01*
X90008Y105096D01*
X89945Y105225D01*
X89885Y105357D01*
X89829Y105490D01*
X89776Y105624D01*
X89728Y105760D01*
X89683Y105897D01*
X89642Y106035D01*
X89604Y106175D01*
X89571Y106315D01*
X89541Y106456D01*
X89515Y106598D01*
X89494Y106741D01*
X89476Y106884D01*
X89462Y107028D01*
X89452Y107172D01*
X89446Y107316D01*
X89444Y107460D01*
X130084Y107460D02*
X130086Y107604D01*
X130092Y107748D01*
X130102Y107892D01*
X130116Y108036D01*
X130134Y108179D01*
X130155Y108322D01*
X130181Y108464D01*
X130211Y108605D01*
X130244Y108745D01*
X130282Y108885D01*
X130323Y109023D01*
X130368Y109160D01*
X130416Y109296D01*
X130469Y109430D01*
X130525Y109563D01*
X130585Y109695D01*
X130648Y109824D01*
X130715Y109952D01*
X130785Y110078D01*
X130859Y110202D01*
X130937Y110324D01*
X131017Y110444D01*
X131101Y110561D01*
X131188Y110676D01*
X131278Y110789D01*
X131371Y110899D01*
X131468Y111006D01*
X131567Y111111D01*
X131669Y111213D01*
X131774Y111312D01*
X131881Y111409D01*
X131991Y111502D01*
X132104Y111592D01*
X132219Y111679D01*
X132336Y111763D01*
X132456Y111843D01*
X132578Y111921D01*
X132702Y111995D01*
X132828Y112065D01*
X132956Y112132D01*
X133085Y112195D01*
X133217Y112255D01*
X133350Y112311D01*
X133484Y112364D01*
X133620Y112412D01*
X133757Y112457D01*
X133895Y112498D01*
X134035Y112536D01*
X134175Y112569D01*
X134316Y112599D01*
X134458Y112625D01*
X134601Y112646D01*
X134744Y112664D01*
X134888Y112678D01*
X135032Y112688D01*
X135176Y112694D01*
X135320Y112696D01*
X135464Y112694D01*
X135608Y112688D01*
X135752Y112678D01*
X135896Y112664D01*
X136039Y112646D01*
X136182Y112625D01*
X136324Y112599D01*
X136465Y112569D01*
X136605Y112536D01*
X136745Y112498D01*
X136883Y112457D01*
X137020Y112412D01*
X137156Y112364D01*
X137290Y112311D01*
X137423Y112255D01*
X137555Y112195D01*
X137684Y112132D01*
X137812Y112065D01*
X137938Y111995D01*
X138062Y111921D01*
X138184Y111843D01*
X138304Y111763D01*
X138421Y111679D01*
X138536Y111592D01*
X138649Y111502D01*
X138759Y111409D01*
X138866Y111312D01*
X138971Y111213D01*
X139073Y111111D01*
X139172Y111006D01*
X139269Y110899D01*
X139362Y110789D01*
X139452Y110676D01*
X139539Y110561D01*
X139623Y110444D01*
X139703Y110324D01*
X139781Y110202D01*
X139855Y110078D01*
X139925Y109952D01*
X139992Y109824D01*
X140055Y109695D01*
X140115Y109563D01*
X140171Y109430D01*
X140224Y109296D01*
X140272Y109160D01*
X140317Y109023D01*
X140358Y108885D01*
X140396Y108745D01*
X140429Y108605D01*
X140459Y108464D01*
X140485Y108322D01*
X140506Y108179D01*
X140524Y108036D01*
X140538Y107892D01*
X140548Y107748D01*
X140554Y107604D01*
X140556Y107460D01*
X140554Y107316D01*
X140548Y107172D01*
X140538Y107028D01*
X140524Y106884D01*
X140506Y106741D01*
X140485Y106598D01*
X140459Y106456D01*
X140429Y106315D01*
X140396Y106175D01*
X140358Y106035D01*
X140317Y105897D01*
X140272Y105760D01*
X140224Y105624D01*
X140171Y105490D01*
X140115Y105357D01*
X140055Y105225D01*
X139992Y105096D01*
X139925Y104968D01*
X139855Y104842D01*
X139781Y104718D01*
X139703Y104596D01*
X139623Y104476D01*
X139539Y104359D01*
X139452Y104244D01*
X139362Y104131D01*
X139269Y104021D01*
X139172Y103914D01*
X139073Y103809D01*
X138971Y103707D01*
X138866Y103608D01*
X138759Y103511D01*
X138649Y103418D01*
X138536Y103328D01*
X138421Y103241D01*
X138304Y103157D01*
X138184Y103077D01*
X138062Y102999D01*
X137938Y102925D01*
X137812Y102855D01*
X137684Y102788D01*
X137555Y102725D01*
X137423Y102665D01*
X137290Y102609D01*
X137156Y102556D01*
X137020Y102508D01*
X136883Y102463D01*
X136745Y102422D01*
X136605Y102384D01*
X136465Y102351D01*
X136324Y102321D01*
X136182Y102295D01*
X136039Y102274D01*
X135896Y102256D01*
X135752Y102242D01*
X135608Y102232D01*
X135464Y102226D01*
X135320Y102224D01*
X135176Y102226D01*
X135032Y102232D01*
X134888Y102242D01*
X134744Y102256D01*
X134601Y102274D01*
X134458Y102295D01*
X134316Y102321D01*
X134175Y102351D01*
X134035Y102384D01*
X133895Y102422D01*
X133757Y102463D01*
X133620Y102508D01*
X133484Y102556D01*
X133350Y102609D01*
X133217Y102665D01*
X133085Y102725D01*
X132956Y102788D01*
X132828Y102855D01*
X132702Y102925D01*
X132578Y102999D01*
X132456Y103077D01*
X132336Y103157D01*
X132219Y103241D01*
X132104Y103328D01*
X131991Y103418D01*
X131881Y103511D01*
X131774Y103608D01*
X131669Y103707D01*
X131567Y103809D01*
X131468Y103914D01*
X131371Y104021D01*
X131278Y104131D01*
X131188Y104244D01*
X131101Y104359D01*
X131017Y104476D01*
X130937Y104596D01*
X130859Y104718D01*
X130785Y104842D01*
X130715Y104968D01*
X130648Y105096D01*
X130585Y105225D01*
X130525Y105357D01*
X130469Y105490D01*
X130416Y105624D01*
X130368Y105760D01*
X130323Y105897D01*
X130282Y106035D01*
X130244Y106175D01*
X130211Y106315D01*
X130181Y106456D01*
X130155Y106598D01*
X130134Y106741D01*
X130116Y106884D01*
X130102Y107028D01*
X130092Y107172D01*
X130086Y107316D01*
X130084Y107460D01*
D11*
X119892Y156308D02*
X119892Y167992D01*
X119892Y156308D02*
X114699Y156308D01*
D13*
X276590Y141750D02*
X276590Y65550D01*
X276590Y141750D02*
X265160Y153180D01*
X276590Y65550D02*
X233410Y65550D01*
X233410Y141750D01*
X244840Y153180D01*
X265160Y153180D01*
D14*
X232884Y66820D02*
X232886Y66904D01*
X232892Y66988D01*
X232902Y67072D01*
X232915Y67155D01*
X232933Y67237D01*
X232955Y67319D01*
X232980Y67399D01*
X233009Y67478D01*
X233042Y67556D01*
X233078Y67632D01*
X233118Y67706D01*
X233161Y67778D01*
X233207Y67848D01*
X233257Y67916D01*
X233310Y67982D01*
X233366Y68045D01*
X233425Y68105D01*
X233487Y68162D01*
X233551Y68217D01*
X233618Y68268D01*
X233687Y68316D01*
X233758Y68361D01*
X233831Y68403D01*
X233906Y68441D01*
X233983Y68475D01*
X234061Y68506D01*
X234141Y68533D01*
X234222Y68557D01*
X234304Y68576D01*
X234387Y68592D01*
X234470Y68604D01*
X234554Y68612D01*
X234638Y68616D01*
X234722Y68616D01*
X234806Y68612D01*
X234890Y68604D01*
X234973Y68592D01*
X235056Y68576D01*
X235138Y68557D01*
X235219Y68533D01*
X235299Y68506D01*
X235377Y68475D01*
X235454Y68441D01*
X235529Y68403D01*
X235602Y68361D01*
X235673Y68316D01*
X235742Y68268D01*
X235809Y68217D01*
X235873Y68162D01*
X235935Y68105D01*
X235994Y68045D01*
X236050Y67982D01*
X236103Y67916D01*
X236153Y67848D01*
X236199Y67778D01*
X236242Y67706D01*
X236282Y67632D01*
X236318Y67556D01*
X236351Y67478D01*
X236380Y67399D01*
X236405Y67319D01*
X236427Y67237D01*
X236445Y67155D01*
X236458Y67072D01*
X236468Y66988D01*
X236474Y66904D01*
X236476Y66820D01*
X236474Y66736D01*
X236468Y66652D01*
X236458Y66568D01*
X236445Y66485D01*
X236427Y66403D01*
X236405Y66321D01*
X236380Y66241D01*
X236351Y66162D01*
X236318Y66084D01*
X236282Y66008D01*
X236242Y65934D01*
X236199Y65862D01*
X236153Y65792D01*
X236103Y65724D01*
X236050Y65658D01*
X235994Y65595D01*
X235935Y65535D01*
X235873Y65478D01*
X235809Y65423D01*
X235742Y65372D01*
X235673Y65324D01*
X235602Y65279D01*
X235529Y65237D01*
X235454Y65199D01*
X235377Y65165D01*
X235299Y65134D01*
X235219Y65107D01*
X235138Y65083D01*
X235056Y65064D01*
X234973Y65048D01*
X234890Y65036D01*
X234806Y65028D01*
X234722Y65024D01*
X234638Y65024D01*
X234554Y65028D01*
X234470Y65036D01*
X234387Y65048D01*
X234304Y65064D01*
X234222Y65083D01*
X234141Y65107D01*
X234061Y65134D01*
X233983Y65165D01*
X233906Y65199D01*
X233831Y65237D01*
X233758Y65279D01*
X233687Y65324D01*
X233618Y65372D01*
X233551Y65423D01*
X233487Y65478D01*
X233425Y65535D01*
X233366Y65595D01*
X233310Y65658D01*
X233257Y65724D01*
X233207Y65792D01*
X233161Y65862D01*
X233118Y65934D01*
X233078Y66008D01*
X233042Y66084D01*
X233009Y66162D01*
X232980Y66241D01*
X232955Y66321D01*
X232933Y66403D01*
X232915Y66485D01*
X232902Y66568D01*
X232892Y66652D01*
X232886Y66736D01*
X232884Y66820D01*
X229444Y107460D02*
X229446Y107604D01*
X229452Y107748D01*
X229462Y107892D01*
X229476Y108036D01*
X229494Y108179D01*
X229515Y108322D01*
X229541Y108464D01*
X229571Y108605D01*
X229604Y108745D01*
X229642Y108885D01*
X229683Y109023D01*
X229728Y109160D01*
X229776Y109296D01*
X229829Y109430D01*
X229885Y109563D01*
X229945Y109695D01*
X230008Y109824D01*
X230075Y109952D01*
X230145Y110078D01*
X230219Y110202D01*
X230297Y110324D01*
X230377Y110444D01*
X230461Y110561D01*
X230548Y110676D01*
X230638Y110789D01*
X230731Y110899D01*
X230828Y111006D01*
X230927Y111111D01*
X231029Y111213D01*
X231134Y111312D01*
X231241Y111409D01*
X231351Y111502D01*
X231464Y111592D01*
X231579Y111679D01*
X231696Y111763D01*
X231816Y111843D01*
X231938Y111921D01*
X232062Y111995D01*
X232188Y112065D01*
X232316Y112132D01*
X232445Y112195D01*
X232577Y112255D01*
X232710Y112311D01*
X232844Y112364D01*
X232980Y112412D01*
X233117Y112457D01*
X233255Y112498D01*
X233395Y112536D01*
X233535Y112569D01*
X233676Y112599D01*
X233818Y112625D01*
X233961Y112646D01*
X234104Y112664D01*
X234248Y112678D01*
X234392Y112688D01*
X234536Y112694D01*
X234680Y112696D01*
X234824Y112694D01*
X234968Y112688D01*
X235112Y112678D01*
X235256Y112664D01*
X235399Y112646D01*
X235542Y112625D01*
X235684Y112599D01*
X235825Y112569D01*
X235965Y112536D01*
X236105Y112498D01*
X236243Y112457D01*
X236380Y112412D01*
X236516Y112364D01*
X236650Y112311D01*
X236783Y112255D01*
X236915Y112195D01*
X237044Y112132D01*
X237172Y112065D01*
X237298Y111995D01*
X237422Y111921D01*
X237544Y111843D01*
X237664Y111763D01*
X237781Y111679D01*
X237896Y111592D01*
X238009Y111502D01*
X238119Y111409D01*
X238226Y111312D01*
X238331Y111213D01*
X238433Y111111D01*
X238532Y111006D01*
X238629Y110899D01*
X238722Y110789D01*
X238812Y110676D01*
X238899Y110561D01*
X238983Y110444D01*
X239063Y110324D01*
X239141Y110202D01*
X239215Y110078D01*
X239285Y109952D01*
X239352Y109824D01*
X239415Y109695D01*
X239475Y109563D01*
X239531Y109430D01*
X239584Y109296D01*
X239632Y109160D01*
X239677Y109023D01*
X239718Y108885D01*
X239756Y108745D01*
X239789Y108605D01*
X239819Y108464D01*
X239845Y108322D01*
X239866Y108179D01*
X239884Y108036D01*
X239898Y107892D01*
X239908Y107748D01*
X239914Y107604D01*
X239916Y107460D01*
X239914Y107316D01*
X239908Y107172D01*
X239898Y107028D01*
X239884Y106884D01*
X239866Y106741D01*
X239845Y106598D01*
X239819Y106456D01*
X239789Y106315D01*
X239756Y106175D01*
X239718Y106035D01*
X239677Y105897D01*
X239632Y105760D01*
X239584Y105624D01*
X239531Y105490D01*
X239475Y105357D01*
X239415Y105225D01*
X239352Y105096D01*
X239285Y104968D01*
X239215Y104842D01*
X239141Y104718D01*
X239063Y104596D01*
X238983Y104476D01*
X238899Y104359D01*
X238812Y104244D01*
X238722Y104131D01*
X238629Y104021D01*
X238532Y103914D01*
X238433Y103809D01*
X238331Y103707D01*
X238226Y103608D01*
X238119Y103511D01*
X238009Y103418D01*
X237896Y103328D01*
X237781Y103241D01*
X237664Y103157D01*
X237544Y103077D01*
X237422Y102999D01*
X237298Y102925D01*
X237172Y102855D01*
X237044Y102788D01*
X236915Y102725D01*
X236783Y102665D01*
X236650Y102609D01*
X236516Y102556D01*
X236380Y102508D01*
X236243Y102463D01*
X236105Y102422D01*
X235965Y102384D01*
X235825Y102351D01*
X235684Y102321D01*
X235542Y102295D01*
X235399Y102274D01*
X235256Y102256D01*
X235112Y102242D01*
X234968Y102232D01*
X234824Y102226D01*
X234680Y102224D01*
X234536Y102226D01*
X234392Y102232D01*
X234248Y102242D01*
X234104Y102256D01*
X233961Y102274D01*
X233818Y102295D01*
X233676Y102321D01*
X233535Y102351D01*
X233395Y102384D01*
X233255Y102422D01*
X233117Y102463D01*
X232980Y102508D01*
X232844Y102556D01*
X232710Y102609D01*
X232577Y102665D01*
X232445Y102725D01*
X232316Y102788D01*
X232188Y102855D01*
X232062Y102925D01*
X231938Y102999D01*
X231816Y103077D01*
X231696Y103157D01*
X231579Y103241D01*
X231464Y103328D01*
X231351Y103418D01*
X231241Y103511D01*
X231134Y103608D01*
X231029Y103707D01*
X230927Y103809D01*
X230828Y103914D01*
X230731Y104021D01*
X230638Y104131D01*
X230548Y104244D01*
X230461Y104359D01*
X230377Y104476D01*
X230297Y104596D01*
X230219Y104718D01*
X230145Y104842D01*
X230075Y104968D01*
X230008Y105096D01*
X229945Y105225D01*
X229885Y105357D01*
X229829Y105490D01*
X229776Y105624D01*
X229728Y105760D01*
X229683Y105897D01*
X229642Y106035D01*
X229604Y106175D01*
X229571Y106315D01*
X229541Y106456D01*
X229515Y106598D01*
X229494Y106741D01*
X229476Y106884D01*
X229462Y107028D01*
X229452Y107172D01*
X229446Y107316D01*
X229444Y107460D01*
X270084Y107460D02*
X270086Y107604D01*
X270092Y107748D01*
X270102Y107892D01*
X270116Y108036D01*
X270134Y108179D01*
X270155Y108322D01*
X270181Y108464D01*
X270211Y108605D01*
X270244Y108745D01*
X270282Y108885D01*
X270323Y109023D01*
X270368Y109160D01*
X270416Y109296D01*
X270469Y109430D01*
X270525Y109563D01*
X270585Y109695D01*
X270648Y109824D01*
X270715Y109952D01*
X270785Y110078D01*
X270859Y110202D01*
X270937Y110324D01*
X271017Y110444D01*
X271101Y110561D01*
X271188Y110676D01*
X271278Y110789D01*
X271371Y110899D01*
X271468Y111006D01*
X271567Y111111D01*
X271669Y111213D01*
X271774Y111312D01*
X271881Y111409D01*
X271991Y111502D01*
X272104Y111592D01*
X272219Y111679D01*
X272336Y111763D01*
X272456Y111843D01*
X272578Y111921D01*
X272702Y111995D01*
X272828Y112065D01*
X272956Y112132D01*
X273085Y112195D01*
X273217Y112255D01*
X273350Y112311D01*
X273484Y112364D01*
X273620Y112412D01*
X273757Y112457D01*
X273895Y112498D01*
X274035Y112536D01*
X274175Y112569D01*
X274316Y112599D01*
X274458Y112625D01*
X274601Y112646D01*
X274744Y112664D01*
X274888Y112678D01*
X275032Y112688D01*
X275176Y112694D01*
X275320Y112696D01*
X275464Y112694D01*
X275608Y112688D01*
X275752Y112678D01*
X275896Y112664D01*
X276039Y112646D01*
X276182Y112625D01*
X276324Y112599D01*
X276465Y112569D01*
X276605Y112536D01*
X276745Y112498D01*
X276883Y112457D01*
X277020Y112412D01*
X277156Y112364D01*
X277290Y112311D01*
X277423Y112255D01*
X277555Y112195D01*
X277684Y112132D01*
X277812Y112065D01*
X277938Y111995D01*
X278062Y111921D01*
X278184Y111843D01*
X278304Y111763D01*
X278421Y111679D01*
X278536Y111592D01*
X278649Y111502D01*
X278759Y111409D01*
X278866Y111312D01*
X278971Y111213D01*
X279073Y111111D01*
X279172Y111006D01*
X279269Y110899D01*
X279362Y110789D01*
X279452Y110676D01*
X279539Y110561D01*
X279623Y110444D01*
X279703Y110324D01*
X279781Y110202D01*
X279855Y110078D01*
X279925Y109952D01*
X279992Y109824D01*
X280055Y109695D01*
X280115Y109563D01*
X280171Y109430D01*
X280224Y109296D01*
X280272Y109160D01*
X280317Y109023D01*
X280358Y108885D01*
X280396Y108745D01*
X280429Y108605D01*
X280459Y108464D01*
X280485Y108322D01*
X280506Y108179D01*
X280524Y108036D01*
X280538Y107892D01*
X280548Y107748D01*
X280554Y107604D01*
X280556Y107460D01*
X280554Y107316D01*
X280548Y107172D01*
X280538Y107028D01*
X280524Y106884D01*
X280506Y106741D01*
X280485Y106598D01*
X280459Y106456D01*
X280429Y106315D01*
X280396Y106175D01*
X280358Y106035D01*
X280317Y105897D01*
X280272Y105760D01*
X280224Y105624D01*
X280171Y105490D01*
X280115Y105357D01*
X280055Y105225D01*
X279992Y105096D01*
X279925Y104968D01*
X279855Y104842D01*
X279781Y104718D01*
X279703Y104596D01*
X279623Y104476D01*
X279539Y104359D01*
X279452Y104244D01*
X279362Y104131D01*
X279269Y104021D01*
X279172Y103914D01*
X279073Y103809D01*
X278971Y103707D01*
X278866Y103608D01*
X278759Y103511D01*
X278649Y103418D01*
X278536Y103328D01*
X278421Y103241D01*
X278304Y103157D01*
X278184Y103077D01*
X278062Y102999D01*
X277938Y102925D01*
X277812Y102855D01*
X277684Y102788D01*
X277555Y102725D01*
X277423Y102665D01*
X277290Y102609D01*
X277156Y102556D01*
X277020Y102508D01*
X276883Y102463D01*
X276745Y102422D01*
X276605Y102384D01*
X276465Y102351D01*
X276324Y102321D01*
X276182Y102295D01*
X276039Y102274D01*
X275896Y102256D01*
X275752Y102242D01*
X275608Y102232D01*
X275464Y102226D01*
X275320Y102224D01*
X275176Y102226D01*
X275032Y102232D01*
X274888Y102242D01*
X274744Y102256D01*
X274601Y102274D01*
X274458Y102295D01*
X274316Y102321D01*
X274175Y102351D01*
X274035Y102384D01*
X273895Y102422D01*
X273757Y102463D01*
X273620Y102508D01*
X273484Y102556D01*
X273350Y102609D01*
X273217Y102665D01*
X273085Y102725D01*
X272956Y102788D01*
X272828Y102855D01*
X272702Y102925D01*
X272578Y102999D01*
X272456Y103077D01*
X272336Y103157D01*
X272219Y103241D01*
X272104Y103328D01*
X271991Y103418D01*
X271881Y103511D01*
X271774Y103608D01*
X271669Y103707D01*
X271567Y103809D01*
X271468Y103914D01*
X271371Y104021D01*
X271278Y104131D01*
X271188Y104244D01*
X271101Y104359D01*
X271017Y104476D01*
X270937Y104596D01*
X270859Y104718D01*
X270785Y104842D01*
X270715Y104968D01*
X270648Y105096D01*
X270585Y105225D01*
X270525Y105357D01*
X270469Y105490D01*
X270416Y105624D01*
X270368Y105760D01*
X270323Y105897D01*
X270282Y106035D01*
X270244Y106175D01*
X270211Y106315D01*
X270181Y106456D01*
X270155Y106598D01*
X270134Y106741D01*
X270116Y106884D01*
X270102Y107028D01*
X270092Y107172D01*
X270086Y107316D01*
X270084Y107460D01*
D11*
X257296Y156308D02*
X254699Y156308D01*
X257296Y156308D02*
X257395Y156310D01*
X257495Y156316D01*
X257594Y156325D01*
X257692Y156338D01*
X257790Y156355D01*
X257888Y156376D01*
X257984Y156401D01*
X258079Y156429D01*
X258173Y156461D01*
X258266Y156496D01*
X258358Y156535D01*
X258448Y156578D01*
X258536Y156623D01*
X258623Y156673D01*
X258707Y156725D01*
X258790Y156781D01*
X258870Y156839D01*
X258948Y156901D01*
X259023Y156966D01*
X259096Y157034D01*
X259166Y157104D01*
X259234Y157177D01*
X259299Y157252D01*
X259361Y157330D01*
X259419Y157410D01*
X259475Y157493D01*
X259527Y157577D01*
X259577Y157664D01*
X259622Y157752D01*
X259665Y157842D01*
X259704Y157934D01*
X259739Y158027D01*
X259771Y158121D01*
X259799Y158216D01*
X259824Y158312D01*
X259845Y158410D01*
X259862Y158508D01*
X259875Y158606D01*
X259884Y158705D01*
X259890Y158805D01*
X259892Y158904D01*
X259892Y165396D01*
X259890Y165495D01*
X259884Y165595D01*
X259875Y165694D01*
X259862Y165792D01*
X259845Y165890D01*
X259824Y165988D01*
X259799Y166084D01*
X259771Y166179D01*
X259739Y166273D01*
X259704Y166366D01*
X259665Y166458D01*
X259622Y166548D01*
X259577Y166636D01*
X259527Y166723D01*
X259475Y166807D01*
X259419Y166890D01*
X259361Y166970D01*
X259299Y167048D01*
X259234Y167123D01*
X259166Y167196D01*
X259096Y167266D01*
X259023Y167334D01*
X258948Y167399D01*
X258870Y167461D01*
X258790Y167519D01*
X258707Y167575D01*
X258623Y167627D01*
X258536Y167677D01*
X258448Y167722D01*
X258358Y167765D01*
X258266Y167804D01*
X258173Y167839D01*
X258079Y167871D01*
X257984Y167899D01*
X257888Y167924D01*
X257790Y167945D01*
X257692Y167962D01*
X257594Y167975D01*
X257495Y167984D01*
X257395Y167990D01*
X257296Y167992D01*
X254699Y167992D01*
D13*
X416590Y141750D02*
X416590Y65550D01*
X416590Y141750D02*
X405160Y153180D01*
X416590Y65550D02*
X373410Y65550D01*
X373410Y141750D01*
X384840Y153180D01*
X405160Y153180D01*
D14*
X372884Y66820D02*
X372886Y66904D01*
X372892Y66988D01*
X372902Y67072D01*
X372915Y67155D01*
X372933Y67237D01*
X372955Y67319D01*
X372980Y67399D01*
X373009Y67478D01*
X373042Y67556D01*
X373078Y67632D01*
X373118Y67706D01*
X373161Y67778D01*
X373207Y67848D01*
X373257Y67916D01*
X373310Y67982D01*
X373366Y68045D01*
X373425Y68105D01*
X373487Y68162D01*
X373551Y68217D01*
X373618Y68268D01*
X373687Y68316D01*
X373758Y68361D01*
X373831Y68403D01*
X373906Y68441D01*
X373983Y68475D01*
X374061Y68506D01*
X374141Y68533D01*
X374222Y68557D01*
X374304Y68576D01*
X374387Y68592D01*
X374470Y68604D01*
X374554Y68612D01*
X374638Y68616D01*
X374722Y68616D01*
X374806Y68612D01*
X374890Y68604D01*
X374973Y68592D01*
X375056Y68576D01*
X375138Y68557D01*
X375219Y68533D01*
X375299Y68506D01*
X375377Y68475D01*
X375454Y68441D01*
X375529Y68403D01*
X375602Y68361D01*
X375673Y68316D01*
X375742Y68268D01*
X375809Y68217D01*
X375873Y68162D01*
X375935Y68105D01*
X375994Y68045D01*
X376050Y67982D01*
X376103Y67916D01*
X376153Y67848D01*
X376199Y67778D01*
X376242Y67706D01*
X376282Y67632D01*
X376318Y67556D01*
X376351Y67478D01*
X376380Y67399D01*
X376405Y67319D01*
X376427Y67237D01*
X376445Y67155D01*
X376458Y67072D01*
X376468Y66988D01*
X376474Y66904D01*
X376476Y66820D01*
X376474Y66736D01*
X376468Y66652D01*
X376458Y66568D01*
X376445Y66485D01*
X376427Y66403D01*
X376405Y66321D01*
X376380Y66241D01*
X376351Y66162D01*
X376318Y66084D01*
X376282Y66008D01*
X376242Y65934D01*
X376199Y65862D01*
X376153Y65792D01*
X376103Y65724D01*
X376050Y65658D01*
X375994Y65595D01*
X375935Y65535D01*
X375873Y65478D01*
X375809Y65423D01*
X375742Y65372D01*
X375673Y65324D01*
X375602Y65279D01*
X375529Y65237D01*
X375454Y65199D01*
X375377Y65165D01*
X375299Y65134D01*
X375219Y65107D01*
X375138Y65083D01*
X375056Y65064D01*
X374973Y65048D01*
X374890Y65036D01*
X374806Y65028D01*
X374722Y65024D01*
X374638Y65024D01*
X374554Y65028D01*
X374470Y65036D01*
X374387Y65048D01*
X374304Y65064D01*
X374222Y65083D01*
X374141Y65107D01*
X374061Y65134D01*
X373983Y65165D01*
X373906Y65199D01*
X373831Y65237D01*
X373758Y65279D01*
X373687Y65324D01*
X373618Y65372D01*
X373551Y65423D01*
X373487Y65478D01*
X373425Y65535D01*
X373366Y65595D01*
X373310Y65658D01*
X373257Y65724D01*
X373207Y65792D01*
X373161Y65862D01*
X373118Y65934D01*
X373078Y66008D01*
X373042Y66084D01*
X373009Y66162D01*
X372980Y66241D01*
X372955Y66321D01*
X372933Y66403D01*
X372915Y66485D01*
X372902Y66568D01*
X372892Y66652D01*
X372886Y66736D01*
X372884Y66820D01*
X369444Y107460D02*
X369446Y107604D01*
X369452Y107748D01*
X369462Y107892D01*
X369476Y108036D01*
X369494Y108179D01*
X369515Y108322D01*
X369541Y108464D01*
X369571Y108605D01*
X369604Y108745D01*
X369642Y108885D01*
X369683Y109023D01*
X369728Y109160D01*
X369776Y109296D01*
X369829Y109430D01*
X369885Y109563D01*
X369945Y109695D01*
X370008Y109824D01*
X370075Y109952D01*
X370145Y110078D01*
X370219Y110202D01*
X370297Y110324D01*
X370377Y110444D01*
X370461Y110561D01*
X370548Y110676D01*
X370638Y110789D01*
X370731Y110899D01*
X370828Y111006D01*
X370927Y111111D01*
X371029Y111213D01*
X371134Y111312D01*
X371241Y111409D01*
X371351Y111502D01*
X371464Y111592D01*
X371579Y111679D01*
X371696Y111763D01*
X371816Y111843D01*
X371938Y111921D01*
X372062Y111995D01*
X372188Y112065D01*
X372316Y112132D01*
X372445Y112195D01*
X372577Y112255D01*
X372710Y112311D01*
X372844Y112364D01*
X372980Y112412D01*
X373117Y112457D01*
X373255Y112498D01*
X373395Y112536D01*
X373535Y112569D01*
X373676Y112599D01*
X373818Y112625D01*
X373961Y112646D01*
X374104Y112664D01*
X374248Y112678D01*
X374392Y112688D01*
X374536Y112694D01*
X374680Y112696D01*
X374824Y112694D01*
X374968Y112688D01*
X375112Y112678D01*
X375256Y112664D01*
X375399Y112646D01*
X375542Y112625D01*
X375684Y112599D01*
X375825Y112569D01*
X375965Y112536D01*
X376105Y112498D01*
X376243Y112457D01*
X376380Y112412D01*
X376516Y112364D01*
X376650Y112311D01*
X376783Y112255D01*
X376915Y112195D01*
X377044Y112132D01*
X377172Y112065D01*
X377298Y111995D01*
X377422Y111921D01*
X377544Y111843D01*
X377664Y111763D01*
X377781Y111679D01*
X377896Y111592D01*
X378009Y111502D01*
X378119Y111409D01*
X378226Y111312D01*
X378331Y111213D01*
X378433Y111111D01*
X378532Y111006D01*
X378629Y110899D01*
X378722Y110789D01*
X378812Y110676D01*
X378899Y110561D01*
X378983Y110444D01*
X379063Y110324D01*
X379141Y110202D01*
X379215Y110078D01*
X379285Y109952D01*
X379352Y109824D01*
X379415Y109695D01*
X379475Y109563D01*
X379531Y109430D01*
X379584Y109296D01*
X379632Y109160D01*
X379677Y109023D01*
X379718Y108885D01*
X379756Y108745D01*
X379789Y108605D01*
X379819Y108464D01*
X379845Y108322D01*
X379866Y108179D01*
X379884Y108036D01*
X379898Y107892D01*
X379908Y107748D01*
X379914Y107604D01*
X379916Y107460D01*
X379914Y107316D01*
X379908Y107172D01*
X379898Y107028D01*
X379884Y106884D01*
X379866Y106741D01*
X379845Y106598D01*
X379819Y106456D01*
X379789Y106315D01*
X379756Y106175D01*
X379718Y106035D01*
X379677Y105897D01*
X379632Y105760D01*
X379584Y105624D01*
X379531Y105490D01*
X379475Y105357D01*
X379415Y105225D01*
X379352Y105096D01*
X379285Y104968D01*
X379215Y104842D01*
X379141Y104718D01*
X379063Y104596D01*
X378983Y104476D01*
X378899Y104359D01*
X378812Y104244D01*
X378722Y104131D01*
X378629Y104021D01*
X378532Y103914D01*
X378433Y103809D01*
X378331Y103707D01*
X378226Y103608D01*
X378119Y103511D01*
X378009Y103418D01*
X377896Y103328D01*
X377781Y103241D01*
X377664Y103157D01*
X377544Y103077D01*
X377422Y102999D01*
X377298Y102925D01*
X377172Y102855D01*
X377044Y102788D01*
X376915Y102725D01*
X376783Y102665D01*
X376650Y102609D01*
X376516Y102556D01*
X376380Y102508D01*
X376243Y102463D01*
X376105Y102422D01*
X375965Y102384D01*
X375825Y102351D01*
X375684Y102321D01*
X375542Y102295D01*
X375399Y102274D01*
X375256Y102256D01*
X375112Y102242D01*
X374968Y102232D01*
X374824Y102226D01*
X374680Y102224D01*
X374536Y102226D01*
X374392Y102232D01*
X374248Y102242D01*
X374104Y102256D01*
X373961Y102274D01*
X373818Y102295D01*
X373676Y102321D01*
X373535Y102351D01*
X373395Y102384D01*
X373255Y102422D01*
X373117Y102463D01*
X372980Y102508D01*
X372844Y102556D01*
X372710Y102609D01*
X372577Y102665D01*
X372445Y102725D01*
X372316Y102788D01*
X372188Y102855D01*
X372062Y102925D01*
X371938Y102999D01*
X371816Y103077D01*
X371696Y103157D01*
X371579Y103241D01*
X371464Y103328D01*
X371351Y103418D01*
X371241Y103511D01*
X371134Y103608D01*
X371029Y103707D01*
X370927Y103809D01*
X370828Y103914D01*
X370731Y104021D01*
X370638Y104131D01*
X370548Y104244D01*
X370461Y104359D01*
X370377Y104476D01*
X370297Y104596D01*
X370219Y104718D01*
X370145Y104842D01*
X370075Y104968D01*
X370008Y105096D01*
X369945Y105225D01*
X369885Y105357D01*
X369829Y105490D01*
X369776Y105624D01*
X369728Y105760D01*
X369683Y105897D01*
X369642Y106035D01*
X369604Y106175D01*
X369571Y106315D01*
X369541Y106456D01*
X369515Y106598D01*
X369494Y106741D01*
X369476Y106884D01*
X369462Y107028D01*
X369452Y107172D01*
X369446Y107316D01*
X369444Y107460D01*
X410084Y107460D02*
X410086Y107604D01*
X410092Y107748D01*
X410102Y107892D01*
X410116Y108036D01*
X410134Y108179D01*
X410155Y108322D01*
X410181Y108464D01*
X410211Y108605D01*
X410244Y108745D01*
X410282Y108885D01*
X410323Y109023D01*
X410368Y109160D01*
X410416Y109296D01*
X410469Y109430D01*
X410525Y109563D01*
X410585Y109695D01*
X410648Y109824D01*
X410715Y109952D01*
X410785Y110078D01*
X410859Y110202D01*
X410937Y110324D01*
X411017Y110444D01*
X411101Y110561D01*
X411188Y110676D01*
X411278Y110789D01*
X411371Y110899D01*
X411468Y111006D01*
X411567Y111111D01*
X411669Y111213D01*
X411774Y111312D01*
X411881Y111409D01*
X411991Y111502D01*
X412104Y111592D01*
X412219Y111679D01*
X412336Y111763D01*
X412456Y111843D01*
X412578Y111921D01*
X412702Y111995D01*
X412828Y112065D01*
X412956Y112132D01*
X413085Y112195D01*
X413217Y112255D01*
X413350Y112311D01*
X413484Y112364D01*
X413620Y112412D01*
X413757Y112457D01*
X413895Y112498D01*
X414035Y112536D01*
X414175Y112569D01*
X414316Y112599D01*
X414458Y112625D01*
X414601Y112646D01*
X414744Y112664D01*
X414888Y112678D01*
X415032Y112688D01*
X415176Y112694D01*
X415320Y112696D01*
X415464Y112694D01*
X415608Y112688D01*
X415752Y112678D01*
X415896Y112664D01*
X416039Y112646D01*
X416182Y112625D01*
X416324Y112599D01*
X416465Y112569D01*
X416605Y112536D01*
X416745Y112498D01*
X416883Y112457D01*
X417020Y112412D01*
X417156Y112364D01*
X417290Y112311D01*
X417423Y112255D01*
X417555Y112195D01*
X417684Y112132D01*
X417812Y112065D01*
X417938Y111995D01*
X418062Y111921D01*
X418184Y111843D01*
X418304Y111763D01*
X418421Y111679D01*
X418536Y111592D01*
X418649Y111502D01*
X418759Y111409D01*
X418866Y111312D01*
X418971Y111213D01*
X419073Y111111D01*
X419172Y111006D01*
X419269Y110899D01*
X419362Y110789D01*
X419452Y110676D01*
X419539Y110561D01*
X419623Y110444D01*
X419703Y110324D01*
X419781Y110202D01*
X419855Y110078D01*
X419925Y109952D01*
X419992Y109824D01*
X420055Y109695D01*
X420115Y109563D01*
X420171Y109430D01*
X420224Y109296D01*
X420272Y109160D01*
X420317Y109023D01*
X420358Y108885D01*
X420396Y108745D01*
X420429Y108605D01*
X420459Y108464D01*
X420485Y108322D01*
X420506Y108179D01*
X420524Y108036D01*
X420538Y107892D01*
X420548Y107748D01*
X420554Y107604D01*
X420556Y107460D01*
X420554Y107316D01*
X420548Y107172D01*
X420538Y107028D01*
X420524Y106884D01*
X420506Y106741D01*
X420485Y106598D01*
X420459Y106456D01*
X420429Y106315D01*
X420396Y106175D01*
X420358Y106035D01*
X420317Y105897D01*
X420272Y105760D01*
X420224Y105624D01*
X420171Y105490D01*
X420115Y105357D01*
X420055Y105225D01*
X419992Y105096D01*
X419925Y104968D01*
X419855Y104842D01*
X419781Y104718D01*
X419703Y104596D01*
X419623Y104476D01*
X419539Y104359D01*
X419452Y104244D01*
X419362Y104131D01*
X419269Y104021D01*
X419172Y103914D01*
X419073Y103809D01*
X418971Y103707D01*
X418866Y103608D01*
X418759Y103511D01*
X418649Y103418D01*
X418536Y103328D01*
X418421Y103241D01*
X418304Y103157D01*
X418184Y103077D01*
X418062Y102999D01*
X417938Y102925D01*
X417812Y102855D01*
X417684Y102788D01*
X417555Y102725D01*
X417423Y102665D01*
X417290Y102609D01*
X417156Y102556D01*
X417020Y102508D01*
X416883Y102463D01*
X416745Y102422D01*
X416605Y102384D01*
X416465Y102351D01*
X416324Y102321D01*
X416182Y102295D01*
X416039Y102274D01*
X415896Y102256D01*
X415752Y102242D01*
X415608Y102232D01*
X415464Y102226D01*
X415320Y102224D01*
X415176Y102226D01*
X415032Y102232D01*
X414888Y102242D01*
X414744Y102256D01*
X414601Y102274D01*
X414458Y102295D01*
X414316Y102321D01*
X414175Y102351D01*
X414035Y102384D01*
X413895Y102422D01*
X413757Y102463D01*
X413620Y102508D01*
X413484Y102556D01*
X413350Y102609D01*
X413217Y102665D01*
X413085Y102725D01*
X412956Y102788D01*
X412828Y102855D01*
X412702Y102925D01*
X412578Y102999D01*
X412456Y103077D01*
X412336Y103157D01*
X412219Y103241D01*
X412104Y103328D01*
X411991Y103418D01*
X411881Y103511D01*
X411774Y103608D01*
X411669Y103707D01*
X411567Y103809D01*
X411468Y103914D01*
X411371Y104021D01*
X411278Y104131D01*
X411188Y104244D01*
X411101Y104359D01*
X411017Y104476D01*
X410937Y104596D01*
X410859Y104718D01*
X410785Y104842D01*
X410715Y104968D01*
X410648Y105096D01*
X410585Y105225D01*
X410525Y105357D01*
X410469Y105490D01*
X410416Y105624D01*
X410368Y105760D01*
X410323Y105897D01*
X410282Y106035D01*
X410244Y106175D01*
X410211Y106315D01*
X410181Y106456D01*
X410155Y106598D01*
X410134Y106741D01*
X410116Y106884D01*
X410102Y107028D01*
X410092Y107172D01*
X410086Y107316D01*
X410084Y107460D01*
D11*
X399892Y156308D02*
X399892Y167992D01*
X396646Y167992D01*
X396533Y167990D01*
X396420Y167984D01*
X396307Y167974D01*
X396194Y167960D01*
X396082Y167943D01*
X395971Y167921D01*
X395861Y167896D01*
X395751Y167866D01*
X395643Y167833D01*
X395536Y167796D01*
X395430Y167756D01*
X395326Y167711D01*
X395223Y167663D01*
X395122Y167612D01*
X395023Y167557D01*
X394926Y167499D01*
X394831Y167437D01*
X394738Y167372D01*
X394648Y167304D01*
X394560Y167233D01*
X394474Y167158D01*
X394391Y167081D01*
X394311Y167001D01*
X394234Y166918D01*
X394159Y166832D01*
X394088Y166744D01*
X394020Y166654D01*
X393955Y166561D01*
X393893Y166466D01*
X393835Y166369D01*
X393780Y166270D01*
X393729Y166169D01*
X393681Y166066D01*
X393636Y165962D01*
X393596Y165856D01*
X393559Y165749D01*
X393526Y165641D01*
X393496Y165531D01*
X393471Y165421D01*
X393449Y165310D01*
X393432Y165198D01*
X393418Y165085D01*
X393408Y164972D01*
X393402Y164859D01*
X393400Y164746D01*
X393402Y164633D01*
X393408Y164520D01*
X393418Y164407D01*
X393432Y164294D01*
X393449Y164182D01*
X393471Y164071D01*
X393496Y163961D01*
X393526Y163851D01*
X393559Y163743D01*
X393596Y163636D01*
X393636Y163530D01*
X393681Y163426D01*
X393729Y163323D01*
X393780Y163222D01*
X393835Y163123D01*
X393893Y163026D01*
X393955Y162931D01*
X394020Y162838D01*
X394088Y162748D01*
X394159Y162660D01*
X394234Y162574D01*
X394311Y162491D01*
X394391Y162411D01*
X394474Y162334D01*
X394560Y162259D01*
X394648Y162188D01*
X394738Y162120D01*
X394831Y162055D01*
X394926Y161993D01*
X395023Y161935D01*
X395122Y161880D01*
X395223Y161829D01*
X395326Y161781D01*
X395430Y161736D01*
X395536Y161696D01*
X395643Y161659D01*
X395751Y161626D01*
X395861Y161596D01*
X395971Y161571D01*
X396082Y161549D01*
X396194Y161532D01*
X396307Y161518D01*
X396420Y161508D01*
X396533Y161502D01*
X396646Y161500D01*
X396646Y161501D02*
X399892Y161501D01*
X395997Y161501D02*
X393401Y156308D01*
M02*
